<?xml version="1.0" encoding="UTF-8"?>
<svg version="1.1" viewBox="0 0 1800 1237.5" xmlns="http://www.w3.org/2000/svg">
 <path d="m548.91 1236.1c-8.3691-2.2632-14.807-5.0311-25.312-10.883-27.355-15.237-34.293-17.524-47.803-15.756-12.942 1.6932-12.676 1.812-34.561-15.455-7.4489-5.8772-12.517-7.7113-24.75-8.9565-12.099-1.2316-15.805-3.4459-30.7-18.34-12.745-12.745-17.917-16.252-30.941-20.981-23.715-8.6105-49.168-41.642-53.112-68.926l-1.1335-7.8395-4.7974-2.3528c-26.289-12.893-41.112-58.233-28.589-87.447l1.7011-3.9684-2.8192-2.6798c-6.7719-6.4372-9.4647-14.319-11.596-33.941-2.0971-19.305-4.2678-27.455-8.5822-32.222-1.4093-1.5572-1.2773-2.1944 1.8517-8.9405 6.9375-14.957 8.8042-26.727 10.073-63.514 1.6645-48.259 5.3164-63.696 18.284-77.291l5.2349-5.4882-6.8493-4.5195c-35.985-23.745-60.468-74.362-57.614-119.11l0.54857-8.6003-4.0641-2.3817c-14.874-8.7169-20.118-21.027-27.297-64.079-6.3231-37.918-7.8048-42.374-25.799-77.589-16.99-33.25-17.026-33.363-17.702-55.781l-0.55163-18.281-3.1245-6.2296c-3.7607-7.4981-11.276-16.981-25.899-32.677-89.993-96.597-140.72-255.4-95.95-300.37l7.3699-7.4028 33.023 0.56894c180.26 3.1056 324.94 58.938 507.87 195.99 117.68 88.17 227.94 198.39 318.28 318.18l9.375 12.431 0.845-2.8453c1.6478-5.5486-0.51967-9.3633-10.602-18.659-16.242-14.975-16.178-24.097 0.26372-37.58 7.5102-6.1585 7.5793-3.898-0.83039-27.148-40.064-110.77-124.46-237.71-184.68-277.78-10.115-6.73-13.285-8.1636-26.454-11.963-22.255-6.4209-34.014-16.969-34.014-30.513 0-10.162 33.781 3.9935 60.469 25.339 78.091 62.46 147.97 167.18 202.72 303.78 1.0333 2.5781 2.3234 4.5928 2.867 4.4771 0.54361-0.11572 5.0024-0.49256 9.9084-0.83742 8.4898-0.59677 8.966-0.74492 9.8731-3.0708 74.941-192.16 147.67-301.45 230.81-346.84 10.875-5.9378 13.045-5.2207 13.045 4.3108 0 13.009-7.6759 20.112-33.08 30.609-32.734 13.526-65.945 53.049-116.68 138.85-35.112 59.384-75.781 151.48-78.703 178.23l-0.52312 4.7886 7.4829 5.3574c15.93 11.405 16.712 23.382 2.4834 38.062-11.812 12.187-13.98 23.575-2.8928 15.197 6.1398-4.6398 11.232-11.627 20.298-27.849 33.626-60.17 140.2-189.09 216.22-261.56 197.32-188.1 380.23-278.07 576.05-283.32l22.06-0.59209 4.0179 4.5646c21.204 24.089 21.855 88.541 1.5144 149.94-15.446 46.623-37.736 88.691-87.091 164.37l-18.513 28.386 1.1251 9.9012c2.2198 19.532-1.0567 33.066-15.138 62.53-14.179 29.669-18.397 45.447-20.461 76.537-3.2033 48.258-6.2572 58.092-21.874 70.436l-4.6673 3.6893-0.2172 20.828c-0.5461 52.374-17.279 90.033-49.412 111.2l-6.2625 4.1261 3.5376 2.5626c11.689 8.4678 16.971 22.398 18.826 49.654 3.0856 45.337 3.2281 46.286 8.8613 58.993 1.7313 3.9053 4.905 11.078 7.0525 15.94 7.5029 16.985 7.7781 21.49 2.0942 34.286-3.6754 8.274-3.7864 9.6692-2.9101 36.562 0.4437 13.616-0.9838 17.981-7.4309 22.726l-2.855 2.1012 1.8567 4.1974c13.857 31.326 1.1091 79.34-24.539 92.424-4.1445 2.1145-4.991 4.9434-6.4547 21.571-1.5339 17.427-3.9103 22.721-17.861 39.792-14.473 17.711-20.684 22.493-30.399 23.403-9.5926 0.899-12.194 3.0334-26.919 22.086-10.861 14.053-14.258 16.231-29.725 19.061-10.014 1.8323-15.327 4.5152-26.37 13.316-12.982 10.346-15.832 11.602-28.739 12.654-15.28 1.2454-19.427 2.9736-48.913 20.382-19.245 11.363-23.971 12.845-37.661 11.811-21.887-1.6529-34.341-1.0141-55.312 2.8371-39.297 7.2166-43.33 6.801-63.738-6.5708-11.71-7.6725-16.728-9.4512-30.146-10.687-40.608-3.7391-83.486-62.386-153.97-210.6-22.25-46.786-35.488-78.827-48.876-118.3l-5.8233-17.171-0.64265 4.5143c-0.35344 2.4829-1.014 30.671-1.4678 62.639-0.45384 31.969-1.0432 59.18-1.3096 60.469s-0.95681 5.7188-1.5341 9.8438c-2.4848 17.753-9.5477 36.716-17.205 46.194l-3.2371 4.0067-2.9256-3.5379c-19.004-22.981-25.622-60.776-28.75-164.17l-0.63355-20.942-14.75 44.38c-34.555 103.97-63.021 170.02-104.8 243.21-32.762 57.382-44.88 70.419-69.268 74.525-13.576 2.2854-18.494 4.4896-31.24 14.002-17.821 13.299-26.764 14.779-59.521 9.8487-23.89-3.5959-32.512-3.5388-42.486 0.2811-8.817 3.3772-19.066 3.965-27.827 1.596zm82.327-18.414c5.7316-2.9519 8.9115-9.2425 7.6275-15.089l-0.62852-2.8616-6.8195 0.5157c-15.473 1.1702-20.795 9.6861-9.6699 15.471 6.5294 3.3949 6.6596 3.4219 9.4904 1.9639zm35.888-10.576c1.4972-0.7247 7.1005-1.9962 12.452-2.8256 11.306-1.7523 15.601-3.516 17.499-7.1866 2.504-4.8421 2.3118-4.9246-10.119-4.3444-20.086 0.9373-28.45 5.7465-24.108 13.861 1.1578 2.1633 0.89418 2.1328 4.2761 0.4957zm-82.356-1.1482c1.9574-0.5245 2.1094-1.0887 2.1094-7.8294v-7.2643l-10.314-1.6594c-11.403-1.8347-17.951-0.7085-19.225 3.3069-2.3609 7.4384 16.093 16.484 27.43 13.446zm666.47-9.6543c5.0112-3.0557 9.3631-10.192 7.2149-11.831-5.2789-4.0278-19.856-6.6664-23.628-4.2767-1.5895 1.007-0.8084 4.987 2.4556 12.513l2.3428 5.4022h4.3306c2.6156 0 5.5-0.7166 7.2837-1.8042zm-733.73-5.2536c0-10.229-10.262-17.314-25.077-17.314-7.8312 0-8.0056 0.3853-3.445 7.6123 6.198 9.8218 28.522 17.415 28.522 9.7014zm695.31-5.7686c-3.4994-6.7671-9.0464-8.7326-24.646-8.7326-12.628 0-13.334 0.3565-9.7434 4.921 2.7577 3.5059 8.4479 5.3599 19.665 6.4073 5.5209 0.5154 11.269 1.272 12.774 1.6811 3.3183 0.9024 3.9325-0.4443 1.9507-4.2768zm-551.64-1.2587c5.5045-2.5886 2.0439-23.62-3.9806-24.191-15.989-1.5171-34.503 13.055-25.666 20.2 6.4927 5.2496 22.412 7.3926 29.646 3.9907zm644.17-2.9983c8.3498-2.5016 14.368-12.529 9.1177-15.191-12.423-6.2981-33.366 2.9369-29.501 13.009 1.1384 2.9668 13.387 4.278 20.383 2.182zm-696.68-10.864c-1.4648-18.493-34.311-29.62-47.056-15.941-2.6561 2.851-2.5878 2.9953 3.4736 7.3391 11.763 8.4299 23.27 12.195 36.328 11.886l7.5-0.1773-0.24613-3.1072zm109.95-1.1939c44.505-8.2272 90.218-119.53 96.23-234.29 1.6688-31.856 0.80975-32.752-11.006-11.484-4.5117 8.1211-19.038 32.906-32.28 55.078s-26.734 44.953-29.981 50.625c-3.2477 5.6719-10.437 17.923-15.976 27.225-28.639 48.09-41.499 99.545-27.735 110.97 2.8209 2.3412 13.178 3.2799 20.748 1.8805zm-267.44-2.4361c3.9035-2.2463-1.256-16.04-7.3314-19.601-14.28-8.3686-32.896 3.4707-20.275 12.894 9.587 7.1574 21.707 10.102 27.606 6.7072zm783.54-3.2665c10.058-4.8512 10.626-5.3847 9.3451-8.7741-5.861-15.507-35.16-16.886-37.19-1.7508-1.8138 13.526 11.326 18.492 27.845 10.525zm133.61 0.5855c13.077-3.3922 23.295-19.201 12.384-19.161-14.404 0.053-23.317 5.9048-24.734 16.239l-0.5991 4.3717h3.6804c2.0243 0 6.1948-0.6522 9.2681-1.4495zm-836.39-5.3628c9.4529-5.4194 9.5668-17.143 0.20775-21.394-15.387-6.9877-37.642 7.1937-27.201 17.334 6.4425 6.2569 19.687 8.249 26.993 4.0601zm633.91-1.5247c18.271-8.2984 15.192-42.146-7.6335-83.927-16.78-30.714-29.343-49.532-68.9-103.2-18.39-24.953-40.477-57.405-43.946-64.571-13.45-27.783-2.3127 54.803 13.954 103.48 35.823 107.19 75.455 162.34 106.52 148.23zm113.84-7.0426c27.71-4.5553 41.594-24.464 17.061-24.464-18.795 0-31.951 8.6572-35.26 23.203l-0.5866 2.5781h5.4084c2.9747 0 8.9945-0.5931 13.377-1.3135zm-631.41-15.559c16.522-6.2875 29.835-19.483 46.864-46.451 3.5656-5.6468 10.776-17.017 16.023-25.267 13.763-21.64 20.746-33.332 42.832-71.719 18.462-32.088 24.442-41.945 54.318-89.531 27.902-44.442 41.473-71.606 51.807-103.7 9.2778-28.813 14.823-68.497 9.9367-71.112-2.9569-1.5825-3.3044-1.3097-8.7417 6.8607-22.939 34.47-57.379 65.657-124.91 113.12-33.105 23.264-51.136 36.851-51.553 38.846-10.489 50.172-27.663 94.597-60.906 157.55-20.883 39.547-24.017 71.566-8.889 90.799 3.2482 4.1295 23.016 4.4901 33.223 0.6061zm784.1-0.045c12.599-2.0444 19.503-9.4241 17.471-18.675-2.9808-13.572-29.937-0.9366-31.228 14.638l-0.4164 5.0208 4.1005-0.01c2.2553 0 6.7881-0.4431 10.073-0.9761zm-77.099-1.0207c12.183-3.0678 15.059-15.407 5.1477-22.086-10.506-7.0801-29.178-0.7098-29.178 9.9549 0 10.927 9.5884 15.768 24.03 12.132zm-882.62-1.3979c3.3496-0.5539 3.4255-0.6569 2.9255-3.974-1.4352-9.5218-6.5713-12.635-21.599-13.091l-10.547-0.3199v2.9397c0 10.495 13.311 17.075 29.22 14.445zm-76.761-2.2664c6.8116-3.2018-4.6637-20.028-16.293-23.891-8.2276-2.7328-14.995 0.2666-18.098 8.0207-4.3134 10.78 20.682 22.314 34.391 15.87zm853.79-13.3c7.0013-2.0396 11.25-14.538 11.25-33.092 0-22.321-6.0942-37.418-30.451-75.439-25.485-39.781-41.228-74.053-61.998-134.97l-2.7063-7.9372-6.5625-3.7137c-80.017-45.282-147.49-94.397-178.06-129.61-6.7-7.7191-8.2252-8.655-8.85-5.4308-0.189 0.97567-1.0047 2.2573-1.8126 2.848-2.8107 2.0553 5.2637 33.513 14.963 58.293 14.794 37.797 34.714 70.718 83.065 137.28 25.841 35.572 35.548 49.701 51.718 75.276 63.767 100.85 92.96 127.13 129.44 116.5zm-702.16-10.141c36.787-4.5595 48.897-17.087 78.8-81.515 7.0598-15.211 16.289-34.796 20.509-43.523 18.097-37.42 25.358-59.683 26.901-82.48l0.62837-9.2842-3.666 0.50711c-10.055 1.3908-68.294 31.719-102.01 53.119-77.239 49.032-114.31 99.811-97.891 134.1 9.6328 20.12 43.977 33.135 76.725 29.076zm859.66-5.6398c17.506-2.8306 22.032-17.75 5.3849-17.75-10.509 0-21.322 8.5109-21.322 16.782 0 2.3312 5.4578 2.6628 15.938 0.9682zm-989.42-2.8721c2.5148-1.0981 4.7089-2.1136 4.8758-2.2566 2.9051-2.4892-10.871-13.509-16.944-13.554-2.0324-0.015-0.44846 7.1559 2.7114 12.275 3.9179 6.3475 3.3812 6.1447 9.3569 3.5353zm1075.2-4.9242c10.814-4.9508 17.238-14.063 13.033-18.487-12.014-12.637-33.22-3.0571-34.387 15.536-0.4008 6.3808 10.555 7.895 21.354 2.9512zm-1157.3-6.032c3.2705-18.3-0.93266-33.498-10.011-36.2-4.6957-1.3969-6.5307 25.386-2.372 34.621 4.654 10.335 10.681 11.103 12.383 1.5784zm1010.6-7.3723c32.191-6.4226 52.309-28.641 48.738-53.825-6.8918-48.594-76.545-100.71-195.86-146.56l-16.343-6.2793-2.4071 1.7887c-10.561 7.8474 52.555 137.23 87.106 178.55 20.7 24.761 45.328 32.989 78.768 26.317zm-974.74-18.397c2.4054-7.2653-12.011-24.836-16.607-20.24-1.0578 1.0579 1.4756 15.351 3.2217 18.176 3.466 5.6081 11.787 6.8914 13.385 2.0642zm1083.4 2.0859 4.7154-1.0113-0.5814-7.1918c-0.6909-8.5465-0.3622-7.953-3.7053-6.6897-3.9533 1.4939-13.489 11.648-13.489 14.364 0 1.5256 7.0772 1.8124 13.061 0.5291zm84.121-12.354c9.5756-14.372 6.1088-40.042-5.4113-40.068-1.4264 0-3.6961 9.6386-6.0778 25.817-1.5885 10.791 6.8337 21.238 11.489 14.251zm-1099.9-12.265c12.298-5.6305 23.623-15.798 46.111-41.4 23.776-27.068 39.04-38.837 85.203-65.693 22.995-13.378 21.547-12.492 21.016-12.856-1.0513-0.7205-41.483 1.2145-53.828 2.5762-80.811 8.9132-134.89 32.161-146.79 63.106-12.39 32.213 19.118 67.622 48.289 54.267zm1061.9-13.068c6.4245-4.3295 9.5764-14.99 5.9591-20.154-2.1221-3.0297-3.4019-2.6258-8.3122 2.6238-10.89 11.642-9.0661 25.226 2.3531 17.53zm-1192.6-14.155c0-1.7417 0.63281-4.6813 1.4062-6.5324 3.4059-8.1515-0.87401-13.97-10.118-13.756-2.0559 0.0478-6.2869 11.888-6.2876 17.595l-7.4e-4 5.8594h15v-3.1668zm1137.6-3.9751c18.171-6.1914 31.727-35.034 24.956-53.094-13.262-35.37-102.69-64.27-184.75-59.701-20.885 1.1628-20.75 1.0484-8.6978 7.416 28.55 15.084 64.788 40.155 90.777 62.806 42.822 37.322 62.111 47.889 77.712 42.573zm-623.81-0.5176c0-3.4278 12.882-32.378 29.548-66.403 41.347-84.415 51.154-122.74 45.483-177.74-1.6512-16.016-5.6953-20.384-8.8953-9.6084-4.3747 14.731-13.655 36.846-28.655 68.287-37.455 78.505-47.182 120.88-40.402 176.02 1.0399 8.4559 2.9217 14.542 2.9217 9.4499zm-469.03-2.4602c2.15-1.3665-1.3582-13.268-4.978-16.888-4.2214-4.2214-6.9489-3.8234-8.7102 1.271-3.4223 9.8983 5.9188 20.556 13.688 15.617zm691.07-17.77c-2.2642-61.486-16.336-103.41-60.803-181.17-8.4038-14.695-19.318-34.523-24.254-44.062l-8.9747-17.344-0.79096 5.625c-7.4126 52.714 11.013 110.85 62.459 197.08 11.949 20.028 24.046 40.931 26.882 46.452 6.5093 12.672 6.2033 13.039 5.481-6.5787zm520.46-15.003c5.5909-2.7929 2.983-12.943-4.9674-19.334-5.8005-4.6628-10.543 0.67744-9.7084 10.932 0.7959 9.7774 5.981 12.746 14.676 8.4025zm-47.529-6.5905c1.6064-1.7751 2.0845-5.6982 1.7797-14.603l-0.1881-5.4922-2.5781 0.64341c-5.7253 1.4288-8.6719 6.6843-8.6719 15.467v5.6551h4.0734c2.7164 0 4.5771-0.55641 5.585-1.6702zm-1212.1-3.2206c1.7657-7.1469-3.6101-16.294-11.903-20.253-6.7818-3.2376-9.4188 4.9955-5.8375 18.226l1.6384 6.0527 7.6205-0.27047 7.6205-0.27047 0.86086-3.4845zm40.473-13.929c6.4401-5.3448-5.612-17.739-14.624-15.039-5.705 1.7093-6.0056 2.8359-2.2458 8.4188 5.3112 7.8867 12.123 10.56 16.87 6.6198zm69.291-1.2556c72.704-12.82 139.64-74.86 141.8-131.43l0.46976-12.291-4.8472-0.46576c-3.7178-0.35723-6.6638 0.1447-12.644 2.1541-10.593 3.5597-22.963 5.8357-55.729 10.254-74.005 9.9784-88.288 14.881-111.76 38.363-50.987 51.012-26.055 105.55 42.71 93.421zm1152.3-25.09c6.7246-6.7862 5.8882-23.272-1.1808-23.272-2.2975 0-12.348 10.237-13.512 13.762-3.6928 11.189 6.4944 17.783 14.692 9.5104zm-1240.2-9.2802c3.7635-10.799-1.9599-31.633-6.3581-23.145-0.60453 1.1667-3.1535 4.0452-5.6644 6.3967-7.3652 6.8976-6.2109 12.175 3.8723 17.705 6.08 3.3342 6.6793 3.2639 8.1502-0.95676zm1153.5-0.21426c43.598-14.314 37.942-65.419-11.343-102.49-22.151-16.661-39.488-20.258-105.47-21.877-39.627-0.97253-46.156-1.6905-60.682-6.6733-19.085-6.5466-20.098 4.2395-3.5758 38.045 23.795 48.684 74.87 81.921 145.35 94.587 5.3523 0.96182 31.49-0.20169 35.718-1.59zm-918.37-2.4938c37.234-6.439 72.655-20.353 117.99-46.35 118.11-67.724 157.86-106 167.83-161.6 1.5701-8.7584-8.1061-6.8886-43.398 8.3864-60.692 26.268-69.824 27.82-114.47 19.451-69.885-13.1-91.227 3.4025-123.33 95.365-17.517 50.177-25.878 67.706-39.545 82.907l-4.4237 4.9202 14.051-0.56736c7.7279-0.31206 19.113-1.4429 25.301-2.5129zm960.23-0.56733c5.6868-3.7262 8.2169-14.778 3.6458-15.925-7.294-1.8306-16.901 5.9106-15.052 12.129 1.9017 6.3972 5.5722 7.6187 11.406 3.796zm-1236.3-1.5464c2.2587-1.4106 2.402-3.5964 0.47954-7.314-4.264-8.2457-16.397-4.7643-16.397 4.705 0 4.1404 10.665 5.8887 15.917 2.609zm1044.4-22.061c-0.1086-2.3115-7.0086-13.571-12.623-20.599-13.616-17.042-18.026-25.092-35.7-65.154-17.23-39.056-26.676-55.216-40.193-68.759-21.606-21.648-37.776-24.261-89.575-14.474-47.795 9.0301-55.139 8.1196-115.42-14.309-23.39-8.7028-41.687-13.118-42.761-10.32-10.075 26.256 26.437 69.645 90.68 107.76 93.311 55.362 151.2 79.213 208.59 85.946 5.6835 0.66672 37.03 0.58854 36.998-0.0923zm-1044.3-10.781c4.2972-7.048 1.2626-20.517-5.5142-24.475-3.8027-2.2209-3.7157-2.3346-5.3821 7.034-2.8194 15.851 4.6126 27.747 10.896 17.441zm1249.4-0.29895c8.4678-5.5483 7.3286-18.949-2.1066-24.78-6.6601-4.1162-6.8877-3.4933-7.363 20.157-0.1481 7.3706 2.9602 8.888 9.4696 4.6229zm-1210.2-1.7625c6.8144-3.5238 7.999-12.282 3.4712-25.662-3.5344-10.445-8.441-11.175-15.236-2.2664-10.465 13.72-1.5739 34.826 11.765 27.929zm1253.4-7.3177c4.6843-2.2379 3.1921-8.4461-2.7711-11.53-1.59-0.82219-3.026-1.3583-3.1913-1.1914-10.434 10.543-6.6001 18.723 5.9624 12.721zm-4.2216-32.578c7.0141-8.3357 1.7699-26.246-7.6849-26.246-2.8811 0-5.2627 22.301-2.7218 25.486 3.3462 4.1943 7.2754 4.4813 10.407 0.76003zm-35.776-1.1674c5.9048-10.543-1.9325-32.561-11.595-32.575-5.3014-8e-3 -9.1301 18.647-6.0216 29.34l1.5536 5.344h7.4409c6.7413 0 7.5518-0.19828 8.6221-2.1094zm-1232.5-15.692c20.046-9.6739 26.857-18.009 28.955-35.438l0.59691-4.9582-4.3814-1.9381c-19.9-8.8027-39.547 10.047-41.352 39.674l-0.5782 9.4906 2.715-0.68143c1.4932-0.37478 7.8135-3.1418 14.045-6.149zm157.45-6.5903c45.574-2.6778 83.27-9.4062 99.844-17.821 11.541-5.8598 18.308-14.676 27.808-36.235 8.1205-18.426 17.028-31.046 22.093-31.299 3.0649-0.15268-3.8266-1.8158-14.818-3.576-132.27-21.183-228.76 12.252-221.03 76.595 1.3157 10.956 32.806 15.467 86.103 12.335zm1095.4-33.967c-0.1315-33.61-34.45-57.528-48.434-33.755l-2.3405 3.9792 4.2018 5.8882c9.039 12.667 21.48 22.122 35.554 27.021 11.107 3.8661 11.046 3.8835 11.018-3.1332zm-116.7 2.0914c21.764-4.525 30.651-11.151 29.536-22.021-5.4891-53.524-74.002-77.748-181.34-64.116-30.513 3.8753-72.413 13.03-59.637 13.03 3.6656 0 10.173 8.6293 20.15 26.719 19.27 34.941 27.026 39.426 74.57 43.118 10.055 0.78076 28.195 2.2628 40.312 3.2935 31.315 2.6636 30.593 2.6307 49.688 2.2616 12.872-0.24882 19.761-0.83784 26.719-2.2844zm-705.94-57.591c39.631-4.7582 79.625-17.504 83.03-26.46 2.0195-5.3118 0.73577-5.8812-7.7302-3.4292-30.056 8.7054-67.851 12.479-143.74 14.353-54.532 1.3462-73.594 2.0756-73.594 2.8161 0 3.5272 47.073 12.641 74.531 14.431 12.274 0.7998 55.771-0.30275 67.5-1.711zm420.94-13.63c30.902-2.8456 90.469-14.725 90.469-18.042 0-0.42601-45.457-0.65666-101.02-0.51256-91.203 0.23655-102.51 0.10143-116.39-1.391-8.4581-0.90918-15.521-1.5102-15.696-1.3357-0.6384 0.63845 20.032 10.027 27.011 12.27 29.655 9.5259 73.194 12.919 115.62 9.012zm-735.47-23.143c8.99-1.8012 19.791-5.2701 40.312-12.947 73.415-27.464 106.32-30.329 199.22-17.348 49.793 6.9572 66.103 8.7616 93.75 10.372 53.072 3.0904 95.496-5.3791 116.66-23.29l3.2234-2.7279-6.8558-0.63717c-30.368-2.8224-58.239-15.26-102.72-45.839-32.625-22.43-46.739-30.35-81.128-45.524-70.603-31.153-91.182-33.199-152.41-15.154-34.773 10.248-45.062 11.991-85.678 14.513-42.57 2.6439-56.978 4.9956-71.894 11.735-67.735 30.603-26.151 141.61 47.519 126.85zm-131.48-25.209c8.9934-4.4816 13.82-15.626 9.6727-22.336-11.84-19.158-42.273-16.728-42.247 3.3737 0.0215 16.501 17.313 26.567 32.574 18.962zm796.17-5.5209c22.176-2.6568 47.17-7.0158 89.361-15.585 63.557-12.909 77.03-14.928 99.581-14.928 32.451 0 72.779 7.1209 111.47 19.684 47.438 15.401 67.953 12.168 89.311-14.074 32.447-39.865 21.94-90.781-21.638-104.86-18.634-6.0193-31.234-7.4147-76.996-8.5264-40.791-0.99098-46.234-1.5953-81.562-9.0564-78.023-16.478-102.22-9.0442-198.28 60.915-48.487 35.312-58.369 40.921-92.812 52.685-20.268 6.9221-34.41 13.068-39.375 17.113l-2.3438 1.9091 6.5625 2.9673c28.623 12.942 71.099 17.22 116.72 11.755zm-206.73-36.373c-3.861-39.008-29.82-71.094-135.95-168.04-11.847-10.822-35.884-33.816-53.416-51.098-90.684-89.393-132.38-113.23-206.74-118.16-18.149-1.2048-64.601 1.7551-67.344 4.2912-0.18164 0.16789 2.3085 3.3712 5.5336 7.1184 23.705 27.542 41.641 61.002 47.835 89.237l1.1978 5.4603 13.663 8.0416c35.251 20.747 43.045 25.58 52.103 32.305 19.944 14.808 32.711 29.087 40.079 44.826 10.249 21.893 11.21 23.594 16.048 28.433 7.1538 7.1538 15.716 11.137 43.709 20.333 19.44 6.3861 29.117 10.164 42.797 16.705 26.507 12.676 68.363 34.423 84.24 43.767 41.431 24.386 54.221 30.924 72.354 36.987 13.844 4.6287 23.438 6.3954 35.319 6.5036l9.2358 0.0841-0.67275-6.7969zm97.473 1.9685c23.571-4.6679 43.347-15 81.603-42.634 36.172-26.128 44.701-31.069 105-60.818 65.951-32.538 72.548-36.34 74.464-42.907 10.774-36.933 49.408-78.737 99.461-107.62 9.452-5.4551 9.3899-5.3695 12.222-16.813 8.5039-34.364 23.776-67.586 38.041-82.752 12.094-12.858 9.9476-14.301-21.129-14.206-102.53 0.3117-151.53 29.174-253.74 149.46-30.553 35.955-41.957 48.785-63.224 71.131-36.204 38.041-47.331 50.609-60.194 67.988-19.615 26.501-30.363 51.166-32.209 73.907l-0.64332 7.9279 5.5076-0.40487c3.0292-0.22267 9.708-1.2367 14.842-2.2534zm587.44-1.2837c22.297-7.8669 15.412-40.287-7.7593-36.538-16.312 2.6388-25.56 15.732-19.502 27.608 4.3256 8.479 16.881 12.592 27.261 8.9295zm-1319.6-46.607c-0.0338-8.2948-4.7588-13.186-13.956-14.446l-4.4398-0.60855 0.6198 3.6524c1.5084 8.8886 5.9406 14.854 12.173 16.384 5.145 1.263 5.627 0.8344 5.6032-4.9814zm61.958-1.7792c2.612-0.96667 5.8657-2.9231 7.2304-4.3476l2.4814-2.59-0.57669-11.47-0.5767-11.47h-4.967c-15.73 0-29.357 7.5103-35.452 19.538l-2.3826 4.7018 2.9755 2.5037c7.1957 6.0548 19.927 7.3308 31.268 3.1339zm89.629-24.656c7.389-1.2532 25.458-5.0405 40.153-8.4162s36-7.8504 47.344-9.944c101.98-18.82 112.01-43.013 39.421-95.081-28.379-20.357-66.476-22.029-151.05-6.6296-51.036 9.2925-69.077 34.251-57.315 79.289 10.198 39.048 30.81 49.369 81.446 40.781zm1146.7-14.122c7.9398-1.2725 13.978-9.6287 11.072-15.324-8.2651-16.201-43.202-21.588-43.202-6.6613 0 12.961 14.255 24.907 27.188 22.783 0.7734-0.12704 2.9973-0.48599 4.9419-0.79765zm50.635 0.11538c5.6346-2.4009 7.6056-5.5536 8.0163-12.823 0.432-7.6458-0.072-7.9197-7.886-4.2814-12.31 5.732-12.436 22.348-0.1303 17.104zm-1371.2-18.85c-1.0096-9.7819-6.1113-16.402-17.621-22.864-6.7288-3.7782-6.8143-3.7569-6.0759 1.5153 2.0078 14.337 7.7785 22.398 18.333 25.608 5.5132 1.677 5.941 1.3373 5.3634-4.2594zm57.636 2.7279c24.114-8.5079 10.323-38.843-17.659-38.843-13.908 0-23.771 8.0331-23.771 19.361 0 15.073 23.117 25.943 41.43 19.481zm1192.7-4.6256c43.17-9.1454 53.652-92.231 14.022-111.14-33.341-15.912-143.9-21.343-170.51-8.3758-12.644 6.1591-38.178 28.614-49.256 43.316-27.43 36.402-8.5684 53.14 72.694 64.508 11.344 1.587 30.75 4.3887 43.125 6.2261 46.866 6.9585 74.865 8.6614 89.931 5.4698zm90.699-36.214c31.888-6.8387 32.537-41.354 0.7765-41.299-19.487 0.0343-34.676 16.128-31.097 32.949 1.5225 7.1553 16.569 11.299 30.32 8.3496zm54.714-8.7232c6.8924-6.935 8.7444-14.816 5.2893-22.509l-1.661-3.6983-2.0347 3.2921c-1.1191 1.8107-4.1143 5.0457-6.6562 7.1891-6.6613 5.6169-11.417 18.592-8.0491 21.961 1.5751 1.575 8.7329-1.8282 13.112-6.2342zm-1368.7-25.661c6.4718-3.3048 11.287-10.794 10.498-16.326-1.1656-8.171-39.734-7.3809-40.904 0.8379-1.9293 13.547 16.162 22.762 30.407 15.489zm-64.405-2.4893c6.1184-3.164 7.9462-16.491 2.5078-18.286-7.3884-2.4384-14.173 3.4888-13.485 11.781 0.63941 7.7104 4.3703 9.9212 10.977 6.5047zm193.22-19.284c12.87-1.5658 22.501-4.3281 47.371-13.586 12.919-4.8093 26.313-9.4969 29.766-10.417 6.8571-1.8272 6.9474-1.9765 4.8139-7.9594-0.80455-2.2562-3.7555-12.205-6.5576-22.109-8.3332-29.452-12.802-39.91-21.068-49.3-32.097-36.464-117.15-32.042-135.79 7.0596-25.797 54.102 16.583 104.21 81.465 96.312zm1216-24.032c1.7751-2.4055 4.1766-5.6632 5.3367-7.2392 5.8582-7.958-4.4305-15.894-18.381-14.177-26.946 3.3151-24.208 25.297 3.2007 25.694l6.6164 0.096 3.2273-4.3737zm51.456-9.9232c-0.1009-12.966-2.1743-15.092-11.521-11.812l-3.6048 1.2652 0.3834 5.3916c0.5617 7.8983 4.2085 11.428 12.217 11.824l2.5781 0.12767-0.053-6.7969zm-1407.2 0.72131c31.246-11.024 22.104-60.018-11.198-60.018-23.716 0-39.199 25.282-28.666 46.81 6.2095 12.692 24.32 18.692 39.865 13.208zm1239.9-2.7324c31.947-8.6076 49.038-33.691 47.017-69.005-2.7444-47.957-34.875-68.01-90.142-56.26-45.837 9.7449-61.836 25.898-70.339 71.018-3.9521 20.97-6.2216 32.367-6.6866 33.579-0.2906 0.75746 2.0087 1.6767 6.8885 2.754 4.0286 0.88937 18.294 4.74 31.7 8.5569s28.805 7.7619 34.219 8.7666 10.898 2.0212 12.188 2.259c5.2538 0.96898 29.668-0.18939 35.156-1.668zm-1303.1-20.861c11.062-5.7391 8.9611-19.087-3.0025-19.077-9.4814 7e-3 -17.763 9.1731-15.703 17.38 1.1475 4.572 11.376 5.5002 18.706 1.6975zm1419-21.371c38.338-8.1258 32.922-60.247-6.2287-59.942-28.734 0.22351-41.767 44.156-16.997 57.295 6.7304 3.57 14.627 4.4702 23.226 2.6476zm-1459.3-5.6484c4.5413-10.869-3.1802-22.942-14.699-22.983-7.2231-0.0257-9.9878 9.0064-5.558 18.157 4.1462 8.5649 17.377 11.717 20.257 4.8262zm1522.9-20.315c2.9803-1.0389 3.0481-1.1832 2.6251-5.5855-1.4358-14.942-21.517-20.179-28.163-7.3439l-1.6644 3.2146 3.0707 2.616c7.8695 6.7044 17.303 9.4793 24.131 7.0988zm-1478.3-5.1714c2.3991-2.8908 1.654-13.17-1.4064-19.403l-2.6931-5.4847-7.2895 0.33103c-12.109 0.54991-13.472 4.1682-7.275 19.31l2.7818 6.7969h7.2977c5.6446 0 7.5892-0.35119 8.5844-1.5503zm61.037-13.386c36.018-9.2118 43.292-51.007 10.232-58.788-20.243-4.7646-71.009 5.5773-75.33 15.346-12.501 28.261 25.446 53.584 65.098 43.443zm1449.7-9.7446c9.1563-3.5408 13.166-13.103 9.6834-23.093l-1.0646-3.0535-5.8542 0.37277c-9.9807 0.63552-15.752 6.7558-15.753 16.704-4e-4 9.9802 3.7893 12.627 12.988 9.0693zm-1565-9.5889c17.896-6.0978 18.512-24.34 1.1086-32.854-18.965-9.2787-42.506 6.6991-34.556 23.454 4.3471 9.1608 20.679 13.751 33.447 9.4005zm269.77-10.852c8.659-2.2019 9.0783-2.5938 7.6991-7.1971-7.2436-24.177-58.608-31.892-79.198-11.896-4.5654 4.4338-4.5057 4.6071 2.8611 8.3043 24.596 12.344 48.034 16.028 68.638 10.789zm145.35-2.5984c0-1.0553-12.357-12.641-21.094-19.777-23.977-19.584-53.553-32.66-84.909-37.539-11.698-1.8204-11.73-1.4815-0.79876 8.3898 24.312 21.954 47.764 36.005 73.52 44.048 14.354 4.4825 33.281 7.2566 33.281 4.878zm1110.9-5.3833c3.365-13.364 1.5081-22.415-4.5607-22.229-12.379 0.3783-19.253 11.357-14.151 22.598l1.8085 3.9844h15.807l1.0962-4.3532zm-49.706-5.5289c19.842-4.6771 32.324-17.564 34.942-36.076l1.0675-7.5478-3.082-3.1797c-11.357-11.718-49.02-18.332-70.345-12.353-52.563 14.736-16.437 71.85 37.417 59.156zm-309.76-15.472c29.166-10.273 55.418-27.007 79.582-50.731 14.552-14.287 14.615-14.076-2.8842-9.7111-43.76 10.916-89.339 41.771-97.622 66.085-0.3586 1.053 9.3316-1.5606 20.924-5.6434zm-1210.6-3.7501c6.1904-1.7192 9.4578-5.2766 8.8702-9.6574-2.0612-15.368-27.594-24.096-34.037-11.636-6.812 13.173 8.3167 25.973 25.167 21.293zm1369.9-1.821c13.825-3.5359 26.204-10.046 33.702-17.725l3.6386-3.7263-4.5831-2.9132c-25.005-15.894-71.059-5.3153-75.783 17.408-1.6223 7.8037 23.703 11.898 43.026 6.9566zm-1128.8-4.1881c7.7692-1.4865 19.292-6.4702 19.292-8.344 0-3.9594-8.7206-11.908-17.131-15.615-14.654-6.4589-52.244-7.8673-52.244-1.9576 0 17.326 25.639 30.594 50.083 25.917zm1377.8-1.061c5.3701-1.5675 12.262-5.1268 15.405-7.955 1.692-1.523 1.8461-2.6616 1.5788-11.667l-0.2963-9.9798-7.0216-3.3346c-18.142-8.6154-32.908-2.8085-33.936 13.346-0.9642 15.142 9.7861 23.819 24.271 19.591zm-1494.9-12.07c28.852-4.8015 52.031-19.892 52.031-33.874 0-4.8711-67.422-7.8798-86.14-3.8441-21.458 4.6265-33.165 13.944-35.683 28.4-1.3008 7.4697-1.5247 7.228 8.1388 8.7869 18.804 3.0334 45.248 3.2612 61.653 0.53117zm144.68-24.634c-1.7861-37.359-56.701-62.806-56.512-26.188 0.11258 21.842 15.535 32.308 52.456 35.596 4.1867 0.37287 4.4905-0.33157 4.0565-9.4081zm-245.68 2.9561c7.572-2.5161 12.527-5.379 16.371-9.4579l2.5603-2.7171-1.9454-3.9321c-10.96-22.152-56.144-20.834-56.144 1.6372 0 15.127 17.604 21.632 39.158 14.47zm1401.1-4.6667c14.809-3.5822 26.801-13.996 29.264-25.415l0.6413-2.9722-5.4487-0.77784c-25.694-3.668-53.459 4.783-63.549 19.342-3.2601 4.7043-2.9131 5.1983 6.0126 8.5612 9.3404 3.519 21.785 3.9937 33.079 1.2617zm-1084-2.8527c0-12.848-24.531-29.218-47.714-31.841l-5.7097-0.64598 0.99351 2.85c3.4462 9.8858 15.191 21.472 25.876 25.525 8.4888 3.2205 26.554 6.0178 26.554 4.1118zm1321.5-7.7055c7.188-3.6961 10.666-9.1084 10.666-16.597 0-16.392-31.932-10.271-35.122 6.7329-1.8044 9.6177 13.18 15.661 24.455 9.8638zm-95.927-10.343c8.6272-2.3103 18.998-7.5358 22.77-11.473l2.6853-2.8028-2.2589-4.258c-11.812-22.266-81.31-28.771-119.69-11.202l-5.1253 2.3464 1.4008 2.7089c10.366 20.045 66.186 33.793 100.21 24.681zm-1454.2-2.9366c24.392-5.3211 44.998-20.962 42.8-32.488-4.2218-22.136-111.47-14.701-111.4 7.7215 0.0685 20.383 33.448 32.434 68.598 24.766zm1285.1-4.9027c19.924-4.7918 32.812-21.243 32.812-41.882v-8.3944l-3.5156-1.2183c-22.065-7.6462-48.136 16.152-52.33 47.767l-0.6279 4.7331 3.1587 0.43464c4.2542 0.5854 15.309-0.1911 20.502-1.4401zm-81.906-6.8224c15.163-2.9011 27.727-11.464 35.063-23.897 5.3574-9.0801 5.7334-11.424 1.7097-10.66-26.154 4.9634-42.293 16.536-47.207 33.849-0.7358 2.5931 0.2388 2.6593 10.434 0.70855zm-1348-2.9401c3.3543-0.8989 2.812-5.9569-1.364-12.722l-3.4733-5.6272-4.6314 0.61438c-7.188 0.95352-17.484 7.9099-17.484 11.813 0 2.326 22.184 7.2007 26.953 5.9226zm222.17-3.5858c5.5698-2.5931 8.8726-6.9604 8.4755-11.207-0.7713-8.2487-25.064-9.9556-29.855-2.0978-6.6204 10.857 7.6125 19.714 21.38 13.305zm76.732-2.7899c-2.8268-7.4019-9.26-11.685-23.356-15.551-8.5293-2.3391-8.5749-2.3217-7.2113 2.7422 2.0405 7.5777 8.474 11.947 22.846 15.516 10.099 2.5075 9.7582 2.6268 7.7213-2.7067zm1377.7-2.8909c11.116-3.7878 18.556-16.805 13.705-23.983-11.329-16.763-55.976-7.7574-55.976 11.291 0 10.093 26.525 18.057 42.271 12.692zm-1619.5-13.033c16.738-9.1101 12.115-29.484-7.0852-31.225-24.074-2.1829-37.222 25.06-15.879 32.902 6.3946 2.3496 16.987 1.5758 22.964-1.6777zm1540.2-9.9562c22.116-3.1511 34.193-14.259 30.483-28.038-8.0213-29.788-103.59-25.194-111.25 5.3487-3.221 12.834 48.321 27.312 80.77 22.689zm-182.38-8.0986c12.621-3.471 23.478-12.044 23.478-18.539 0-8.4075-26.096 5.0311-31.913 16.435-2.7248 5.3411-3.0437 5.2616 8.4357 2.1044zm86.137-4.3415c12.411-4.4398 5.7137-18.886-8.753-18.879-16.496 0.0076-19.527 3.3048-13.359 14.534l3.0469 5.5475 7.9687-0.0418c4.3828-0.023 9.3764-0.54532 11.097-1.1608zm-1509.5-12.99c6.9907-1.7965 6.6476-3.0054-1.6754-5.9027-10.4-3.6202-18.697-2.5974-18.697 2.3046 0 4.9278 9.0079 6.5188 20.373 3.5981zm1734.2-2.1615c6.212-3.0392 6.6297-6.2548 1.4283-10.996-8.0481-7.3356-25.356-0.21161-25.356 10.437 0 4.4866 15.176 4.8413 23.928 0.55922zm-1605.4 0.62284c1.486-1.7574-1.3416-8.9425-4.9324-12.533-14.511-14.511-49.526-11.269-49.526 4.5846 0 5.0725 50.641 12.464 54.459 7.9487zm1553.5-16.353c20.509-12.019-3.4344-38.758-26.194-29.25-9.3548 3.9077-14.757 14.689-11 21.954 4.9296 9.5326 26.243 13.714 37.193 7.2963zm-67.179-32.616c19.042-2.7131 32.222-12.397 24.609-18.083-16.006-11.954-48.378-1.2676-48.495 16.008l-0.021 3.0469 8.6719-0.01857c4.7695-0.01021 11.625-0.43932 15.234-0.95356zm123.95-7.7587c4.0081-4.0757-6.8865-8.3768-15.801-6.2382-4.5135 1.0828-11.121 5.6214-11.121 7.6389 0 1.827 25.029 0.52485 26.922-1.4006z"/>
</svg>
