<?xml version="1.0" encoding="UTF-8"?>
<svg width="720pt" height="720pt" fill-rule="evenodd" overflow="visible" stroke-linejoin="bevel" stroke-width=".501" version="1.1" viewBox="0 0 720 720" xmlns="http://www.w3.org/2000/svg">
 <defs>
  <linearGradient id="bn" x2="143" y2="-9" gradientTransform="translate(587.54 615.6)" gradientUnits="userSpaceOnUse">
   <stop stop-color="#0ff" offset="0"/>
   <stop stop-color="#0c00ff" offset="1"/>
  </linearGradient>
  <linearGradient id="bo" x2="-294" y2="124" gradientTransform="translate(302.54 521.6)" gradientUnits="userSpaceOnUse">
   <stop stop-color="#0ff" offset="0"/>
   <stop stop-color="#0c00ff" offset="1"/>
  </linearGradient>
  <linearGradient id="bx" x2="156" y2="-12" gradientTransform="translate(599.54 582.75)" gradientUnits="userSpaceOnUse">
   <stop stop-color="#0ff" offset="0"/>
   <stop stop-color="#0c00ff" offset="1"/>
  </linearGradient>
  <linearGradient id="av" x2="-194" y2="50" gradientTransform="translate(194.54 552.75)" gradientUnits="userSpaceOnUse">
   <stop stop-color="#0ff" offset="0"/>
   <stop stop-color="#0c00ff" offset="1"/>
  </linearGradient>
  <linearGradient id="bf" x2="81" y2="-29" gradientTransform="translate(595.54 547.6)" gradientUnits="userSpaceOnUse">
   <stop stop-color="#0ff" offset="0"/>
   <stop stop-color="#0c00ff" offset="1"/>
  </linearGradient>
  <linearGradient id="bi" x2="-62" y2="-5" gradientTransform="translate(123.54 548.6)" gradientUnits="userSpaceOnUse">
   <stop stop-color="#0ff" offset="0"/>
   <stop stop-color="#0c00ff" offset="1"/>
  </linearGradient>
  <linearGradient id="bj" x2="33" y2="-18" gradientTransform="translate(584.54 524.6)" gradientUnits="userSpaceOnUse">
   <stop stop-color="#0ff" offset="0"/>
   <stop stop-color="#0c00ff" offset="1"/>
  </linearGradient>
  <linearGradient id="bk" x2="-48" y2="-6" gradientTransform="translate(137.54 511.6)" gradientUnits="userSpaceOnUse">
   <stop stop-color="#0ff" offset="0"/>
   <stop stop-color="#0c00ff" offset="1"/>
  </linearGradient>
  <linearGradient id="bl" x2="87" y2="-32" gradientTransform="translate(536.54 492.6)" gradientUnits="userSpaceOnUse">
   <stop stop-color="#0ff" offset="0"/>
   <stop stop-color="#0c00ff" offset="1"/>
  </linearGradient>
  <linearGradient id="bm" x2="-113" y2="-26" gradientTransform="translate(187.54 492.6)" gradientUnits="userSpaceOnUse">
   <stop stop-color="#0ff" offset="0"/>
   <stop stop-color="#0c00ff" offset="1"/>
  </linearGradient>
  <linearGradient id="a" x2="445.41" gradientTransform="translate(152.71 479.48)" gradientUnits="userSpaceOnUse">
   <stop stop-color="#0ff" offset="0"/>
   <stop stop-color="#0c00ff" offset="1"/>
  </linearGradient>
  <linearGradient id="bp" x2="39" y2="-27" gradientTransform="translate(535.54 459.6)" gradientUnits="userSpaceOnUse">
   <stop stop-color="#0ff" offset="0"/>
   <stop stop-color="#0c00ff" offset="1"/>
  </linearGradient>
  <linearGradient id="bq" x2="-106" y2="-35" gradientTransform="translate(195.54 459.6)" gradientUnits="userSpaceOnUse">
   <stop stop-color="#0ff" offset="0"/>
   <stop stop-color="#0c00ff" offset="1"/>
  </linearGradient>
  <linearGradient id="br" x2="263" y2="134" gradientTransform="translate(425.54 480.6)" gradientUnits="userSpaceOnUse">
   <stop stop-color="#0ff" offset="0"/>
   <stop stop-color="#0c00ff" offset="1"/>
  </linearGradient>
  <linearGradient id="bs" x2="-218" y2="133" gradientTransform="translate(305.54 464.6)" gradientUnits="userSpaceOnUse">
   <stop stop-color="#0ff" offset="0"/>
   <stop stop-color="#0c00ff" offset="1"/>
  </linearGradient>
  <linearGradient id="bt" x2="225" y2="7" gradientTransform="translate(447.54 444.6)" gradientUnits="userSpaceOnUse">
   <stop stop-color="#0ff" offset="0"/>
   <stop stop-color="#0c00ff" offset="1"/>
  </linearGradient>
  <linearGradient id="bu" x2="-154" y2="34" gradientTransform="translate(302.54 427.6)" gradientUnits="userSpaceOnUse">
   <stop stop-color="#0ff" offset="0"/>
   <stop stop-color="#0c00ff" offset="1"/>
  </linearGradient>
  <linearGradient id="bv" x2="44" y2="-18" gradientTransform="translate(525.54 430.6)" gradientUnits="userSpaceOnUse">
   <stop stop-color="#0ff" offset="0"/>
   <stop stop-color="#0c00ff" offset="1"/>
  </linearGradient>
  <linearGradient id="bw" x2="-116" y2="-42" gradientTransform="translate(200.54 434.6)" gradientUnits="userSpaceOnUse">
   <stop stop-color="#0ff" offset="0"/>
   <stop stop-color="#0c00ff" offset="1"/>
  </linearGradient>
  <linearGradient id="by" x2="32" y2="-12" gradientTransform="translate(523.54 404.6)" gradientUnits="userSpaceOnUse">
   <stop stop-color="#0ff" offset="0"/>
   <stop stop-color="#0c00ff" offset="1"/>
  </linearGradient>
  <linearGradient id="bz" x2="-59" y2="-12" gradientTransform="translate(210.54 400.6)" gradientUnits="userSpaceOnUse">
   <stop stop-color="#0ff" offset="0"/>
   <stop stop-color="#0c00ff" offset="1"/>
  </linearGradient>
  <linearGradient id="ca" x2="230" y2="-62" gradientTransform="translate(436.54 400.6)" gradientUnits="userSpaceOnUse">
   <stop stop-color="#0ff" offset="0"/>
   <stop stop-color="#0c00ff" offset="1"/>
  </linearGradient>
  <linearGradient id="ao" x2="-201" y2="-74" gradientTransform="translate(288.54 407.6)" gradientUnits="userSpaceOnUse">
   <stop stop-color="#0ff" offset="0"/>
   <stop stop-color="#0c00ff" offset="1"/>
  </linearGradient>
  <linearGradient id="ap" x2="18" y2="-9" gradientTransform="translate(546.54 319.6)" gradientUnits="userSpaceOnUse">
   <stop stop-color="#0ff" offset="0"/>
   <stop stop-color="#0c00ff" offset="1"/>
  </linearGradient>
  <linearGradient id="aq" x2="-31" y2="-25" gradientTransform="translate(179.54 321.6)" gradientUnits="userSpaceOnUse">
   <stop stop-color="#0ff" offset="0"/>
   <stop stop-color="#0c00ff" offset="1"/>
  </linearGradient>
  <linearGradient id="ar" x2="164" y2="-139" gradientTransform="translate(428.54 387.6)" gradientUnits="userSpaceOnUse">
   <stop stop-color="#0ff" offset="0"/>
   <stop stop-color="#0c00ff" offset="1"/>
  </linearGradient>
  <linearGradient id="as" x2="-195" y2="-129" gradientTransform="translate(293.54 388.6)" gradientUnits="userSpaceOnUse">
   <stop stop-color="#0ff" offset="0"/>
   <stop stop-color="#0c00ff" offset="1"/>
  </linearGradient>
  <linearGradient id="at" x2="87" y2="-131" gradientTransform="translate(404.54 373.6)" gradientUnits="userSpaceOnUse">
   <stop stop-color="#0ff" offset="0"/>
   <stop stop-color="#0c00ff" offset="1"/>
  </linearGradient>
  <linearGradient id="au" x2="-143" y2="-198" gradientTransform="translate(316.54 366.6)" gradientUnits="userSpaceOnUse">
   <stop stop-color="#0ff" offset="0"/>
   <stop stop-color="#0c00ff" offset="1"/>
  </linearGradient>
  <linearGradient id="aw" x2="34" y2="-26" gradientTransform="translate(524.54 305.6)" gradientUnits="userSpaceOnUse">
   <stop stop-color="#0ff" offset="0"/>
   <stop stop-color="#0c00ff" offset="1"/>
  </linearGradient>
  <linearGradient id="ax" x2="-28" y2="-38" gradientTransform="translate(182.54 304.6)" gradientUnits="userSpaceOnUse">
   <stop stop-color="#0ff" offset="0"/>
   <stop stop-color="#0c00ff" offset="1"/>
  </linearGradient>
  <linearGradient id="ay" x2="19" y2="-87" gradientTransform="translate(525.54 300.6)" gradientUnits="userSpaceOnUse">
   <stop stop-color="#0ff" offset="0"/>
   <stop stop-color="#0c00ff" offset="1"/>
  </linearGradient>
  <linearGradient id="az" x2="-48" y2="-70" gradientTransform="translate(203.54 296.6)" gradientUnits="userSpaceOnUse">
   <stop stop-color="#0ff" offset="0"/>
   <stop stop-color="#0c00ff" offset="1"/>
  </linearGradient>
  <linearGradient id="ba" x2="3" y2="-78" gradientTransform="translate(472.54 289.6)" gradientUnits="userSpaceOnUse">
   <stop stop-color="#0ff" offset="0"/>
   <stop stop-color="#0c00ff" offset="1"/>
  </linearGradient>
  <linearGradient id="bb" x2="-20" y2="-58" gradientTransform="translate(253.54 272.6)" gradientUnits="userSpaceOnUse">
   <stop stop-color="#0ff" offset="0"/>
   <stop stop-color="#0c00ff" offset="1"/>
  </linearGradient>
  <linearGradient id="bc" x2="33" y2="-107" gradientTransform="translate(482.54 305.6)" gradientUnits="userSpaceOnUse">
   <stop stop-color="#0ff" offset="0"/>
   <stop stop-color="#0c00ff" offset="1"/>
  </linearGradient>
  <linearGradient id="bd" x2="-39" y2="-92" gradientTransform="translate(231.54 286.6)" gradientUnits="userSpaceOnUse">
   <stop stop-color="#0ff" offset="0"/>
   <stop stop-color="#0c00ff" offset="1"/>
  </linearGradient>
  <linearGradient id="be" x2="10" y2="-73" gradientTransform="translate(485.54 215.6)" gradientUnits="userSpaceOnUse">
   <stop stop-color="#0ff" offset="0"/>
   <stop stop-color="#0c00ff" offset="1"/>
  </linearGradient>
  <linearGradient id="bg" x2="69" y2="-199" gradientTransform="translate(381.54 361.6)" gradientUnits="userSpaceOnUse">
   <stop stop-color="#0ff" offset="0"/>
   <stop stop-color="#0c00ff" offset="1"/>
  </linearGradient>
  <linearGradient id="bh" x2="-109" y2="-277" gradientTransform="translate(325.54 348.6)" gradientUnits="userSpaceOnUse">
   <stop stop-color="#0ff" offset="0"/>
   <stop stop-color="#0c00ff" offset="1"/>
  </linearGradient>
 </defs>
 <g transform="scale(1 -1)" fill="none" font-family="Times New Roman" font-size="16" stroke="#000">
  <g transform="translate(0 -720)">
   <g stroke="none" stroke-miterlimit="79.84">
    <path d="m177.54 88.473c-1.107 24.87 28.692 35.196 26.332 58.842 1.063 10.748-2.478 13.754-7.522 14.236-6.468 20.846-20.913 27.604-37.619 30.369 2.306 18.424-1.438 32.083-15.047 37.962 10.187 29.933 8.188 44.493-1.505 49.349-0.647 22.92-0.279 42.638 7.524 38.913 4.215 21.315 14.793 26.579 25.579 31.318-2.593 11.388 0.097 22.777 3.763 34.166-10.938-22.34-25.624-11.365-26.333-8.542-8.267 12.091-17.593 16.165-27.837 13.286-2.233 15.848-10.731 23.794-24.828 24.675 0.397 14.254-4.311 24.214-15.8 28.472 4.892 27.526-3.014 33.526-11.286 38.911 4.99 14.536 1.798 23.91-9.028 28.472 2.886 11.032 1.235 20.634-12.038 26.573 2.482 8.846-3.45 14.155-8.276 19.93-8.201 6.011-11.089 12.021-11.286 18.031 0.25 11.229-11.864 18.561-21.817 26.574-19.544 18.734-8.48 22.99 6.019 25.624 158.46 48.134 267.38-50.742 332.54-162.29 4.059-13.801 6.36-12.057 8.483-8.752l-1e-3 0.071-0.186 12.477c0.953-0.137 1.858-0.332 2.623-0.707 0.764 0.375 1.669 0.57 2.623 0.707l-0.187-12.477-1e-3 -0.071c2.123-3.305 4.424-5.049 8.484 8.752 65.167 111.54 174.09 210.42 332.54 162.29 14.499-2.634 25.563-6.89 6.019-25.624-9.953-8.013-22.067-15.345-21.817-26.574-0.197-6.01-3.085-12.02-11.286-18.031-4.826-5.775-10.758-11.084-8.276-19.93-13.273-5.939-14.924-15.541-12.038-26.573-10.826-4.562-14.018-13.936-9.028-28.472-8.272-5.385-16.178-11.385-11.286-38.911-11.489-4.258-16.197-14.218-15.8-28.472-14.097-0.881-22.595-8.827-24.828-24.675-10.244 2.879-19.57-1.195-27.837-13.286-0.709-2.823-15.395-13.798-26.333 8.542 3.666-11.389 6.356-22.778 3.763-34.166 10.786-4.739 21.364-10.003 25.579-31.318 7.803 3.725 8.171-15.993 7.524-38.913-9.693-4.856-11.692-19.416-1.505-49.349-13.609-5.879-17.353-19.538-15.047-37.962-16.706-2.765-31.151-9.523-37.619-30.369-5.044-0.482-8.585-3.488-7.522-14.236-2.36-23.646 27.439-33.972 26.332-58.842 5.575-20.319-3.171-24.471-10.534-28.471-11.294 4.1-17.932 14.074-17.303 33.217 0.597 14.43 0.578 29.639-3.011 49.35-4.47 12.287-10.096 17.301-16.551 17.083-7.775-3.342-15.55-1.581-23.323 7.593-6.016 5.71-12.112 10.919-20.314 2.847-11.036-2.285-23.563 3.423-42.885 45.554-14.735 55.437-13.862 108.81-34.609 156.59-3.992 0.764-8.042 2.056-9.781-17.083 2.559-18.626 0.91-30.616-3.766-37.832l-0.016-1.079c-0.124 0.167-0.247 0.337-0.366 0.51-0.12-0.173-0.243-0.343-0.366-0.51l-0.017 1.079c-4.676 7.216-6.325 19.206-3.765 37.832-1.739 19.139-5.789 17.847-9.781 17.083-20.747-47.779-19.874-101.16-34.609-156.59-19.322-42.131-31.849-47.839-42.885-45.554-8.202 8.072-14.298 2.863-20.314-2.847-7.773-9.174-15.548-10.935-23.323-7.593-6.455 0.218-12.081-4.796-16.551-17.083-3.589-19.711-3.608-34.92-3.011-49.35 0.629-19.143-6.009-29.117-17.303-33.217-7.363 4-16.109 8.152-10.534 28.471zm116.8 549.34c-9.651 2.707-16.812 8.729-15.981 13.444s9.338 6.346 18.991 3.64c9.652-2.706 16.812-8.728 15.982-13.442-0.832-4.715-9.338-6.347-18.992-3.642zm116.44 7.438c-0.831 4.715 6.328 10.736 15.981 13.442 9.652 2.706 18.16 1.075 18.99-3.64 0.831-4.714-6.328-10.736-15.98-13.443-9.653-2.706-18.161-1.075-18.991 3.641z" fill="#000" stroke-linecap="round" stroke-linejoin="round" stroke-width="1.508"/>
    <path d="m569.37 611.21c-11.524 6.314-1.068 13.778 23.339 16.659 24.407 2.88 53.569 0.093 65.094-6.222 11.524-6.314 1.068-13.779-23.339-16.658-24.407-2.881-53.569-0.094-65.094 6.221z" fill="url(#bn)" stroke-linecap="round" stroke-linejoin="round" stroke-width="1.508"/>
    <path d="m85.531 604.98c-24.407 2.879-34.863 10.344-23.339 16.658 11.525 6.315 40.687 9.102 65.094 6.222 24.407-2.881 34.863-10.345 23.339-16.659-11.525-6.315-40.687-9.102-65.094-6.221z" fill="url(#bo)" stroke-linecap="round" stroke-linejoin="round" stroke-width="1.508"/>
    <path d="m592.59 575.35c-6.648 8.934-0.616 19.496 13.465 23.572 14.08 4.077 30.906 0.132 37.554-8.802 6.648-8.936 0.616-19.498-13.464-23.573-14.081-4.077-30.907-0.132-37.555 8.803z" fill="url(#bx)" stroke-linecap="round" stroke-linejoin="round" stroke-width="1.508"/>
    <path d="m89.849 566.54c-14.08 4.075-20.112 14.637-13.464 23.573 6.648 8.934 23.474 12.879 37.554 8.802 14.081-4.076 20.113-14.638 13.465-23.572-6.648-8.935-23.474-12.88-37.555-8.803z" fill="url(#av)" stroke-linecap="round" stroke-linejoin="round" stroke-width="1.508"/>
    <path d="m595.44 542.5c-4.617 7.899 0.795 15.837 12.079 17.718 11.286 1.879 24.197-3.008 28.814-10.906 4.618-7.9-0.793-15.839-12.079-17.719-11.285-1.878-24.195 3.007-28.814 10.907z" fill="url(#bf)" stroke-linecap="round" stroke-linejoin="round" stroke-width="1.508"/>
    <path d="m95.735 531.59c-11.286 1.88-16.697 9.819-12.079 17.719 4.617 7.898 17.528 12.785 28.814 10.906 11.284-1.881 16.696-9.819 12.079-17.718-4.619-7.9-17.529-12.785-28.814-10.907z" fill="url(#bi)" stroke-linecap="round" stroke-linejoin="round" stroke-width="1.508"/>
    <path d="m586.4 506.68c-4.433 7.206-0.507 15.853 8.764 19.297 9.272 3.446 20.397 0.395 24.83-6.81s0.506-15.851-8.765-19.297c-9.271-3.445-20.396-0.395-24.829 6.81z" fill="url(#bj)" stroke-linecap="round" stroke-linejoin="round" stroke-width="1.508"/>
    <path d="m108.76 499.86c-9.271 3.446-13.198 12.092-8.765 19.297s15.558 10.256 24.83 6.81c9.271-3.444 13.197-12.091 8.764-19.297-4.433-7.205-15.558-10.255-24.829-6.81z" fill="url(#bk)" stroke-linecap="round" stroke-linejoin="round" stroke-width="1.508"/>
    <path d="m554.72 468.15c-18.17 8.188-25.114 20.889-15.501 28.346 9.614 7.455 32.165 6.863 50.335-1.326s25.115-20.889 15.501-28.344c-9.614-7.458-32.165-6.865-50.335 1.324z" fill="url(#bl)" stroke-linecap="round" stroke-linejoin="round" stroke-width="1.508"/>
    <path d="m114.93 466.83c-9.614 7.455-2.669 20.155 15.501 28.344s40.721 8.781 50.335 1.326c9.613-7.457 2.669-20.158-15.501-28.346-18.17-8.189-40.721-8.782-50.335-1.324z" fill="url(#bm)" stroke-linecap="round" stroke-linejoin="round" stroke-width="1.508"/>
    <path d="m479.81 448.86c2.875-0.287 5.752-0.441 8.628-0.49-2.858 0.301-5.731 0.456-8.628 0.49z" fill="url(#a)" stroke-linecap="round" stroke-linejoin="round" stroke-width="1.508"/>
    <path d="m240.18 448.86c-2.877-0.287-5.752-0.441-8.63-0.49 2.858 0.301 5.731 0.456 8.63 0.49z" fill="url(#a)" stroke-linecap="round" stroke-linejoin="round" stroke-width="1.508"/>
    <path d="m548.08 437.08c-11.918 6.544-16.522 16.904-10.275 23.124 6.247 6.221 20.993 5.959 32.91-0.584 11.919-6.544 16.522-16.905 10.276-23.125-6.247-6.22-20.992-5.958-32.911 0.585z" fill="url(#bp)" stroke-linecap="round" stroke-linejoin="round" stroke-width="1.508"/>
    <path d="m139 436.49c-6.246 6.22-1.643 16.581 10.276 23.125 11.917 6.543 26.663 6.805 32.91 0.584 6.247-6.22 1.643-16.58-10.275-23.124-11.919-6.543-26.664-6.805-32.911-0.585z" fill="url(#bq)" stroke-linecap="round" stroke-linejoin="round" stroke-width="1.508"/>
    <path d="m538.87 595.49c53.21 15.897 68.06-78.889 4.892-85.889-64.913-11.826-123.82-34.817-168.16-80.195 40.369 106.08 98.146 148.91 163.26 166.08z" fill="url(#br)" stroke-linecap="round" stroke-linejoin="round" stroke-width="1.508"/>
    <path d="m176.23 509.6c-63.168 7-48.318 101.79 4.892 85.889 65.117-17.171 122.89-60.006 163.26-166.08-44.337 45.378-103.24 68.369-168.16 80.195z" fill="url(#bs)" stroke-linecap="round" stroke-linejoin="round" stroke-width="1.508"/>
    <path d="m384.26 428.93c73.206 53.538 105.5 59.856 129.78 56.943 24.06-6.575 14.428-31.948 2.632-35.59-9.413-1.118-18.826-2.075-28.238-1.912 6.085-0.646 12.092-1.969 18.082-4.256 18.991-9.027 15.707-29.042-13.919-30.368-36.55 6.711-72.796 12.277-108.34 15.183z" fill="url(#bt)" stroke-linecap="round" stroke-linejoin="round" stroke-width="1.508"/>
    <path d="m213.47 444.11c5.99 2.287 11.995 3.61 18.08 4.256-9.412-0.163-18.824 0.794-28.236 1.912-11.796 3.642-21.428 29.015 2.632 35.59 24.289 2.913 56.578-3.405 129.78-56.943-35.545-2.906-71.791-8.472-108.34-15.183-29.626 1.326-32.91 21.341-13.919 30.368z" fill="url(#bu)" stroke-linecap="round" stroke-linejoin="round" stroke-width="1.508"/>
    <path d="m533.76 409.96c-10.232 6.622-14.144 17.012-8.735 23.192 5.409 6.178 18.105 5.817 28.336-0.805 10.232-6.625 14.144-17.015 8.735-23.193-5.408-6.18-18.105-5.817-28.336 0.806z" fill="url(#bv)" stroke-linecap="round" stroke-linejoin="round" stroke-width="1.508"/>
    <path d="m157.89 409.15c-5.409 6.178-1.497 16.568 8.735 23.193 10.231 6.622 22.927 6.983 28.336 0.805 5.409-6.18 1.497-16.57-8.735-23.192-10.231-6.623-22.928-6.986-28.336-0.806z" fill="url(#bw)" stroke-linecap="round" stroke-linejoin="round" stroke-width="1.508"/>
    <path d="m527.58 390.33c-7.1 1.594-12 6.846-10.941 11.725 1.06 4.88 7.682 7.549 14.781 5.956 7.098-1.593 11.999-6.846 10.939-11.725-1.059-4.881-7.68-7.548-14.779-5.956z" fill="url(#by)" stroke-linecap="round" stroke-linejoin="round" stroke-width="1.508"/>
    <path d="m177.64 396.29c-1.06 4.879 3.841 10.132 10.939 11.725 7.099 1.593 13.721-1.076 14.781-5.956 1.059-4.879-3.841-10.131-10.941-11.725-7.099-1.592-13.72 1.075-14.779 5.956z" fill="url(#bz)" stroke-linecap="round" stroke-linejoin="round" stroke-width="1.508"/>
    <path d="m518.56 366.77c-45.616 26.671-92.73 47.687-144.46 51.249 49.657 7.147 99.312-9.167 148.97-31.794 31.373-18.886 5.508-28.816-4.514-19.455z" fill="url(#ca)" stroke-linecap="round" stroke-linejoin="round" stroke-width="1.508"/>
    <path d="m196.92 386.22c49.657 22.627 99.312 38.941 148.97 31.794-51.725-3.562-98.839-24.578-144.46-51.249-10.022-9.361-35.887 0.569-4.514 19.455z" fill="url(#ao)" stroke-linecap="round" stroke-linejoin="round" stroke-width="1.508"/>
    <path d="m541.8 315.2c-0.985 4.895 1.859 10.377 6.344 12.235 4.487 1.858 8.925-0.606 9.908-5.5 0.984-4.896-1.859-10.379-6.345-12.236-4.486-1.858-8.924 0.606-9.907 5.501z" fill="url(#ap)" stroke-linecap="round" stroke-linejoin="round" stroke-width="1.508"/>
    <path d="m168.29 309.7c-4.486 1.857-7.329 7.34-6.345 12.236 0.983 4.894 5.421 7.358 9.908 5.5 4.485-1.858 7.329-7.34 6.344-12.235-0.983-4.895-5.421-7.359-9.907-5.501z" fill="url(#aq)" stroke-linecap="round" stroke-linejoin="round" stroke-width="1.508"/>
    <path d="m493.73 302.23c-28.838 42.196-61.777 80-121.13 107.24 52.698 5.618 104.79-17.776 156.49-59.789 29.064-36.724-8.599-69.741-35.361-47.452z" fill="url(#ar)" stroke-linecap="round" stroke-linejoin="round" stroke-width="1.508"/>
    <path d="m190.9 349.68c51.701 42.013 103.79 65.407 156.49 59.789-59.353-27.241-92.292-65.045-121.13-107.24-26.762-22.289-64.425 10.728-35.361 47.452z" fill="url(#as)" stroke-linecap="round" stroke-linejoin="round" stroke-width="1.508"/>
    <path d="m450.84 289.42c-20.023 43.152-42.518 83.662-75.988 112.46 34.746-12.169 67.04-44.432 97.808-89.211 9.834-25.457-6.461-40.704-21.82-23.251z" fill="url(#at)" stroke-linecap="round" stroke-linejoin="round" stroke-width="1.508"/>
    <path d="m247.33 312.67c30.768 44.779 63.062 77.042 97.808 89.211-33.47-28.8-55.965-69.31-75.988-112.46-15.359-17.453-31.654-2.206-21.82 23.251z" fill="url(#au)" stroke-linecap="round" stroke-linejoin="round" stroke-width="1.508"/>
    <path d="m538.34 281.3c-4.422 5.648-5.15 14.333-1.621 19.386 3.53 5.051 9.985 4.565 14.408-1.085 4.424-5.649 5.15-14.335 1.621-19.386-3.529-5.052-9.985-4.566-14.408 1.085z" fill="url(#aw)" stroke-linecap="round" stroke-linejoin="round" stroke-width="1.508"/>
    <path d="m167.25 280.22c-3.529 5.051-2.803 13.737 1.621 19.386 4.423 5.65 10.878 6.136 14.408 1.085 3.529-5.053 2.801-13.738-1.621-19.386-4.423-5.651-10.879-6.137-14.408-1.085z" fill="url(#ax)" stroke-linecap="round" stroke-linejoin="round" stroke-width="1.508"/>
    <path d="m528.18 248.99c-7.792 9.103-11.876 23.286-9.116 31.659 2.761 8.374 11.326 7.783 19.118-1.318 7.791-9.101 11.875-23.284 9.115-31.659-2.759-8.373-11.325-7.784-19.117 1.318z" fill="url(#ay)" stroke-linecap="round" stroke-linejoin="round" stroke-width="1.508"/>
    <path d="m172.7 247.67c-2.76 8.375 1.324 22.558 9.115 31.659 7.792 9.101 16.357 9.692 19.118 1.318 2.76-8.373-1.324-22.556-9.116-31.659-7.792-9.102-16.358-9.691-19.117-1.318z" fill="url(#az)" stroke-linecap="round" stroke-linejoin="round" stroke-width="1.508"/>
    <path d="m469.99 231.78c-6.181 10.891-7.922 25.821-3.885 33.324 4.039 7.504 12.336 4.754 18.518-6.138 6.183-10.891 7.923-25.821 3.886-33.324-4.038-7.503-12.334-4.753-18.519 6.138z" fill="url(#ba)" stroke-linecap="round" stroke-linejoin="round" stroke-width="1.508"/>
    <path d="m231.48 225.65c-4.037 7.503-2.297 22.433 3.886 33.324 6.182 10.892 14.479 13.642 18.518 6.138 4.037-7.503 2.296-22.433-3.885-33.324-6.185-10.891-14.481-13.641-18.519-6.138z" fill="url(#bb)" stroke-linecap="round" stroke-linejoin="round" stroke-width="1.508"/>
    <path d="m503.47 228.07c-10.125 14.993-17.359 38.012-16.148 51.378 1.209 13.365 10.409 12.046 20.533-2.945 10.123-14.994 17.357-38.012 16.148-51.379-1.209-13.366-10.409-12.048-20.533 2.946z" fill="url(#bc)" stroke-linecap="round" stroke-linejoin="round" stroke-width="1.508"/>
    <path d="m195.99 225.12c-1.209 13.367 6.025 36.385 16.148 51.379 10.124 14.991 19.324 16.31 20.533 2.945 1.211-13.366-6.023-36.385-16.148-51.378-10.124-14.994-19.324-16.312-20.533-2.946z" fill="url(#bd)" stroke-linecap="round" stroke-linejoin="round" stroke-width="1.508"/>
    <path d="m479.86 196.05c-2.484 7.295-0.65 15.717 4.095 18.797 4.748 3.079 10.619-0.342 13.105-7.636 2.484-7.296 0.65-15.719-4.096-18.798-4.747-3.08-10.617 0.344-13.104 7.637z" fill="url(#be)" stroke-linecap="round" stroke-linejoin="round" stroke-width="1.508"/>
    <path d="m227.03 188.42c-4.746 3.079-6.58 11.502-4.096 18.798 2.486 7.294 8.357 10.715 13.105 7.636 4.745-3.08 6.579-11.502 4.095-18.797-2.487-7.293-8.357-10.717-13.104-7.637z" fill="url(#a)" stroke-linecap="round" stroke-linejoin="round" stroke-width="1.508"/>
    <path d="m428.27 208.28c-17.617 66.756-33.702 135-62.07 189.81 41.284-23.72 79.772-109.68 97.807-181.27 4.713-45.584-23.634-36.113-35.737-8.543z" fill="url(#bg)" stroke-linecap="round" stroke-linejoin="round" stroke-width="1.508"/>
    <path d="m255.98 216.82c18.035 71.582 56.523 157.55 97.807 181.27-28.368-54.81-44.453-123.05-62.07-189.81-12.103-27.57-40.45-37.041-35.737 8.543z" fill="url(#bh)" stroke-linecap="round" stroke-linejoin="round" stroke-width="1.508"/>
    <path d="m360.84 372c-0.132 0.634-0.207 1.326-0.276 1.975-0.246 2.301-0.413 4.64-0.552 6.959-0.027-0.374-0.055-0.749-0.083-1.124-0.128-1.674-0.262-3.391-0.497-5.045-0.051-0.362-0.113-0.702-0.186-1.058-0.013-0.062-0.057-0.235-0.08-0.287-0.024-0.055-0.119-0.18-0.156-0.235-0.02 0.031-0.04 0.064-0.059 0.097-0.185 0.31-0.209 0.745-0.256 1.121-0.119 0.957-0.163 1.942-0.217 2.908-0.082 1.454-0.111 2.925-0.147 4.382-0.062 2.529-0.076 5.066-0.083 7.596-0.011 5.08 0.058 10.161 0.167 15.238 0.045 2.113 0.098 4.227 0.161 6.34l-6e-3 0.144c-0.104 2.409-0.195 4.819-0.303 7.227-0.039 0.857-0.067 1.714-0.108 2.568-0.05 1.02-0.093 2.048-0.129 3.068-0.039 1.09-0.097 2.18-0.141 3.27-0.054 1.35-0.118 2.699-0.176 4.05-0.032 0.756-0.058 1.515-0.099 2.27-0.035 0.654-0.066 1.317-0.089 1.97-0.052 1.446-0.127 2.898-0.196 4.341-0.092 1.906-0.168 3.813-0.268 5.717-0.077 1.479-0.142 2.961-0.214 4.44-0.103 2.12-0.212 4.239-0.326 6.357-0.062 1.159-0.116 2.321-0.188 3.479-0.15 2.454-0.261 4.916-0.421 7.37-0.289 4.454-0.541 8.911-0.88 13.358-0.118 1.557-0.221 3.116-0.349 4.67-0.087 1.059-0.171 2.119-0.253 3.177-0.257 3.347-0.58 6.687-0.883 10.026-0.106 1.161-0.237 2.321-0.341 3.483-0.17 1.883-0.389 3.767-0.59 5.645-0.363 3.388-0.756 6.782-1.191 10.155-0.255 1.973-0.518 3.947-0.778 5.921-0.118 0.889-0.255 1.773-0.373 2.661-0.166 1.253-0.364 2.508-0.549 3.757-0.156 1.047-0.308 2.103-0.482 3.144-0.078 0.469-0.143 0.943-0.22 1.412-0.129 0.797-0.269 1.598-0.388 2.397-0.105 0.714-0.241 1.429-0.357 2.141-0.319 1.956-0.667 3.912-1.02 5.858-0.621 3.418-1.283 6.819-1.969 10.216-0.32 1.586-0.663 3.164-0.996 4.746-0.498 2.364-1.061 4.704-1.586 7.058-0.257 1.15-0.554 2.293-0.825 3.44-0.771 3.263-1.637 6.504-2.502 9.729-0.869 3.241-1.815 6.445-2.776 9.642-0.356 1.186-0.724 2.38-1.108 3.553-0.221 0.673-0.429 1.353-0.654 2.024-0.712 2.126-1.416 4.24-2.167 6.343-1.279 3.583-2.648 7.105-4.108 10.575-1.281 3.045-2.678 6.075-4.16 8.972-0.427 0.835-0.871 1.653-1.308 2.479-1.06 2.001-2.232 3.941-3.425 5.817-0.5 0.786-1.019 1.564-1.549 2.317-0.414 0.587-0.83 1.198-1.267 1.759-0.207 0.267-0.408 0.542-0.614 0.812-0.272 0.354-0.557 0.697-0.832 1.047-0.427 0.542-0.887 1.038-1.324 1.564-0.4 0.483-0.843 0.935-1.267 1.385-0.597 0.638-1.221 1.251-1.853 1.832-1.039 0.952-2.103 1.863-3.222 2.661-0.518 0.368-1.033 0.74-1.567 1.068-0.175 0.108-0.349 0.228-0.524 0.332-0.256 0.147-0.513 0.296-0.768 0.449-0.157 0.093-0.329 0.182-0.49 0.265-0.153 0.078-0.304 0.177-0.459 0.249-0.298 0.142-0.592 0.297-0.89 0.441-0.696 0.337-1.413 0.609-2.123 0.887-0.852 0.334-1.764 0.623-2.636 0.854-0.212 0.055-0.428 0.116-0.638 0.181-0.164 0.05-0.337 0.086-0.503 0.13-0.288 0.08-0.585 0.163-0.87 0.256-0.165 0.054-0.552 0.165-0.618 0.382 0.098 0.242 0.677 0.332 0.885 0.37 0.687 0.127 1.386 0.098 2.077 0.103 0.166 2e-3 0.335-0.026 0.501-0.031 0.377-0.01 0.767-0.062 1.139-0.12 0.643-0.101 1.292-0.192 1.925-0.371 0.18-0.05 0.365-0.082 0.544-0.14 0.292-0.092 0.59-0.182 0.883-0.265 0.122-0.034 0.247-0.083 0.367-0.129 0.231-0.084 0.464-0.16 0.695-0.25 0.947-0.369 1.902-0.8 2.812-1.295 0.486-0.265 0.961-0.554 1.438-0.841 0.606-0.364 1.234-0.787 1.812-1.223 0.483-0.363 0.967-0.717 1.44-1.106 0.874-0.716 1.724-1.482 2.549-2.283 0.572-0.552 1.115-1.142 1.666-1.724 0.644-0.682 1.269-1.428 1.878-2.161 0.141-0.169 0.275-0.353 0.417-0.525 0.27-0.327 0.55-0.681 0.8-1.031 0.174-0.241 0.367-0.466 0.538-0.71 0.542-0.774 1.114-1.518 1.633-2.316 0.498-0.766 0.996-1.524 1.486-2.298 0.482-0.761 0.946-1.562 1.402-2.351 0.461-0.795 0.925-1.615 1.35-2.44 0.209-0.408 0.434-0.803 0.641-1.215 0.689-1.373 1.406-2.738 2.038-4.155 0.198-0.444 0.415-0.877 0.61-1.325 0.23-0.526 0.473-1.043 0.697-1.573 0.17-0.402 0.342-0.805 0.518-1.202 0.162-0.369 0.329-0.767 0.475-1.145 0.189-0.488 0.403-0.963 0.591-1.45 0.345-0.89 0.706-1.771 1.042-2.669 0.408-1.086 0.808-2.176 1.202-3.271 0.819-2.273 1.571-4.584 2.309-6.901 0.243-0.766 0.482-1.538 0.711-2.31 0.144-0.488 0.303-0.976 0.438-1.468 0.081-0.296 0.18-0.589 0.262-0.885 0.441-1.592 0.912-3.17 1.333-4.772 0.3-1.141 0.62-2.278 0.903-3.425 0.156-0.635 0.315-1.274 0.483-1.905 0.116-0.439 0.222-0.897 0.328-1.341 0.286-1.213 0.587-2.422 0.867-3.639 0.583-2.537 1.164-5.08 1.69-7.637 0.221-1.08 0.448-2.158 0.669-3.236 0.313-1.532 0.606-3.068 0.908-4.602 0.308-1.563 0.582-3.136 0.877-4.702 0.116-0.61 0.223-1.224 0.333-1.836 0.058-0.315 0.123-0.637 0.172-0.954 0.101-0.649 0.228-1.304 0.341-1.952 0.118-0.675 0.228-1.356 0.351-2.031 0.2-1.097 0.364-2.209 0.559-3.309 0.214-1.209 0.391-2.437 0.593-3.65 0.433-2.602 0.825-5.227 1.22-7.841 0.384-2.546 0.769-5.095 1.125-7.648 0.482-3.448 0.984-6.893 1.438-10.347 0.444-3.389 0.912-6.775 1.329-10.169 0.206-1.68 0.44-3.359 0.634-5.041 0.14-1.223 0.314-2.443 0.449-3.669 0.103-0.925 0.23-1.846 0.333-2.77 0.293-2.608 0.628-5.212 0.917-7.822 0.186-1.673 0.378-3.343 0.565-5.017 0.131-1.172 0.249-2.353 0.386-3.526 0.137-1.165 0.26-2.345 0.377-3.514 0.227-2.266 0.467-4.531 0.699-6.798 0.538-5.272 1.023-10.562 1.472-15.847 0.433-5.094 0.837-10.193 1.191-15.298 0.11 1.823 0.221 3.644 0.349 5.466s0.256 3.646 0.378 5.467c0.104 1.538 0.228 3.073 0.339 4.61 0.127 1.744 0.261 3.495 0.409 5.235 0.401 4.742 0.769 9.489 1.221 14.224 0.123 1.283 0.23 2.57 0.357 3.852 0.347 3.518 0.675 7.037 1.03 10.553 0.437 4.331 0.899 8.656 1.363 12.983 0.149 1.385 0.301 2.771 0.458 4.155 0.132 1.169 0.254 2.344 0.395 3.511 0.093 0.774 0.177 1.554 0.265 2.33 0.135 1.213 0.285 2.422 0.423 3.635 0.156 1.376 0.319 2.76 0.492 4.133 0.128 1.003 0.237 2.008 0.366 3.011 0.263 2.059 0.507 4.122 0.772 6.181 0.277 2.157 0.557 4.312 0.843 6.465 0.206 1.559 0.427 3.114 0.636 4.672 0.247 1.853 0.529 3.698 0.785 5.549 0.176 1.269 0.369 2.547 0.566 3.811 0.205 1.316 0.394 2.635 0.604 3.948 0.12 0.758 0.247 1.516 0.362 2.276 0.423 2.787 0.924 5.562 1.398 8.335 0.201 1.171 0.419 2.337 0.631 3.504 0.236 1.297 0.475 2.595 0.731 3.884 0.609 3.068 1.215 6.13 1.893 9.177 1.502 6.746 3.166 13.461 5.201 19.985 0.426 1.366 0.861 2.726 1.313 4.079 0.341 1.021 0.697 2.028 1.05 3.041 0.482 1.379 1.008 2.745 1.531 4.099 1.451 3.753 3.096 7.439 4.903 10.94 0.508 0.987 1.033 1.977 1.582 2.93 0.249 0.432 0.49 0.871 0.748 1.296 0.379 0.625 0.747 1.267 1.141 1.88 0.538 0.839 1.081 1.708 1.655 2.509 0.161 0.225 0.323 0.453 0.482 0.68 0.542 0.775 1.114 1.521 1.69 2.256 1.27 1.621 2.624 3.135 4.046 4.539 0.613 0.605 1.242 1.185 1.885 1.739 0.204 0.173 0.41 0.359 0.616 0.526 1.562 1.258 3.155 2.4 4.855 3.34 0.634 0.35 1.279 0.667 1.927 0.976 0.246 0.117 0.501 0.212 0.749 0.327 0.69 0.315 1.404 0.536 2.112 0.782 0.311 0.107 0.626 0.191 0.94 0.28 0.708 0.2 1.423 0.36 2.141 0.49 0.349 0.064 0.694 0.114 1.045 0.16 0.169 0.024 0.341 0.056 0.51 0.068 0.324 0.021 0.648 0.062 0.973 0.084 0.331 0.024 0.664 0.02 0.994 0.04h0.548c0.516 2e-3 1.014-0.042 1.528-0.067 0.276-0.016 0.554-0.059 0.829-0.093 0.417-0.052 0.849-0.113 1.261-0.222 0.205-0.054 0.406-0.09 0.61-0.159s0.733-0.214 0.819-0.468c-0.11-0.247-0.705-0.315-0.923-0.345-0.858-0.119-1.716-0.223-2.574-0.328-2.095-0.26-4.225-0.73-6.256-1.433-0.736-0.257-1.453-0.54-2.175-0.852-0.3-0.131-0.608-0.261-0.901-0.416-0.115-0.059-0.234-0.107-0.349-0.164-0.212-0.104-0.423-0.222-0.633-0.332-0.119-0.06-0.24-0.118-0.357-0.185-0.603-0.351-1.23-0.687-1.817-1.08-0.278-0.185-0.555-0.372-0.834-0.553-0.201-0.133-0.407-0.29-0.605-0.432-0.579-0.42-1.144-0.85-1.702-1.313-0.962-0.797-1.876-1.627-2.785-2.518-0.93-0.912-1.839-1.92-2.696-2.938-1.914-2.274-3.661-4.711-5.289-7.315-0.734-1.172-1.434-2.371-2.122-3.588-0.648-1.147-1.263-2.331-1.868-3.515-0.937-1.836-1.839-3.731-2.676-5.64-0.368-0.842-0.749-1.682-1.1-2.535-0.34-0.824-0.674-1.649-1.013-2.472-0.246-0.599-0.497-1.219-0.723-1.831-0.236-0.641-0.491-1.275-0.73-1.913-0.256-0.68-0.503-1.365-0.755-2.046-0.75-2.035-1.423-4.11-2.12-6.172-0.172-0.507-0.336-1.025-0.497-1.538-0.475-1.513-0.946-3.023-1.403-4.547-1.491-4.964-2.828-9.997-4.072-15.068-2.369-9.658-4.335-19.523-5.986-29.415-0.563-3.371-1.08-6.75-1.583-10.139-0.515-3.475-0.969-6.966-1.411-10.456-0.706-5.568-1.323-11.174-1.854-16.773-0.234-2.458-0.48-4.927-0.674-7.391-0.156-1.974-0.323-3.944-0.483-5.917-0.294-3.63-0.548-7.281-0.779-10.917-0.208-3.265-0.402-6.53-0.595-9.795-0.228-3.85-0.405-7.704-0.604-11.557-0.18-3.488-0.331-6.982-0.481-10.472-0.226-5.312-0.452-10.624-0.662-15.935-0.283-7.172-0.572-14.342-0.849-21.513-0.076-1.945-0.157-3.89-0.239-5.835 0.018-0.563 0.036-1.124 0.053-1.684 0.238-8.016 0.388-16.025 0.326-24.048-0.028-3.586-0.091-7.19-0.299-10.767-0.034-0.585-0.08-1.18-0.139-1.762-0.025-0.243-0.047-0.533-0.092-0.768-0.034-0.18-0.073-0.526-0.137-0.679l-0.086-0.139-0.057-0.091c-0.173 0.182-0.223 0.452-0.277 0.714z" fill="#000" fill-rule="evenodd" stroke-width=".76"/>
   </g>
  </g>
 </g>
</svg>
