<?xml version='1.0' encoding='utf-8'?>
<svg xmlns="http://www.w3.org/2000/svg" version="1.1" width="600px" height="976px" viewBox="0 0 600 976"> <g id="layer1"> <g style="fill:rgb(0,0,0); fill-opacity:1.0; stroke-linejoin: miter"> <path d="M247.81975,382.87006C247.50494,383.12653,247.48163,383.56964,247.64487,385.67987C247.84306,388.11664,246.91034,390.4485,244.45027,393.70135C241.82698,397.18744,237.93283,401.41968,231.32214,408.00708C224.01189,415.294,222.77603,416.7514,220.08278,421.2401C219.03346,422.97736,217.40118,426.37012,216.52676,428.64362C214.4048,434.13507,213.1806,440.08124,213.0057,445.84082C212.95908,447.28656,212.88913,448.30084,212.85414,448.11432C212.70258,447.40314,212.46939,447.16992,211.81648,447.065C211.60663,447.03003,211.60663,447.08832,211.79317,444.90808C211.96805,442.92603,211.9797,436.9333,211.80482,434.9395C211.14026,426.9997,210.1026,421.1585,208.3071,415.1657C206.10353,407.79718,203.34033,403.16852,201.16008,403.16852C200.7287,403.16852,200.2973,403.50665,200.60043,403.61157C200.83362,403.69318,202.01118,404.67255,202.51253,405.20886C204.62283,407.45905,207.26944,413.2187,208.71516,418.66345C209.76448,422.63922,210.86044,429.30823,211.22186,433.94855C211.57164,438.48395,211.65326,442.7978,211.4667,445.6076C211.33847,447.30988,211.29182,447.47308,210.91873,447.47308C210.74385,447.47308,210.60394,447.39148,210.55731,447.26324C209.85776,445.18793,207.2811,439.27673,205.67215,436.04718C200.65874,425.96204,195.82022,420.1325,191.10994,418.50024C190.7835,418.38367,190.01399,418.26703,189.34943,418.2437C188.39337,418.18542,188.11356,418.2204,187.77545,418.38367C187.22746,418.66345,186.97096,418.90833,186.97096,419.15314C186.97096,419.32806,187.01761,419.33966,187.35571,419.2464C187.97365,419.05988,189.5243,419.11816,190.48035,419.36298C193.65163,420.17914,197.14935,423.2105,200.28564,427.8858C203.02553,431.97815,206.31339,438.15747,208.75015,443.80048C209.5896,445.75922,210.28915,447.44977,210.28915,447.53137C210.28915,447.56635,210.19586,447.58966,210.07928,447.58966C209.82278,447.58966,209.40305,448.02106,209.3331,448.34747C209.28647,448.54572,209.23982,448.49908,209.00665,448.11432C208.41203,447.1233,206.58154,444.46503,205.92865,443.62555C204.17978,441.41034,201.03183,438.1808,199.00314,436.51355C198.72333,436.292,198.35023,435.9655,198.17535,435.79065C197.9888,435.62744,197.68567,435.39423,197.51077,435.266C197.32423,435.1494,197.03276,434.92792,196.85788,434.7763C196.67133,434.62476,196.40317,434.41486,196.2516,434.31C192.87047,432.05975,191.14493,431.06873,188.85974,430.11267C186.7378,429.2149,185.51358,428.79523,182.38895,427.87415C180.83829,427.41943,178.8096,426.81317,177.87688,426.52167C176.94415,426.24188,175.48676,425.79883,174.624,425.5423C173.77287,425.28583,172.98006,425.04095,172.87512,424.98273C172.7702,424.92438,171.63927,424.5047,170.35677,424.06158C164.51556,421.998,162.30034,420.94867,160.10843,419.21143C159.12906,418.41864,158.2663,417.08948,157.64836,415.3756C157.54343,415.07245,157.3219,414.7343,157.17033,414.62946C156.91383,414.4662,156.84389,414.4662,156.57571,414.60608C155.71295,415.07245,155.86452,416.32,157.07706,418.72174C159.1757,422.8957,163.19809,427.06964,166.25276,428.2589C167.24379,428.64362,167.18549,428.562,167.16217,429.57635C167.15051,430.68402,167.48863,431.80328,168.09491,432.59607C168.56126,433.20233,169.64555,434.07678,170.38008,434.43823C170.68321,434.58978,171.28949,435.05615,171.73254,435.4759L172.54868,436.25702L172.46706,436.83997C172.31549,438.02924,173.25987,439.5799,174.37915,439.95294C175.04372,440.1745,175.61502,440.7458,176.08138,441.6552C176.31456,442.12152,176.40784,442.54126,176.48944,443.4157C176.71097,445.96906,177.48047,447.15826,179.1827,447.5197C179.35757,447.5547,179.67238,447.81122,179.89389,448.091C180.75667,449.14032,180.9782,449.92145,180.62842,450.59772L180.4652,450.92413L181.39792,450.91254C182.29567,450.91254,182.34232,450.92413,182.57549,451.2506C183.00687,451.8219,184.27771,453.0578,184.6508,453.24432C184.83736,453.34924,185.18713,453.43085,185.4203,453.4425C185.75842,453.45416,185.94496,453.57074,186.43465,454.07208C187.13419,454.79498,187.7288,454.9815,188.28844,454.6551C188.74315,454.39856,188.76646,454.41022,188.94135,454.88824C189.2678,455.79767,190.22385,456.54382,191.35478,456.80035C191.65793,456.8703,192.04266,457.0335,192.22922,457.1618C192.60231,457.41827,192.84714,458.04785,192.74222,458.4676C192.68391,458.70074,192.75388,458.8407,193.06866,459.16718C193.75656,459.84338,194.43279,460.0066,196.53142,459.99493C198.09373,459.98328,198.5018,459.93665,199.50449,459.66846C200.14574,459.50525,200.70537,459.36536,200.75201,459.36536C200.8103,459.36536,200.84528,459.48193,200.84528,459.62183C200.84528,459.8084,200.62375,460.06488,200.14574,460.44965C199.34126,461.09088,198.66504,461.90704,198.26862,462.7115C198.05876,463.13123,197.9888,463.49268,197.96548,464.14557C197.96548,464.6236,197.87221,465.22986,197.76727,465.48636C197.52245,466.12762,197.5341,466.62897,197.82558,467.28186C198.03545,467.77155,198.0471,467.91144,197.93051,468.3545C197.84889,468.62268,197.7906,469.27557,197.80226,469.78857C197.80226,471.18765,198.22198,472.16702,198.99149,472.6217C199.1897,472.7383,199.58609,473.18137,199.86592,473.6244C200.85693,475.14008,201.97621,476.15442,202.67575,476.15442C203.02553,476.15442,203.18875,476.27103,203.8883,477.0172C204.7744,477.9616,205.18246,478.19476,205.83537,478.11316C206.24344,478.06653,206.30173,478.1015,206.73312,478.64948C207.31607,479.384,207.969,479.73376,208.37704,479.54724C208.52863,479.47726,208.65686,479.43063,208.65686,479.45395C208.65686,479.4656,208.80844,479.862,209.00665,480.32837C209.39139,481.27277,210.02098,483.6396,210.34744,485.3651C210.76717,487.5337,210.53398,491.4395,209.85776,493.58478C209.19319,495.70673,207.94566,497.43225,206.58154,498.12015C205.9403,498.4466,205.80038,498.58652,205.69547,499.01788C205.64883,499.23944,205.69547,499.42596,205.882,499.6475C206.10353,499.93896,206.18515,499.96228,206.6865,499.904C209.13489,499.61252,210.84879,496.47623,211.33847,491.42786C211.52501,489.41083,211.51334,486.77588,211.26851,482.45032C210.97702,477.00555,210.96536,469.159,211.25684,467.7599C211.51334,466.48904,212.28284,464.69354,213.22723,463.11957L213.46042,462.7348L214.02005,463.87738C214.64964,465.1599,215.8855,467.20026,216.07205,467.25854C216.24695,467.31683,216.34021,466.58234,216.43347,464.40207C216.46846,463.4344,216.52676,462.62988,216.55008,462.62988C216.62003,462.62988,218.78862,464.1339,219.51147,464.69354C220.77066,465.6496,221.94824,467.1303,223.28903,469.45044C224.04688,470.74463,226.19214,475.0235,227.3114,477.43695C227.71948,478.29968,228.30243,479.5589,228.60556,480.2118C228.92036,480.87634,229.17686,481.436,229.17686,481.45932C229.17686,481.48264,229.65489,482.47366,230.22618,483.67456C230.80914,484.87543,231.27551,485.90143,231.27551,485.95972C231.27551,486.08795,231.96338,487.35883,233.0127,489.1776C233.33916,489.73727,234.6683,491.73096,235.01807,492.174C237.24496,495.01883,239.35526,496.6278,241.19739,496.89594C243.17943,497.17578,244.57852,496.23138,243.75073,495.15875C243.55252,494.89056,243.4476,494.86725,242.44492,494.83228C240.35794,494.76233,238.67902,493.92288,236.75528,492.02246C235.81088,491.08972,234.19028,489.13098,234.19028,488.9328C234.19028,488.9095,233.98041,488.5597,233.7239,488.17496C233.4674,487.79022,233.25754,487.42877,233.25754,487.37048C233.25754,487.3122,233.16428,487.1373,233.04768,486.98572C232.77953,486.63596,231.74187,484.3391,231.74187,484.09427C231.74187,484.00098,231.56699,483.35974,231.34546,482.68353C231.12393,482.0073,230.86743,481.08624,230.77417,480.6432C230.61093,479.94363,230.22618,477.40195,230.22618,477.08716C230.22618,477.04053,230.37775,476.95892,230.57596,476.9123C231.1589,476.78403,231.60196,475.97955,231.80017,474.66205C231.85846,474.3123,231.94006,474.17236,232.06833,474.17236C232.46472,474.17236,233.02437,473.70602,233.29253,473.15805C233.61899,472.51678,233.95709,471.40918,233.95709,471.0011C233.95709,470.80292,234.08534,470.62802,234.38849,470.4298C235.26291,469.87018,235.7526,468.68097,235.96246,466.594C236.03241,465.84778,236.16066,465.20654,236.30057,464.9617C237.05841,463.49268,236.7203,461.77875,235.35619,460.0882C234.83153,459.4353,234.74991,459.27203,234.7266,458.74738C234.6683,457.86133,234.24857,457.11517,233.4674,456.5205C233.18759,456.31067,233.02437,456.08917,233.02437,455.93756C233.02437,455.2497,231.9284,454.17706,230.66922,453.59412C229.96968,453.2793,228.36073,452.83624,227.90604,452.83624C227.69617,452.83624,227.55624,452.74298,227.46298,452.54474C227.33473,452.26495,227.35805,452.2533,227.92935,452.07843C228.26746,451.98517,228.69885,451.8802,228.88539,451.8452C230.36609,451.53046,232.41809,450.64435,233.50238,449.8515C234.52838,449.10535,235.2396,448.11432,235.2396,447.42645C235.2396,447.28656,235.13466,446.97174,235.00641,446.7152C234.57503,445.86414,234.7266,445.35114,235.71762,444.40674C236.67366,443.4973,237.0351,442.6928,237.0351,441.57355L237.02344,440.73413L237.5481,440.67584C237.82791,440.6408,238.201,440.51263,238.36423,440.396C238.74898,440.10455,239.1687,439.2884,239.27364,438.6355C239.33194,438.27405,239.41354,438.09918,239.6001,438.02924C240.39291,437.72607,241.41891,435.61578,241.41891,434.29828C241.41891,433.78534,242.11845,433.10907,242.86464,432.89923C243.54086,432.71265,243.61081,432.60773,243.1911,432.38623C242.66644,432.11804,242.44492,431.66333,242.37495,430.8006C242.305,429.69293,242.58481,428.79523,243.1911,428.20062C244.45027,426.97638,244.53189,425.05267,243.42427,422.76746C243.05118,421.998,242.99289,421.7531,242.95792,420.867C242.89961,419.6195,243.1328,418.72174,243.65746,418.18542C244.17046,417.66077,244.46193,416.93793,244.48526,416.0868C244.52023,415.01416,244.36865,414.31464,244.0422,413.9532C243.48257,413.35858,243.76239,412.01776,244.77673,410.4088C245.86102,408.67163,246.12918,407.8438,246.12918,406.31647C246.14084,405.08063,245.90765,404.28778,245.25475,403.2735L244.89331,402.7022L245.41797,402.0959C246.35071,400.99994,247.45831,399.12286,247.88971,397.89862C248.74081,395.5318,249.0556,394.37756,249.47534,392.0924C249.72018,390.8216,249.75516,390.2619,249.75516,387.7785C249.75516,384.14093,249.5686,383.24316,248.69418,382.82343C248.21616,382.60187,248.14621,382.60187,247.81975,382.87006 Z M212.93576,449.94476C212.90079,450.0381,212.8658,450.0031,212.8658,449.87482C212.85414,449.74658,212.88913,449.67664,212.9241,449.72327C212.95908,449.75824,212.97073,449.86322,212.93576,449.94476 Z M210.48735,450.76093C210.45236,450.8542,210.41739,450.8192,210.41739,450.69098C210.40573,450.56274,210.4407,450.4928,210.47568,450.53943C210.51067,450.5744,210.52232,450.67932,210.48735,450.76093 Z"/> </g> <g style="fill:rgb(0,0,0); fill-opacity:1.0; stroke-linejoin: miter"> <path d="M428.08093,402.76044C428.08093,402.85376,428.13922,402.93536,428.1975,402.93536C428.26746,402.93536,428.3141,402.85376,428.3141,402.76044C428.3141,402.66718,428.26746,402.58557,428.1975,402.58557C428.13922,402.58557,428.08093,402.66718,428.08093,402.76044 Z"/> </g> <g style="fill:rgb(0,0,0); fill-opacity:1.0; stroke-linejoin: miter"> <path d="M428.3141,403.99634C428.3141,404.12457,428.36072,404.20618,428.43066,404.15955C428.489,404.12457,428.51233,404.01965,428.46564,403.9264C428.38403,403.68152,428.3141,403.70483,428.3141,403.99634 Z"/> </g> <g style="fill:rgb(0,0,0); fill-opacity:1.0; stroke-linejoin: miter"> <path d="M431.28717,405.85016C431.2522,405.9084,431.32214,405.96674,431.46204,405.96674C431.602,405.96674,431.67194,405.9084,431.63696,405.85016C431.602,405.78015,431.52032,405.73352,431.46204,405.73352C431.40375,405.73352,431.32214,405.78015,431.28717,405.85016 Z"/> </g> </g> </svg>