<?xml version="1.0" encoding="UTF-8"?>
<svg enable-background="new 0 0 357.003 345.997" viewBox="0 0 357.003 345.997" xmlns="http://www.w3.org/2000/svg">
 <path d="m159.89 242.67s-55.479 79.6-134.27 49.85c0 0-4.824 4.021-7.236-14.473 0 0-4.824-7.813-12.863-7.123s2.411-10.564 0-19.41c-2.412-8.844-9.647-8.844 1.607-20.102 11.256-11.256 0-18.492 0-18.492l12.061-12.062s-11.256-21.709 12.063-25.729c0 0-3.216-17.688 20.101-28.142 0 0-15.276-16.08 4.021-36.182 0 0-1.607-14.473 8.846-26.533 0 0-9.648-9.648-1.607-17.688 0 0-8.845-11.257-4.021-26.533s-2.412 0-2.412 0-14.479-49.044 8.034-38.592 114.22 56.635 111.81 218.24c0 0-4.521-163.57-87.512-194.93 0 0-25.102-13.669-19.473 12.864s-1.608 62.715-10.453 78.796-22.515 31.357 67.539 80.402l45.83 26.52s-116.95-58.534-117.39-69.937c0 0-12.864 0.801-16.886 14.471s-10.452 24.123-10.452 24.123-14.235 26.976-11.605 62.838c0.094 1.287 0.21 2.588 0.35 3.897 4.021 37.789 16.081 32.16 28.142 31.357s41.809 19.298 115.78-47.437z"/>
 <path d="m190.446,220.964c0,0 89.248-78.797 117.39-84.425s58.695-1.608 38.594,18.493-40.201,33.77-48.242,28.945c0,0 5.681,11.256-26.508,17.688 0,0-32.99,40.203-53.092,45.026s-35.377-16.082-35.377-16.082 22.513,25.729 28.945,20.904c0,0-4.021,13.668-20.103,21.709 0,0-9.647,26.183-24.926,25.954 0,0-4.824,18.27-22.514,15.051 0,0-4.311,14.773-16.158,15.773-1.693.145-3.54.006-5.552-.496 0,0-7.234,16.08-26.531,12.863-19.298-3.215-5.584-29.748 11.257-47.438s56.281-56.428 56.281-56.428-75.578,65.271-81.207,86.98 19.315,28.576 42.612,8.846c0,0 15.276,0 22.515-13.67 0,0 6.141,2.83 22.514-16.885 0,0 15.43-1.939 25.729-27.337 0,0-.755,1.599 25.729-24.121s52.263-43.418 52.263-43.418 70.045-37.791 78.843-52.264 13.623-33.59-50.7-22.423c-.001.009-56.284,28.864-111.762,86.755z"/>
 <path d="m184.42 218.15s-17.104 0.068-24.522 15.277-6.433 8.441-0.401 10.451c0 0 22.539-14.402 28.142-20.101s5.628-6.836 3.216-8.846-9.653-2.41-6.435 3.219z"/>
 <path d="m171.95 213.58s-50.653-79.048-48.241-112.82 28.976 2.906 30.937 5.226" fill="none" stroke="#000" stroke-width=".25"/>
 <path d="m127.63 88.192s-32.063-32.859-58.595-37.281" fill="none" stroke="#000" stroke-width=".25"/>
 <path d="m66.222 30.81s76.199 39.816 90.602 78.1" fill="none" stroke="#000" stroke-width=".25"/>
 <path d="m66.222 74.228s46.232 11.658 57.488 26.533" fill="none" stroke="#000" stroke-width=".25"/>
 <path d="m62.604 97.143s60.273 25.6 69.534 40.539" fill="none" stroke="#000" stroke-width=".25"/>
 <path d="m54.901 123.21c0.545-1.075 78.373 32.586 92.89 48.286" fill="none" stroke="#000" stroke-width=".25"/>
 <path d="m156.82 216.94s-100.65-48.645-133.61-21.709" fill="none" stroke="#000" stroke-width=".25"/>
 <path d="m154.64 220.16s-137.87-18.604-143.5 16.08" fill="none" stroke="#000" stroke-width=".25"/>
 <path d="m151.05 225.71s-70.354 74.453-109.75 68.422" fill="none" stroke="#000" stroke-width=".25"/>
 <path d="m11.145 257.55s98.008-44.781 136.65-31.84" fill="none" stroke="#000" stroke-width=".25"/>
 <path d="m201.92 211.04s116.76-74.497 96.261-27.059" fill="none" stroke="#000" stroke-width=".25"/>
 <path d="m197.1 215.18s58.873-13.658 46.01 13.553" fill="none" stroke="#000" stroke-width=".25"/>
 <path d="m151.05 257.55s-77.188 76.383-46.231 79.197" fill="none" stroke="#000" stroke-width=".25"/>
 <path d="m176.02 240.46s-45.476 59.305-38.642 69.758 10.41 5.627 10.41 5.627" fill="none" stroke="#000" stroke-width=".25"/>
 <g transform="translate(-240.94 -48.495)">
  <path d="m424.92,219.988c.793,5.918 1.457,11.856 2.036,17.799 .456,4.679.843,9.365 1.054,14.063 .153,3.462.438,7.224-.35,10.632-.029.137.041.264.176.307l3.576,1.141c.111.035.223-.023.282-.113 3.622-5.406 7.413-10.705 11.31-15.916 3.172-4.242 6.439-8.422 9.955-12.387 2.256-2.545 4.857-5.725 8.057-7.107 .297-.129.041-.561-.252-.434-2.453,1.063-4.457,3.246-6.271,5.137-2.937,3.06-5.607,6.375-8.226,9.707-4.697,5.986-9.137,12.183-13.443,18.451-.446.652-.893,1.307-1.336,1.963l-.221.326c.22-.326-1.42-.648-1.953-.82l-1.081-.344c-.31-.1-.062.111.013-.248 .101-.488.152-.984.205-1.479 .179-1.66.179-3.34.165-5.006-.063-8.701-1.049-17.426-2.023-26.064-.36-3.205-.744-6.406-1.172-9.604-.042-.318-.544-.322-.501-.004z"/>
 </g>
 <path d="m144.619,207.971c-56.088-32.359-64.425-37.762-78.124-50.633-8.124-7.632-13.876-16.837-13.876-22.203 0-2.214 1.667-8.676 2.521-9.779 .376-.485 14.158,5.246 29.479,12.257 27.573,12.62 53.298,26.855 60.344,33.393 1.563,1.452 4.118,5.147 5.675,8.211 3.461,6.814 16.512,29.375 19.227,33.234 1.085,1.545 2.157,2.625 2.383,2.398s-3.206-6.438-7.625-13.809c-10.091-16.828-24.396-44.874-30.532-59.858-8.461-20.663-11.608-38.991-8.125-47.321 3.558-8.512 8.175-7.531 19.655,4.173 8.313,8.477 8.569,8.885 11.708,18.638 8.579,26.667 14.138,55.803 17.35,90.93 1.007,11.021.955,12.06-.673,13.25-.972.71-2.468,1.282-3.325,1.271s-12.587-6.378-26.062-14.152z" fill="#b08bbb"/>
 <path d="m134.62 162.05c-12.641-8.302-62.549-32.746-75.225-36.842l-3.724-1.204 2.521-4.823c1.388-2.652 3.751-8.025 5.256-11.939l2.732-7.117 20.969 10.408c20.63 10.24 34.877 18.837 41.158 24.837 1.754 1.676 4.192 5.572 5.417 8.659 1.227 3.086 3.668 8.537 5.429 12.112 3.729 7.569 4.929 11.034 3.781 10.917-0.447-0.044-4.189-2.299-8.314-5.008z" fill="#b08bbb"/>
 <path d="m126.119,131.511c-6.349-5.195-21.765-14.069-40.337-23.219l-19.338-9.526 .647-3.06c.356-1.683 1.232-6.335 1.947-10.337s1.518-7.495 1.785-7.761c.951-.952 27.448,8.782 36.178,13.29 4.895,2.528 10.571,6.206 12.615,8.172 3.484,3.353 3.751,4.043 4.276,11.076 .309,4.125 1.704,11.081 3.104,15.458s2.446,8.048 2.332,8.16-1.559-.903-3.209-2.253z" fill="#b08bbb"/>
 <path d="m121.642,98.674c-4.116-4.96-20.855-13.102-39.382-19.154l-11.858-3.875 .601-5c.33-2.75.604-7.843.607-11.317 .011-7.58-.475-7.575 14.51-.124 10.858,5.401 21.043,12.6 32.908,23.261 6.442,5.789 7.438,7.101 6.586,8.689-.551,1.029-1.347,3.532-1.768,5.561-.701,3.375-.889,3.542-2.204,1.959z" fill="#b08bbb"/>
 <path d="m144.626,94.652c-5.307-5.406-10.161-7.858-14.343-7.245-2.74.402-4.076-.408-10.939-6.635-14.078-12.773-32.32-24.388-43.498-27.693-4.563-1.35-4.635-1.481-5.729-10.434-.337-2.75-.861-5.849-1.166-6.887-.471-1.603.327-1.393 5.307,1.397 17.856,10.007 45.405,29.65 58.067,41.405 7.204,6.689 17.922,19.289 17.104,20.108-.24.24-2.401-1.567-4.803-4.016z" fill="#b08bbb"/>
 <path d="m139.697,83.941c-12.604-13.504-32.45-28.6-57.078-43.415-14.519-8.733-15.607-10.068-11.973-14.69 1.7-2.161 2.94-2.688 6.295-2.676 4.884.018 18.346,5.703 27.266,11.514 7.843,5.109 21.67,19.152 28.034,28.47 5.396,7.901 16.077,27.665 15.321,28.347-.244.221-3.783-3.176-7.865-7.55z" fill="#b08bbb"/>
 <path d="m53.558,291.764c-.309-.314-6.098-.696-12.866-.846l-12.305-.273-3.4-3.936c-1.869-2.164-4.079-6.215-4.909-9-2.055-6.89-3.85-18.103-3.179-19.851 .302-.784 6.325-3.729 13.385-6.539 50.903-20.267 90.534-29.194 111.779-25.187l6.746,1.271-7.345,7.455c-14.323,14.535-39.885,35.328-55.345,45.018-12.877,8.076-30.133,14.375-32.561,11.888z" fill="#b08bbb"/>
 <path d="m70.021,290.077c19.792-9.019 42.292-25.574 69.849-51.396 11.237-10.53 13.266-12.921 10.5-12.378-.688.135-3.682-.357-6.651-1.092-8.021-1.986-28.664-.885-43.627,2.33-20.416,4.385-58.113,16.817-78.872,26.014l-5.9,2.613 .698-13.217c.384-7.271 1.133-13.74 1.665-14.382 1.705-2.054 12.706-6.483 19.679-7.927 23.317-4.82 64.426-4.7 110.01.32 3.986.438 7.25.496 7.25.127s-2.813-.959-6.25-1.311c-35.4-3.619-62.551-4.779-83.722-3.578-22.834,1.297-30.446,2.896-45.849,9.633-1.028.449-1.168-.283-.632-3.307 1.053-5.941 7.209-24.611 8.915-27.037 .833-1.184 3.657-2.922 6.275-3.863 6.299-2.266 24.739-3.071 35.454-1.553 19.349,2.745 49.23,11.902 75.387,23.102 6.38,2.732 12.25,4.968 13.045,4.968s3.694,1.142 6.445,2.535l5.001,2.532-3.37,3.218c-4.071,3.885-11.106,16.21-10.361,18.151 .681,1.775-6.963,8.974-19.337,18.207-24.762,18.478-45.766,28.101-65,29.777l-7.5.654 6.898-3.14z" fill="#b08bbb"/>
 <path d="m135.119,208.004c-17.518-7.465-47.075-16.277-63.386-18.898-11.511-1.85-28.559-1.652-35.472.41-3.222.961-6.04,1.564-6.263,1.342s.772-3.063 2.212-6.309 3.742-9.055 5.115-12.904c2.817-7.9 7.79-13.848 13.017-15.574 3.061-1.01 3.523-.882 5.388,1.488 4.813,6.117 34.374,24.384 70.39,43.494 18.961,10.061 22.24,12.594 8.999,6.951z" fill="#b08bbb"/>
 <path d="m93.119,341.823c-6.741-3.08-7.062-10.846-.956-23.201 4.929-9.975 14.084-21.014 29.032-35.004 7.036-6.584 18.896-18.074 26.357-25.533 9.218-9.215 16.931-15.849 24.065-20.694 5.774-3.923 13.547-9.847 17.271-13.164s7.549-6.438 8.5-6.938c6.448-3.379 33.96-4.668 40.401-1.892 5.354,2.31 7.318,5.731 5.848,10.192-.639,1.936-.896,3.949-.57,4.476 .882,1.427-11.004,10.692-18.429,14.371-12.183,6.037-23.181,3.593-35.987-7.996-3.487-3.157-5.858-4.837-5.268-3.731 1.383,2.586 15.725,15.549 20.26,18.313 1.91,1.165 4.262,2.12 5.226,2.122 2.188.006 2.18.242-.155,4.818-2.069,4.057-10.614,12.555-14.323,14.244-1.295.59-3.771,3.877-5.646,7.492-6.257,12.067-12.085,18.016-19.061,19.447-1.539.316-3.379,2.115-5.002,4.895-4.006,6.85-8.496,9.918-16.074,10.979-6.29.887-6.559.832-8.766-1.729-3.237-3.758-2.456-9.098 2.899-19.826 4.113-8.242 22.491-36.692 30.346-46.979 1.954-2.56 3.317-4.885 3.032-5.172-.647-.646-1.241.129-13.238,17.319-16.507,23.648-25.638,40.17-26.271,47.527-.394,4.594-.005,5.762 2.99,8.967 2.777,2.973 2.887,3.373 1.595,5.855-2.935,5.641-8.469,9.164-14.392,9.164-3.331,0-4.361.543-6.6,3.479-5.813,7.621-19.367,11.724-27.084,8.199zm9.5-5.43c-3.034-1.516-3.54-2.291-3.8-5.83-.675-9.211 14.925-31.467 42.593-60.766 5.661-5.995 10.024-11.168 9.697-11.494s-4.949,4.074-10.271,9.781c-35.681,38.252-49.674,61.416-41.231,68.252 1.229.994 3.196,1.809 4.373,1.807 1.667,0 1.368-.387-1.361-1.75z" fill="#b08bbb"/>
 <path d="m94.007,342.227c-3.007-1.303-6.388-5.934-6.388-8.748 0-9.355 9.963-25.852 24.674-40.854 19.942-20.336 51.295-49.36 59.931-55.48 4.893-3.466 12.783-9.557 17.537-13.532l8.643-7.229 8.649-1.229c4.757-.676 13.47-1.063 19.362-.861 9.367.32 11.137.668 14.084,2.769 3.348,2.383 3.367,2.442 2.753,8.492-.696,6.862-1.354,7.646-12.634,15.028-8.082,5.291-11.761,6.563-18.99,6.563-7.201,0-15.121-3.776-23.408-11.166-3.245-2.894-5.385-4.297-4.756-3.121 1.461,2.729 15.149,15.086 19.977,18.032 2.023,1.234 4.466,2.247 5.429,2.25 2.375.007 2.219.876-1.082,6.061-3.037,4.768-9.889,11.4-13.473,13.045-1.208.553-4.09,4.51-6.403,8.793-5.053,9.352-11.073,15.662-16.49,17.285-3.125.936-4.686,2.299-7.283,6.357-4.329,6.77-8.957,9.568-16.86,10.203l-6.216.498-1.904-3.537c-1.692-3.141-1.764-4.02-.637-7.867 2.135-7.291 9.631-20.441 22.914-40.195 6.977-10.375 13.3-19.713 14.056-20.75 .754-1.037.979-1.869.5-1.849-1.675.075-22.824,30.765-30.844,44.755-9.11,15.895-10.604,22.797-6.188,28.586 3.3,4.324 3.302,5.092.027,9.383-2.988,3.92-7.717,6.238-12.717,6.238-2.682,0-3.949.701-5.912,3.273-5.181,6.793-19.755,11.663-26.351,8.807zm9.135-5.646c-5.84-3.045-5.95-6.371-.561-17.07 5.764-11.439 17.484-26.432 38.944-49.805 5.524-6.018 9.808-11.18 9.518-11.469s-4.883,4.141-10.205,9.848c-35.681,38.252-49.674,61.416-41.231,68.252 1.229.994 3.196,1.807 4.373,1.803 1.828-.007 1.707-.233-.838-1.559z" fill="#b08bbb"/>
 <path d="m245.232,225.161c.763-4.763-1.09-8.177-5.741-10.582-4.443-2.297-19.412-2.852-30.371-1.123-4.95.781-9.133,1.312-9.293,1.178s4.112-2.934 9.5-6.223c47.84-29.228 82.084-43.331 88.831-36.583 1.271,1.273 1.529,2.667 1.062,5.75-.342,2.238-.89,5.869-1.219,8.068-1.034,6.911-6.992,11.193-21.409,15.391-5.116,1.49-6.442,2.596-17.829,14.859-6.766,7.287-12.721,13.25-13.234,13.25-.529-.001-.656-1.733-.297-3.985z" fill="#b08bbb"/>
 <path d="m215.619,201.726c0-.837 34.827-28.376 47.5-37.561 33.264-24.107 44.575-28.71 68.387-27.826 8.54.317 12.631.92 15.457,2.277 8.492,4.077 6.901,9.344-6.688,22.137-16.586,15.613-30.293,24.392-38.084,24.392-3.143,0-3.52-.24-2.748-1.75 3.302-6.459 1.924-12.673-3.117-14.065-9.464-2.613-33.756,6.735-67.949,26.148-11.389,6.465-12.758,7.136-12.758,6.248z" fill="#b08bbb"/>
 <path d="m245.363,228.555c-.323-.323-.342-2.115-.038-3.98 .675-4.158-1.425-7.707-5.966-10.086-3.694-1.936-19.272-2.438-31.239-1.006-5.179.619-6.718.545-5.912-.287 2.629-2.721 34.406-20.873 49.912-28.51 18.912-9.318 30.268-13.526 38.5-14.27 4.674-.422 5.78-.185 7.371,1.578 1.709,1.897 1.768,2.657.676,8.863-.656,3.733-1.722,7.864-2.365,9.181-1.677,3.424-7.951,7.086-17.201,10.043l-8.02,2.564-12.331,13.25c-6.782,7.287-12.438,13.25-12.563,13.25s-.5-.266-.824-.59z" fill="#b08bbb"/>
 <path d="m216.654,200.804c3.875-3.55 24.027-19.521 37.466-29.695 38.996-29.521 53.961-36.117 78.604-34.641 15.805.946 21.289,4.458 18.251,11.685-1.743,4.145-14.54,16.759-25.353,24.99-8.859,6.744-19.043,12-23.252,12.001-3.087,0-3.064.073-1.731-5.701 2.561-11.093-5.472-13.452-24.462-7.183-8.202,2.708-31.238,13.874-47.922,23.231-11.959,6.707-14.285,7.772-11.601,5.313z" fill="#b08bbb"/>
 <path d="m245.619,224.424c0-4.549-1.95-7.65-6.312-10.035-2.624-1.436-5.672-1.732-17.188-1.678-7.7.037-15.351.381-17,.763l-3,.696 3-2.502c8.254-6.879 57.908-32.932 71.5-37.512 8.772-2.957 16.523-4.144 19.551-2.993 2.078.79 2.445,1.579 2.425,5.206-.036,6.438-1.836,12.996-4.286,15.621-2.802,3-6.352,4.823-15.678,8.053-7.189,2.49-7.984,3.096-18.512,14.102-6.051,6.324-11.787,12.088-12.75,12.807-1.59,1.187-1.75.955-1.75-2.528z" fill="#b08bbb"/>
 <path d="m218.619,199.745c0-1.488 45.429-36.263 59.975-45.909 21.938-14.547 38.125-19.245 57.811-16.777 17.894,2.244 19.489,6.84 6.902,19.866-13.139,13.598-29.917,25.486-38.982,27.623-4.008.945-4.585.177-3.543-4.709 1.908-8.95-2.413-12.292-13.622-10.533-10.275,1.611-30.347,10.447-58.439,25.729-9.466,5.144-10.102,5.442-10.102,4.71z" fill="#b08bbb"/>
 <path d="m0 0" fill="#f0f" fill-opacity=".4706"/>
 <path d="m0 0" fill="#f0f" fill-opacity=".4706"/>
</svg>
