<?xml version="1.0" encoding="UTF-8"?>
<svg enable-background="new 0 0 999.117 1763.161" fill="#f74a80" version="1.1" viewBox="0 0 999.117 1763.161" xmlns="http://www.w3.org/2000/svg">
 <path d="m484.22 83.873c1.409-1.035 3.067-1.704 4.718-2.287 1.658-0.066 3.283 0.419 4.928 0.655 8.187 8.187 7.382 17.422-3.316 23.146-2.451-0.295-5.295-0.295-6.887-2.51-1.777-1.401-2.722-3.381-3.219-5.513-0.369-1.578-0.493-3.239-0.529-4.809-41.599-12.954-70.517 7.436-84.234 46.186 0.394-1.112 18.548-0.209 20.967 0.012 4.728 0.431 7.86 1.529 11.874 3.927-10.832-2.969-23.188-5.74-32.664 0.291-8.549 5.441-11.756 16.313-12.975 26.373-1.581 13.044-0.894 26.552 3.669 38.874s13.251 23.378 24.982 29.296 26.548 6.141 37.713-0.786c8.275-5.134 14.051-13.743 16.924-23.048s3.024-19.28 1.762-28.937c0 12.852 3.376 23.178-2.212 35.598-11.397 25.334-44.706 27.095-64.966 11.735-22.299-16.905-25.093-47.197-16.925-72.213 2.176-6.664 5.05-13.092 8.395-19.248-5.973 0.301-0.131-1.863-28.146 10.341-5.128 2.282-2.971-0.445-27.215 21.37-94.246 122.1 7.122 223.85-21.029 480.91 2.536 0.898 4.921 2.392 7.68 2.471 3.008 3.514 2.09 0.411 8.676-0.57 46.655-182.66 18.605-284.56 308.74-517.08-1.369 4.622-16.828 53.882-17.772 56.521-15.186 20.49-24.819 32.667-31.534 57.766 75.318-58.234 137.93-85.586 181.96-106.81-0.524-4.127-1.812-5.502 1.986-12.857 1.697-1.704 3.617-3.224 5.616-4.568 13.774-2.237 19.42 4.184 20.164 16.081-0.636 2.425-1.586 4.784-2.641 7.058-2.634 2.405-5.38 5.439-9.26 5.269-3.064 0.938-8.72-0.022-13.519-6.317-51.05 23.559-113.52 52.289-187.94 111.48-1.347 3.586-1.027 3.639-7.195 39.706-0.705 4.085-0.732-0.346 4.607 37.536 0.344 2.918 15.08 28.743 15.964 30.223 1 0.678 23.637 15.842 28.08 15.937 58.898-35.564 144-66.219 215.28-54.037 5.25-2.729 19.255-22.657 79.916-30.02-0.144-2.44-1.633-4.471 1.979-11.37 1.704-1.599 3.571-3.041 5.511-4.351 2.484-0.583 5.066-0.832 7.628-0.806 2.346 0.826 4.633 1.887 6.855 3.034 1.868 1.966 3.585 4.135 5.052 6.422 1.617 9.279 1.47 14.399-6.927 19.004-12.078 2.45-14.886-4.017-18.087-6.887-26.28 3.264-54.953 8.364-75.554 26.231 13.797 5.825 27.158 14.637 33.959 27.979 7.116 13.96 4.421 30.904-7.423 41.216-12.454 10.843-32.041 12.263-44.101-3e-3 -20.064-20.408-6.075-51.524 10.11-69.25-65.938-9.208-161.79 23.079-208.59 54.719 6.134 1.737 12.254 3.499 18.388 5.243-100.65 43.114-105.18 48.494-182.93 173.4 42.518-43.712 95.504-61.882 152.84-78.776-49.347 49.707-44.33 27.35-113.97 82.393 1.008-0.569 32.557-18.553 50.715-26.114 157.86-62.974 195.11-95.738 342.46-64.85 1.416-4.102 5.282-6.357 8.257-9.214 3.237-0.085 6.52-0.655 9.745-0.315 3.814 2.457 7.792 5.046 10.151 9.063 0.896 12.003-1.378 11.561-9.515 20.177-3.362 0.177-6.835 0.891-10.144 0.282-10.953-7.414-9.964-8.299-10.387-15.112-87.017-17.801-162.65-17.732-238.78 26.488 44.759-13.726 83.936-14.042 102.84-15.236 0.524 1.579 1.081 3.159 1.71 4.712-91.211 46.558-72.444 29.23-110.13 55.617 38.442 25.372 25.427 2.761 73.494 40.151-1.52 2.071-3.014 4.161-4.404 6.317-7.243-1.062-46.95-10.603-99.058 4.836 90.083-13.736 169.39 6.621 233.5 62.714 0.852-0.662 1.638-1.442 2.634-1.907 3.047-0.524 6.167-0.426 9.26-0.682 3.952 3.159 9.581 5.623 10.334 11.252 11.717-9.122 22.988-18.893 33.107-29.764-3.749-3.911-4.082-4.252-4.207-10.727 2.077-6.556 4.974-10.004 10.433-13.545 3.172-0.406 6.376-0.498 9.581-0.609 3.499 2.844 7.857 4.895 10.013 9.089 0.111 2.13 0.511 4.253 0.413 6.396-6.022 14.04-15.079 16.468-22.451 12.005-21.687 22.147-27.835 22.102-40.741 39.247-1.979 1.763-3.997 3.506-6.153 5.039-45.014 14.395-78.724 57.446-252.08 33.205-58.693-6.578-116.06-6.726-174.35 5.537 0.97 0.944 2.09 1.704 3.204 2.49 10.241-1.034 13.711-2.451 51.842-2.248 170.37 13.416 253.5 27.029 288.42 89.732-93.442-50.529-92.874-28.923-215.87-7.811 22.157 8.636 65.204 29.055 65.119 52.858 22.622-4.568 59.399 8.817 87.255 55.774 11.688-2.821 12.376-1.873 13.742-0.636-1.586 0.452-3.178 0.859-4.771 1.278-1.141 3.637-0.349 3.299-5.216 5.557 0.708 1.579 1.409 3.172 2.372 4.627 5.289 1.381 17.114-1.494 18.847 1.625-1.704 0.963-3.768 0.675-5.636 0.924-0.577 1.232-1.186 2.464-1.881 3.644 13.666 11.444 8.043 23.507-10.177 24.011-6.312-4.67-8.367-4.762-9.705-11.933-23.193 2.319-41.484-7.847-54.752-4.292 3.221 9.114 23.65 30.885 23.65 30.885-0.636 1.743-2.058 3.414-3.88 3.912-16.817-4.079-21.765-16.239-27.242-22.7-3.878-4.244-21.814-11.323-28.251-22.792-32.09-45.642-110.8-88.521-135.68-108.84-43.694-34.186-40.589-40.843-93.605-53.841 0.092 2.693 0.623 5.452 0.079 8.126-4.931 8.635-14.081 12.703-17.235 12.792 11.985 25.669-9.575 33.349-22.196 19.83-2.104-3.08-3.637-6.514-5.564-9.699-3.172 0.793-5.806-1.415-8.572-2.536-1.337 4.568-3.624 8.775-5.347 13.198 9.771 12.353 21.861 22.576 33.29 33.323 0.242-1.029 0.695-1.979 1.199-2.89 13.28-0.869 42.976 25.399 42.976 34.437-2.181 5.918-15.847-4.128-17.811-5.131 13.801 14.076 27.785 27.982 42.143 41.495 2.536-2.621 6.173-3.748 9.738-3.643 1.723 0.55 3.519 1.127 5.013 2.195 9.448 12.935-4.974 27.565-16.573 20.577-3.94-4.762-4.753-9.841-1.075-15.662-0.253-0.245-99.921-98.654-100.55-99.372-0.3 1.016-5.716 22.51-3.847 35.879 1.055-0.95 2.72-2.274 4.05-1.055 0.819 1.678 0.806 3.624 0.374 5.419-1.796 0.413-3.44 1.291-4.325 3.008 5.706-1.849 8.701-4.694 9.122-0.059 0.249 2.313-2.176 3.945-1.514 6.324 0.295-0.295 0.878-0.878 1.173-1.166 0.419 2.254 0.118 4.535-0.741 6.658 0.131 1.73-0.072 3.473-0.485 5.17 0.996 1.547 1.586 3.303 1.887 5.125 11.971 14.116 67.892 23.01 60.99 30.937 0.65 0.637 21.072 15.029 21.501 15.328-0.223 0.164-0.655 0.485-0.878 0.642 0.38 1.94 0.374 4.161-1.54 5.302 20.387 22.26 38.152 34.446 25.688 37.458-0.308 0.996-0.596 2.012-0.872 3.041-0.478-0.033-1.435-0.085-1.914-0.118 0.039 0.944 0.092 1.9 0.144 2.87-0.354-0.046-1.055-0.144-1.402-0.19 0.059 0.845 0.131 1.704 0.203 2.575-1.042-0.419-2.516-2.267-3.08-0.36-3.119-3.748-5.95-7.726-9.017-11.507 19.298 54.851 14.707 77.205-35.741 183.23-1.196 2.09 1.183 8.935-7.123 18.893-5.014 14.338-3.193 24.23-6.383 29.764-4.786 8.619-6.479 5.243-9.214 11.697-3.094 20.071-8.785 13.077-12.556 36.265 0.212 1.021 3.777 15.911 2.851 22.34 1.284-0.688 2.425-1.9 3.932-2.038 1.389 0.439 1.691 2.162 2.254 3.342-0.99 1.029-2.176 1.842-3.263 2.779 8.27 6.304 12.975 15.996 16.337 25.59 5.26 3.122 3.313 3.019 6.396 10.714 5.105 9.155 9.489 19.292 9.155 29.994 2.464 2.261 0.478 5.695-0.288 8.309 0.249 0.328 0.747 0.983 1.003 1.317-0.505 0.839-1.304 1.435-2.031 2.084 0.838 12.844-1.068-0.056 1.782 13.565-0.367 7e-3 -1.088 0.02-1.448 0.026 0.478 5.203 0.347 10.511 0.505 15.767 2.018-7.477-0.464-12.524 0.924-15.754 3.41 13.526 2.691 16.033 0.786 25.289 1.71-1.252 2.143-3.329 2.844-5.177-7e-3 0.642-0.013 1.304-7e-3 1.979 2.202 2.516-0.793 5.341-1.632 7.818 0.157 0.701 0.721 1.494 0.354 2.261-0.773 0.865-2.012 0.976-3.021 1.409-0.355 10.24 2.744 11.83 1.94 24.024-0.511 2.851 3.093 4.731 1.442 7.739-0.498-0.832-0.78-1.848-1.022-2.733-0.256 0.845-0.498 1.71-0.727 2.589 0.406 0.092 1.219 0.269 1.625 0.354-0.367 0.97-0.701 2.038-1.075 3.047 0.282 0.36 0.845 1.088 1.127 1.448-0.826 0.754-1.665 1.501-2.516 2.241 1.533 5.839 2.359 11.842 3.355 17.785l-1.153-0.157c0.039-0.367 0.125-1.101 0.164-1.468-0.216 0.387-0.636 1.16-0.852 1.547 0.321 0.033 0.95 0.092 1.271 0.124-0.269 0.95-0.531 1.946-0.793 2.936 4.587-0.36 9.279-0.183 13.506 1.835 31.911-17.899 13.421 62.244 10.341 96.98-1.291 8.84 3.683 17.523 1.317 26.331-3.154 9.057-14.229 16.176-23.912 10.013-1.311 3.513-5.865 5.773-9.253 3.794-2.092-2.275-11.108-17.284-13.395-19.469-0.734-0.275-1.455-0.531-2.169-0.76-1.224 8.527-7.458 46.356-2.72 61.501 5.989 13.348 11.384 23.499 2.805 30.223-2.726 8.407-8.437 10.228-12.818-3.244-12.112-5.145-14.876-12.368-21.252-11.665l0.111 0.734c0.491 0.216 1.481 0.655 1.979 0.872-2.49 0.21-4.463-1.56-6.828-1.927-1.448-0.039-1.796-1.507-2.208-2.569-0.649-0.328-1.298-0.616-1.94-0.885-0.125-0.727-0.249-1.435-0.367-2.123 0.347-0.151 1.042-0.452 1.396-0.603-0.858-1.147-1.782-2.248-2.87-3.152 0.374 0.557 0.76 1.134 1.16 1.723 0.013 0.773 0.046 2.32 0.066 3.093-1.56-0.505-3.021-1.186-4.299-2.189 0.367-0.505 0.741-0.99 1.127-1.455-0.374-0.603-0.734-1.18-1.088-1.737 0.256-0.505 0.773-1.52 1.029-2.031-0.894-1.978-8.837-13.956-4.201-21.606-0.476-1.001-17.493-35.46-19.469-36.468-0.424-2.325-3.672-25.587-3.893-28.454 0.105-0.21 0.301-0.629 0.4-0.839 0.249 4.155 1.389 8.185 2.746 12.104 0.285-3.068-2.471-20.007-2.628-21.009-0.256 2.792-0.4 5.616-0.072 8.427l-0.826-0.098c-0.284-3.55 1.4-30.877 1.474-31.881-2.23-1.48-1.23-10.928-2.647-14.758-5.059-17.013-0.598-3.498-3.781-27.078-4.945-3.626-4.948-4.591-6.035-10.446-0.216-1.868-1.566-3.349-1.619-5.242-1.049-2.084-1.835-4.279-2.503-6.501 0.315-0.052 0.95-0.151 1.265-0.197 0.439 1.121 1.553 1.547 2.575 2.032-1.422-1.344-2.628-2.884-3.349-4.699 1.048 0.845 2.064 1.71 3.132 2.562-6.161-11.8-1.781-12.108-8.781-31.062-1.468-1.422-3.67-2.241-4.463-4.305-0.32-1-3.505-10.927-1.166-14.351-0.226-1.775-7.526-11.927-6.606-22.956-1.265-5.472-3.132-10.8-4.469-16.258-0.419-2.117-3.303-2.556-3.598-4.751-2.12-11.363-2.262-7.479-0.328-12.392-8.819-19.745-2.548-16.272-5.354-25.315-4.457-2.669-6.448-11.999-4.876-16.612-2.91-5.269-4.292-11.14-6.14-16.809-2.536-5.02-5.655-9.797-7.353-15.197-11.409-32.086-19.592-40.164-9.961-57.085-2.576-6.457 1.352-18.159 0.282-23.316-2.375-18.628-1.409-19.354-2.831-22.163-3.799-7.646-4.153-20.558-0.439-27.949-0.15-1-6.046-8.755-0.623-19.043 0.861-12.532-1.356-21.293 7.215-56.266 7.733-28.022 7.637-24.485 7.025-27.333-0.223 0.085-0.662 0.255-0.885 0.341-0.393 0.754-0.57 1.678-1.258 2.254-1.566 0.682-3.264 0.138-4.751-0.452-0.898 0.819-1.776 1.658-2.608 2.549-0.944-1.986-1.304-4.168-2.071-6.199-1.494-0.616-2.693-1.651-3.486-3.054-0.426 0.013-1.271 0.039-1.691 0.046-0.374-0.649-0.741-1.291-1.101-1.92-0.36-0.039-1.081-0.118-1.435-0.157-0.655-1.632-1.219-3.303-1.756-4.961-1.717-0.937-2.241-2.831-2.739-4.568-10.407-1.174 3.572-22.7 1.14-74.601-0.596 0.564-1.193 1.127-1.789 1.697-1.468-4.417-4.378-8.067-6.409-12.209-3.989 4.472-1.167 4.841-4.083 7.923 0.459-3.657-0.328-7.267-0.413-10.904-0.334-0.36-1.003-1.075-1.33-1.435-3.087 2.366-2.261 6.429-2.261 9.797-2.274-3.513-2.438-7.916-2.457-11.966-0.917-1.245-1.861-2.464-2.772-3.696 0.714-1.763 0.57-3.676 0.577-5.524 0.275-0.144 0.826-0.439 1.101-0.583-0.485-2.274-0.138-4.574 0.714-6.71 0.465 0.013 1.409 0.046 1.874 0.059 0.498-1.108 0.812-6.94 6.357-1.029 1.337-0.177 2.457 0.413 3.414 1.311-2.215-4.568-2.628-9.751-4.41-14.463-6.803-10.884-2.468-2.767-6.271-13.06-29.782-28.627 1.981-1.496-35.688-48.572-1.389-1.632-2.366-3.552-2.936-5.603-2.516-9.322-9.27-11.568-11.409-15.479-0.131-5.275-1.789-10.315-2.982-15.413-3.048-12.19-6.285 6.588 2.805-31.134-0.138-1.913 0.485-4.135-0.472-5.839-15.595 10.321-44.129 25.73-63.356 40.872-4.7 3.817-25.649 16.177-35.367 11.475-2.313-0.97-2.72-3.814-4.771-5.112-2.805-2.163-3.571-5.806-3.703-9.148-1.487-36.54-3.24-22.654 70.355-129.94 24.193-37.188 17.984-20.148-10.21-44.535-4.233-3.427-8.087-7.287-12.497-10.505-0.57 1.035-1.127 2.084-1.756 3.093 0.125-0.695 0.374-2.071 0.491-2.759-0.963 0.885-1.868 1.861-2.818 2.765 0.406-0.937 0.839-1.861 1.284-2.779-0.734 0.629-1.553 1.009-2.457 1.153 0.17-0.295 0.498-0.885 0.668-1.18-0.269-0.066-0.806-0.183-1.075-0.242 0.301-0.446 0.898-1.33 1.199-1.776-0.957 0.472-1.9 0.957-2.864 1.415 1.737-1.488 2.759-3.526 3.768-5.524-12.337-19.338-16.096-16.619-19.718-20.728 0.046-1.828 1.107-3.427 2.307-4.712 0.852-0.983 2.228-0.36 3.322-0.321-2.074-1.286-11.379-6.329-16.861-5.249-3.55 1.287-1.695 8.558-0.675 12.484 8.421-1.105 13.425 10.857 12.634 13.041-0.688 2.562-1.514 5.085-2.241 7.641-4.485 2.418-6.357 4.724-13.034 4.286-2.797-1.176-7.503-2.31-10.033-11.652 0.4-2.929 1.429-5.78 2.346-8.585 1.645-1.724 4.109-2.51 6.055-3.893-5.285-19.004 4.121-21.84 20.931-13.644 0.529-4.072 4.715-12.819 5.295-13.821 2.59-4.29 6.147-20.235 9.522-12.392 0.203 1.265-0.564 2.457-0.878 3.67 0.256 0.269 0.767 0.806 1.029 1.075-0.256 1.094-0.4 2.202-0.341 3.342 1.619-2.326 2.353-5.144 3.991-7.451 0.924-0.616 2.267 0.367 2.451 1.343-0.177 1.278-0.557 2.523-0.858 3.781 4.409 4.361 1.324 10.306-1.874 22.228 1.632 2.713 2.811 5.662 4.122 8.539 3.493 0.151 3.467 4.522 6.245 5.754 1.206 0.754 2.438 1.455 3.657 2.202-0.427-5.181 11.929-12.842 14.325-14.096 1.92-0.039 3.821 0.315 5.741 0.4-15.253-11.161-20.843-13.571-24.201-18.224 0.544-0.432 1.094-0.865 1.651-1.291 8.287 0.303 31.465 14.531 38.356 19.063 0.393-0.282 1.186-0.845 1.579-1.121-10.626-8.703-22.716-15.73-42.274-33.297 23.745 11.763 46.555 31.561 50.918 34.758-0.786-2.562-1.212-5.223-2.123-7.739-2.713-2.497-6.56-3.44-9.247-5.97-15.308-23.12-36.021-74.133-14.443-91.521 18.677-4.885 28.803 3.068 44.175 14.889-10.215-68.97-34.374-73.264-49.568-115.31-3.106 0.629-5.747-1.324-8.218-2.883-4.701-5.406-3.711-7.623-4.102-12.117 1.442-2.451 1.94-5.747 4.745-7.084 3.021-2.621 7.464-2.726 11.101-1.488-9.077-14.552-61.875-124.9-45.925-153.93 12.454-10.675 33.158 22.001 39.824 31.396-1.573-9.327-1.787-6.408-4.07-9.541-1.114-3.047-0.079-6.304-0.269-9.443-2.412-10.655-5.813-21.068-8.447-31.665-0.852-2.425 3.067-3.781 4.404-1.874 2.264 3.454 13.65 26.8 14.981 29.581 5.125-0.917 10.714 1.527 13.585 5.859 0.937 2.746 0.301 5.662 0.125 8.473-2.136 1.579-4.142 3.362-6.468 4.659-3.316 0.623-6.756 0.505-10.092 0.118 4.608 21.799-2.116 3.411 22.346 49.68 22.543 42.24 57.75 129.08 76.331 172.85 6.239-5.066 15.597-6.389 22.825-2.792 28.659-3.47 36.807 18.621 38.303 20.878 3.832 1.713 20.104-2.442 24.555 21.127 2.647 2.221 4.286 5.275 6.232 8.08-19.408-198.95-62.155-320.31 72.013-372.44 1.894-0.832 3.997-0.649 6.022-0.675 19.523-44.929 43.219-62.63 88.147-50.309 1.03-1.505 1.895-3.149 3.127-4.513m-366.87 129.01c0.786 3.965 2.005 7.824 3.001 11.743 0.675-0.511 1.356-1.022 2.031-1.527-1.755-3.368-3.21-6.887-5.032-10.216m-33.362 2.523c-11.553 25.768 28.924 125.8 39.3 121.67 8.893-10.633 4.396-50.858 2.117-64.378-3.535-19.841 1.48-8.331-16.337-35.747-9.542-14.554-19.945-20.561-21.226-21.566-1.291 0.012-2.576 0.012-3.854 0.019m48.52 81.502c1.762 28.616-2.822 34.659-5.072 39.647-1.894 1.664-4.554 1.953-6.979 1.855 59.461 66.033 85.51 132.26 92.092 144.01-0.38-5.649 2.228-11.081 6.212-14.98-17.936-43.565-65.166-158.45-89.398-198.17 1.474 9.154 2.227 18.407 3.145 27.634m716.89 36.645c-51.039 42.034-4.064 106 33.474 59.811 7.142-24.131 5.228-19.444 3.453-25.42-5.17-12.508-2.657-19.544-35.734-34.909-0.296 0.131-0.899 0.387-1.193 0.518m-715.44 49.385c-3.153 6.75-1.427 4.507-6.527 8.172 5.236 13.843 31.175 55.741 31.816 56.744-7.426-25.63-21.893-58.632-25.289-64.916m1.062 110.56c-3.814 0.079-6.592 2.975-9.731 4.731-6.831 41.077 15.307 80.603 26.082 87.124-4.34-30.092-3.983-23.941-0.754-42.294-2.111-2.198-8.731-8.038-2.752-14.928-7.533-23.887-10.923-26.22-8.152-29.574 2.792 0.549 3.543-0.336 14.397 25.656 2.045 0.164 4.181 0.629 6.193 0.065 3.912-4.174 7.923-8.342 12.595-11.671-9.406-8.838-25.079-21.273-37.878-19.109m173.99 66.239c2.735 23.38-1.641 41.394-18.355 58.29 3.84 7.542 14.657 26.893 20.42 33.572 3.921-33.645 6.667-55.802 5.413-99.516-2.131 2.87-4.084 6.108-7.478 7.654m-158.88 11.875c0.023 1.188 0.475 12.784 3.873 15.452 0.472-0.688 0.95-1.363 1.435-2.038-1.252-4.05-2.713-8.054-3.486-12.228-0.256 0.301-0.773 0.917-1.029 1.219 0.085-0.596 0.256-1.802 0.347-2.405h-1.14m2.805 18.25c0.773 2.792 1.265 5.688 2.372 8.375 2.831 2.942 6.37 5.111 9.351 7.903 0.4-0.111 1.193-0.334 1.586-0.446-0.013-1.429-0.046-2.851-0.105-4.266-3.781-4.05-6.815-8.729-9.325-13.644-1.186 0.872-2.496 1.56-3.879 2.078m2.281 15.092c3.729 2.3 6.973 5.288 10.701 7.602-2.582-3.571-6.848-5.347-9.882-8.467-0.642-1.009-1.979 0.4-0.819 0.865m488.28 3.27c-30.675 3.67-61.22 9.417-90.506 19.424 16.584-1.246 10.096-11.226 181.06 8.368-42.804 5.561-56.159 3.717-125.67 32.084-2.96 1.09-4.233 14.307-4.325 15.315 0.667 1.011 31.059 40.132 36.128 41.219 108 17.514 177.64-2.424 219.43-31.573-7.922-5.612-6.887-6.606-7.392-12.851 0.826-2.936 2.693-5.485 3.761-8.349-68.351-59.372-140.87-71.764-212.48-63.637m-499.88 5.996c0.059 1.396 0.085 2.805 0.066 4.214 0.662 0.806 1.324 1.625 1.992 2.451 1 0.212 9.344 2.641 10.21 3.755-0.814 0.059-11.077-0.251-12.366-0.721 0.754 2.294 1.665 4.535 2.641 6.756-1.101-0.957-2.11-1.959-3.244-2.857 3.26 8.08 16.374 14.111 56.108 38.972 1.809-0.76 3.735-1.121 5.655-1.494-0.184-1.566-0.459-3.132-0.393-4.705 3.137-3.613 6.665 2.062 13.749 3.408-8.134-7.396-27.627-15.491-37.419-18.264-0.315 0.642-0.623 1.311-0.924 1.979 0.485 1.114 0.963 2.235 1.422 3.375-11.473-8.27-23.948-32.504-33.336-39.64-1.428 0.864-2.778 1.847-4.161 2.771m-12.464 3.264c-1.448 0.845-3.146 0.295-4.692 0.118 8.276 4.553 4.276 4.737 14.083 9.109-0.577-1.73-2.254-2.385-3.919-2.569 0.944-0.498 1.979-0.721 3.034-0.845-0.514-5.982-2.362-2.602-3.506-8.637-1.927 0.445-3.309 1.919-5 2.824m423.77 2.392c-26.541 7.836-51.706 11.79-136.94 74.077 44.042-20.137 86.919-57.506 158.78-78.389-7.287 1.428-14.587 2.791-21.848 4.312m-275.36 9.246c5.701 6.527 11.304 13.159 17.222 19.496-5.039-7.248-10.498-14.201-15.669-21.35-0.524 0.609-1.041 1.225-1.553 1.854m0.151 7.143c3.665 6.291 18.496 23.519 21.462 23.919-0.231-0.309-21.196-23.642-21.462-23.919m-120.03 11.711c1.062 3.336 2.405 6.75 1.992 10.328 11.691 0.937 22.235 6.54 32.445 11.848-0.848-2.012-33.429-21.578-34.437-22.176m170.87 9.384c0.091 2.169 1.952-1.01 0 0m-3.408 2.149c0.164 0.282 0.478 0.839 0.636 1.121 1.337-0.498 2.792-0.904 3.762-2.038-1.508 0.118-2.95 0.524-4.398 0.917m-25.859 0.957c0.282 1.848 1.986 2.798 3.303 3.893 0.085-0.21 0.249-0.623 0.328-0.826-1.173-1.075-2.34-2.15-3.631-3.067m-139.75 2.064c-0.917 3.552-2.235 6.979-3.342 10.465 3.25 6.383 6.783 12.733 11.193 18.395 5.577-7.143 12.654-12.877 19.718-18.473-6.984-3.8-19.589-10.227-27.569-10.387m-5.95 15.885c-4.093 9.692-14.055 23.01-20.4 38.644 0.616 3.257-0.315 6.37-1.632 9.338 1.474-1.258 3.106-2.392 4.273-3.945 5.243-19.714 4.277-7.373 8.611-23.126l0.328-0.026c-0.046 1.022-0.098 2.058-0.144 3.1 0.865-0.963 1.304-2.674 2.838-2.72 0.858 3.453-5.433 9.575-7.949 17.202 13.441-13.379 11.172-17.294 18.945-27.006l0.236 1.337c0.55-0.465 1.107-0.924 1.671-1.376-2.393-3.722-4.398-7.687-6.777-11.422m-1.068 24.954c0.249-0.282 0.754-0.839 1.003-1.114 1.691-0.531 3.408-1.022 5.026-1.75-0.151-0.387-0.459-1.166-0.616-1.553-1.684 0.505-2.72 2.182-4.168 3.106 1.081-1.586 2.326-4.364 4.633-4.07 0.636 0.773 0.872 1.776 1.278 2.7 1.389-1.874 2.765-3.768 4.24-5.577-0.813-1.239-1.665-2.451-2.562-3.617-4.096 2.93-7.137 7.151-8.834 11.875m-9.161 13.552c1.697 0.524 3.48 0.262 4.332-1.468-0.151-1.75-0.203-3.493 0.341-5.184-1.574 2.203-2.878 4.601-4.673 6.652m-1.56 2.124c-0.111 0.944 1.54 0.891 2.005 0.354 0.085-0.938-1.546-0.898-2.005-0.354m-14.987 12.3c3.028-3.571 6.337-7.831 5.983-12.785-2.765 3.82-4.22 8.44-5.983 12.785m346.81-8.021c3.853-0.682 7.766-0.95 11.625-1.632-2.409-0.878-9.902 1.137-11.625 1.632m-319.64 51.711c0.052 1.173 0.183 2.366 0.406 3.532 0.82-1.035 1.337-3.139-0.406-3.532m401.56 41.757c2e-3 3e-3 65.715 68.258 65.715 68.258 0.262-0.387 0.524-0.76 0.786-1.134-3.114-7.573 5.84-14.405 13.408-15.413-13.043-34.184-68.861-51.958-79.909-51.711m-175.17 35.183c7.023 10.606 29.999 25.439 34.398 26.855-8.255-9.628-26.229-24.759-34.398-26.855m256.28 19.942c-0.13 10.281-6.523 13.704-7.523 14.666-1.415 0.138-2.824 0.301-4.227 0.472-1.075-0.721-2.136-1.455-3.316-1.953 53.106 54.615 79.068 28.932 89.529 34.437-1.186 0.701-2.516 1.062-3.788 1.547-3.766 5.542-5.385 3.551-12.713 6.035 13.086 0.998 23.129-2.02 24.345-2.326-17.767-29.828-48.469-56.858-82.307-52.878m-7.53 2.326c-2.824 1.658-6.324 3.362-6.769 7.018 0.924 0.636 1.75 1.507 2.818 1.94 1.389 0.026 2.779-0.17 4.168-0.282 2.428-2.098 5.988-3.46 6.409-10.629-2.229 0.564-4.568 0.885-6.626 1.953m85.807 59.896c3.309 0.609 6.651 1.075 9.987 1.579-0.518-1.37-0.97-2.851-2.051-3.873-2.778 0.203-5.432 1.134-7.936 2.294m-501.74 3.532c1.409 1.298 3.316 1.783 4.987 2.654-0.026-0.786-0.052-1.566-0.066-2.326-1.644-0.105-3.283-0.269-4.921-0.328m173.73 254.27c-0.957 2.444-2.077 4.83-2.962 7.313 1.33-1.717 2.589-3.486 3.853-5.242-0.301-0.701-0.596-1.396-0.891-2.071m-155.37 45.499c0.452 2.752 1.592 5.393 3.322 7.602-0.085-3.827-0.387-7.641-0.321-11.455-1.205 1.068-2.831 2.064-3.001 3.853m132.35 22.851c-1.042 3.984-1.815 8.879 1.592 11.992 1.022-4.406 1.769-5.674-1.592-11.992m29.83 64.057c2.058 5.872 3.67 11.881 5.505 17.825 0.963-6.658 0.197-14.083-4.115-19.509-0.473 0.55-0.938 1.107-1.39 1.684m9.154 23.657c-0.36 1.153-0.695 2.346-0.99 3.552 1.777-0.531 1.797-2.17 0.99-3.552m-62.982 23.519c0.197 4.345 3.63 7.438 6.042 10.734-1.953-4.882-4.122-9.679-5.675-14.705-0.256 1.297-0.577 2.621-0.367 3.971m2.739 15.275c1.081 2.405 1.16 5.131 1.134 7.733-3.79 12.699 7.259 18.574-0.754 35.459-0.079 2.778 0.341 5.55 0.596 8.329 5.483 4.818 1.089 7.178 4.823 49.568 4.061 6.068 0.762 39.981 4.777 50.898 2.857-1.186 5.832-2.523 9.017-2.117 1.855-1.966 4.286-3.421 7.025-3.63-0.498-5.846-1.75-11.593-3.014-17.307-0.898 0.321-1.802 0.629-2.693 0.976-0.164-2.451-0.125-4.895 0.177-7.32 0.328-0.177 0.996-0.531 1.324-0.708-2.056-24.749-2.879-25.867-1.298-32.628 0.111-0.033 0.341-0.098 0.452-0.131 0.452 1.684 0.275 3.473 0.38 5.223 0.564-3.126 1.173-6.239 1.533-9.377-0.675 1.029-0.426 2.883-1.737 3.395l-0.419-0.085c0.459-2.785 1.566-5.393 2.739-7.929-3.393-21.276-5.327-23.668-4.155-30.767-1.625-0.53-3.598-6.648-3.886-7.648 1.062-1.304 0.413-2.851 0.203-4.286 0.498 0.819 0.727 1.691 1.009 2.654 0.485-0.151 1.455-0.452 1.946-0.603-5.983-8.453-10.813-18.27-11.101-28.795-1.33 0.157-2.654 0.334-3.978 0.485-0.452-2.326-1.068-4.607-1.651-6.887 0.747-1.245 1.337-2.575 1.632-3.978-1.986-2.733-4.017-5.446-5.701-8.368 0.624 2.589 0.434 5.394 1.62 7.844m61.443 11.75c1.54-0.511 3.427-1.311 2.903-3.342-1.154 0.931-2.287 1.953-2.903 3.342m-125.78 5.217c-0.164-1.619-0.485-3.211-0.878-4.764-0.354 1.651-0.138 3.361 0.878 4.764m74.988-2.936c0 8.83 0.59 10.017 6.422 18.834-1.822-6.37-3.775-12.766-6.422-18.834m-10.774 7.359c-0.079 3.119-0.013 6.252-0.085 9.391 1.036-3.021 2.254-6.567 0.085-9.391m60.139 23.886c1.461-4.928 1.717-10.262 0.55-15.262-1.134 4.987-0.583 10.184-0.55 15.262m-37.982 8.329c-0.59 5.321-0.813 11.029 2.084 15.787-0.603-5.269-0.813-10.629-2.084-15.787m-20.531 4.882c0.039 1.927 0.21 3.88 0.642 5.78 0.937-1.959 1.186-4.253-0.642-5.78m58.578 1.016c0.079 4.194 0.531 8.368 0.681 12.569 1.75-4.03 1.508-8.761-0.681-12.569m-56.344 21.246c0.341-1.92 0.4-3.925-0.642-5.623 0.118 1.874 0.288 3.755 0.642 5.623m-48.041 5.701c0.308 0.446 0.931 1.324 1.239 1.763-0.465-0.033-1.402-0.098-1.874-0.131 0.059 2.038 1.494 3.604 3.106 4.698-0.334-2.064-0.95-4.063-1.783-5.963-0.177-0.092-0.518-0.276-0.688-0.367m7.923 32.058c-0.354 2.058-0.354 4.273 0.976 6.029-0.144-2.045-0.524-4.057-0.976-6.029m24.934 127.07c-1.094 5.419 2.523 10 4.764 14.581-0.076-4.271-4.224-13.581-4.764-14.581m6.816 14.285c1.163 5.039 0.905 3.793 3.991 4.869-1.278-1.677-2.609-3.296-3.991-4.869m7.392 10.04c-0.518 0.852 0.917 1.835 1.625 1.219 0.485-0.872-0.937-1.881-1.625-1.219m3.42 2.241c-0.203 0.177-0.609 0.524-0.806 0.701 0.649 2.058 3.533-1.186 0.806-0.701z"/>
 <path d="m433.3 145.01c0.361 0.322 0.361 0.322 0 0z"/>
 <path d="m434.67 145.66c0.314 0.367 0.314 0.367 0 0z"/>
 <path d="m435.68 146.17c1.888 0.717 3.522 1.351 4.938 1.917 8.254 3.297 9.134 4.266 9.898 5.619 6.667 9.794 11.773 15.964 14.815 20.227 3.338 4.677 4.193 7.057 1.902 9.407-0.312-3.467-5.275-11.638-9.884-18.586-3.385-5.103-6.579-9.547-7.599-10.981-4.332-3.087-9.666-4.588-14.07-7.603z"/>
 <path d="m87.867 630.79c0.249 0.347 0.491 0.708 0.727 1.081l-0.262 0.374-0.013 0.315c-0.203 0.334-0.609 1.003-0.819 1.337-7e-3 -0.413-0.033-1.252-0.046-1.664-0.858 0.472-1.723 0.931-2.595 1.376 0.931-1.017 1.986-1.902 3.008-2.819z"/>
</svg>
