<?xml version='1.0' encoding='utf-8'?>
<svg xmlns="http://www.w3.org/2000/svg" version="1.1" id="Layer_1" x="0px" y="0px" viewBox="0 0 1186.767 1743.612" enable-background="new 0 0 1186.767 1743.612"> <path d="M619.552,82.955c0.593-3.714,0.537-7.548,1.695-11.149c0.056,1.257,0.071,2.521,0.085,3.792 c0.424-0.12,1.278-0.353,1.702-0.466c0.205,1.525,0.409,3.05,0.692,4.568c0.614-0.367,1.229-0.734,1.857-1.094 c-0.057-0.565-0.169-1.688-0.226-2.252c1.744,0.071,2.676,1.447,3.559,2.747c0.41,1.567,0.911,3.114,1.412,4.66 c0.021-0.989,0.057-2.973,0.071-3.961c1.363,2.274,2.499,4.688,3.29,7.23c0.36-0.692,0.706-1.384,1.087-2.076 c0.565,0.092,1.137,0.184,1.716,0.275c0.304,0.84,0.064,2.224,1.292,2.33c0.565-1.575-0.169-3.777,1.737-4.625 c0.014,1.222,0.028,2.443,0.035,3.665c0.374-0.911,0.784-1.815,1.193-2.718c0.353,0.974,0.734,1.949,1.13,2.923 c-0.071-0.756-0.212-2.266-0.282-3.022c0.395-0.035,1.186-0.099,1.582-0.127c0.304,1.101,0.593,2.21,0.897,3.326 c0.459-0.805,0.932-1.603,1.419-2.401c0.184,0.981,0.374,1.97,0.551,2.958c0.911-0.106,1.822-0.212,2.747-0.318 c-0.042,0.621-0.12,1.878-0.155,2.507c0.494-0.346,1.49-1.031,1.991-1.37c0.12,0.791,0.254,1.582,0.388,2.372 c1.737-0.706,2.422-2.542,3.439-3.968c-0.092,1.179-0.184,2.358-0.275,3.537l0.953-0.028c-0.24,1.391-0.466,2.782-0.643,4.187 c0.826-0.035,1.68-0.071,2.528-0.099c0.325-0.918,0.671-1.822,1.031-2.732c-0.028,1.525-0.177,3.029-0.219,4.547 c0.537-0.791,1.624-2.372,2.168-3.163c0.035,1.32,0.071,2.641,0.106,3.968c0.198-0.579,0.402-1.151,0.621-1.73 c2.845-0.544,5.027-2.669,7.301-4.335c0.297-0.035,0.897-0.092,1.193-0.127c-0.035,0.657-0.064,1.306-0.078,1.963 c-0.72,0.438-1.433,0.876-2.139,1.313c0.028,0.473,0.071,0.953,0.12,1.426c-1.384,0.932-2.754,1.977-3.488,3.523 c1.864-1.066,3.523-2.443,5.091-3.912c1.913,0.106,3.919,0.056,4.724-2.012c2.295-0.353,3.46-2.747,5.585-3.46 c1.172-0.233,2.365-0.226,3.566-0.325c-3.439,2.005-6.475,4.618-9.913,6.623c-0.028,0.593-0.092,1.786-0.12,2.379 c0.692-0.713,1.398-1.433,2.062-2.182c2.154-1.109,4.286-2.274,6.39-3.488c-7.89,7.87-10.674,6.932-10.563,10.012 c-1.61,0.713-3.206,1.645-4.053,3.255l0.148,0.282c-0.014,1.589-1.977,2.274-2.775,3.509c1.37-0.904,2.62-1.97,3.869-3.043 c-0.035-0.304-0.106-0.904-0.141-1.207c0.699-1.532,2.358-1.878,3.785-2.408c0.911-0.748,1.553-1.786,2.302-2.697 c0.184,0.424,0.558,1.257,0.741,1.673c0.755-0.981,1.518-1.963,2.266-2.958c0.523,0.191,1.052,0.402,1.589,0.614 c-1.419,1.673-3.241,2.937-4.752,4.512c0.805,0.445,1.582,0.946,1.716,1.956c1.573-1.872,6.131-3.721,7.83-4.307 c0.339-0.374,1.017-1.123,1.356-1.497c-1.264,0.438-2.521,0.854-3.777,1.25c1.483-1.158,3.078-2.627,5.147-2.168l-0.311-0.897 c0.304,0.049,0.918,0.148,1.221,0.198c0.833-0.755,1.68-1.497,2.535-2.238c-0.028,0.325-0.092,0.967-0.12,1.292 c0.586,0.727,0.621,1.638,0.621,2.528c2.041-1.567,4.653-1.031,6.856-0.148c0.24-0.402,0.727-1.2,0.967-1.596 c1.08,0.049,2.154,0.106,3.248,0.184c-3.064,3.601-6.814,6.552-9.941,10.097c3.41-1.271,5.98-3.898,8.932-5.91 c-0.092,0.417-0.289,1.243-0.388,1.659c-2.196,1.68-4.462,3.34-5.875,5.783c2.436-1.25,4.547-3.015,6.333-5.084 c-0.261,1.243,0.304,3.135-1.391,3.516c-0.353,0.494-1.073,1.476-1.426,1.97c0.65-0.056,1.956-0.177,2.612-0.24 c-0.572,0.628-1.137,1.25-1.695,1.885c-0.402-0.911-1.017-1.278-1.843-1.116c0.014,0.579,0.049,1.165,0.113,1.744 c-1.102,1.172-2.189,2.365-3.156,3.643c1.2-0.72,2.351-1.553,3.424-2.471c1.363-0.099,2.605-0.198,4.025-0.268 c-2.655,1.829-7.604,2.817-7.463,6.863c0.967-1.073,2.012-2.182,3.417-2.683c1.447-1.313,2.987-2.535,4.695-3.516 c-0.148-0.784-0.268-1.56-0.388-2.344c0.932-0.36,1.857-0.727,2.803-1.094c1.829-1.786,3.961-3.234,6.242-4.385 c-1.617,1.165-3.17,2.429-4.519,3.898c0.65-0.035,1.942-0.106,2.584-0.134c-1.497,0.664-2.845,1.61-3.912,2.867 c0.247,2.817-3.672,3.566-3.269,6.524c1.695-1.61,3.34-3.283,4.907-5.02c0.84-0.099,1.68-0.191,2.535-0.282 c-3.94,3.989-7.859,8-11.798,11.989c0.056-0.579,0.169-1.744,0.226-2.323l-0.53,2.789l-1.546-1.631 c-0.064,0.367-0.184,1.101-0.247,1.469c-0.883,0.784-1.751,1.589-2.591,2.415c1.278-0.897,2.436-2.062,3.905-2.662 c0.473,0.473,1.412,1.426,1.885,1.906l0.099-1.659l0.635,0.056c0.184-0.727,0.381-1.447,0.6-2.168l-0.12,2.471 c1.695-1.786,3.559-3.516,4.455-5.882c0.035,0.967,0.078,1.935,0.134,2.909c-0.883,0.953-1.758,1.906-2.598,2.881 c-0.911,2.161-2.535,3.905-3.615,5.966c3.834-2.711,6.411-6.821,9.059-10.626c-0.078,1.066-0.12,2.139-0.184,3.213 c-1.97,1.772-3.622,3.876-4.943,6.178c2.267-1.575,3.862-3.862,5.889-5.698c0.466,0.007,1.398,0.014,1.864,0.014 c-1.553,1.532-3.22,2.958-4.554,4.688c3.58-1.935,5.472-5.945,9.25-7.633c-1.109,2.048-4.039,3.241-3.954,5.79 c1.97,0.148,3.312-1.363,3.665-3.142c-0.071,1.158-0.113,2.316-0.141,3.481c1.56-1.179,2.937-3.234,5.239-2.577 c-1.278,0.791-2.542,1.546-3.834,2.288c0,0.791,0,2.387,0,3.184c2.464-0.946,4.724-2.394,7.28-3.121 c-1.327,1.01-2.768,1.885-4.131,2.831c1.949-0.035,3.933-0.374,5.536-1.56c0.445-0.007,1.349-0.021,1.793-0.035 c0.713-0.494,1.433-0.981,2.175-1.469c1.652,0.085,3.326-0.028,4.985,0.177c0.078,0.247,0.24,0.748,0.318,1.003 c-3.22,0.106-5.952,1.97-8.438,3.834c0.763,1.144,1.779,0.614,2.111-0.586c1.08-0.452,2.175-0.868,3.276-1.271 c0,0.798,0.021,1.596,0.049,2.394c-2.302,1.087-4.766,1.885-6.842,3.396c0.417,0.042,1.257,0.12,1.673,0.162 c1.575-1.151,3.34-1.984,5.218-2.535c-1.299,1.13-1.638,2.725-1.709,4.328c1.68-0.685,3.382-1.349,5.105-1.984 c-1.186,1.737-2.697,3.149-4.328,4.434c2.634-0.169,5.514,0.699,7.936-0.741c1.73-0.847,3.446-1.73,5.267-2.394 c-1.144,1.963-3.361,2.81-5.225,3.898c0.939-0.014,2.81-0.049,3.749-0.064c-1.518,1.236-3.163,2.288-4.815,3.326 c-0.805,1.885-2.74,2.57-4.448,3.403c2.718-0.155,5.055-1.638,7.244-3.135c-0.198,0.586-0.579,1.758-0.77,2.344 c1.624-0.833,3.22-1.723,4.865-2.521c-1.589,2.415-4.427,3.389-6.489,5.296c2.881-0.628,5.359-2.323,8.113-3.319 c-1.906,1.25-3.94,2.535-4.695,4.837c1.525-0.48,2.944-1.25,4.321-2.062c-1.772,1.758-3.276,3.799-3.975,6.235 c1.546-0.699,3.071-1.469,4.632-2.168c-1.504,1.186-3.043,2.344-4.448,3.65c1.433-0.078,2.81-0.381,4.145-0.925 c1.038,0.007,2.09,0.035,3.142,0.085c-1.123,0.304-2.259,0.558-3.361,0.904c-0.388,0.713-0.318,1.546-0.417,2.323 c-0.162,0.092-0.48,0.275-0.635,0.367c0.085,0.854,0.162,1.716,0.254,2.577c-1.913,0.678-3.897,1.285-5.529,2.542 c0.325,0.297,0.981,0.897,1.313,1.2c-0.904-0.191-2.704-0.558-3.608-0.741c0.643,0.657,1.935,1.977,2.577,2.641 c-0.741-0.452-1.462-0.904-2.168-1.377c-1.899,0.169-3.904,0.297-5.437,1.56c1.306,0.254,2.648,0.48,3.975,0.713 c-1.575-0.028-3.135-0.078-4.688-0.113c-0.056,0.367-0.177,1.101-0.233,1.469c1.349,0.014,2.704,0.035,4.074,0.099 c5.407,1.757,7.465-1.002,17.941,0.028c-2.113,2.752-14.9,1.803-25.08,1.864c4.215,0.981,8.628,0.268,12.794,1.504 c-0.071,0.367-0.212,1.094-0.289,1.462c1.066-0.177,2.203-0.233,3.156-0.84c1.384,0.261,2.768,0.572,4.187,0.727 c1.871-1.165,4.194-0.586,6.291-0.819c-0.064,0.381-0.184,1.151-0.247,1.539c-1.405,0.014-2.803,0.035-4.187,0.078 c0.925,0.374,1.871,0.741,2.824,1.109c-3.672,1.921-7.922,0.897-11.862,0.868c3.94,0.826,8.289,1.278,11.996-0.65 c3.114,0.042,6.242-0.141,9.355,0.24c-1.306,0.353-2.598,0.72-3.876,1.101c3.099,0.461,7.324-0.543,10.316-1.476 c0.741,0.586,1.518,1.165,2.288,1.751c-1.278-0.127-2.528-0.261-3.785-0.395c0.155,0.254,0.466,0.777,0.621,1.031 c-1.229-0.24-2.252-0.177-1.928,1.377c1.518-0.042,3.064-0.085,4.604,0.021c-1.462,0.353-2.944,0.579-4.42,0.763 c-0.028,0.515-0.078,1.553-0.106,2.069c0.805,0,2.429-0.007,3.234-0.007c-1.412,0.388-2.859,0.635-4.3,0.84 c0.184,0.261,0.537,0.784,0.713,1.045c1.631-0.417,3.304-0.678,5.006-0.621c-9.783,2.674-11.87,3.768-15.152,4.342l0.191,0.763 c-1.991-0.021-3.982,0.007-5.959,0.233c2.584,1.2,5.43,1.271,8.226,1.243c4.083,1.89,15.681-0.236,19.876,0.868 c2.676,0.748,5.493-0.021,8.205,0.628c-1.913,0.325-3.855,0.431-5.762,0.72c1.751,0.763,3.7,0.459,5.564,0.65 c-1.49,0.452-3.022,0.734-4.526,1.052c1.334,0.127,2.662,0.198,4.018,0.261l0.205,0.692c-3.41,0.028-6.877-0.395-10.224,0.466 c18.62,0.382,8.25,0.668,26.647-1.44c-0.707,0.197-12.289,3.402-13.175,3.749c1.412,0.028,2.831-0.014,4.258-0.064l0.007,0.621 c0.89,0.162,1.793,0.325,2.697,0.501c-1.511,0.177-2.867,0.706-4.053,1.596c1.356,0.064,2.725,0.106,4.102,0.141 c-1.751,0.402-3.516,0.734-5.274,1.094c-1.454-0.6-3.008-0.537-4.385,0.219c0.367,0.537,1.101,1.61,1.476,2.146 c1.801,0.205,3.601,0.48,5.437,0.501c-1.327-0.763-2.817-1.059-4.265-1.44c1.758,0.162,3.679-0.085,5.267,0.883 c1.836,0.127,3.679,0.12,5.529,0.042l0.085,0.325c-1.306,0.113-2.605,0.219-3.904,0.304c-0.078,0.339-0.233,1.01-0.318,1.342 c-0.071-0.374-0.219-1.137-0.289-1.518c-6.383,1.003-12.66,2.563-19.064,3.375c3.41,0.77,6.785-0.763,10.231-0.445 c2.132-0.727,4.406-0.643,6.559-0.042c-3.947,0.332-7.753,1.483-11.467,2.796c3.022,0.388,6.079,0.367,9.115,0.071 c2.627-1.045,5.444-1.37,8.261-1.066c0.014-0.311,0.035-0.932,0.042-1.243c0.282,0.247,0.847,0.741,1.13,0.996 c0.233,0,0.706,0.014,0.939,0.014c-0.388,0.431-0.777,0.854-1.158,1.278c-10.182,2.973-20.66,4.731-31.244,5.416 c1.171,0.268,14.785,2.373,17.567,2.478l-0.127,0.755c7.042-0.786,9.388,2.382,23.385,2.083l-0.261,0.833 c3.1,0.565,6.319,0.367,9.37,1.243c-1.631,0.141-3.255,0.155-4.872,0.141c-0.113,1.101-0.381,2.175-0.72,3.227 c0.438,0.226,1.313,0.685,1.751,0.911c-2.937,0.226-5.882-0.078-8.805,0.212c3.184,0.988,6.574,0.614,9.864,0.544 c0.042,0.297,0.127,0.897,0.169,1.193c-0.897,0.537-1.772,1.08-2.641,1.638c-1.271,0.007-2.521,0.021-3.777,0.056 c1.391,0.381,2.789,0.777,4.194,1.193c-1.737,0.113-3.467,0.212-5.183,0.311c2.175,0.537,4.392,0.854,6.616,1.193 c-0.579,0.219-1.737,0.643-2.309,0.861c0.593,0,1.786-0.007,2.387-0.007c0.071,2.019-2.492,1.137-3.693,1.695 c0.932,0.205,1.871,0.402,2.831,0.6c-0.007,0.876,0.014,1.765,0.042,2.648c-2.041,0.127-4.053,0.417-6.065,0.643 c0.035,0.134,0.106,0.402,0.141,0.537c1.045,0.395,2.097,0.798,3.156,1.214c-1.553,0.184-3.093,0.332-4.639,0.459 c-0.007,0.127-0.021,0.388-0.035,0.515c1.306,0.148,2.789,0.042,3.763,1.123c-0.96,0.29-1.913,0.593-2.852,0.911 c3.093,0.219,6.206-0.141,9.292,0.346c-1.131,0.34-6.461,1.318-8.995,1.257c0.628,0.134,1.878,0.41,2.507,0.551 c-0.586,0.134-1.751,0.41-2.33,0.551c0.12,0.275,0.36,0.826,0.487,1.101c-3.071-0.155-6.143-0.099-9.207-0.113 c-0.84,0.487-1.666,0.967-2.485,1.462c-1.038-0.275-2.069-0.551-3.086-0.819c-0.621,0.508-1.229,1.017-1.829,1.532 c-6.413,0.354-23.725-2.258-34.061-5.924c2.682,1.123,29.673,13.686,31.632,15.823c0.812,0.325,1.624,0.628,2.471,0.932l0.042,0.544 c0.727,0.042,1.462,0.085,2.21,0.141c0.014,0.763,0.042,1.525,0.085,2.295c-0.607-0.325-1.2-0.635-1.786-0.953 c-2.118-0.141-4.159-0.699-6.22-1.109c0.723,0.541,14.877,7.772,15.435,8.12c-3.961,0.226-6.891-2.853-10.521-3.905 c0.099,0.304,0.297,0.911,0.395,1.214c0.699,0.473,1.334,1.031,1.892,1.688c-0.473,0.078-1.433,0.24-1.906,0.318 c3.394,1.07,2.411,0.747,5.048,1.504c1.906,1.462,3.883,2.838,5.91,4.138c0.169,0.706,0.268,1.384,0.473,2.097 c-4.293-2.161-8.374-4.808-12.914-6.432c1.659,1.462,3.672,2.401,5.705,3.227c-0.113,0.339-0.339,1.01-0.452,1.349 c3.914,2.089,4.522,2.175,6.411,2.789c-2.259,1.532-4.773,1.045-7.082,0c0.12,0.395,0.367,1.193,0.487,1.589 c-3.961-1.638-7.859-3.417-11.82-5.041c-1.991-2.139-4.985-3.502-7.922-3.516c-0.459-0.198-0.911-0.388-1.349-0.572 c1.377,0.981,3.015,1.447,4.533,2.154c0.311,1.822,2.86,2.478,4.498,2.309c2.796,1.306,5.663,2.514,8.233,4.251 c2.302,1.546,5.034,2.196,7.463,3.488c1.327,2.097,3.806,2.69,5.931,3.629c-2.097-0.042-4.166-0.466-6.192-0.939 c0.445,0.487,1.335,1.462,1.779,1.949c-1.469-0.522-2.916-1.094-4.335-1.723c-1.334-0.169-2.69-0.297-4.025-0.353 c1.116,1.313,2.775,1.829,4.342,2.408c-1.038-0.056-3.114-0.155-4.152-0.212c3.323,1.802,4.763,2.629,8.353,4.088 c-1.419,0.127-2.846,0.205-4.258,0.247c-0.014,0.332-0.049,0.989-0.063,1.32c7.568,3.845,1.697,0.93,9.264,3.806 c-2.38-0.424-4.731-1.045-7.153-1.08c0.529,0.998,0.816,1.468,12.533,4.688c-5.867-0.812-11.396-3.213-17.278-3.869 c0.642,2.408,3.516,2.189,5.408,2.965c-8.001-0.332-12.397-4.489-18.111-4.201c1.871,0.805,3.742,1.631,5.536,2.627 c-1.596,0.085-3.149,0.113-4.724,0.162c16.351,7.69,4.333,1.985,14.397,7.223c-1.822-0.374-3.756-0.791-5.048-2.231 c-1.158-0.127-2.309-0.219-3.453-0.367c-0.846-0.669-12.571-6.099-14.623-6.92l0.049-0.643c-0.784,0.113-1.56,0.233-2.323,0.353 c0.438,0.113,1.32,0.339,1.765,0.452l0.049,0.692c0.424-0.021,1.278-0.064,1.709-0.085c2.761,2.45,6.016,4.279,9.504,5.493 c-0.071,0.473-0.134,0.953-0.191,1.433c3.475,1.421,0.829,0.345,5.656,1.525c-1.433,0.057-2.881,0.028-4.293,0.014l-0.007,1.737 c0.473-0.106,1.419-0.304,1.892-0.41c-0.169,0.332-0.516,0.988-0.685,1.32c1.603,0.692,3.184,1.454,4.695,2.351 c-0.854,0.007-1.695,0.007-2.528,0c-2.182-1.737-5.006-1.511-7.597-1.32c4.094,1.173,7.519,2.314,7.548,2.323l-0.12,0.805 c-15.328-3.877-32.928-16.409-45.789-26.308c13.59,15.405,15.625,14.749,22.94,19.142c-0.078,1.116-0.155,2.387,1.066,2.951 c4.554,2.853,8.897,6.115,13.804,8.374c0.085,0.311,0.24,0.946,0.318,1.264c-0.861-0.007-1.709-0.007-2.549,0l0.141-0.826 c-2.309,0.099-4.625,0.021-6.927-0.021c2.535,0.904,5.119,1.709,7.569,2.853c-3.114,0.332-5.952-1.172-8.974-1.56 c2.549,1.165,5.38,1.786,7.534,3.721c-3.015-0.784-5.98-1.723-9.017-2.387c8.85,4.75,16.405,7.708,22.397,9.588 c-4.003-0.508-7.844-2.139-11.947-1.73c0.84,0.551,1.688,1.087,2.556,1.645c-0.537-0.035-1.617-0.106-2.154-0.141 c-0.734-1.01-2.528-1.038-2.768,0.374c1.059,0.756,2.118,1.525,3.184,2.302c-1.01,0.035-2.012,0.064-3.001,0.099 c-0.021,0.311-0.078,0.939-0.099,1.257c1.511,0.692,3.05,1.342,4.646,1.857c-0.007,0.169-0.021,0.508-0.028,0.678 c-1.327-0.381-2.655-0.784-3.968-1.137c0.064,0.388,0.184,1.165,0.247,1.553c2.478,1.165,5.055,2.097,7.633,3.036 c-4.069-0.052-14.125-3.988-17.645-5.437c0.12,0.572,0.261,1.144,0.402,1.723c-0.671,0.099-1.998,0.304-2.669,0.402 c0.523,0.148,1.56,0.431,2.083,0.572c-0.148,0.275-0.438,0.833-0.586,1.109c2.612,1.01,5.161,2.379,8.056,2.372l-0.643,1.956 c-0.706-0.281-17.048-4.928-27.268-12.37c0.226,1.137,0.424,2.274,0.65,3.432c-4.33-3.806-12.256-9.643-12.971-10.097 c10.268,13.028,24.075,22.023,32.811,33.397c-3.001-2.902-5.931-5.882-8.967-8.741c-0.417-0.042-1.243-0.127-1.659-0.169 c0.198,1.723,1.052,3.234,1.977,4.674c-0.734-0.544-1.454-1.08-2.161-1.617c-2.641,0.155-5.183-0.614-7.576-1.659 c-0.29,2.365,1.631,3.537,3.368,4.568c-1.003-0.078-1.998-0.155-2.987-0.226c-4.26-2.806-2.572-1.175-6.595-4.851 c-0.445,0.028-1.342,0.071-1.786,0.099c-2.09-1.97-4.088-4.088-6.588-5.529c1.34,1.91,7.507,8.15,11.325,10.648 c0.085,0.41,0.247,1.243,0.332,1.659c-1.285-1.151-2.725-2.161-4.526-2.012l0.078-0.734c-0.402,0-1.207,0.007-1.603,0.007 l0.184,1.003c-0.861-0.134-1.73-0.261-2.577-0.388c1.857,2.789,3.276,5.973,5.988,8.085c-0.996-0.551-2.069-0.911-3.191-0.974 c2.019,4.159,5.966,6.828,8.494,10.626c-1.942-1.229-3.29-3.213-5.281-4.342l-0.501,0.24c-0.092,0.607-0.268,1.822-0.36,2.429 c-0.374-1.299-0.72-2.612-1.073-3.898c0.134,1.299-0.063,2.372-0.579,3.213c-0.763,0.12-1.532,0.085-2.168-0.374 c-0.431-0.784-0.861-1.546-1.278-2.316c-0.12,0.155-0.36,0.459-0.48,0.614c0.593,0.706,1.179,1.419,1.786,2.139 c0.325,0.212,0.974,0.642,1.306,0.861c2.073,3.649,3.984,5.077,6.326,8.36c-0.586-0.388-1.758-1.172-2.344-1.56 c-0.07,9.498,2.458,4.293,2.302,29.295c23.68-20.316,9.462-6.302,31.971-27.925c36.773-37.674,73.136-60.622,86.218-70.459 c45.312-31.426,86.357-46.769,107.86-56.02c46.243-21.02,41.167-26.844,58.95-34.936c41.823-18.57,60.293,7.778,78.868,2.012 c5.521-1.652,11.311-3.672,15.195-8.169c4.766-5.437,5.154-13.479,3.135-20.137c-1.243,1.165-2.267,2.958-4.166,3.022 c-4.797,0.458-5.623-3.004-3.919-7.611c13.186-5.866,16.871,12.661,11.989,29.584c-7.273,22.195-27.675,34.645-49.093,44.073 c3.333-0.184,7.272,2.062,7.181,5.747c0.325,4.288-7.509,8.305-8.755-2.104c-4.349,2.817-6.736,7.597-8.48,12.307 c-6.272,17.694-0.723,32.278,5.747,47.222c10.99,18.047,7.921,47.706-1.25,66.9c-14.52,30.962-42.632,31.676-54.361,34.089 c6.763-0.022,34.809,1.377,50.046,6.919c26.458,8.875,38.601,47.208,18.993,46.594c-4.185-4.437-2.148-8.174,1.518-8.515 c1.574-0.282,2.965,0.734,4.349,1.327c0.77-5.253-1.073-10.33-3.615-14.827c-9.475-22.861-45.862-26.591-70.72-27.77 c24.638,6.338,38.2,16.755,36.673,43.339c-1.174,17.201-10.754,42.487-30.947,48.669c-11.297,3.65-23.279,1.977-34.831,0.791 c13.328,7.739,39.281,18.554,28.172,46.897c5.854,5.838,1.98,0.209,17.073,18.979c6.328,8.037,8.564,3.565,28.073,41.475 c-1.306,0.748-2.401,1.928-3.862,2.351c-4.046-0.883-6.178-4.95-8.36-8.092c-2.379-4.512-6.559-7.597-9.525-11.657 c-2.104-2.838-4.243-5.649-6.743-8.141c1.972,13.244-9.974,32.652-17.299,43.529c-1.779,2.436-1.038,5.712-2.295,8.36 c-0.699,1.229-2.57,1.179-3.417,0.155c-8.814-8.53-3.835-4.422-2.436-48.507c0.038-0.861-1.221-14.173-2.612-16.451 c0.085,3.848,1.165,7.661,0.685,11.516c-4.822,35.586-3.549,38.363-7.964,37.132c-8.124-1.884-6.495-9.538-5.606-39.194 c-8.205,5.945-18.04,9.638-28.201,10.012c1.54,14.981-0.479,16.159-8.063,18.45c-3.834-5.79-5.048-12.731-6.771-19.325 c-6.15-1.052-12.151-2.754-18.16-4.392c7.41,6.718,18.827,15.539,17.899,28.497c-1.378,26.209-60.986,59.93-94.804,44.052 c0,0-50.661-29.735-99.655-55.067c-24.618-12.498-39.582-26.308-55.97-30.778c-12.415-2.537-26.643,1.113-44.857-3.756 c-6.228-2.189-12.886-0.664-19.318-0.791c-2.754,4.462-5.112,9.151-7.654,13.733c12.674,3.133,126.602-1.719,242.783,122.694 c10.318,12.418,32.91,36.281,47.37,67.762c16.416,38.416,2.5,59.122-17.461,64.839c-18.532,5.213-47.29-16.633-60.694-33.341 c4.399,13.196,14.771,22.94,21.994,34.499c11.153,18.441,16.197,28.543,8.614,63.441c-9.601,36.432-36.826,31.6-34.633,21.175 c0.417-2.775,5.394-3.354,5.959-0.346c0.699,1.695-0.614,3.227-1.264,4.702c4.596,1.342,9.595-1.575,11.375-5.867 c9.378-22.442-16.495-30.639-14.686-67.635c1.808-17.856,6.618-31.743-0.424-46.721c8.348,42.196-38.356,40.428-55.963,6.235 c0.085,2.62,0.205,5.246,0.064,7.88c0.635,0.643,1.278,1.285,1.935,1.949c0.558-0.092,1.666-0.268,2.217-0.36 c3.84,5.274-4.931,16.913-11.629,25.623c2.966,3.919,6.432,7.456,9.165,11.558c0.501-0.014,1.504-0.042,1.998-0.056 c4.673,7.935-23.285,24.077-50.661,52.285c1.031,0.812,2.019,1.695,2.845,2.74c-11.431,8.704-44.808,20.618-45.577,20.907 c-18.557,54.032-49.002,117.036-62.163,161.818c44.848,14.568,46.127,22.24,110.126,62.918c7.513-3.552,16.021-3.439,24.098-4.519 c11.818-2.544,30.57,8.269,35.741,29.599c2.828-1.2,11.35-11.198,24.91-8.896c17.542,3.836,22.047,12.183,33.065,49.143 c10.867,35.872,41.333,70.701,36.864,104.386c-1.317,18.193-13.794,30.929-18.859,27.403c-2.853-1.97-3.446-5.585-4.229-8.685 c-6.746-18.04-23.964-47.705-50.251-65.382c-8.099-4.356-17.038-6.948-24.847-11.876c0.664,0.989,1.363,1.998,1.673,3.213 c-4.293-3.206-8.508-6.517-12.956-9.511c-2.775-3.333-6.835-5.006-10.245-7.534c-4.83-3.58-9.504-7.385-13.613-11.777 c-2.005-2.33-5.437-2.859-7.075-5.536c-1.737-2.478-3.544-4.9-5.331-7.322c-5.784-1.221-2.638-3.985-12.342-8.642 c2.411,13.031,11.993,23.777,8.303,24.402c-0.706-0.65-10.988-11.648-12.328-15.64c-1.61-4.695-3.982-9.08-5.5-13.804 c-25.99-11.495-53.993-17.122-80.895-25.976c14.531,49.966,18.274,66.969,5.917,185.69c10.194,7.603,14.298,21.868,19.89,29.683 c5.677,8.402,3.848,20.885-4.074,27.247c-4.547,4.18-9.878,7.364-15.202,10.436c5.882,0.636,11.205,3.735,15.675,7.47 c20.516,21.987-5.289,54.22-3.495,99.344c3.85,84.48-74.771,114.914-67.719,90.271c1.56-4.102-0.198-8.395-0.424-12.568 c-2.572-17.848,0.754-63.307-0.459-71.949c-7.447-28.642,0.618,0.99-8.508-37.506c-8.033-27.138,2.924-79.008,5.253-83.38 c1.589-7.378,1.214-15.004,1.236-22.51c-4.173,3.248-8.127,7.061-10.372,11.933c-4.111,8.822-6.953,25.058-11.332,22.983 c-2.691-16.373,1.333-17.14,3.071-23.59c4.774-15.931,13.946-28.626,20.582-34.089c-1.377-30.192-7.435-59.875-12.42-89.608 c-4.222-25.334-6.446-50.957-10.704-76.284c-6.873-37.464-10.403-32.503-20.074-52.348c-65.075,13.938-71.665-70.876-76.694-107.888 c-0.096-0.706-11.427-92.438-10.775-110.769c-1.024-1.306-2.048-2.605-3.1-3.876c0.459-1.144,1.024-2.238,1.8-3.184 c0.431-5.119,0.741-10.245,0.876-15.371c-3.735-0.981-7.739-3.368-8.226-7.562c0.332-0.318,0.981-0.96,1.306-1.278 c-0.332-5.818-0.522-11.643-0.699-17.461c-11.923-3.489-28.858-3.952-31.039-11.763c3.166-4.192-0.052-3.379,8.727-58.23 c5.569-31.489,11.565-49.785,11.565-49.785c-0.657,0.657-1.299,1.327-1.935,2.019c-0.339-1.278-1.8-2.627-0.876-3.919 c0.961-1.361,8.106-12.203,8.466-15.569c-0.473,0.388-1.419,1.158-1.892,1.539c0.134-0.537,0.395-1.61,0.53-2.146 c-0.367-0.268-1.101-0.798-1.469-1.059c-0.007-1.92-0.452-3.905,0.177-5.762c0.946-1.363,2.083-2.577,3.114-3.862 c-0.014-0.282-0.056-0.854-0.078-1.137c2.386-4.053,5.225-7.809,7.922-11.643c0.395-11.467,0.332-22.969,0.734-34.442 c-33.261,3.752-36.099,5.118-51.571,3.008c-2.034,8.12-3.304,16.473-6.249,24.345c-9.267,24.123-63.557,46.537-60.814,9.426 c-3.46,6.651-7.364,13.401-13.5,17.948c-7.51,5.852-21.256,8.793-33.92,3.269c-1.296,6.34-3.917,22.471-12.264,28.179 c-2.471-0.113-5.324-0.791-6.934-2.789c-1.577-11.437,6.377-27.278,7.385-37.471c-17.182-4.826-30.878-0.692-36.596,37.683 c1.223,4.866,4.732,7.152-0.89,12.575c-2.304,7.568-1.249,5.479-5.995,9.038c-0.501,0.014-1.497,0.042-1.991,0.056 c-1.709,1.109-3.311,2.365-4.611,3.954c-0.282-0.028-0.847-0.092-1.13-0.12c-0.647-1.371-4.596-28.12-4.441-37.295 c-8.201,16.231-16.038,20.832-16.967,27.812c-1.539,9.814-1.488,19.094,8.84,22.157c-1.081-4.128-1.227-6.684,3.29-5.945 c4.662,2.656-0.352,10.708-7.957,7.407c-23.216-9.475-24.212-61.927-10.386-81.396c13.84-18.992,23.64-21.3,30.545-35.565 c-12.314,10.909-28.165,18.033-44.687,18.796c-17.08,0.948-29.873-17.707-30.658-33.411 c-3.19-48.145,90.847-122.705,181.715-142.464c41.893-8.836,42.581-2.126,62.424-4.935c-0.452-6.136-0.099-12.349,1.158-18.372 c-20.093-4.744-17.193-5.165-46.643,4.794c-20.3,7.76-41.694,11.926-62.487,18.083c-51.36,14.636-58.399,20.817-73.085,19.064 c-31.266-4.022-81.848-52.663-59.564-75.585c3.947-4.321,9.165-7.117,14.086-10.153c-26.59,1.552-44.468-1.559-60.892-27.833 c-8.027-13.147-16.325-36.098-4.236-48.415c6.665-6.99,16.36-9.334,25.193-12.314c-16.464-1.723-36.046-3.407-44.956-24.691 c-7.54-17.793-17.332-65.15,30.389-65.876c-6.056-1.463-24.954-3.602-39.709-2.74c-12.612,1.118-27.271,12.862-27.968,26.986 c1.652-0.177,3.65-0.967,5.048,0.36c2.556,1.765,1.695,6.143-1.137,7.153c-10.881,1.197-11.677-24.074,14.256-36.207 c10.807-5.126,30.512-2.482,48.733,0.452c-55.691-18.864-46.281-81.315-37.252-96.993c19.369-28.673,16.49-48.364,8.035-59.091 c-4.307,13.96-14.73-4.67-1.384-3.975c-11.79-8.691-26.136-20.515-31.59-34.068c-4.738-11.237-6.829-23.352-2.556-34.223 c3.222-8.402,12.116-7.425,12.328-2.436c0.374,2.062-0.96,4.985-3.439,4.54c-2.139,0.247-3.389-1.511-4.279-3.149 c-2.507,5.338-2.768,11.911-0.184,17.278c2.789,5.571,8.416,8.875,13.832,11.481c12.607,6.282,40.938-15.075,72.118,15.442 c55.388,58.813,47.912,26.687,143.036,121.812c38.926,40.467,54.473,66.648,64.796,80.542 c24.995,29.005,49.157,59.479,64.959,94.628c4.702,10.492,12.561,19.036,18.845,28.554c1.921-5.296,3.975-10.669,7.527-15.11 c3.342-4.014,16.926-13.484,23.272-14.474c21.028-3.576,22.348,1.571,35.162,0.282c5.832-0.595,14.982-6.514,16.557-15.922 c1.151-6.616,2.259-13.246,3.241-19.897l-0.847-0.021c-0.812,2.542-1.673,5.084-1.913,7.76c-0.755-2.5,0.897-4.773,1.045-7.223 c0.141-2.492,1.003-4.844,2.019-7.096c0.071-2.436,0.635-4.808,0.868-7.216c-1.772,2.365-2.238,5.444-4.229,7.682 c-0.042,1.709-0.671,3.283-1.483,4.766c-0.021-1.405-0.021-2.81-0.014-4.201c-0.699,0.473-1.391,0.96-2.076,1.447 c-0.219,0.748-0.438,1.497-0.664,2.245c-0.092-1.899-0.12-3.82-0.106-5.712c-0.508,0.741-1.532,2.217-2.048,2.958 c0.431-2.507,1.031-4.978,1.659-7.435c-0.459,0.035-1.391,0.099-1.85,0.127c-0.918,4.823-2.309,9.574-4.187,14.1 c0.099-3.05,1.638-5.769,2.478-8.642c-0.883,0.226-1.758,0.459-2.62,0.713c0.085,0.861,0.177,1.737,0.268,2.612 c-1.829,1.511-1.497,3.919-1.624,6.016c-0.586-1.539-0.805-3.213,0.056-4.702c0.057-1.511,0.064-3.022,0.021-4.519 c-2.252,1.426-2.344,4.342-3.283,6.581c-0.635-3.919,0.791-7.738,0.734-11.65l-0.812,0.099c0.078,2.514-0.763,4.907-1.695,7.202 c0.014-1.596,0.24-3.177,0.833-4.66c-1.483-2.916-0.346-6.263,1.334-8.819c0.7-7.529,5.371-15.58,5.931-20.991 c-1.165,4.477-2.782,8.819-4.95,12.921c-0.092,0.685-0.184,1.37-0.261,2.069c-0.353-0.106-1.059-0.325-1.412-0.431 c0.049,0.501,0.141,1.49,0.191,1.984c-2.175,0.741-2.055,3.559-2.994,5.288c0.367-0.021,1.101-0.071,1.469-0.092 c-0.014-1.01-0.021-2.012-0.021-3.015c0.268,0.007,0.812,0.014,1.08,0.014c-0.324,2.133-3.718,13.192-3.947,13.903 c-0.019-4.491,0.4-5.255,2.168-9.186l-0.36-0.96c-2.124,2.962-6.229,19.431-6.581,21.104c-0.78-7.547,3.605-13.878,3.65-21.196 c-0.579,1.229-1.151,2.471-1.723,3.707c0.845-11.907,4.475-20.971,4.808-22.051c-0.544,0.748-1.638,2.252-2.182,3.001 c0.346-1.949,0.925-3.82,1.144-5.776c-4.771,11.362-3.108,12.117-6.425,18.428c-0.12-2.351-0.049-4.695-0.169-7.04 c-0.353,1.405-0.522,2.853-0.565,4.307l-0.713-0.191c-0.579,1.462-0.134,3.495-1.384,4.611c-0.374,1.313-0.635,2.662-0.734,4.032 l-0.805-0.184l0.24,0.967c-0.431-0.049-1.285-0.155-1.709-0.212c1.01-2.259,1.85-4.674,1.511-7.181 c-0.431,1.49-0.748,3.015-1.066,4.54c-0.508-0.056-1.518-0.162-2.026-0.212c0.515-1.031,1.052-2.048,1.567-3.071 c0.021-2.478,0.932-4.83,1.116-7.287c-1.031,1.991-1.575,4.194-1.829,6.418c-0.304-0.049-0.897-0.155-1.193-0.205 c-0.106-0.445-0.318-1.327-0.417-1.772c-0.169,1.462-0.254,2.937-0.311,4.42c-1.511-0.099-1.469,1.137-1.419,2.295 c-0.36,0.049-1.087,0.148-1.447,0.191c-0.021-0.565-0.056-1.695-0.078-2.267c-2.13,5.249-2.199,6.087-3.46,8.367 c-0.402-8.437,3.445-9.967,1.532-14.538c1.582-3.446,2.888-7.124,2.817-10.958c-0.286,4.114-3.686,2.902-3.488,10.669 c-0.374,0.021-1.116,0.064-1.49,0.085c0.014,2.154-0.007,4.307-0.021,6.468c-0.784-0.127-1.546-0.233-2.316-0.353 c-0.558,1.73-0.494,3.509,0.353,5.147c-0.381,0.064-1.144,0.191-1.525,0.254c-0.085-0.459-0.254-1.384-0.332-1.843 c-0.438,2.09-0.148,4.575-2.104,6.037c0.551-9.281,6.403-13.916,3.94-18.337c-0.268-3.008-0.212-6.03-0.254-9.045 c-0.318,0.48-0.946,1.426-1.264,1.906c0.049,0.77,0.148,2.323,0.198,3.093c-0.367-0.847-0.72-1.695-1.073-2.535 c-0.028,1.243-0.042,2.492-0.092,3.749c-0.876,3.657-0.381,7.463-0.41,11.191c-0.522-0.127-1.045-0.247-1.56-0.36 c0.042,1.469,0.085,2.958,0.134,4.441c-0.374,0.007-1.13,0.035-1.511,0.049c0.049-7.273-0.48-14.524-0.586-21.789 c0.459-2.881,0.657-5.79,0.48-8.699c-0.219,0.904-0.41,1.808-0.593,2.732c-2.345,1.092-3.679,2.761-7.541,10.337 c-0.071,1.589-1.158,2.584-2.485,3.255c-0.41,0.035-1.229,0.113-1.645,0.148c1.412-3.043,2.937-6.235,2.514-9.687 c-0.318-4.971,1.483-9.73,1.666-14.658l-0.763,0.021c-0.311,1.8-1.031,3.488-1.772,5.154c-0.254-0.049-0.77-0.141-1.024-0.184 c-0.847,1.977-1.695,3.996-1.815,6.185c-0.12-0.551-0.353-1.645-0.473-2.189c-0.318,0.353-0.953,1.059-1.271,1.419 c0.579-0.904,1.179-1.8,1.772-2.69c1.022-6.412,2.856-10.925,3.05-14.693l0.741,0.049c-0.106-0.974-0.212-1.942-0.311-2.902 l0.861,0.247c-0.078-1.236,0.579-2.217,1.327-3.121c0.099-0.381,0.297-1.158,0.395-1.539c-0.741,0.727-1.504,1.426-2.274,2.118 c-0.049,0.311-0.134,0.925-0.184,1.236c-0.593-0.099-1.179-0.184-1.758-0.268c-2.352,3.744-1.632,2.454-4.018,11.248 c0.064-2.415,0.6-4.766,1.109-7.11c-0.883,0.932-1.709,1.92-2.577,2.867c2.485-5.571,1.78-6.599,3.403-11.304 c-1.059,0.007-2.125,0.007-3.177,0c0.515-0.332,1.539-0.996,2.055-1.327c-1.518,0.021-3.029,0.049-4.54,0.078 c1.158-0.96,2.245-2.012,3.269-3.114c-0.021-1.01-0.071-2.033-0.078-3.029c-1.589,0.572-2.754,1.793-3.728,3.121 c0.106-0.798,0.325-2.401,0.431-3.206c-1.786,1.836-4.879,2.422-5.691,5.091c-0.233-0.607-0.685-1.808-0.911-2.415 c-2.041,2.676-4.229,5.225-6.072,8.049c1.116-2.104,2.316-4.18,3.17-6.404c-1.744,0.099-3.064,1.158-4.286,2.252 c2.669-3.693,5.218-7.47,7.809-11.219c0.12-0.974,0.254-1.949,0.438-2.909c1.052-1.342,1.864-2.867,2.09-4.575 c-1.575,1.32-1.723,4.434-4.173,4.364c-0.678,1.066-0.988,2.57-2.33,3.001c0.014-1.511,0.36-2.987,0.635-4.462 c0.402-0.664,0.805-1.334,1.207-1.998c-0.6,0.607-1.793,1.815-2.387,2.422c0.071-2.33,1.017-4.434,2.45-6.22 c0.014-1.454,0.007-2.909-0.014-4.356l0.939,0.12c-0.078-0.311-0.24-0.925-0.318-1.236c0.515-0.523,1.045-1.045,1.575-1.567 c0.007-0.473,0.014-1.419,0.021-1.892c-0.628,1.25-1.32,2.471-2.118,3.629c-0.325-2.443,0.056-4.872,0.988-7.138 c-1.511,0.664-3.036,1.278-4.554,1.892c-0.106-0.487-0.318-1.462-0.424-1.949c-0.021,0.424-0.078,1.271-0.099,1.688 c-3.601,1.01-4.611,4.71-6.1,7.668c0.657-1.949,1.462-3.841,2.21-5.747c-1.659,0.247-3.107,0.996-4.187,2.281 c0.049-0.974,0.134-1.928,0.191-2.895c0.685-1.073,1.349-2.161,2.005-3.255c-1.906,0.388-3.813,0.755-5.762,0.805 c2.52-0.892,1.96-0.471,4.279-1.497c0.473-0.522,1.419-1.567,1.892-2.09c-0.657-0.071-1.977-0.205-2.634-0.275 c0.417-0.099,1.25-0.304,1.666-0.409c0.064-0.374,0.184-1.13,0.24-1.504c-2.33,0.007-4.688-0.127-6.969,0.438 c-0.819,0.466-1.638,0.918-2.45,1.377c0.007-0.332,0.035-0.996,0.049-1.327c-0.657,0.148-1.97,0.445-2.634,0.593 c0.607-0.445,1.808-1.342,2.408-1.786c-1.836,0.297-3.643,0.72-5.5,0.784c3.047-1.073,18.358-6.905,20.695-7.823 c1.476-1.652,2.62-3.552,3.608-5.521c-3.41,0.974-7.251,0.614-10.302,2.676c-0.24-0.233-0.713-0.692-0.953-0.918 c-1.539,1.772-2.874,3.721-3.968,5.797c0.028-1.462,0.064-2.916,0.127-4.371c-0.897,0.099-1.786,0.191-2.669,0.29 c-1.596,1.737-2.838,3.735-4.123,5.691c0.275-1.412,0.953-2.676,1.772-3.848c0.049-0.537,0.148-1.624,0.198-2.168 c-0.911,0.395-1.801,0.812-2.704,1.214c0.572-1.885,1.518-3.622,2.768-5.14c-0.953-0.289-1.885-0.579-2.817-0.876 c1.017,0.056,2.041,0.127,3.064,0.198c1.031-1.363,2.062-2.725,3.078-4.095c-2.111-0.981-4.385-0.777-6.545-0.092 c-0.028-0.169-0.085-0.508-0.113-0.678c0.727-0.127,2.168-0.388,2.888-0.515c-1.638-0.388-3.29-0.685-4.935-1.017 c18.456-0.255,12.907-7.219,27.501-14.312c-1.49,0.282-2.881,0.897-4.201,1.617c-7.044-0.055-19.82,4.916-22.114,3.594 c-1.285-0.049-2.563-0.056-3.834-0.071c4.088-0.868,8.183-1.864,12.003-3.622c-1.207,0.007-2.415,0.042-3.608,0.113 c-0.042-0.318-0.134-0.953-0.177-1.271c0.537-0.254,1.08-0.508,1.624-0.763c-2.916-0.388-5.832-0.042-8.628,0.819 c0-0.198-0.007-0.593-0.007-0.791c3.001-0.812,6.072-1.447,8.904-2.796c-1.645-0.141-3.269-0.184-4.907-0.226 c-0.699,0.395-1.384,0.791-2.076,1.193c-1.25,0.141-2.499,0.275-3.742,0.417c1.031-0.515,2.069-1.01,3.114-1.504 c0.261,0.014,0.791,0.042,1.059,0.057c0.064-0.417,0.198-1.25,0.261-1.666c-2.196,0.106-4.349,0.494-6.496,0.897 c2.598-1.525,5.493-2.408,8.459-2.916c0.007-0.381,0.028-1.151,0.035-1.532c-1.815,0.184-3.636,0.325-5.458,0.353 c2.655-0.784,5.373-1.342,8.007-2.21c-4.039-0.847-7.901,1.059-11.926,0.53l0.12,1.038c-0.388-0.134-1.158-0.395-1.546-0.53 l-0.057,1.101c-1.123-0.226-2.245-0.459-3.354-0.706c0.953-0.028,1.899-0.042,2.86-0.035l-0.099-0.741 c4.886-1.455,9.92-2.697,14.496-4.992c-2.747,0.169-5.38,0.988-8.056,1.518c-0.628,0.36-1.257,0.713-1.878,1.066 c0.551-0.586,1.13-1.158,1.702-1.723c1.688-0.049,3.149-0.65,4.399-1.8c-2.584-0.035-5.063,0.586-7.583,0.988 c2.542-0.981,5.225-1.497,7.795-2.394c0.897-0.833,2.062-1.144,3.213-1.49c-0.402-0.282-1.207-0.854-1.61-1.137 c1.285,0.127,2.57,0.24,3.869,0.367c0.297-0.515,0.6-1.038,0.904-1.553c7.545-0.211,25.68-4.953,28.709-5.303 c0.184-0.339,0.558-1.017,0.741-1.356c1.193,0.071,2.394,0.141,3.594,0.219c-0.099-0.261-0.311-0.784-0.41-1.038 c0.734-0.198,1.469-0.402,2.21-0.6c-0.89,0.014-1.772,0.035-2.648,0.071l0.155,0.876c-2.09-0.162-4.194-0.24-6.277-0.021 c-26.138,2.518-35.135-1.732-38.333-2.274c-0.777-0.621-1.539-1.25-2.295-1.871c-0.861-0.339-1.716-0.685-2.556-1.045 c4.335,0.141,8.452,1.991,12.85,1.673l-0.247-1.25c-2.909-0.212-5.754-0.946-8.522-1.836c3.241,0.064,6.348,1.278,9.617,1.123 c-1.031-0.431-2.048-0.826-3.071-1.236c1.892,0.148,3.763,0.275,5.684,0.339c-4.663-1.878-6.99-1.845-8.776-3.036 c2.62,0.198,5.161,1.2,7.823,0.805c-4.651-1.104-14.857-4.415-18.894-6.369c3.424,0.805,6.919,1.243,10.415,1.567 c-1.652-0.904-3.361-1.652-5.112-2.316c0.042-0.353,0.134-1.052,0.184-1.405c2.718,0.184,5.656-0.275,8.056,1.327 c4.159,1.454,8.664,1.003,12.914,0.254c-3.643,0.304-7.223-0.41-10.81-0.883c-1.059-0.643-2.132-1.25-3.227-1.822 c-1.158-0.014-1.589-0.706-1.483-1.793c3.898,1.405,8.007,1.991,12.109,2.443c-1.751-0.579-3.516-1.066-5.26-1.631 c-0.89-0.65-1.772-1.285-2.648-1.935c-0.974-0.141-1.942-0.282-2.902-0.431c-1.419-0.72-2.782-1.518-4.081-2.422 c-1.603-0.085-3.149-0.48-4.66-0.967c0.515-0.162,1.539-0.48,2.055-0.643c-1.398-0.706-2.789-1.419-4.095-2.281 c1.87,0.54,14.955,6.107,18.902,4.928c-1.899-0.932-3.89-1.652-5.889-2.309c1.08-0.099,3.248-0.289,4.335-0.388 c-2.083-0.558-4.265-0.537-6.348-1.094c0-0.614,0-1.229,0.014-1.836c2.485,0.798,5.034,1.709,7.696,1.476 c-3.036-1.257-6.136-2.323-9.165-3.58c3.679-0.318,6.912,1.8,10.535,1.921c-1.772-0.699-3.566-1.363-5.204-2.337 c4.448-0.847,8.12,2.464,12.497,2.33c-11.624-3.39-14.903-6.492-17.574-8.84c4.145,0.445,7.301,3.869,11.558,4.018 c-1.2-0.699-2.429-1.334-3.636-2.005c0.572,0.028,1.723,0.078,2.302,0.106c1.278,2.012,1.645-1.56,0,0 c-1.024-0.967-2.231-1.688-3.403-2.436c2.217,0.275,4.279,1.151,6.235,2.189c0.254-0.289,0.748-0.861,0.996-1.144 c1.335,0.643,2.669,1.236,4.074,1.737c-2.083-1.617-4.589-2.492-6.863-3.777c-6.263-3.142-11.933-7.315-17.468-11.58 c10.239,3.444,13.511,10.329,19.071,9.652c-0.078-0.325-0.233-0.989-0.311-1.32c-1.518-0.727-3.022-1.483-4.498-2.288 c-0.473-0.021-1.419-0.064-1.899-0.085c0.021-0.812,0.049-1.617,0.078-2.422c1.808,1.059,3.785,1.779,5.882,2.012 c-0.064-0.36-0.184-1.08-0.24-1.447c-2.69-0.325-4.999-1.815-7.47-2.782c1.094-0.685,2.281-1.179,3.601-1.073 c2.224,1.942,4.526,4.018,7.47,4.773c-1.815-3.608-5.811-4.731-8.911-6.856c0.939-0.007,2.817-0.028,3.756-0.035 c0.868,0.706,1.744,1.405,2.62,2.118c0.388,0.021,1.179,0.064,1.568,0.092c-0.833-0.89-1.673-1.765-2.535-2.612 c0.494-0.127,1.476-0.374,1.97-0.501c-1.518-0.275-3.057-0.452-4.597-0.544c-1.525-1.13-3.417-2.062-4.081-3.975 c-1.236-1.038-2.549-1.984-3.869-2.909c-0.805,0.53-1.744,0.939-2.563,0.219c0.664-0.452,1.327-0.918,1.984-1.384 c-0.544-0.332-1.645-0.988-2.196-1.313c4.434,1.356,7.308,5.719,11.947,6.722l0.014,0.353c2.718,1.172,5.281,2.768,8.205,3.403 c-0.634-0.446-9.677-5.511-9.8-5.578c-0.007-0.77-0.007-1.532,0-2.295c2.2,1.169,3.499,2.128,7.844,2.676 c-7.535-2.798-13.559-5.885-14.679-6.658c1.709,0.41,3.389,0.925,5.098,1.32c2.196-0.515,4.632-0.763,6.496,0.791 c3.354,1.342,7.032,1.193,10.556,1.744c-1.864-1.709-4.258-2.549-6.489-3.622c-0.861,0.028-1.723,0.056-2.57,0.099 c0.12-0.289,0.36-0.868,0.48-1.151c-1.539-0.593-3.071-1.2-4.526-1.97c4.211,0.081,3.059,1.641,14.065,4.018 c-3.785-1.998-7.894-3.248-11.707-5.161c4.208-0.36,8.706-0.106,12.25,2.457c-0.861-0.798-1.737-1.589-2.591-2.379 c-3.667-0.733-3.565-1.676-8.713-2.634c0.113-0.346,0.339-1.024,0.452-1.37c-1.638-0.614-3.262-1.278-4.801-2.09 c1.631,0.24,3.234,0.614,4.851,0.974c-0.755-0.515-1.504-1.031-2.259-1.532c0.812-0.014,2.436-0.035,3.248-0.049 c-4.145-2.161-8.847-2.923-13.055-4.964c1.935,0.064,3.869,0.191,5.818,0.282c-0.925-0.763-1.829-1.532-2.718-2.309 c1.596,0.614,3.17,1.299,4.702,2.069c5.43,0.984,8.986,2.178,13.076,1.624c-13.606-6.655-15.972-6.163-20.201-8.035 c6.249,1.059,11.876,4.392,18.097,5.437l0.014,0.452c5.423,1.695,8.647,2.413,11.107,2.245c-5.331-1.808-9.44-6.185-15.039-7.336 c-0.268,0.24-0.812,0.727-1.08,0.967c0.106-0.346,0.325-1.038,0.431-1.384c-1.024-0.346-2.034-0.706-3.05-1.066 c0.184-1.25-0.819-2.083-1.546-2.923c2.026,0.72,4.074,1.391,6.164,1.928c-0.219-0.89-0.466-1.758-0.755-2.62 c-5.023-2.301-3.264-0.968-7.746-4.272c2.62,1.469,5.317,2.817,8.24,3.594c0.466,0.515,0.932,1.031,1.398,1.553 c0.671,0.261,1.342,0.515,2.026,0.784c-0.071,0.41-0.127,0.819-0.177,1.236c3.77,1.85,7.802,3.008,11.827,4.138 c-0.346,0.332-1.031,0.996-1.377,1.334c0.6-0.332,1.2-0.671,1.815-0.996c1.913,0.847,3.869,1.596,5.867,2.245 c-4.385-2.238-8.904-4.215-13.401-6.206c-0.431-0.431-1.292-1.306-1.723-1.737c0.988,0.035,2.958,0.113,3.947,0.155 c-1.172-0.614-2.965-0.755-2.958-2.457c10.553,3.442,11.89,5.555,15.908,6.044l0.071,0.304c4.314,1.836,8.416,4.166,12.858,5.705 c-18.942-13.191-21.923-19.23-35.635-30.107c-0.007-0.374-0.028-1.137-0.042-1.518c0.402,0,1.2,0,1.596-0.007 c-0.064,0.755-0.127,1.504-0.184,2.259c0.537-0.035,1.087-0.064,1.638-0.092c2.612,2.916,6.171,4.773,8.727,7.746 c0.304,0.021,0.911,0.078,1.214,0.106c-0.092-0.282-0.282-0.84-0.374-1.123c-4.068-1.712-11.346-9.654-13.006-12.187 c2.132,1.2,3.792,3.015,5.493,4.738c0.876,0.219,2.217-0.325,2.732,0.706c3.17,4.498,7.986,7.463,12.561,10.351 c-1.462-2.189-3.657-3.876-4.568-6.411c2.528,1.822,4.625,4.208,7.357,5.762c-1.038-1.243-2.203-2.358-3.368-3.46 c0.014-0.812,0.035-1.624,0.064-2.429c-1.532-0.515-3.043-1.123-4.505-1.786c3.114-1.874,0.048-2.593,7.513,2.74 c-0.085-0.381-0.254-1.13-0.332-1.511c-2.747-1.546-4.611-4.166-7.145-5.98c-0.741-0.134-1.483-0.162-2.224-0.205 c-1.08-0.819-2.203-1.928-3.728-1.695c1.815,1.638,3.799,3.078,5.86,4.392c0.035,0.487,0.12,1.462,0.155,1.949 c-3.509-3.382-7.181-6.581-10.732-9.913c1.977,1.405,3.629,3.396,6.143,3.883c-0.946-1.278-1.85-2.556-2.577-3.968 c-1.483-1.066-3.015-2.076-4.526-3.107c0.812,0.042,1.624,0.092,2.443,0.141c0.84,0.727,1.688,1.455,2.542,2.182 c0.487-0.049,1.462-0.162,1.949-0.212l0.014,1.045l0.861-0.191c-0.078-0.791-0.134-1.575-0.191-2.365 c-1.349-1.313-2.74-2.577-4.215-3.742l-0.028-0.522c0.953,0.099,1.906,0.198,2.874,0.289c10.717,11.167,35.29,31.296,49.82,37.055 c-5.366-4.173-10.146-9.038-15.456-13.274c0.854,0.056,2.563,0.177,3.424,0.24c-1.13-0.643-2.379-0.876-3.643-0.713 c-1.511-1.342-3.022-2.683-4.618-3.919c-0.042-0.127-0.12-0.395-0.155-0.522c0.77,0.085,1.546,0.177,2.33,0.261 c-2.132-2.838-4.844-5.119-7.717-7.16c-3.58-4.688-8.056-8.586-12.159-12.815c1.116,0.049,2.252,0.113,3.375,0.184 c-0.989-0.755-2.026-1.525-2.987-2.281c0.819-0.021,2.457-0.064,3.276-0.085c0.155,0.72,0.318,1.433,0.494,2.154 c0.064-0.501,0.191-1.511,0.254-2.012c3.326,1.942,5.218,5.656,8.812,7.202c1.913,0.678,2.916,2.471,3.905,4.116 c-0.395-0.989-0.784-1.97-1.172-2.951c0.367,0.014,1.094,0.042,1.455,0.056c-1.222-1.285-2.231-2.754-2.987-4.356 c0.388,0.049,1.151,0.141,1.539,0.191c2.005,2.139,4.413,3.862,6.496,5.938c1.059,0.417,1.871,1.13,2.281,2.238 c0.198-0.918-0.141-1.695-1.003-2.118c-2.853-1.815-4.879-4.533-7.294-6.835c-2.697-2.69-6.454-4.78-7.604-8.607 c2.252,1.984,4.611,3.855,7.174,5.437c0.727,0.191,1.462,0.374,2.203,0.544c-1.454-2.266-3.566-3.968-5.458-5.839 c-0.007-0.466-0.021-1.391-0.021-1.857c0.671,0.36,1.356,0.727,2.048,1.08c1.356-0.113,2.337,0.685,2.824,1.935 c0.447-4.957,7.199,6.566,16.141,12.448c2.344,1.772,5.38,0.96,8.007,1.864c0.628-0.501,1.257-1.003,1.899-1.504 c0.614,0.522,1.236,1.052,1.864,1.582c2.845-0.515,5.649,0.967,8.388,0.282c-6.754-2.618-6.485-3.177-9.355-3.177 c-0.014-0.586-0.042-1.751-0.056-2.337c6.538,1.934,2.985,2.604,7.809,2.139c-3.707-1.313-7.378-2.951-11.34-3.276 c-0.021-0.572-0.071-1.716-0.092-2.288c2.669,1.469,5.684,2.118,8.685,2.478c-1.553-2.005-4.06-2.387-6.312-3.057 c0.974,0.056,2.923,0.162,3.898,0.219c-4.638-3.143-8.688-7.137-9.235-7.844c-0.727-0.162-1.447-0.325-2.161-0.48 c0.431-0.035,1.285-0.106,1.709-0.141c-0.487-0.876-0.967-1.751-1.447-2.62c0.812,0.784,1.575,1.645,2.556,2.238 c0.974,0.388,2.309,0.311,2.754,1.49c2.069,0.671,4.025,1.638,5.776,2.944c0.699,0.028,1.398,0.064,2.111,0.092 c0.84,0.678,1.688,1.349,2.535,2.026c1.116-0.056,2.231-0.113,3.361-0.177c-0.727-0.184-1.447-0.367-2.168-0.53 c0.106-0.169,0.318-0.501,0.424-0.664c-0.311,0.191-0.939,0.579-1.25,0.77c-1.963-1.758-4.187-3.213-6.044-5.084 c0.445,0.049,1.327,0.148,1.772,0.198c0.734,0.339,1.483,0.664,2.245,0.974c-1.236-2.266-3.008-4.145-4.731-6.03 c2.055-0.261,3.926,0.621,5.747,1.44c-1.476-1.412-3.149-2.605-4.731-3.883c2.069,0.297,3.749,1.61,5.387,2.803l0.042-1.384 c2.415,1.567,4.837,3.206,6.581,5.55c0.36-0.339,1.066-1.01,1.419-1.349c6.022,2.391,2.863,3.636,12.039,5.416 c-11.444-4.367-2.973-1.413-13.549-7.329c-0.438-1.109-1.257-1.899-2.379-2.281c-0.035-0.332-0.113-0.996-0.148-1.327 c1.158,0.148,2.323,0.304,3.495,0.452c-1.716-1.059-3.389-2.471-5.521-2.401c-0.367-1.116-0.706-2.231-1.024-3.354 c2.083,1.638,4.243,3.368,6.969,3.77c-0.974-1.01-1.914-1.984-2.902-2.951c1.123-0.092,2.252-0.177,3.389-0.261 c-0.042,0.353-0.12,1.066-0.162,1.426c1.998-0.028,3.777,0.89,5.571,1.652c-0.932-1.384-2.196-2.457-3.735-3.086 c0.593,0.021,1.193,0.042,1.8,0.071c2.238,1.829,4.477,3.975,7.463,4.427c-3.869-3.53-8.085-6.687-11.643-10.549 c0.707,0.512,10.676,6.701,14.679,8.579c-1.949-1.942-5.769-3.128-5.529-6.383c3.578,2.015,16.077,10.434,20.222,11.156 c1.144,0.763,2.408,1.306,3.77,1.589c-1.25-1.673-3.954-2.81-3.537-5.246c2.097,2.104,4.01,4.505,6.729,5.86 c-1.342-1.906-3.234-3.297-5.034-4.724c0.953,0.049,2.845,0.148,3.792,0.198c0.974,1.356,1.991,2.683,2.987,4.025 c0.035-0.459,0.092-1.384,0.12-1.843c4.293,2.182,5.677,8.275,10.979,8.748c-8.262-8.559-5.647-6.41-9.087-8.692 c0.028-1.469,0.078-2.937,0.162-4.399c-0.946,0.056-1.885,0.113-2.817,0.162c-0.897-1.024-1.793-2.062-2.648-3.107 c1.25-0.035,2.365,0.515,3.439,1.094c-7.41-6.389-8.022-6.351-10.365-11.911c3.908,3.043,14.439,14.378,15.505,15.308 c0.177-2.655-2.492-3.82-3.608-5.867c-1.419-2.372-3.622-4.088-5.564-5.995c4.166,2.104,6.785,6.072,10.083,9.221 c1.229,1.172,2.93,3.071,0.734,4.342c1.483-0.339,3.001-0.522,4.519-0.671l-0.233,1.25c0.586-0.177,1.179-0.353,1.779-0.53 l-0.572,1.243c0.805-0.184,1.617-0.353,2.436-0.515l-1.567-0.593c0.402-0.424,0.819-0.847,1.243-1.264 c0.671,1.066,1.511,2.019,2.5,2.81c-1.031-2.266-2.916-4.194-3.071-6.799c1.991,2.916,3.735,6.058,6.298,8.543 c-0.805-5.048-5.041-8.296-7.647-12.399c0.071,0.699,0.198,2.09,0.261,2.789c-1.469-2.118-3.071-4.173-5.091-5.797 c0.706,0.099,2.132,0.289,2.838,0.388c-1.433-1.031-2.86-2.076-4.265-3.128c-0.028-0.784-0.035-1.567-0.042-2.344 c3.071,1.038,4.907,3.961,7.739,5.451c-1.667-2.73-2.152-3.578-2.563-4.314c-0.277-1.524,0.018-0.184-0.932-3.467 c-1.066-0.049-1.384-0.897-1.525-1.808c2.012,0.304,2.521,2.168,2.492,3.94c0.445-0.035,1.334-0.099,1.779-0.134 c0.607,1.066,1.221,2.139,1.85,3.206c1.2,0.36,1.102,1.546,1.207,2.542c0.381,0.007,1.144,0.021,1.525,0.035 c-0.12-1.158-0.254-2.316-0.388-3.46c0.897,1.101,1.85,2.154,2.888,3.135c0.028,0.367,0.085,1.094,0.113,1.455 c0.96,1.045,1.885,2.104,2.824,3.177c0-0.508,0.007-1.532,0.014-2.048c0.699,0.854,1.37,1.695,2.111,2.528 c-0.021-0.48-0.064-1.447-0.085-1.928c-1.758-2.266-4.243-3.912-5.712-6.418c1.504,0.664,2.704,1.8,3.82,2.987 c-0.064-0.981-0.113-1.963-0.141-2.937c0.734,0.819,1.511,1.652,2.274,2.464c-0.049,0.289-0.148,0.861-0.205,1.151 c2.019,1.257,4.01,2.57,5.945,3.961c-0.177-4.159-1.391-8.205-1.504-12.37c0.141-0.41,0.431-1.229,0.572-1.638 c1.306,5.424,0.004,2.627,1.779,8.169c0.72-1.285,1.017-2.718,1.116-4.18c0.169,0.643,0.515,1.928,0.692,2.577 c0.325-1.165-0.727-3.467,1.285-3.375c0.071,1.031,0.155,2.062,0.247,3.1c0.515-0.734,1.038-1.462,1.567-2.196 c0.282,1.871,0.579,3.735,1.052,5.571c0.064-2.86-0.565-5.663-0.967-8.473c0.438,0.035,1.306,0.099,1.744,0.134 c-0.049,1.949,0.805,3.728,1.539,5.479c-0.064-1.702-0.424-3.368-1.08-4.943c0.89,0.127,1.808,0.212,2.704,0.41 c0.297,1.087,0.445,2.21,0.657,3.326c0.77-0.007,1.546-0.014,2.33-0.021c0.367,1.702,0.833,3.396,1.568,4.992 c0.141-3.213-0.028-6.432-0.021-9.645c2.005,0.36,1.476,2.528,1.327,3.975c0.657-0.035,1.313-0.064,1.984-0.092 c-0.24-0.219-0.72-0.643-0.96-0.861c-0.289-1.892-0.77-3.749-1.229-5.599l1.469,0.007c0.473,4.06,3.227,7.273,3.89,11.262 c-0.042-1.292-0.092-2.584-0.169-3.876c-1.793-1.476-1.433-3.869-0.318-5.67c0.177,1.843,0.741,3.552,1.695,5.133 c0.078-1.525-0.035-3.029-0.332-4.519c0.438-0.042,0.861-0.092,1.327-0.134c-0.071,0.289-0.219,0.876-0.289,1.165 c0.727,1.087,1.398,2.182,2.132,3.276c0-1.469,0.021-2.937,0.056-4.399C619.638,81.732,618.522,78.367,619.552,82.955 M595.645,84.925c-0.261,2.132,0.254,4.201,1.688,5.818C597.057,88.731,596.435,86.782,595.645,84.925 M607.824,85.871 c-0.537,1.045-0.254,2.429,0.402,3.368C609.61,90.863,608.849,85.871,607.824,85.871 M634.641,86.634 c-0.078,0.996-0.155,1.998-0.212,2.994c0.381-0.035,1.144-0.12,1.525-0.162c0.014-0.953,0.056-1.899,0.085-2.845 C635.693,86.627,634.994,86.634,634.641,86.634 M597.798,92.741C598.052,93.2,598.052,93.2,597.798,92.741 M586.727,93.299 c1.123,1.998,2.867,3.523,4.632,4.957C590.307,96.194,588.683,94.506,586.727,93.299 M589.233,93.511 C589.601,93.885,589.601,93.885,589.233,93.511 M663.512,101.44c0.671-0.007,2.005-0.014,2.676-0.014 c-0.77,0.883-1.511,1.765-2.224,2.69c1.172-0.727,2.295-1.631,2.627-3.043c0.932-0.593,1.878-1.193,2.817-1.8 c0.84,0.035,1.688,0.078,2.549,0.12c0.099-0.579,0.289-1.744,0.381-2.323C669.479,98.686,666.577,100.24,663.512,101.44 M516.557,103.855c-0.099,1.01,1.433,1.942,2.33,1.546C518.93,104.42,517.433,103.481,516.557,103.855 M674.809,108.557 c1.405-0.678,2.761-1.49,4.025-2.429C677.154,106.298,675.77,107.202,674.809,108.557 M586.847,109.066 c-0.374,1.101,1.059,2.789,2.217,2.655C589.255,110.584,588.033,109.023,586.847,109.066 M499.591,119.466 C499.944,121.824,501.539,118.124,499.591,119.466 M505.303,146.671c3.283,3.135,7.47,5.034,11.085,7.724 c0.353-0.134,1.059-0.41,1.412-0.544c-0.388,0-1.165,0-1.553,0C513.112,150.752,509.179,148.669,505.303,146.671 M736.598,156.351 c-0.876,0.014-1.511,1.8-0.282,1.709C737.134,158.032,737.77,156.266,736.598,156.351 M435.776,156.499 c1.737,1.49,3.862,2.514,6.199,2.422C440.203,157.502,438.035,156.676,435.776,156.499 M759.446,188.011 c0.586,0.537,2.231,0.388,2.266-0.572C761.12,186.846,759.474,187.058,759.446,188.011 M450.759,190.949 c2.683,1.278,5.642,2.048,8.628,1.553C456.555,191.747,453.675,191.168,450.759,190.949 M439.723,194.719 c1.638,1.038,3.41,1.871,5.154,2.732c0.643-0.064,1.928-0.191,2.577-0.247C445.336,195.369,442.392,194.987,439.723,194.719 M439.631,196.407c-0.028,1.214,2.598,1.8,3.114,0.826C441.947,196.583,440.619,195.927,439.631,196.407 M791.339,279.991 c0.219,0.967,2.041,1.751,2.958,1.179C794.291,279.914,792.271,279.653,791.339,279.991 M439.405,301.075 C438.346,303.165,441.806,301.082,439.405,301.075 M438.607,303.299C437.823,305.502,440.994,303.024,438.607,303.299 M482.207,336.068c-0.692,2.125-1.349,4.265-2.146,6.355l-0.897-0.304c0.014,1.158,0.028,2.33,0.035,3.502 c-0.551-0.777-1.101-1.553-1.638-2.323c-1.608,4.941-0.495,1.474-1.949,5.38c-0.586-0.028-1.151-0.042-1.723-0.056 c-1.101,5.133-2.789,10.16-3.17,15.442c0.939-1.186,2.139-2.259,2.669-3.707c0.021-2.196-0.007-4.434,0.96-6.468 c-0.664,1.8-0.734,3.806,0.212,5.529c2.463-7.112,3.528-3.528,3.128-10.457c0.297,0.127,0.89,0.381,1.186,0.508 C479.566,344.894,481.974,340.721,482.207,336.068 M747.775,347.781c-0.614-0.304-1.857-0.904-2.471-1.207 c0.946,1.25,1.977,2.514,2.81,3.862c-1.758-1.024-3.304-2.549-5.387-2.881c5.572,5.311,3.213,2.607,8.741,4.957 c-0.12-0.388-0.353-1.158-0.473-1.546c-0.981-0.904-1.949-1.808-2.902-2.725c-0.042-0.537-0.113-1.61-0.155-2.146 C747.902,346.518,747.817,347.358,747.775,347.781 M487.679,363.463l-0.593-0.134c-0.177,3.481-1.412,6.764-2.182,10.139 c-0.452-0.127-0.897-0.24-1.335-0.353l0.035,0.911l-0.826-0.021c0.092,2.337,0.099,4.674,0.275,7.018 c1.804-4.241,4.769-11.165,5.5-15.336c1.575-3.015,2.429-6.355,2.888-9.716C488.675,357.462,488.18,360.653,487.679,363.463 M507.16,366.796C506.164,368.914,509.539,366.768,507.16,366.796 M724.023,368.314c0.996,2.612,2.012,5.366,4.194,7.258 c-0.431-0.078-1.292-0.226-1.723-0.297c1.25,3.001,2.655,6.03,2.895,9.327c-2.689-7.221-2.999-5.169-3.876-9.638 c-1.363,1.447-1.158,3.446-1.214,5.267c-0.311-0.868-0.621-1.737-0.932-2.591c1.229,7.908,2.21,15.908,1.455,23.943 c-0.551-1.885-0.572-3.855-0.445-5.797c-0.402-0.007-1.207-0.028-1.61-0.035c0.021,3.177-0.078,6.404,0.946,9.461 c-0.148,0.021-0.452,0.049-0.607,0.064c-0.346-1.391-0.918-2.69-1.723-3.855c-0.537,4.053,1.956,7.689,1.673,11.735 c-0.205-0.042-0.628-0.127-0.833-0.169c-0.021-1.278,0.198-2.683-0.727-3.721c-0.374,2.584,0.579,5.366-0.6,7.795 c-0.198-1.525-0.275-3.05-0.395-4.575c-0.904-1.765-1.589-3.629-2.019-5.55c-0.198-0.007-0.579-0.014-0.777-0.021 c0.145,1.309,3.691,12.111,3.283,22.7c1.137-1.087,2.245-2.203,3.347-3.319c-0.035-1.292-0.085-2.591-0.106-3.869l0.89,0.141 c0,0.798,0.007,2.387,0.007,3.184c1.469-1.342,2.916-2.718,4.328-4.116c-0.883-2.408-1.836-4.787-2.528-7.251 c1.052,2.309,1.801,4.738,2.662,7.124c4.039-3.728,8.254-7.28,12.208-11.092c1.059-9.574-1.638-19.17-4.858-28.13 c-0.6,0.049-1.193,0.106-1.779,0.162c-0.339-1.179-0.713-2.351-1.059-3.523c-0.409-0.056-1.236-0.169-1.645-0.226 c0.325-0.381,0.988-1.13,1.32-1.504c-2.048-3.417-5.451-5.663-7.696-8.911C725.385,368.286,724.7,368.293,724.023,368.314 M526.69,390.816c-0.741,2.069-1.469,4.159-1.702,6.362c1.511-1.885,2.457-4.109,3.354-6.319 C527.932,390.852,527.099,390.831,526.69,390.816 M703.179,403.434c0.593,1.179,0.304,3.156,1.963,3.495 c-0.741-2.337-0.508-4.78-0.798-7.181c-0.395-0.671-0.77-1.334-1.137-2.005c-0.071-0.579-0.212-1.73-0.282-2.309 C701.923,398.047,702.184,400.871,703.179,403.434 M688.232,405.185c0.155-1.744,0.162-3.502,0.042-5.246 C687.342,401.584,687.088,403.568,688.232,405.185 M662.905,406.082c0.007,2.747,0.12,5.514-0.184,8.261 c-0.925-2.09-0.487-4.427-0.508-6.63c-0.367,0.042-1.109,0.12-1.476,0.155c-0.028,0.452-0.071,1.342-0.092,1.786 c-0.53,1.504-1.01,3.029-1.44,4.561l-0.635-0.035c-0.128,4.741-0.087,2.123-0.883,9.913c-0.452-2.139-0.544-4.328-0.713-6.489 c-0.402,1.179-0.72,2.401-1.08,3.601c-0.092-1.257-0.191-2.507-0.289-3.749c-1.483,1.956-2.168,4.364-1.963,6.807 c-0.311,0.205-0.918,0.6-1.221,0.805c-0.487,1.525-1.017,3.043-1.624,4.533c0.028-3.975,2.605-7.428,2.429-11.46 c-0.275,0.162-0.819,0.48-1.087,0.643c-1.306-5.204,1.892-10.422,0.198-15.654c-0.537,0.706-1.066,1.419-1.582,2.139 c0.099,0.939,0.219,1.885,0.346,2.831l-0.311-0.007c-0.113-0.692-0.339-2.076-0.452-2.768c-2.412,2.986-3.685,12.196-6.934,17.828 c-3.086,8.451-5.548,10.862-6.524,14.623c-0.071-0.487-0.212-1.454-0.282-1.942c-0.487,0.12-1.462,0.36-1.949,0.48 c0.438-0.607,0.89-1.2,1.342-1.793c0.035-0.402,0.113-1.2,0.148-1.603c1.735-3.835,1.944-3.299,2.055-8.141 c-0.72,2.521-2.012,4.801-3.177,7.131c-0.304-0.035-0.911-0.106-1.214-0.134c0.042,0.734,0.106,1.483,0.169,2.231 c-0.487,0-1.454,0-1.942,0c-1.624,3.481-3.996,6.545-5.578,10.054c15-1.439,26.89-8.88,42.117-5.875 c0.826-4.356,1.257-8.776,2.189-13.112c0.007,4.519-1.419,8.854-1.8,13.331c1.928,0.304,3.862,0.607,5.79,0.946 c1.144-4.582,1.257-9.32,2.316-13.91c-0.381-0.014-1.137-0.049-1.511-0.071c0.035,1.984-0.127,3.982-0.664,5.903 c-0.056-3.742,0.141-7.491-0.318-11.212c-1.384,3.276-0.967,6.905-1.892,10.287c-0.127-5.246,1.377-10.415,0.734-15.675 c-0.565,1.454-1.087,2.923-1.589,4.406c-0.289,0.099-0.868,0.297-1.158,0.395c-0.593-3.749-0.671-7.477-0.191-11.241 c-0.402-1.511-0.537-3.078-0.558-4.632c-0.318-0.057-0.953-0.169-1.271-0.226c-1.447,4.66-0.339,9.483-0.833,14.234 c-0.177-5.31-0.417-10.612-0.939-15.901c-0.438,0.798-0.854,1.603-1.264,2.408c0.007-0.48,0.021-1.454,0.028-1.942 C664.141,402.996,663.569,404.634,662.905,406.082 M720.111,408.475c0.078-2.055-0.049-4.102-0.332-6.129 C718.988,404.352,719.207,406.541,720.111,408.475 M686.537,403.081c-0.289,1.264-0.48,2.577-0.925,3.806 c-0.621,10.528-1.567,21.133-4.491,31.307c1.128-14.338,3.897-14.949,1.433-24.536c-0.042,1.37-0.014,2.74,0.042,4.123 c-0.332,0.064-0.981,0.191-1.306,0.254c0.042-2.231-0.339-4.427-1.052-6.531c-0.6,2.443-0.621,4.971-0.551,7.477 c-0.266,0.539-4.378,20.017-4.484,20.518c9.038,2.733,17.158,7.64,24.868,12.985c6.496-7.88,13.535-15.279,20.582-22.658 c-0.332-1.751-0.501-3.516-0.586-5.281l-0.727,0.092c-0.028,1.567-0.042,3.156-0.205,4.731c-0.388-1.843-0.466-3.714-0.551-5.578 c-1.059-0.798-0.508-2.231-0.692-3.297c-0.332-0.028-1.003-0.092-1.334-0.127c-0.007,1.257,0.007,2.521-0.028,3.785 c-2.031-9.551-1.202-9.553-2.415-12.512c-0.537,1.942-1.024,3.912-1.73,5.804c-0.049,0.953-0.078,1.928-0.071,2.895 c0.777,1.37,0.734,2.951,0.734,4.484l0.699,0.078c-0.056,1.603-0.12,3.206-0.254,4.808c-0.387-1.522-1.259-6.024-1.426-7.011 c-0.784-0.007-1.553-0.014-2.323-0.021c-3.175,8.098-2.337,3.637-1.306,10.464c-0.53-1.137-1.01-2.302-1.49-3.439 c-0.177,0.642-0.537,1.942-0.72,2.584c-0.12-1.01-0.233-2.012-0.325-3.015c-2.231-0.417-1.052-3.269-1.906-4.801 c-0.106-0.558-0.191-1.109-0.268-1.659l1.017-0.064c-1.207-4.01-2.175-8.092-3.735-11.975c-0.388,1.539-0.706,3.1-0.989,4.667 c-1.2,2.139,0.071,4.413,0.784,6.482c-0.685-1.066-1.186-2.422-2.718-2.429c0.487,4.194,2.069,8.127,3.326,12.13 c-0.522-1.031-1.01-2.062-1.497-3.086c-0.138-0.944-0.055-1.622-1.991-5.267c-0.974,4.088-2.104,8.141-3.474,12.116 c0.085-2.768,1.172-5.387,1.087-8.162c-0.028-1.984,0.205-3.954,0.445-5.917c-0.473,0.53-1.419,1.596-1.885,2.125 c-0.106-1.377-0.289-2.697-0.988-3.898c0.861-1.08,1.038-2.429,0.177-3.566c-0.014-0.459-0.042-1.37-0.057-1.822 c-0.861,0.12-1.949-0.191-2.408,0.798c-0.177-0.049-0.53-0.148-0.706-0.198c0.127,0.812,0.261,1.631,0.402,2.457 c-0.205,0.028-0.614,0.078-0.826,0.106c0.021-2.521,0.021-5.048,0.064-7.562c-0.374,0.092-1.123,0.275-1.497,0.374l0.184-0.946 l-0.748-0.049C687.759,407.042,687.879,404.839,686.537,403.081 M702.65,411.801c1.662,4.033,3.731,10.193,5.055,14.545 c0.134-0.734,0.402-2.21,0.537-2.944l-0.798-0.021c-0.577-5.783-3.748-8.751-2.415-14.813c-0.325,0.473-0.974,1.412-1.299,1.878 c-0.918-2.394-1.553-4.9-1.539-7.491C700.687,405.842,701.894,408.927,702.65,411.801 M588.266,414.964 c-2.005,2.782-0.974,6.468,0.289,9.334c0.057-1.73,0.113-3.439,0.12-5.161l0.981-0.007c-0.275-1.264-0.727-2.507-0.791-3.799 c1.038-2.775,1.772-5.656,2.09-8.6C589.431,409.252,589.855,412.458,588.266,414.964 M593.237,410.431 c-0.748,5.726-3.029,11.135-3.735,16.889c5.4,14.864,20.568,17.223,36.412,16.642c0.989-2.937,3.093-5.444,3.389-8.6 c-0.544,0.664-1.638,2.005-2.182,2.676c1.871-5.64,3.598-7.358,3.375-10.633c-0.381,0.967-0.713,1.956-1.017,2.958 c-1.073,1.454-2.189,2.881-3.304,4.3c-0.049-1.264-0.049-2.514,0-3.763c1.165-1.285,0.607-2.747-0.777-3.488 c1.539-2.118,1.582-4.745,1.384-7.244c-1.419,1.342-1.384,3.311-1.532,5.112c-0.318,0.212-0.953,0.642-1.278,0.861 c-0.007,0.635-0.028,1.921-0.035,2.563c-0.664-0.939-1.32-1.878-1.97-2.81c0,0.572,0,1.716,0,2.288 c-0.148-0.445-0.452-1.327-0.607-1.772c-0.184,0.332-0.558,0.988-0.741,1.32c-0.177,1.744-0.424,3.474-0.84,5.183 c-0.134-2.655,0.099-5.303-0.014-7.95c-0.727,1.822-1.32,3.686-1.921,5.557c-0.402-2.994-0.028-6.016-0.346-9.017 c-0.657,2.867-0.996,5.839-2.323,8.508c-0.657-2.81-0.148-5.705-0.551-8.536c-0.424,2.535-0.417,5.218-1.843,7.47 c-0.028-1.695-0.035-3.389-0.021-5.077c-1.052,5.797-2.761,11.452-4.681,17.016c-0.417-4.067,1.829-7.788,1.892-11.798 c0.233-0.29,0.713-0.868,0.953-1.158c-0.282-0.064-0.847-0.198-1.123-0.261c0.042-2.351,0.12-4.695,0.057-7.04 c-1.445,3.098-0.905,2.997-2.295,6.418c-0.325-0.035-0.635-0.071-0.939-0.099c-0.395,0.544-1.193,1.624-1.596,2.168 c0-1.299,0.007-2.598,0.028-3.883c-0.205,0.014-0.628,0.035-0.84,0.049c-0.861,2.62-1.137,5.408-2.139,7.993 c-0.028-3.156,1.179-6.129,1.695-9.2c-0.445-0.028-1.335-0.071-1.779-0.092c0.064,0.967,0.141,1.942,0.219,2.923l-0.741,0.014 c0,1.539-0.127,3.078-0.487,4.582c-0.346-2.288-0.311-4.611-0.297-6.919c-0.508,0.064-1.525,0.191-2.026,0.254 c0.049,2.768-1.101,5.437-0.65,8.212c-0.339-0.798-0.678-1.596-1.017-2.379c-0.205,1.518-0.367,3.064-0.635,4.589 c0.134-4.561,1.172-9.038,1.08-13.627c0.678-3.841,3.488-7.449,2.139-11.474c-0.508,2.266,0.367,5.232-1.688,6.856 c-0.064-1.913-0.014-3.82-0.064-5.719c-0.678,2.154-0.755,4.427-0.607,6.672c-1.179-0.113-2.33-0.205-3.495-0.311 c-0.989,3.001-1.56,6.107-2.182,9.2c-0.639-6.832,2.597-12.201,2.937-18.224C594.028,409.203,593.618,409.803,593.237,410.431 M712.238,415.261c0.918-2.521,1.977-5.161,1.306-7.894C712.344,409.831,712.012,412.556,712.238,415.261 M656.36,415.67 c-0.664,0.826-0.487,1.292,0.537,1.384C657.525,416.207,657.348,415.748,656.36,415.67 M614.716,417.767 c-0.671,0.805-0.501,1.278,0.501,1.412C615.859,418.36,615.69,417.887,614.716,417.767 M719.045,420.719 c-0.678,0.424-0.65,2.182,0.395,1.963C720.167,422.272,720.054,420.493,719.045,420.719 M621.437,625.494 c-13.092,24.223-7.594,16.373-12.342,31.667c-5.517,18.254-4.414,23.505-1.236,34.301c1.832,6.455,13.173,24.417,26.795,34.195 c2.518,1.754,17.467,12.158,20.547,13.133c-1.899-16.07-5.048-31.985-6.101-48.147c-1.137-8.106-0.72-16.557-3.763-24.289 c-3.313-9.412-11.425-17.645-16.261-36.709c-0.628-2.874-3.093-4.717-4.837-6.905C623.21,623.545,622.009,624.251,621.437,625.494 M431.857,658.319c-1.786,7.781-3.354,15.611-5.578,23.279c6.708,0.282,13.74-0.339,20.137,2.062 c0.344-22.361-2.812-18.84-9.348-43.381C434.06,645.871,433.474,652.275,431.857,658.319 M234.397,757.473 c0.981-0.876,1.942-1.765,2.895-2.662c-0.113-4.349,1.193-8.515,2.231-12.674C236.607,746.747,235.068,752.092,234.397,757.473 M457.226,777.617c-0.021,0.247-0.064,0.741-0.085,0.989c0.367-0.049,1.101-0.162,1.469-0.219c0.092,0.53,0.275,1.575,0.374,2.097 c-1.617,0.692-1.363,2.775-2.019,4.102c0.883-0.84,1.772-1.666,2.669-2.478c0-1.172,0.007-2.323,0.014-3.474 C458.836,778.288,458.024,777.949,457.226,777.617 M453.618,784.833c0.537-0.918,1.08-1.815,1.61-2.718 c0.042-0.508,0.113-1.525,0.155-2.026C454.6,781.585,453.632,783.075,453.618,784.833 M449.594,802.527 c-0.353,1.264-0.607,2.584-0.551,3.919c0.226-0.191,0.685-0.572,0.911-0.763c0.247-1.2,0.692-2.33,1.25-3.403 C450.801,802.344,449.996,802.463,449.594,802.527z"/> </svg>