<?xml version="1.0" encoding="UTF-8"?>
<svg width="1e3pt" height="1856pt" version="1.1" viewBox="0 0 1000 1856" xmlns="http://www.w3.org/2000/svg">
 <path transform="scale(.8)" d="m623.05 0c-14.8 8.1375-22.976 24.488-25.988 40.525-29.125 15.688-54.9 36.399-83.162 53.361-14.775 10.125-24.275 26.825-41.35 33.625-7.4375 3.225-16.226 13.15-23.676 5.1504 8.925-9.8125 15.275-21.387 22.463-32.412 2.4875 1.65 3.7246 14.1 5.6621 6.5996 3.4-9.6-8.4496-14.874-15.6-8.6738-10.65 11.212-22.101 21.662-32.801 32.85-10.425 14.075-31.062 11.225-43.637 22.662-14.738 9.225-3.8371 34.763-22.6 40.051-42.875 21.375-66.775 89.15-22.125 120.69-3.1625 13.025 0.52383 26.862 13.361 33.287 0.6875 14.562-4.0742 32.338 7.4883 43.875 9.9 9.1375-7.6129 19.588-9.7129 28.963-10.2 5.6-26.587-0.93789-28.6-13.588-7.1375-20.862 6.7992-39.151 17.262-55.738-16.788 16.1-27.149 39.751-26.199 63.139 1.175 15.712 13.838 27.774 29.438 28.262-1.5125 11.35-5.7496 22.5-4.3496 34.125 6.025 21.075 30.074 31.6 50.611 29.312-29.175 56.738-47.111 120.76-90.924 168.8-59.525 79.55-81.863 180.19-141.71 259.52-24.775 16.762-57.376 13.964-83.613 27.789-20.95 3.2-42.9 7.4742-63.9 2.1992-4.1375-1.675-8.6367-1.7867-9.3867 3.1133v2.25c16.062 19.238 45.462 14.125 67.6 16.85-15.188 15.413-26.711 33.975-39.986 50.963 4.6 13.225 19.375 0.75 25.188-4.625 7.9125 2.95 16.425 1.4996 23.312-3.2754-4.25 6.925-9.6891 13.15-13.539 20.312 3.2625 12.712 20.575 5.6238 26.463-0.9512 17.813-20.412 39.026-37.762 62.363-51.512 10.138-2.3375 21.6 0.6875 30.912-5.1875 38.388-33.262 55.512-82.85 87.25-121.5 32.7-45.725 79.788-80.975 102.96-133.29 12.05-24.55 20.574-51.4 39.111-72.162 9.55 6.1125 29.388 8.9125 23.375 25.25-6.6375 0.675-14.224-4.5508-19.699 1.1992 0.6875 18.812 0.36328 39.112-4.0742 56.812-74.762 50.5-110.13 136.59-147.61 214.99-23.912 70.438-72.213 128.09-114.74 187.77-16.275 16.088-26.448 37.452-45.023 51.289 8.825 14.288 24.975 22.286 40.188 28.236 37.612 17.488 76.512 34.601 118.22 38.801-3.1875 5.675-12.45 11.85-5.5625 18.438 22.275 13.625 47.836 21.262 73.799 25 10.888-2.4375 0.45078 13.349 12.238 10.824 30.538 3.1625 61.287-0.3871 91.887-1.0371 17.1 57.038 31.326 115.85 31.701 175.69 2.875 22.462-18.113 36.412-26.363 55.1-37 65.05-12.636 142.6-11.424 212.8-3.975 51.775 9.7234 106.55-9.4766 156.22-5.475 1.0125-12.475-3.925-18.75-4.3125 3.0375 6.8375 11.352 10.237 14.289 16.6-5.95 15.112-13.676 29.651-17.889 45.488-9.7625 51.925-48.611 98.688-37.236 153.81 2.3 25.638 15.174 57.863 44.674 60.4 24.05 0.325 42.276-20.652 50.363-41.477 16.012-45.538 18.336-94.249 30.486-140.76 3.775-18.575 10.938-37.249 6.7754-56.449 8.2875 3.0625 16.025-3.5629 23.562-6.2129-5.9125-4.05-13.774-2.3637-20.512-3.5137-0.6625-10.788-4.1633-24.612 9.3242-28.812 3.4875-6.2375-11.913 2.7266-8.4004-4.4609 8.325-38.85 19.45-77.075 29.188-115.59 10.312-41.225 33.201-77.889 43.326-119.2 13.862-46.988 12.237-98.587 38.574-141.39 29.35-69.612 11.101-147.56 15.764-220.55 4.9625 0.3875 9.9496 1.2762 14.662 2.9512 0.5625 72.262-7.5246 145.4 5.1504 217.07 5.2125 41.175-5.425 81.9-6.75 122.96-8.3 76.688 9.5492 153.15 3.5117 229.91-1.6625 49.175-0.60078 98.613-7.0508 147.53 2.7875 8.7875-4.0859 3.8379-7.3984 3.0879 6.95 9.1875 1.8125 21.113-0.0625 31.213-6.1625-0.8625-12.088-2.6879-18.188-3.7129 2.825 7.4375 11.187 10.275 16.512 15.537-9.7375 26.812-5.0254 56.238-9.8379 84.062-1.925 42.512-18.975 84.613-8.6875 127.28 8.2375 17.138 28.101 24.062 45.801 25.787h8.0117c18.9-3.4625 42.25-12.062 47.537-32.887 18.7-40.488 3.7141-85.826 2.1016-128.26 5.2125-22.675 1.65-45.713-1.4375-68.338 5.5375-4.6375 12.649-7.0125 18.674-10.938-2.5375-5.525-13.349 1.1141-18.611-1.2109-0.325-9.7125-1.3629-19.425-1.0879-29.088 0.6625-3.5875 6.9621-9.3996-0.33789-7.4121 1.3375-56.5 20.676-110.16 31.676-165.08 13.412-75.05 42.936-146.49 52.799-222.22 8.4-55.575-19.85-109.4-9.8496-164.86 7.175-48.9 14.226-99.111 33.488-144.8 46.838-2.15 89.338-24.288 133.25-38.426 7.6875-1.1 2.9238-9.4996 1.4863-14.287 22.95-10.538 11.775-49.3 34.787-63.338 41.387-21.35 89.088-34.562 121.74-69.438 8.8625-7.6375-1.4883-15.849-6.6758-21.986 5.475-5.4625 11.125-10.762 16.463-16.375 4.4 15.312 3.8512 41.412 23.514 44 24.55-18.4-18.288-56.489 10.062-72.477 7.7875-11.275 14.986 9.375 23.674 10.812 30.975 15.238 10.163 58.314 32.15 79.326 10.325 4.55 7.4246-9.2887 6.2871-15.264 5.5875 8.8875 8.0012 27.464 22.951 23.326 1.1125-10.412-4.8016-19.7-6.6016-29.65 6.2375 4.5375 18.463 10.524 23.676 1.3242v-1.125c-21.225-18.475-39.162-42.086-43.012-70.836-2.5625-24.425-25.877-37.85-36.914-58.062-14.75-18.538-21.838-41.1-29.375-63.125-36.525-73.138-64.161-150.4-102.21-222.78-18.038-37.325-54.101-61.662-72.488-98.787-22.012-41.2-51.738-78.038-69.863-121.36-8.7375-22.225-24.225-41.001-33.725-62.738-0.1875-13.6-6.9738-26.686-9.2988-39.236 21.962-9.4 37.361-33.038 34.799-56.926-8.3375-22.188-31.825-32.911-50.25-45.361 4.4875-24.55 16.7-48.789 8.0371-73.977-8.2-2.2875-10.988 6.6512-7.9375 12.951-8.7125-3.9375-12.998-12.237-17.586-19.975 2.9 18.662-6.7891-14.502-8.9141-15.102 1.2625 8.1375 3.9629 15.975 5.0879 24.125-14.675-17.175 1.0012-39.661-4.5488-59.174-5.2625-31.262-4.1379-63.225-10.088-94.35 14.212-9.325 15.986-28.138 4.9863-40.625-24.138-7.4125-39.338-33.013-65.812-35.963-23.862 1.25-40.525-19-64.225-20.025h-21.088c-10.062 4.275-19.561 8.3375-29.211 0h-3.3125zm-57.363 65.662c-15.888 14.825-38.75 35.8-58.125 51.875-9.35 5.4-10.926 18.976-22.363 21.389 13.338-14.562 19.526-36.038 38.264-45.5 15.65-6.75 27.775-19.076 42.225-27.764zm-150.22 88.514c17.288 13.575-21.376 11.15-13.676 28.537-5.95 2.75-15.6-0.13711-21.912-4.0996 7.9375-12.388 22.038-19.612 35.588-24.438zm35.125 12.523c1.0875 0.7875-2.4375 10.463-6.75 9.2383-1.9375-5.3 3.1-7.6383 6.75-9.2383zm-11.514 6.25c8.725 5.9-15.562 15.164-15.287 6.2637 4.65-2.975 10.237-4.0887 15.287-6.2637zm-32.375 0.05078c0.875 0.4-2.3871 7.0875 0.33789 9.9375-4.1375-1.8-4.0004-7.725-0.33789-9.9375zm-35.086 23.6c14.612 12.138-17.976 22.612-17.363 36.75 5.5 15.862-11.65 37.162 7.6504 47.35-0.625 4.45-8.8246 8.1387-11.225 12.889-20.588-2.5-26.2-28.538-26.75-45.801 0.1125-27.3 27.375-39.6 47.688-51.188zm66.562 3.5644c7.1601-0.06374-17.08 5.418-17.977 1.2617 3.2125-0.2125 9.6262-0.63906 12.826-0.85156 2.4641-0.27969 4.1275-0.40105 5.1504-0.41016zm-1.2891 2.748c-3.15 5.9875-25.05 25.376-26.5 3.0762 6.45-1.35 18.45-1.5887 26.5-3.0762zm-29.305 3.543c3.3756-0.40329-0.10547 14.447-2.7188 7.5332-5.275-5.45 2.7 6.4375-0.5625 6.875-4.1375-5.075-6.1008-12.901 2.5117-14.113 0.28828-0.17344 0.54449-0.26804 0.76953-0.29492zm-12.682 7.4941c6.7625 8.8-1.425 18.75 0 0zm-3.4375 1.9629c5.3125 9.9375-5.6 9.9125 0 0zm-14.139 10.912c4.625 1.2125 12.35 1.05 14.588 4.1875-1.2625 18.012-21.363 14.601-34.025 17.551-5.2-9.8125 13.45-16.876 19.438-21.738zm31.75 8.4004c2.875 5.7625-2.1734 16.763-9.0234 20.025 3.7625-6.325 6.4484-13.163 9.0234-20.025zm-77.975 48.625c4.625 6.45 12.764 9.5996 17.514 14.85-7.5875-1.8-15.339-7.0371-17.514-14.85zm2.2129 8.9258c3.9125 3.7125 9.3867 5.5996 12.637 10.037-5.475-1.25-9.7867-5.3621-12.637-10.037zm-6.125 4.9492c5.125 4.4 11.087 8.25 14.887 13.938-6.5625-2.2875-11.024-8.475-14.887-13.938zm4.8633 0.07617c3.9875 3.1125 8.9113 5.3484 11.611 9.8359-4.9125-1.7875-8.9238-5.4109-11.611-9.8359zm532.94 56.062c15.225 7.75 26.848 34.937 8.9609 45.199 5.85-15.775-6.1984-30.162-8.9609-45.199zm-540.39 63.787c6.3125 4.3625 13.425 7.4246 21.213 7.6621-5.6125 1.8625-18.25 0.20039-21.213-7.6621zm99.713 6.6738c0.0375 8.6625-20.963 22.726-29.238 13.363 9.8125-4.2875 19.576-8.7133 29.238-13.363zm-103.07 4.2891c6.125 6.1375 14.337 8.2996 22.324 10.412-5.625 1.525-19.949-2.0496-22.324-10.412zm490.16 153.81c15.088 18.525 26.037 39.849 38.699 59.986 19.225 31.85 45.188 59.039 63.5 91.514 13.312 25.45 26.512 51.074 42.412 75.049 47.525 65.638 115.36 120.19 137.54 201.25-48.388-57.287-98.375-114.49-156.88-161.91-31.725-38.662-63.563-77.262-95.488-115.76-13.95-17.85-19.675-40.1-27.875-60.838-14.262-0.6125-34.662 16.561-41.85-4.2637 12.15-28.838 24.4-57.811 39.938-85.023z"/>
</svg>
