<?xml version="1.0" encoding="UTF-8"?>
<svg width="299.3mm" height="251.01mm" version="1.1" viewBox="0 0 299.30246 251.00679" xmlns="http://www.w3.org/2000/svg">
 <g transform="translate(.86716 -88.794)">
  <g transform="matrix(1.4833 0 0 1.4833 -6.8393 -70.664)">
   <path d="m63.68 107.59c-2.7325 0.51348-5.3549 3.4387-4.6286 7.3036 0.72628 3.8649 7.7099 9.0937 7.7099 9.0937s4.6091-7.4072 3.8829-11.272c-0.72627-3.8649-4.2316-5.6386-6.9641-5.1251zm0.24146 1.2849c2.2772-0.4279 5.1983 1.0502 5.8036 4.2711 0.21777 1.1589-0.14068 2.6998-0.68813 4.198 0.18592-0.76328 0.26416-1.4903 0.15135-2.0907-0.49231-2.6199-2.8687-3.822-4.721-3.4739-1.8522 0.34806-3.6297 2.3308-3.1374 4.9506 0.11281 0.60038 0.44963 1.2494 0.89995 1.8931-1.054-1.1973-1.9479-2.5028-2.1656-3.6618-0.60525-3.2208 1.5801-5.6586 3.8572-6.0865zm-11.581 6.0283c-1.5351 0.31564-2.8607 1.1953-3.6453 2.3429-1.5691 2.2953-1.3549 6.2183 1.8916 8.4376 3.2465 2.2194 11.882 0.97832 11.882 0.97832s-1.9784-8.497-5.2249-10.716c-1.6232-1.1097-3.3683-1.3581-4.9035-1.0425zm24.517-4.4056c-1.545 0.26316-3.0809 1.1281-4.1906 2.7514-2.2193 3.2464-0.97823 11.883-0.97823 11.883s8.4969-1.979 10.716-5.2254c2.2194-3.2465 0.99494-6.9791-1.3003-8.5482-1.1476-0.78455-2.7022-1.1234-4.2472-0.8603zm-24.044 5.5336c1.2793-0.26299 2.7331-0.0557 4.0858 0.86906 0.97346 0.66548 1.8095 2.0091 2.4818 3.4556-0.40825-0.67119-0.86738-1.241-1.3717-1.5857-2.2006-1.5044-4.7308-0.67418-5.7944 0.88168-1.0636 1.5558-0.91875 4.2148 1.2819 5.7192 0.50431 0.34478 1.2019 0.56573 1.9755 0.70248-1.5919-0.10134-3.1474-0.39258-4.1208-1.0581-2.7055-1.8495-2.8839-5.1187-1.5763-7.0315 0.65381-0.95638 1.7589-1.6897 3.0382-1.9528zm24.014-4.3107c1.2875-0.21935 2.5829 0.0629 3.5393 0.71675 1.9128 1.3076 2.9332 4.4186 1.0837 7.124-0.66548 0.97346-2.0087 1.8089-3.4552 2.4812 0.67119-0.40825 1.2406-0.86677 1.5853-1.3711 1.5044-2.2006 0.67417-4.7308-0.88167-5.7944-1.5559-1.0636-4.2148-0.91875-5.7192 1.2819-0.34478 0.50432-0.56531 1.2013-0.70207 1.9749 0.10134-1.5919 0.39217-3.1468 1.0577-4.1202 0.92475-1.3527 2.2046-2.0738 3.4922-2.2931zm-26.775 15.986c-3.8649 0.72627-5.6386 4.2316-5.1251 6.9642 0.51348 2.7325 3.4388 5.3554 7.3037 4.6291 3.8649-0.72627 9.0941-7.7105 9.0941-7.7105s-7.4077-4.609-11.273-3.8828zm33.405-5.9922c-3.8649 0.72628-9.0941 7.7105-9.0941 7.7105s7.4072 4.6091 11.272 3.8829c3.8649-0.72628 5.6386-4.2316 5.1251-6.9642-0.51348-2.7325-3.4383-5.3555-7.3032-4.6292zm-32.974 6.9114c1.1589-0.21777 2.6999 0.14119 4.1981 0.68864-0.76328-0.18592-1.4903-0.26416-2.0907-0.15135-2.6198 0.49232-3.8221 2.8682-3.474 4.7205 0.34806 1.8523 2.3309 3.6302 4.9507 3.1379 0.60039-0.11282 1.2494-0.44963 1.8931-0.89995-1.1973 1.054-2.5029 1.9479-3.6618 2.1656-3.2209 0.60525-5.6587-1.5806-6.0866-3.8578-0.42791-2.2772 1.0502-5.1983 4.2711-5.8036zm32.906-5.8984c3.2208-0.60524 5.6587 1.5806 6.0866 3.8578s-1.0502 5.1983-4.2711 5.8036c-1.1589 0.21778-2.6994-0.14128-4.1976-0.68874 0.76328 0.18594 1.4903 0.26417 2.0907 0.15135 2.6198-0.4923 3.8216-2.8681 3.4735-4.7204-0.34806-1.8522-2.3304-3.6303-4.9502-3.138-0.6004 0.11282-1.2494 0.44963-1.8931 0.89995 1.1973-1.054 2.5023-1.9477 3.6613-2.1655zm-16.198 3.0907a4.7247 4.7247 0 0 0 -3.7709 5.5161 4.7247 4.7247 0 0 0 5.5161 3.7709 4.7247 4.7247 0 0 0 3.7709 -5.5161 4.7247 4.7247 0 0 0 -5.5161 -3.7709zm0.29089 1.548a3.1498 3.1498 0 0 1 3.6772 2.5138 3.1498 3.1498 0 0 1 -2.5138 3.6772 3.1498 3.1498 0 0 1 -3.6772 -2.5138 3.1498 3.1498 0 0 1 2.5138 -3.6772zm0.1212 0.645a2.4936 2.4936 0 0 0 -1.99 2.911 2.4936 2.4936 0 0 0 2.911 1.99 2.4936 2.4936 0 0 0 1.9905 -2.9111 2.4936 2.4936 0 0 0 -2.9115 -1.9899zm-3.6029 7.8711s-8.4974 1.979-10.717 5.2255c-2.2194 3.2465-0.99444 6.979 1.3008 8.5482 2.2953 1.5691 6.2179 1.3555 8.4372-1.891 2.2193-3.2464 0.97873-11.883 0.97873-11.883zm9.2195-1.5306s1.9784 8.497 5.2249 10.716c3.2465 2.2193 6.9791 0.99494 8.5482-1.3003 1.5691-2.2953 1.3554-6.2184-1.8911-8.4378-3.2465-2.2193-11.882-0.97832-11.882-0.97832zm-15.526 4.6196c-0.67119 0.40825-1.2405 0.86676-1.5853 1.3711-1.5044 2.2006-0.67418 4.7308 0.88167 5.7944 1.5559 1.0636 4.2148 0.91874 5.7192-1.2819 0.34476-0.50431 0.56531-1.2013 0.70207-1.9749-0.10134 1.5919-0.39269 3.1469-1.0582 4.1203-1.8495 2.7054-5.1182 2.8838-7.031 1.5762s-2.9337-4.4185-1.0842-7.1239c0.66548-0.97345 2.0092-1.809 3.4557-2.4813zm11.233-1.9448s-4.6091 7.4072-3.8829 11.272c0.72627 3.8649 4.2316 5.6386 6.9641 5.1252 2.7325-0.51348 5.3549-3.4387 4.6286-7.3036-0.72628-3.8649-7.7099-9.0937-7.7099-9.0937zm11.29-2.0863c1.5919 0.10134 3.1474 0.39259 4.1208 1.0581 2.7055 1.8495 2.8834 5.1188 1.5758 7.0316s-4.4181 2.9331-7.1235 1.0836c-0.97346-0.66547-1.8095-2.0091-2.4818-3.4556 0.40825 0.6712 0.86687 1.2411 1.3712 1.5858 2.2006 1.5044 4.7313 0.67408 5.7949-0.88176 1.0636-1.5559 0.91824-4.2147-1.2824-5.7191-0.50432-0.34478-1.2014-0.56583-1.975-0.70258zm-13.565 8.7295c-0.18593 0.76328-0.26416 1.4903-0.15135 2.0907 0.49232 2.6198 2.8687 3.822 4.721 3.4739 1.8522-0.34807 3.6297-2.3308 3.1374-4.9506-0.11282-0.60039-0.44963-1.2494-0.89995-1.8931 1.054 1.1973 1.9478 2.5028 2.1656 3.6618 0.60524 3.2208-1.5801 5.6586-3.8572 6.0865-2.2772 0.42791-5.1988-1.0501-5.8041-4.271-0.21778-1.1589 0.14119-2.6999 0.68864-4.1981z" stroke-linecap="round" stroke-linejoin="round" stroke-width=".18374"/>
   <path d="m26.196 151.71c-2.954 0.33139-5.9814 3.2429-5.5127 7.4211 0.46871 4.1782 7.5012 10.306 7.5012 10.306s5.5001-7.5332 5.0314-11.711c-0.4687-4.1783-4.0659-6.3466-7.0199-6.0153zm0.15582 1.3891c2.4618-0.27614 5.4595 1.5309 5.8501 5.0129 0.14054 1.2529-0.3635 2.8674-1.0657 4.4216 0.2586-0.79911 0.39951-1.5681 0.32671-2.2171-0.31772-2.8322-2.7564-4.3019-4.7588-4.0773-2.0024 0.22463-4.0543 2.198-3.7366 5.0303 0.0728 0.64906 0.3806 1.3677 0.80982 2.0896-1.0291-1.3599-1.8789-2.8226-2.0194-4.0755-0.39061-3.482 2.1322-5.9083 4.594-6.1845zm-12.825 5.5116c-1.6618 0.21514-3.1447 1.0482-4.0719 2.2097-1.8545 2.3231-1.9364 6.5229 1.3495 9.1459s12.591 1.9828 12.591 1.9828-1.4374-9.2161-4.7233-11.839c-1.6429-1.3115-3.4839-1.7144-5.1457-1.4993zm26.488-2.7584c-1.6682 0.15841-3.3741 0.95918-4.6856 2.6021-2.623 3.2859-1.9827 12.592-1.9827 12.592s9.216-1.438 11.839-4.7239c2.6231-3.2859 1.6128-7.3626-0.71037-9.2171-1.1616-0.92726-2.7922-1.4115-4.4604-1.2532zm-26.074 3.9984c1.3848-0.17923 2.9185 0.15675 4.2877 1.2497 0.98528 0.78653 1.7704 2.2853 2.3728 3.8807-0.3822-0.74792-0.82667-1.3917-1.3371-1.7992-2.2274-1.778-4.9907-1.093-6.2478 0.48178-1.2571 1.5748-1.3129 4.4212 0.91446 6.1992 0.51044 0.40748 1.2367 0.69823 2.0507 0.90522-1.6893-0.23395-3.3247-0.66749-4.31-1.454-2.7383-2.1859-2.6701-5.6857-1.1246-7.6217 0.77274-0.968 2.009-1.6625 3.3938-1.8418zm25.945-2.697c1.3901-0.13206 2.749 0.27138 3.717 1.0441 1.936 1.5455 2.778 4.9431 0.59203 7.6815-0.78653 0.98526-2.2848 1.7698-3.8802 2.3722 0.74792-0.3822 1.3912-0.82604 1.7987-1.3365 1.778-2.2274 1.0929-4.9907-0.4818-6.2478-1.5748-1.2571-4.4212-1.3129-6.1992 0.91446-0.40749 0.51044-0.69775 1.2361-0.90474 2.0501 0.23395-1.6893 0.667-3.3241 1.4536-4.3094 1.093-1.3692 2.5146-2.0367 3.9047-2.1687zm-29.812 14.926c-4.1783 0.4687-6.3466 4.0659-6.0153 7.0199 0.33137 2.954 3.2429 5.982 7.4212 5.5132 4.1782-0.4687 10.306-7.5018 10.306-7.5018s-7.5337-5.5001-11.712-5.0314zm36.091-3.7472c-4.1783 0.46872-10.306 7.5018-10.306 7.5018s7.5332 5.5001 11.711 5.0314c4.1783-0.4687 6.3466-4.0659 6.0153-7.0199-0.33138-2.9541-3.2424-5.982-7.4206-5.5133zm-35.704 4.7612c1.2529-0.14054 2.8675 0.36405 4.4216 1.0662-0.79912-0.25858-1.5681-0.39949-2.2171-0.3267-2.8322 0.31773-4.302 2.7559-4.0774 4.7583 0.22462 2.0024 2.1981 4.0549 5.0304 3.7372 0.64907-0.0728 1.3677-0.38059 2.0896-0.80982-1.3599 1.0291-2.8226 1.8789-4.0755 2.0194-3.482 0.3906-5.9084-2.1328-6.1845-4.5946-0.27615-2.4618 1.5309-5.4595 5.0129-5.8501zm35.551-3.6866c3.482-0.3906 5.9084 2.1328 6.1845 4.5945 0.27614 2.4618-1.5309 5.4595-5.0129 5.8501-1.2529 0.14053-2.8669-0.36411-4.4211-1.0663 0.79911 0.2586 1.5681 0.39951 2.2171 0.3267 2.8323-0.3177 4.3014-2.7558 4.0768-4.7582-0.22462-2.0024-2.1976-4.055-5.0298-3.7372-0.64908 0.0728-1.3677 0.38059-2.0896 0.80982 1.3599-1.0291 2.8221-1.8788 4.0749-2.0194zm-17.515 2.0143a5.0514 5.0514 0 0 0 -4.4569 5.5831 5.0514 5.0514 0 0 0 5.5831 4.4568 5.0514 5.0514 0 0 0 4.4569 -5.5831 5.0514 5.0514 0 0 0 -5.5831 -4.4568zm0.18773 1.6735a3.3676 3.3676 0 0 1 3.7219 2.9711 3.3676 3.3676 0 0 1 -2.9711 3.7218 3.3676 3.3676 0 0 1 -3.7219 -2.9711 3.3676 3.3676 0 0 1 2.9711 -3.7219zm0.07822 0.69731a2.666 2.666 0 0 0 -2.352 2.9463 2.666 2.666 0 0 0 2.9463 2.352 2.666 2.666 0 0 0 2.3525 -2.9464 2.666 2.666 0 0 0 -2.9469 -2.3519zm-4.4639 8.1074s-9.2166 1.4381-11.84 4.7239c-2.623 3.2859-1.6122 7.3625 0.71092 9.217 2.3231 1.8545 6.5224 1.937 9.1455-1.3489 2.623-3.2859 1.9833-12.592 1.9833-12.592zm9.951-0.90277s1.4374 9.2161 4.7233 11.839c3.2859 2.623 7.3626 1.6128 9.2171-0.71037 1.8545-2.3232 1.9369-6.523-1.349-9.146s-12.591-1.9828-12.591-1.9828zm-16.92 3.6976c-0.74792 0.3822-1.3912 0.82604-1.7987 1.3365-1.778 2.2274-1.093 4.9907 0.4818 6.2478s4.4212 1.3129 6.1992-0.91446c0.40748-0.51046 0.69775-1.2361 0.90474-2.0501-0.23395 1.6893-0.66756 3.3242-1.4541 4.3095-2.1859 2.7383-5.6851 2.67-7.6212 1.1246-1.936-1.5455-2.7785-4.943-0.59258-7.6814 0.78652-0.98529 2.2853-1.7699 3.8808-2.3723zm12.131-1.1851s-5.5001 7.5332-5.0314 11.711c0.4687 4.1783 4.0659 6.3466 7.0199 6.0153 2.9541-0.33138 5.9814-3.2429 5.5127-7.4211-0.46871-4.1782-7.5012-10.306-7.5012-10.306zm12.202-1.3316c1.6893 0.23395 3.3247 0.66749 4.31 1.454 2.7383 2.1859 2.6695 5.6858 1.1241 7.6218-1.5455 1.936-4.9426 2.7779-7.6809 0.59197-0.98529-0.78654-1.7704-2.2853-2.3728-3.8807 0.3822 0.74792 0.82612 1.3918 1.3366 1.7993 2.2274 1.778 4.9912 1.0929 6.2483-0.48186 1.2571-1.5748 1.3124-4.4211-0.915-6.1992-0.51045-0.40749-1.2362-0.6983-2.0502-0.90529zm-15.154 8.2347c-0.2586 0.79911-0.39951 1.5681-0.32671 2.2171 0.31772 2.8323 2.7564 4.3019 4.7588 4.0773 2.0024-0.22463 4.0543-2.198 3.7366-5.0303-0.07281-0.64905-0.38059-1.3677-0.80982-2.0896 1.0291 1.3599 1.8789 2.8226 2.0194 4.0755 0.3906 3.482-2.1322 5.9083-4.594 6.1845-2.4618 0.27614-5.46-1.5308-5.8506-5.0128-0.14054-1.2529 0.36406-2.8675 1.0662-4.4216z" stroke-linecap="round" stroke-linejoin="round" stroke-width=".19644"/>
   <path d="m115.56 166.55c-2.7803 1e-5 -5.8978 2.3906-5.8978 6.3231 1e-5 3.9326 5.8978 10.361 5.8978 10.361s5.8978-6.4286 5.8978-10.361c0-3.9326-3.1175-6.3231-5.8978-6.3231zm0 1.3074c2.317 1e-5 4.915 1.9922 4.915 5.2694-1e-5 1.1792-0.63686 2.6274-1.4516 3.9987 0.3237-0.71581 0.53485-1.4159 0.53486-2.0268-1e-5 -2.6657-2.1136-4.286-3.9982-4.286-1.8847 0-3.9977 1.6203-3.9977 4.286-1e-5 0.6109 0.21116 1.3109 0.53485 2.0268-0.81473-1.3714-1.4521-2.8195-1.4521-3.9987-1e-5 -3.2772 2.5979-5.2694 4.9149-5.2694zm-12.495 3.7858c-1.567 0.0267-3.0323 0.64636-4.0153 1.6294-1.966 1.966-2.48 5.8611 0.30076 8.6418 2.7807 2.7807 11.497 3.1559 11.497 3.1559s-0.37516-8.7162-3.1559-11.497c-1.3904-1.3904-3.0596-1.9568-4.6266-1.9301zm24.909 0.19792c-1.5671-0.0267-3.2362 0.53975-4.6266 1.9301-2.7807 2.7807-3.1559 11.497-3.1559 11.497s8.7162-0.37568 11.497-3.1564c2.7807-2.7807 2.2667-6.6753 0.30076-8.6413-0.98301-0.983-2.4482-1.6032-4.0153-1.6299zm-24.653 0.99787c1.3059-0.0222 2.6964 0.45001 3.8551 1.6087 0.83381 0.83381 1.4073 2.3088 1.8009 3.8546-0.27727-0.73504-0.62327-1.3798-1.0552-1.8118-1.8849-1.8849-4.5249-1.5363-5.8575-0.20361-1.3327 1.3327-1.6813 3.9726 0.2036 5.8575 0.43197 0.43198 1.0767 0.77796 1.8118 1.0552-1.5458-0.39359-3.0207-0.96709-3.8546-1.8009-2.3173-2.3173-1.889-5.5632-0.25063-7.2016 0.8192-0.81919 2.0407-1.3358 3.3466-1.3581zm24.397 0.19844c1.3059 0.0222 2.5269 0.53887 3.346 1.3581 1.6384 1.6384 2.0667 4.8843-0.25063 7.2016-0.83381 0.8338-2.3082 1.4068-3.854 1.8004 0.73504-0.27727 1.3793-0.62275 1.8113-1.0547 1.8849-1.8849 1.5363-4.5249 0.20361-5.8575-1.3327-1.3327-3.9726-1.6813-5.8575 0.20361-0.43199 0.43197-0.77744 1.0762-1.0547 1.8113 0.39359-1.5458 0.96658-3.0202 1.8004-3.854 1.1587-1.1587 2.5497-1.6309 3.8556-1.6087zm-29.266 10.766c-3.9326 0-6.3231 3.1175-6.3231 5.8978s2.3906 5.8984 6.3231 5.8984c3.9325-1e-5 10.362-5.8984 10.362-5.8984s-6.4291-5.8978-10.362-5.8978zm33.937 0.28009c-3.9326 1e-5 -10.362 5.8984-10.362 5.8984s6.4286 5.8978 10.361 5.8978c3.9326 0 6.3231-3.1175 6.3231-5.8978s-2.3901-5.8984-6.3226-5.8984zm-33.683 0.7028c1.1792 0 2.6274 0.63738 3.9987 1.4521-0.71582-0.32368-1.4159-0.53483-2.0268-0.53485-2.6657 2e-5 -4.286 2.113-4.286 3.9977-2e-6 1.8847 1.6203 3.9982 4.286 3.9982 0.6109 0 1.3109-0.21116 2.0268-0.53485-1.3714 0.81474-2.8195 1.4521-3.9987 1.4521-3.2772 1e-5 -5.2695-2.5984-5.2694-4.9155 0-2.317 1.9922-4.9149 5.2694-4.9149zm33.429 0.28008c3.2772-1e-5 5.2694 2.5984 5.2694 4.9155-2e-5 2.317-1.9922 4.9149-5.2694 4.9149-1.1792 0-2.6268-0.63737-3.9982-1.4521 0.71581 0.32369 1.4159 0.53485 2.0268 0.53485 2.6657 0 4.2855-2.113 4.2855-3.9977s-1.6198-3.9982-4.2855-3.9982c-0.61091-1e-5 -1.3109 0.21116-2.0268 0.53485 1.3714-0.81474 2.819-1.4521 3.9982-1.4521zm-16.49 0.046a4.7247 4.7247 0 0 0 -4.7248 4.7248 4.7247 4.7247 0 0 0 4.7248 4.7248 4.7247 4.7247 0 0 0 4.7248 -4.7248 4.7247 4.7247 0 0 0 -4.7248 -4.7248zm0 1.5751a3.1498 3.1498 0 0 1 3.1497 3.1497 3.1498 3.1498 0 0 1 -3.1497 3.1497 3.1498 3.1498 0 0 1 -3.1497 -3.1497 3.1498 3.1498 0 0 1 3.1497 -3.1497zm0 0.6563a2.4936 2.4936 0 0 0 -2.4934 2.4934 2.4936 2.4936 0 0 0 2.4934 2.4934 2.4936 2.4936 0 0 0 2.4939 -2.4934 2.4936 2.4936 0 0 0 -2.4939 -2.4934zm-4.9945 7.0704s-8.7168 0.37568-11.497 3.1564c-2.7807 2.7807-2.2662 6.6753-0.30024 8.6413 1.966 1.966 5.8606 2.4805 8.6413-0.30024 2.7807-2.7807 3.1564-11.497 3.1564-11.497zm9.3436 0.19844s0.37515 8.7162 3.1559 11.497c2.7808 2.7807 6.6754 2.2668 8.6413 0.30076 1.966-1.966 2.4805-5.8611-0.30024-8.6418-2.7807-2.7807-11.497-3.1559-11.497-3.1559zm-16.112 1.6728c-0.73504 0.27727-1.3793 0.62275-1.8113 1.0547-1.8849 1.8849-1.5363 4.5249-0.2036 5.8575s3.9726 1.6813 5.8575-0.20361c0.43197-0.43197 0.77744-1.0762 1.0547-1.8113-0.3936 1.5458-0.96711 3.0202-1.8009 3.854-2.3173 2.3174-5.5627 1.889-7.2011 0.25063-1.6384-1.6384-2.0672-4.8843 0.25011-7.2016 0.83381-0.83382 2.3088-1.4068 3.8546-1.8004zm11.399 0.1633s-5.8978 6.4286-5.8978 10.361c1e-5 3.9326 3.1175 6.3231 5.8978 6.3231s5.8978-2.3906 5.8978-6.3231c-2e-5 -3.9326-5.8978-10.361-5.8978-10.361zm11.481 0.0346c1.5458 0.39359 3.0207 0.96709 3.8545 1.8009 2.3174 2.3173 1.8885 5.5632 0.25012 7.2016-1.6384 1.6384-4.8838 2.0667-7.2011-0.25063-0.83382-0.83381-1.4073-2.3088-1.8009-3.8546 0.27727 0.73504 0.62276 1.3798 1.0547 1.8118 1.8849 1.8849 4.5254 1.5363 5.858 0.2036s1.6808-3.9726-0.20412-5.8575c-0.43198-0.43198-1.0762-0.77796-1.8113-1.0552zm-14.944 6.074c-0.32369 0.71581-0.53484 1.4159-0.53485 2.0267 1e-5 2.6657 2.1135 4.286 3.9982 4.286s3.9977-1.6203 3.9977-4.286c1e-5 -0.61089-0.21115-1.3109-0.53485-2.0267 0.81474 1.3714 1.4521 2.8195 1.4521 3.9987 0 3.2772-2.5979 5.2694-4.9149 5.2694-2.317-1e-5 -4.9155-1.9922-4.9155-5.2694 0-1.1792 0.63738-2.6274 1.4521-3.9987z" stroke-linecap="round" stroke-linejoin="round" stroke-width=".18374"/>
   <path d="m165.97 237.4c-0.18317 0.14435-2.566-2.9691-7.8167-7.1476-5.1573-4.1042-13.663-9.388-24.984-11.268-5.4093-0.9041-11.069-0.98385-17.386-0.65054-6.3068 0.33826-13.011 1.1307-20.08 1.098-2.7056-8e-3 -5.4847-0.15876-8.2623-0.53487-4.1397-0.56056-8.1172-1.6004-11.818-3.2913-10.187-4.7099-16.76-13.848-19.597-22.633-3.8243-11.861-1.5464-23.008 1.0309-29.84 3.0185-8.0132 6.5122-11.551 6.5492-11.526 0.21649 0.14535-2.6898 4.1546-5.2107 11.994-2.1658 6.7467-4.0116 17.548-0.1849 28.644 2.823 8.1977 9.0957 16.724 18.502 20.979 3.417 1.5658 7.1449 2.5214 11.081 3.046 2.6405 0.3519 5.309 0.50119 7.9267 0.52851 6.8507 0.0596 13.53-0.68549 19.943-0.95731 6.4192-0.27762 12.279-0.0924 17.893 0.95308 11.788 2.2074 20.388 7.9827 25.425 12.476 5.1658 4.6076 7.0668 8.0682 6.988 8.1303z"/>
   <path d="m61.043 200.21l0.73022-0.17353c-0.38435-1.6174-0.74279-3.5522-0.9442-5.7485-0.38308-4.3161-0.07021-9.4212 2.3357-13.771 1.0586-1.9274 2.5717-3.7721 4.5357-5.1857 1.809-1.302 4.0128-2.2331 6.3785-2.4937 2.235-0.24618 4.614 0.12026 6.7089 1.1943 2.0153 1.0332 3.7513 2.7314 4.7559 4.8413 1.1542 2.432 1.2736 5.4142 0.10476 7.8884-0.56926 1.2277-1.4424 2.3254-2.538 3.1411-1.0956 0.81569-2.4083 1.342-3.765 1.4876-1.1605 0.12761-2.3458-0.0249-3.4109-0.46113-1.091-0.44676-2.0448-1.1901-2.7125-2.1251-0.69416-0.97211-1.0676-2.1407-1.0609-3.2875 7e-3 -1.2156 0.44286-2.3845 1.1752-3.2615 0.55094-0.66781 1.2549-1.1535 1.9971-1.4224 0.84287-0.30535 1.7122-0.32459 2.4603-0.13673 0.68079 0.17404 1.2715 0.52662 1.7323 0.95069 0.53311 0.49069 0.8929 1.0738 1.0918 1.652-0.19875-0.57781-0.5554-1.1629-1.085-1.6592-0.45759-0.42885-1.0467-0.79072-1.7304-0.97601-0.74897-0.20637-1.6309-0.21405-2.503 0.07-0.7681 0.25014-1.512 0.72278-2.111 1.3947-0.78546 0.89122-1.2786 2.0996-1.3234 3.3825-0.04227 1.21 0.31402 2.4617 1.0241 3.5236 0.68292 1.0213 1.6795 1.8516 2.8415 2.371 1.1343 0.50707 2.4096 0.71391 3.6736 0.61608 1.4767-0.11785 2.9218-0.6498 4.1459-1.51 1.2239-0.86007 2.2157-2.037 2.8802-3.3733 1.3279-2.7144 1.238-5.9888 0.0048-8.68-1.0672-2.336-2.9415-4.2278-5.1392-5.3975-2.2841-1.2157-4.8851-1.6554-7.3397-1.4212-2.5977 0.24789-5.0187 1.2327-7.0112 2.6269-2.163 1.5134-3.8299 3.4979-4.9999 5.5717-2.627 4.6867-2.9559 10.119-2.578 14.577 0.18682 2.2799 0.54668 4.2898 0.94568 5.9688l0.73022-0.17353z"/>
   <path d="m192.7 254.51c0.088 0.18253-3.3106 2.2757-9.3326 4.6104-6.1485 2.3838-14.485 4.7758-24.47 5.7448-10.983 1.0659-20.28 0.0526-26.87-1.2922-5.2839-1.0787-8.3327-2.2323-8.2841-2.4168 0.0583-0.22169 3.2221 0.48591 8.4889 1.2345 6.6232 0.94163 15.663 1.6959 26.487 0.64517 9.831-0.95433 17.996-3.0938 24.209-5.1383 6.0414-1.9878 9.6605-3.616 9.7707-3.3876z"/>
   <path d="m161.43 241.68c-0.16992 0.27166-3.6271-1.7808-9.7657-4.1144-6.197-2.3558-14.993-4.7899-25.516-4.7447-2.9281 0.0111-5.8848 0.21281-9.018 0.49228-8.4482 0.75356-14.826 1.6144-22.07 0.97648-15.4-1.3848-22.878-8.6786-22.898-8.6458 0.26544-0.42819 8.9088 5.4879 23.072 6.3213 7.0634 0.4294 12.997-0.52538 21.662-1.2924 3.1697-0.28057 6.2165-0.46693 9.2568-0.44606 10.954 0.0803 20 2.9399 26.166 5.7841 6.1462 2.8353 9.2336 5.4744 9.1117 5.6692z"/>
   <path d="m205.81 250.51c-0.071 0.26922-6.1658-1.3055-16.737-2.7243-10.624-1.426-25.619-2.5074-43.222-0.40153-10.894 1.3032-22.701 3.9688-35.244 5.8591-6.2768 0.94592-12.342 1.6016-18.398 1.7512-2e-6 0-4e-6 -1e-5 -7e-6 -1e-5 -22.819 0.54154-41.637-6.4978-53.961-13.348-12.377-6.8804-18.1-13.198-18.049-13.258 0.20811-0.24573 6.5387 5.4437 18.848 11.764 12.349 6.3408 30.86 12.896 53.093 12.245h8e-6c5.9119-0.16724 11.861-0.82822 18.072-1.7682 12.407-1.878 24.288-4.4858 35.361-5.6868 17.894-1.9411 33.082-0.50248 43.73 1.3607 10.625 1.8592 16.553 4.0351 16.507 4.2068z"/>
   <path d="m179.13 257.01c-0.86759 0.0681-1.752-0.0914-2.5412-0.45827-1.0213-0.47481-1.8556-1.2743-2.5964-2.1226-0.74079-0.84833-1.4105-1.7612-2.2136-2.5507-0.80318-0.78952-1.7677-1.4627-2.87-1.6941-0.5511-0.11569-1.1298-0.11669-1.6736 0.0298-0.5437 0.14652-1.0507 0.44403-1.4194 0.86961-0.31034 0.35823-0.51822 0.80073-0.61759 1.2642-0.0994 0.46343-0.0921 0.9471-7.1e-4 1.4122 0.18268 0.93017 0.6929 1.7691 1.3118 2.4871 1.534 1.7794 3.8042 2.9038 6.1493 3.0455 2.3451 0.14177 4.7342-0.70092 6.4714-2.2826z" fill-rule="evenodd"/>
   <path d="m163.89 259.68c-0.86759 0.0681-1.752-0.0914-2.5412-0.45827-1.0213-0.47481-1.8556-1.2743-2.5964-2.1226-0.74079-0.84833-1.4105-1.7612-2.2136-2.5507-0.80318-0.78952-1.7677-1.4627-2.87-1.6941-0.5511-0.11569-1.1298-0.11669-1.6736 0.0298-0.5437 0.14652-1.0507 0.44403-1.4194 0.86961-0.31034 0.35823-0.51822 0.80073-0.61759 1.2642-0.0994 0.46343-0.0921 0.9471-7.1e-4 1.4122 0.18268 0.93017 0.6929 1.7691 1.3118 2.4871 1.534 1.7794 3.8042 2.9038 6.1493 3.0455 2.3451 0.14177 4.7342-0.70092 6.4714-2.2826z" fill-rule="evenodd"/>
   <path d="m146.25 259.68c-0.86759 0.0681-1.752-0.0914-2.5412-0.45827-1.0213-0.47481-1.8556-1.2743-2.5964-2.1226-0.74079-0.84833-1.4105-1.7612-2.2136-2.5507-0.80318-0.78952-1.7677-1.4627-2.87-1.6941-0.5511-0.11569-1.1298-0.11669-1.6736 0.0298-0.5437 0.14652-1.0507 0.44403-1.4194 0.86961-0.31034 0.35823-0.51822 0.80073-0.61759 1.2642-0.0994 0.46343-0.0921 0.9471-7.1e-4 1.4122 0.18268 0.93017 0.6929 1.7691 1.3118 2.4871 1.534 1.7794 3.8042 2.9038 6.1493 3.0455 2.3451 0.14177 4.7342-0.70092 6.4714-2.2826z" fill-rule="evenodd"/>
   <path d="m138.32 267.77c-0.86759-0.0681-1.752 0.0914-2.5412 0.45827-1.0213 0.47481-1.8556 1.2743-2.5964 2.1226-0.74079 0.84833-1.4105 1.7612-2.2136 2.5507-0.80318 0.78952-1.7677 1.4627-2.87 1.6941-0.5511 0.11569-1.1298 0.11669-1.6736-0.0298-0.5437-0.14652-1.0507-0.44403-1.4194-0.86961-0.31034-0.35823-0.51822-0.80073-0.61759-1.2642-0.0994-0.46343-0.0921-0.9471-7.1e-4 -1.4122 0.18268-0.93017 0.6929-1.7691 1.3118-2.4871 1.534-1.7794 3.8042-2.9038 6.1493-3.0455 2.3451-0.14177 4.7342 0.70092 6.4714 2.2826z" fill-rule="evenodd"/>
   <path d="m152.21 268.84c-0.86759-0.0681-1.752 0.0914-2.5412 0.45827-1.0213 0.47481-1.8556 1.2743-2.5964 2.1226-0.74079 0.84833-1.4105 1.7612-2.2136 2.5507-0.80318 0.78952-1.7677 1.4627-2.87 1.6941-0.5511 0.11569-1.1298 0.11669-1.6736-0.0298-0.5437-0.14652-1.0507-0.44403-1.4194-0.86961-0.31034-0.35823-0.51822-0.80073-0.61759-1.2642-0.0994-0.46343-0.0921-0.9471-7.1e-4 -1.4122 0.18268-0.93017 0.6929-1.7691 1.3118-2.4871 1.534-1.7794 3.8042-2.9038 6.1493-3.0455 2.3451-0.14177 4.7342 0.70092 6.4714 2.2826z" fill-rule="evenodd"/>
   <path d="m164.71 266.41c-0.84222 0.21914-1.626 0.65889-2.252 1.2635-0.81005 0.78246-1.3373 1.8107-1.7603 2.8546-0.42292 1.0438-0.75754 2.1254-1.2586 3.1341-0.50111 1.0086-1.1927 1.9601-2.1588 2.5389-0.48304 0.28942-1.0297 0.47948-1.5915 0.51871-0.56173 0.0392-1.1381-0.0763-1.6257-0.35805-0.41036-0.23715-0.75142-0.58744-0.99676-0.99295-0.24538-0.4055-0.39653-0.86501-0.46213-1.3344-0.13129-0.9388 0.0768-1.8984 0.42715-2.7792 0.86837-2.183 2.6466-3.9874 4.8166-4.8877 2.17-0.90029 4.7034-0.88453 6.862 0.0426z" fill-rule="evenodd"/>
   <path d="m179.41 263.74c-0.84222 0.21914-1.626 0.65889-2.252 1.2635-0.81005 0.78246-1.3373 1.8107-1.7603 2.8546-0.42292 1.0438-0.75754 2.1254-1.2586 3.1341-0.50111 1.0086-1.1927 1.9601-2.1588 2.5389-0.48304 0.28942-1.0297 0.47948-1.5915 0.51871-0.56173 0.0392-1.1381-0.0763-1.6257-0.35805-0.41036-0.23715-0.75142-0.58744-0.99676-0.99295-0.24538-0.4055-0.39653-0.86501-0.46213-1.3344-0.13129-0.9388 0.0768-1.8984 0.42715-2.7792 0.86837-2.183 2.6466-3.9874 4.8166-4.8877 2.17-0.90029 4.7034-0.88453 6.862 0.0426z" fill-rule="evenodd"/>
   <path d="m123.58 261.2c-2.9136-1.7431-5.1882-5.6998-7.5994-6.7328-0.96829-0.37771-2.0676-0.44182-3.053 0.0322-0.49268 0.23699-0.94924 0.6067-1.3026 1.0877-0.3534 0.48102-0.60071 1.0745-0.67997 1.6914-0.11317 0.88085 0.12099 1.7653 0.53662 2.4644 0.41561 0.69914 1.001 1.2288 1.626 1.6574 1.6317 1.1187 3.5918 1.5949 5.5295 1.3432 1.9377-0.25166 2.7563-0.42087 4.9428-1.5434z" fill-rule="evenodd"/>
   <path d="m19.925 227.87c-1.9228-2.7983-2.3425-7.3429-4.1042-9.2864-0.72296-0.74671-1.6957-1.2629-2.789-1.2424-0.54662 0.0102-1.1157 0.15616-1.6373 0.44625-0.52165 0.29009-0.99368 0.72659-1.3227 1.2544-0.4698 0.75366-0.62533 1.6553-0.5387 2.464 0.086614 0.80872 0.39818 1.5341 0.78788 2.184 1.0174 1.6967 2.6011 2.9461 4.4674 3.5244 1.8664 0.57834 2.6811 0.76551 5.1365 0.65577z" fill-rule="evenodd"/>
   <path d="m34.807 235.36c-0.61361-1.2531-1.0452-2.5951-1.2771-3.9709-0.21469-1.2739-0.25839-2.5694-0.37954-3.8555-0.12113-1.2861-0.32473-2.5815-0.83806-3.767-0.51334-1.1854-1.3661-2.2622-2.5239-2.8352-0.57888-0.28657-1.2264-0.44123-1.8719-0.41723-0.64548 0.024-1.2873 0.23031-1.8089 0.61127-0.74474 0.54398-1.2077 1.4159-1.3849 2.321-0.17722 0.90506-0.08996 1.8441 0.10461 2.7456 0.50801 2.3534 1.7607 4.5403 3.5337 6.1691s4.0581 2.6919 6.446 2.999z" fill-rule="evenodd"/>
   <path d="m44.709 240.64c-0.61361-1.2531-1.0452-2.5951-1.2771-3.9709-0.21469-1.2739-0.25839-2.5694-0.37954-3.8555-0.12113-1.2861-0.32473-2.5815-0.83806-3.767-0.51334-1.1854-1.3661-2.2622-2.5239-2.8352-0.57888-0.28657-1.2264-0.44123-1.8719-0.41723-0.64548 0.024-1.2873 0.23031-1.8089 0.61127-0.74474 0.54398-1.2077 1.4159-1.3849 2.321-0.17722 0.90506-0.08996 1.8441 0.10461 2.7456 0.50801 2.3534 1.7607 4.5403 3.5337 6.1691s4.0581 2.6919 6.446 2.999z" fill-rule="evenodd"/>
   <path d="m54.856 244.84c-0.61361-1.2531-1.0452-2.5951-1.2771-3.9709-0.21469-1.2739-0.25839-2.5694-0.37954-3.8555-0.12113-1.2861-0.32473-2.5815-0.83806-3.767-0.51334-1.1854-1.3661-2.2622-2.5239-2.8352-0.57888-0.28657-1.2264-0.44123-1.8719-0.41723-0.64548 0.024-1.2873 0.23031-1.8089 0.61127-0.74474 0.54398-1.2077 1.4159-1.3849 2.321-0.17722 0.90506-0.08996 1.8441 0.10461 2.7456 0.50801 2.3534 1.7607 4.5403 3.5337 6.1691s4.0581 2.6919 6.446 2.999z" fill-rule="evenodd"/>
   <path d="m65.146 248.31c-0.61361-1.2531-1.0452-2.5951-1.2771-3.9709-0.21469-1.2739-0.25839-2.5694-0.37954-3.8555-0.12113-1.2861-0.32473-2.5815-0.83806-3.767-0.51334-1.1854-1.3661-2.2622-2.5239-2.8352-0.57888-0.28657-1.2264-0.44123-1.8719-0.41723-0.64548 0.024-1.2873 0.23031-1.8089 0.61127-0.74474 0.54398-1.2077 1.4159-1.3849 2.321-0.17722 0.90506-0.08996 1.8441 0.10461 2.7456 0.50801 2.3534 1.7607 4.5403 3.5337 6.1691s4.0581 2.6919 6.446 2.999z" fill-rule="evenodd"/>
   <path d="m75.598 250.43c-0.59553-1.1869-1.0161-2.4589-1.2445-3.7638-0.21144-1.2081-0.25829-2.4374-0.3797-3.6575-0.12139-1.2201-0.32222-2.4487-0.82094-3.5718s-1.3239-2.1419-2.4409-2.6814c-0.55852-0.26986-1.1827-0.41428-1.8042-0.38916-0.62151 0.0251-1.2389 0.22323-1.7397 0.58665-0.71519 0.51894-1.1579 1.348-1.3252 2.2076-0.16733 0.85955-0.07984 1.7504 0.11084 2.6052 0.49789 2.2315 1.7123 4.3023 3.4257 5.8416s3.9179 2.5399 6.2187 2.8226z" fill-rule="evenodd"/>
   <path d="m82.393 251.14c-0.38117-0.81323-0.62346-1.6655-0.71695-2.5218-0.08653-0.79287-0.04606-1.5848-0.06309-2.3773-0.01702-0.79257-0.09418-1.5976-0.40537-2.3614-0.3112-0.76377-0.87816-1.4896-1.6978-1.9341-0.40979-0.22229-0.87751-0.37001-1.3537-0.40887-0.4762-0.0388-0.95994 0.0335-1.365 0.22214-0.57837 0.26932-0.96785 0.76147-1.1489 1.2975-0.1811 0.536-0.16955 1.1146-0.07695 1.6792 0.24178 1.474 1.0407 2.9083 2.2538 4.0462 1.213 1.1379 2.8345 1.9739 4.574 2.3585z" fill-rule="evenodd"/>
   <path d="m89.083 251.41c-0.36957-0.67448-0.61542-1.3894-0.72749-2.1152-0.10373-0.67208-0.09313-1.3498-0.1343-2.0251-0.04116-0.67535-0.13686-1.3583-0.44184-1.9941-0.30499-0.63583-0.83892-1.2262-1.5911-1.5639-0.37606-0.16883-0.80184-0.27111-1.2317-0.28006-0.42984-9e-3 -0.86286 0.0774-1.2213 0.25889-0.51176 0.25917-0.84624 0.69887-0.99175 1.1654-0.14552 0.46651-0.11625 0.95957-0.0145 1.4366 0.2657 1.2453 1.0315 2.4285 2.1604 3.3376 1.1288 0.9092 2.6154 1.5401 4.1935 1.7798z" fill-rule="evenodd"/>
   <path d="m94.703 251.07c-0.36211-0.54299-0.6226-1.1292-0.77079-1.7346-0.13718-0.56051-0.17813-1.1342-0.26268-1.7021-0.08454-0.56791-0.21574-1.1382-0.52039-1.6533-0.30466-0.51505-0.79952-0.97487-1.4602-1.2049-0.33036-0.115-0.69782-0.17013-1.0619-0.14601-0.36407 0.0239-0.72376 0.12895-1.0134 0.30882-0.41354 0.25678-0.66392 0.65314-0.75258 1.0582-0.08866 0.4051-0.02761 0.81977 0.09355 1.2155 0.31632 1.0332 1.0509 1.977 2.0721 2.6625 1.0213 0.6855 2.3245 1.1094 3.6762 1.1958z" fill-rule="evenodd"/>
   <path d="m100.04 251.03c-0.29971-0.45174-0.51493-0.93921-0.63682-1.4424-0.11284-0.46586-0.14572-0.94248-0.21482-1.4144-0.0691-0.4719-0.17695-0.94588-0.42899-1.3743-0.25205-0.42844-0.66219-0.81136-1.2106-1.0037-0.27418-0.0962-0.57932-0.14272-0.88175-0.12342-0.30244 0.0193-0.60144 0.10569-0.84237 0.2545-0.34402 0.21249-0.55279 0.54121-0.62723 0.87755-0.07445 0.33633-0.02456 0.68089 0.0753 1.0099 0.2607 0.85888 0.869 1.6443 1.716 2.2157 0.84697 0.57143 1.9286 0.92611 3.0513 1.0006z" fill-rule="evenodd"/>
   <path d="m104.64 250.88c-0.24312-0.3972-0.4126-0.82242-0.50148-1.2582-0.0822-0.40346-0.0955-0.81366-0.14006-1.2209-0.0446-0.40727-0.12225-0.81755-0.32518-1.1933-0.20295-0.37569-0.54303-0.71727-1.0078-0.89959-0.23236-0.0911-0.49297-0.14027-0.75307-0.13364-0.26024 7e-3 -0.51963 0.0719-0.73111 0.19207-0.302 0.17163-0.49152 0.44728-0.56597 0.73367-0.0745 0.28638-0.0424 0.58375 0.033 0.86931 0.19687 0.74548 0.69445 1.4388 1.4036 1.9559 0.70916 0.51711 1.6266 0.85549 2.588 0.95461z" fill-rule="evenodd"/>
   <path d="m31.348 239.39c-1.3791 0.21162-2.7273 0.62346-3.9893 1.2185-1.1684 0.551-2.257 1.2548-3.3821 1.8896-1.1251 0.63482-2.3048 1.2072-3.5712 1.4626-1.2663 0.25532-2.6372 0.16998-3.7686-0.45344-0.56577-0.31166-1.0625-0.75502-1.4112-1.2986-0.34881-0.54364-0.54586-1.1884-0.53086-1.8341 0.02143-0.922 0.47293-1.7999 1.1148-2.4621 0.64189-0.66221 1.4627-1.1267 2.3139-1.4816 2.2222-0.92652 4.7328-1.1466 7.0823-0.62087 2.3495 0.52574 4.5269 1.7949 6.1423 3.5801z" fill-rule="evenodd"/>
   <path d="m38.491 244.84c-1.331 0.41862-2.601 1.0304-3.758 1.8103-1.0712 0.72207-2.0403 1.583-3.0559 2.3813-1.0156 0.79833-2.0948 1.5433-3.3076 1.988-1.2129 0.44469-2.5808 0.56855-3.7938 0.1242-0.60654-0.22212-1.1648-0.5849-1.5921-1.0692-0.42733-0.48436-0.72002-1.0917-0.80326-1.7322-0.11885-0.91456 0.19407-1.8508 0.72796-2.6029 0.53386-0.75202 1.2746-1.3358 2.062-1.8159 2.0557-1.2533 4.5038-1.8521 6.9059-1.6893s4.747 1.0865 6.6148 2.6057z" fill-rule="evenodd"/>
   <path d="m45.63 247.69c-1.1261 0.82383-2.1324 1.8111-2.9777 2.9211-0.78259 1.0278-1.4239 2.1543-2.1294 3.2365-0.70548 1.0822-1.4883 2.1342-2.4941 2.9448-1.0058 0.81059-2.2616 1.3672-3.553 1.3358-0.64574-0.0156-1.2909-0.1799-1.8511-0.50138-0.56023-0.32149-1.0324-0.80268-1.3169-1.3825-0.40623-0.82797-0.41052-1.8152-0.14638-2.6988 0.26412-0.88362 0.77816-1.6743 1.3697-2.3818 1.5444-1.847 3.6705-3.2002 5.9977-3.8174 2.3272-0.61715 4.8445-0.49533 7.1012 0.34364z" fill-rule="evenodd"/>
   <path d="m56.316 251.52c-1.1192 0.83314-2.1173 1.8287-2.9533 2.9457-0.77404 1.0342-1.406 2.1661-2.1025 3.254-0.69648 1.088-1.4705 2.1464-2.4696 2.9654-0.99908 0.81891-2.2502 1.3859-3.5418 1.3652-0.64585-0.0103-1.2924-0.16919-1.8552-0.48601-0.56288-0.31684-1.0391-0.79409-1.3284-1.3716-0.41308-0.82457-0.42556-1.8117-0.16876-2.6975 0.25678-0.88578 0.76424-1.6807 1.3499-2.3931 1.529-1.8598 3.6439-3.2306 5.9658-3.867 2.322-0.63643 4.8402-0.53548 7.1038 0.28474z" fill-rule="evenodd"/>
   <path d="m67.106 254.43c-1.0699 0.78663-2.0226 1.7286-2.8191 2.787-0.73738 0.98005-1.3378 2.0538-2.0004 3.0854-0.66261 1.0316-1.3998 2.0348-2.3545 2.8085-0.95465 0.77377-2.1527 1.3062-3.3929 1.2792-0.62015-0.0135-1.2418-0.16848-1.784-0.4733-0.54222-0.30481-1.0021-0.76186-1.2831-1.3132-0.40123-0.78728-0.41874-1.727-0.17715-2.5687 0.24158-0.84171 0.72436-1.5955 1.2827-2.2702 1.4577-1.7615 3.4805-3.0542 5.7063-3.6467 2.2258-0.59247 4.6442-0.4819 6.8221 0.31187z" fill-rule="evenodd"/>
   <path d="m83.017 256.08c-0.48876 0.75349-0.84527 1.5647-1.0549 2.4002-0.1941 0.7736-0.26226 1.5636-0.38747 2.3464-0.1252 0.7828-0.31168 1.5697-0.72436 2.2838-0.41268 0.71406-1.0735 1.3555-1.9462 1.6838-0.43633 0.16419-0.91986 0.24659-1.3969 0.21999-0.47703-0.0267-0.94635-0.16441-1.3218-0.40664-0.53613-0.34586-0.85467-0.88663-0.9608-1.4424-0.10613-0.55573-0.0156-1.1273 0.15331-1.674 0.441-1.4271 1.4285-2.7387 2.7857-3.7001 1.3572-0.96137 3.0777-1.5679 4.8534-1.7111z" fill-rule="evenodd"/>
   <path d="m89.839 255.85c-0.36957 0.67448-0.61542 1.3894-0.72749 2.1152-0.10373 0.67208-0.09313 1.3498-0.1343 2.0251-0.04116 0.67535-0.13686 1.3583-0.44184 1.9941-0.30499 0.63583-0.83892 1.2262-1.5911 1.5639-0.37606 0.16883-0.80184 0.27111-1.2317 0.28006-0.42984 9e-3 -0.86286-0.0774-1.2213-0.25889-0.51176-0.25917-0.84624-0.69887-0.99175-1.1654-0.14552-0.46651-0.11625-0.95957-0.0145-1.4366 0.2657-1.2453 1.0315-2.4285 2.1604-3.3376 1.1288-0.9092 2.6154-1.5401 4.1935-1.7798z" fill-rule="evenodd"/>
   <path d="m95.459 255.67c-0.36211 0.54299-0.6226 1.1292-0.77079 1.7346-0.13718 0.56051-0.17813 1.1342-0.26268 1.7021-0.08454 0.56791-0.21574 1.1382-0.52039 1.6533-0.30466 0.51505-0.79952 0.97487-1.4602 1.2049-0.33036 0.115-0.69782 0.17013-1.0619 0.14601-0.36407-0.0239-0.72376-0.12895-1.0134-0.30882-0.41354-0.25678-0.66392-0.65314-0.75258-1.0582-0.08866-0.4051-0.02761-0.81977 0.09355-1.2155 0.31632-1.0332 1.0509-1.977 2.0721-2.6625 1.0213-0.6855 2.3245-1.1094 3.6762-1.1958z" fill-rule="evenodd"/>
   <path d="m100.79 255.17c-0.29971 0.45174-0.51492 0.93921-0.63682 1.4424-0.11285 0.46586-0.14573 0.94248-0.21483 1.4144-0.0691 0.4719-0.17695 0.94588-0.42899 1.3743-0.25205 0.42844-0.66219 0.81136-1.2106 1.0037-0.27418 0.0962-0.57932 0.14272-0.88175 0.12342-0.30244-0.0193-0.60144-0.10569-0.84237-0.2545-0.34402-0.21249-0.55279-0.54121-0.62723-0.87755-0.07445-0.33633-0.02456-0.68089 0.0753-1.0099 0.2607-0.85888 0.869-1.6443 1.716-2.2157 0.84697-0.57143 1.9286-0.92611 3.0513-1.0006z" fill-rule="evenodd"/>
   <path d="m105.4 254.8c-0.24312 0.3972-0.4126 0.82242-0.50148 1.2582-0.0822 0.40346-0.0955 0.81366-0.14006 1.2209-0.0446 0.40727-0.12225 0.81755-0.32518 1.1933-0.20295 0.37569-0.54303 0.71727-1.0078 0.89959-0.23236 0.0911-0.49297 0.14027-0.75307 0.13364-0.26024-7e-3 -0.51963-0.0719-0.73111-0.19207-0.302-0.17163-0.49152-0.44728-0.56597-0.73367-0.0745-0.28638-0.0424-0.58375 0.033-0.86931 0.19687-0.74548 0.69445-1.4388 1.4036-1.9559 0.70916-0.51711 1.6266-0.85549 2.588-0.95461z" fill-rule="evenodd"/>
   <path d="m76.42 255.6c-0.95184 0.926-1.7663 1.9897-2.41 3.1475-0.59593 1.072-1.0433 2.2179-1.5581 3.3307-0.51479 1.1128-1.1074 2.2076-1.9469 3.105-0.83945 0.89745-1.9531 1.5893-3.1853 1.7327-0.61614 0.0717-1.2532 4e-3 -1.8321-0.22403-0.57891-0.22753-1.0971-0.61716-1.4511-1.1247-0.50546-0.72477-0.65175-1.6532-0.52793-2.5201 0.1238-0.8669 0.49859-1.6798 0.95905-2.4248 1.2022-1.9449 3.0285-3.5029 5.1519-4.3952 2.1235-0.89229 4.5342-1.1146 6.8004-0.62718z" fill-rule="evenodd"/>
   <path d="m61.577 212.65c-1.1074-0.45996-2.3342-0.62893-3.5247-0.4855-1.5407 0.18563-2.9753 0.87647-4.3082 1.6712-1.3329 0.7947-2.6002 1.7045-3.9897 2.3955-1.3895 0.69107-2.9407 1.1608-4.4834 0.99293-0.77138-0.0839-1.5299-0.32995-2.1796-0.75416-0.64966-0.42424-1.1866-1.0306-1.4879-1.7457-0.2535-0.60187-0.33672-1.2704-0.26888-1.9199 0.06783-0.64955 0.28411-1.28 0.60248-1.8502 0.63675-1.1404 1.6636-2.0214 2.7812-2.6974 2.7699-1.6755 6.2242-2.1783 9.3567-1.362 3.1326 0.81632 5.9021 2.941 7.502 5.7552z" fill-rule="evenodd"/>
   <path d="m71.634 225.11c-3.2428-2.0861-5.4537-6.6044-8.1878-7.8748-1.1026-0.46888-2.3994-0.59524-3.6274-0.11688-0.61402 0.23911-1.2015 0.62788-1.6803 1.1456-0.47884 0.51776-0.84564 1.166-1.0159 1.8487-0.24309 0.97487-0.07441 1.9711 0.33254 2.7702 0.40692 0.79905 1.0363 1.4179 1.7252 1.9262 1.7984 1.3269 4.066 1.955 6.3968 1.7718 2.3308-0.18322 3.3233-0.33061 6.057-1.4708z" fill-rule="evenodd"/>
   <path d="m80.514 212.76c-0.61361-1.2531-1.0452-2.5951-1.2771-3.9709-0.21469-1.2739-0.25839-2.5694-0.37954-3.8555-0.12113-1.2861-0.32473-2.5815-0.83806-3.767-0.51334-1.1854-1.3661-2.2622-2.5239-2.8352-0.57888-0.28657-1.2264-0.44123-1.8719-0.41723-0.64548 0.024-1.2873 0.23031-1.8089 0.61127-0.74474 0.54398-1.2077 1.4159-1.3849 2.321-0.17722 0.90506-0.08996 1.8441 0.10461 2.7456 0.50801 2.3534 1.7607 4.5403 3.5337 6.1691s4.0581 2.6919 6.446 2.999z" fill-rule="evenodd"/>
   <path d="m90.953 228.88c-1.1167-0.83644-2.1119-1.8349-2.9446-2.9544-0.77099-1.0365-1.3996-2.1702-2.0929-3.2602-0.69327-1.09-1.4642-2.1508-2.4608-2.9726-0.99666-0.82185-2.2461-1.3925-3.5378-1.3757-0.64587 8e-3 -1.2929 0.16537-1.8567 0.48054-0.56381 0.31517-1.0414 0.79102-1.3324 1.3676-0.41551 0.82335-0.4309 1.8104-0.17671 2.697 0.25417 0.88653 0.75929 1.6829 1.3429 2.397 1.5235 1.8643 3.6343 3.2413 5.9544 3.8846 2.3201 0.64327 4.8386 0.54975 7.1046-0.26379z" fill-rule="evenodd"/>
   <path d="m106.45 230.75c-1.1167-0.83644-2.1119-1.8349-2.9446-2.9544-0.77099-1.0365-1.3996-2.1702-2.0929-3.2602-0.69326-1.09-1.4642-2.1508-2.4608-2.9726-0.99666-0.82185-2.2461-1.3925-3.5378-1.3757-0.64587 8e-3 -1.2929 0.16537-1.8567 0.48054-0.56381 0.31517-1.0414 0.79102-1.3324 1.3676-0.41551 0.82335-0.4309 1.8104-0.17671 2.697 0.25417 0.88653 0.75929 1.6829 1.3429 2.397 1.5235 1.8643 3.6343 3.2413 5.9544 3.8846 2.3201 0.64327 4.8386 0.54975 7.1046-0.26379z" fill-rule="evenodd"/>
   <path d="m121.82 229.55c-1.1167-0.83644-2.1119-1.8349-2.9446-2.9544-0.77099-1.0365-1.3996-2.1702-2.0929-3.2602-0.69326-1.09-1.4642-2.1508-2.4608-2.9726-0.99666-0.82185-2.2461-1.3925-3.5378-1.3757-0.64588 8e-3 -1.2929 0.16537-1.8567 0.48054-0.56381 0.31517-1.0414 0.79102-1.3324 1.3676-0.41551 0.82335-0.4309 1.8104-0.17671 2.697 0.25417 0.88653 0.75929 1.6829 1.3429 2.397 1.5236 1.8643 3.6343 3.2413 5.9544 3.8846s4.8386 0.54975 7.1046-0.26379z" fill-rule="evenodd"/>
   <path d="m138.66 229.68c-1.1167-0.83644-2.1119-1.8349-2.9446-2.9544-0.77099-1.0365-1.3996-2.1702-2.0929-3.2602-0.69326-1.09-1.4642-2.1508-2.4608-2.9726-0.99666-0.82185-2.2461-1.3925-3.5378-1.3757-0.64588 8e-3 -1.2929 0.16537-1.8567 0.48054-0.56381 0.31517-1.0414 0.79102-1.3324 1.3676-0.41551 0.82335-0.4309 1.8104-0.17671 2.697 0.25417 0.88653 0.75929 1.6829 1.3429 2.397 1.5236 1.8643 3.6343 3.2413 5.9544 3.8846s4.8386 0.54975 7.1046-0.26379z" fill-rule="evenodd"/>
   <path d="m89.928 235.63c-1.3608 0.30818-2.6767 0.81391-3.8936 1.4964-1.1267 0.63189-2.1631 1.4106-3.2407 2.123-1.0776 0.71245-2.2141 1.3665-3.4593 1.7104-1.2452 0.34384-2.6187 0.35523-3.7912-0.18699-0.58644-0.27076-1.113-0.67834-1.4992-1.1961-0.38622-0.51773-0.62817-1.147-0.65867-1.7922-0.04354-0.92123 0.34504-1.8287 0.93874-2.5345 0.59367-0.70575 1.3797-1.2268 2.2038-1.6408 2.1515-1.0807 4.6403-1.477 7.021-1.118 2.3807 0.35903 4.642 1.4717 6.3791 3.1388z" fill-rule="evenodd"/>
   <path d="m106.1 237.9c-1.3608 0.30818-2.6767 0.81391-3.8936 1.4964-1.1267 0.63189-2.1631 1.4106-3.2407 2.123-1.0776 0.71245-2.2141 1.3665-3.4593 1.7104-1.2452 0.34384-2.6187 0.35523-3.7912-0.18699-0.58644-0.27076-1.113-0.67834-1.4992-1.1961-0.38622-0.51773-0.62817-1.147-0.65867-1.7922-0.04354-0.92123 0.34504-1.8287 0.93874-2.5345 0.59367-0.70575 1.3797-1.2268 2.2038-1.6408 2.1515-1.0807 4.6403-1.477 7.021-1.118 2.3807 0.35903 4.642 1.4717 6.3791 3.1388z" fill-rule="evenodd"/>
   <path d="m121.74 236.5c-0.86759-0.0681-1.752 0.0914-2.5412 0.45827-1.0213 0.47481-1.8556 1.2743-2.5964 2.1226-0.74079 0.84833-1.4105 1.7612-2.2136 2.5507-0.80318 0.78952-1.7677 1.4627-2.87 1.6941-0.5511 0.11569-1.1298 0.11669-1.6736-0.0298-0.5437-0.14652-1.0507-0.44403-1.4194-0.86961-0.31034-0.35823-0.51822-0.80073-0.61759-1.2642-0.0994-0.46343-0.0921-0.9471-7.1e-4 -1.4122 0.18268-0.93017 0.6929-1.7691 1.3118-2.4871 1.534-1.7794 3.8042-2.9038 6.1493-3.0455 2.3451-0.14177 4.7342 0.70092 6.4714 2.2826z" fill-rule="evenodd"/>
   <path d="m137.25 236.36c-0.86759-0.0681-1.752 0.0914-2.5412 0.45827-1.0213 0.47481-1.8556 1.2743-2.5964 2.1226-0.74079 0.84833-1.4105 1.7612-2.2136 2.5507-0.80318 0.78952-1.7677 1.4627-2.87 1.6941-0.5511 0.11569-1.1298 0.11669-1.6736-0.0298-0.5437-0.14652-1.0507-0.44403-1.4194-0.86961-0.31034-0.35823-0.51822-0.80073-0.61759-1.2642-0.0994-0.46343-0.0921-0.9471-7.1e-4 -1.4122 0.18268-0.93017 0.6929-1.7691 1.3118-2.4871 1.534-1.7794 3.8042-2.9038 6.1493-3.0455 2.3451-0.14177 4.7342 0.70092 6.4714 2.2826z" fill-rule="evenodd"/>
  </g>
 </g>
</svg>
