<?xml version="1.0" encoding="UTF-8"?>
<svg viewBox="0 0 305.23615 286.79575" xmlns="http://www.w3.org/2000/svg" xmlns:xlink="http://www.w3.org/1999/xlink">
 <defs>
  <filter id="e">
   <feGaussianBlur stdDeviation=".3342"/>
  </filter>
  <linearGradient id="a">
   <stop stop-color="#fff" offset="0"/>
   <stop stop-color="#fff" stop-opacity="0" offset="1"/>
  </linearGradient>
  <linearGradient id="d" x1="353.35" x2="362.56" y1="426.73" y2="432.25" gradientUnits="userSpaceOnUse" xlink:href="#a"/>
  <linearGradient id="c" x1="369.14" x2="362.56" y1="426.04" y2="432.25" gradientUnits="userSpaceOnUse" xlink:href="#a"/>
  <radialGradient id="b" cx="362.21" cy="432.83" r="5.1323" gradientTransform="matrix(1.4042 3.3425e-6 -3.0984e-6 1.3017 -146.41 -130.57)" gradientUnits="userSpaceOnUse">
   <stop stop-color="#fff" offset="0"/>
   <stop stop-color="#e6e6e6" offset="1"/>
  </radialGradient>
 </defs>
 <g transform="matrix(24.519 0 0 24.519 -8728.5 -10470)">
  <path transform="matrix(.68761 0 0 .68761 109.96 122.32)" d="m362.97 444.02c-2.3659 0-4.2838 1.9179-4.2838 4.2827 0 4.8094 4.8499 6.0705 8.1567 10.823 3.1287-4.722 8.1567-6.1689 8.1567-10.823 0-2.3648-1.919-4.2827-4.2838-4.2827-1.7135 0-3.1888 1.0119-3.8729 2.4697-0.68409-1.4578-2.1583-2.4697-3.8729-2.4697z" filter="url(#e)"/>
  <path d="m359.54 427.63c-1.6268 0-2.9456 1.3188-2.9456 2.9448 0 3.307 3.3348 4.1742 5.6086 7.4421 2.1513-3.2469 5.6086-4.2418 5.6086-7.4421 0-1.6261-1.3195-2.9448-2.9456-2.9448-1.1782 0-2.1926 0.69582-2.663 1.6982-0.47039-1.0024-1.4841-1.6982-2.663-1.6982z"/>
  <path d="m359.54 427.63c-1.6268 0-2.9456 1.3188-2.9456 2.9448 0 3.307 3.3348 4.1742 5.6086 7.4421 2.1513-3.2469 5.6086-4.2418 5.6086-7.4421 0-1.6261-1.3195-2.9448-2.9456-2.9448-1.1782 0-2.1926 0.69582-2.663 1.6982-0.47039-1.0024-1.4841-1.6982-2.663-1.6982z" fill="url(#c)"/>
  <path d="m359.54 427.63c-1.6268 0-2.9456 1.3188-2.9456 2.9448 0 3.307 3.3348 4.1742 5.6086 7.4421 2.1513-3.2469 5.6086-4.2418 5.6086-7.4421 0-1.6261-1.3195-2.9448-2.9456-2.9448-1.1782 0-2.1926 0.69582-2.663 1.6982-0.47039-1.0024-1.4841-1.6982-2.663-1.6982z" fill="url(#d)"/>
  <path d="m359.77 428.07c-1.4887 0-2.6954 1.2068-2.6954 2.6947 0 3.0262 3.0516 3.8197 5.1323 6.8101 1.9686-2.9712 5.1323-3.8816 5.1323-6.8101 0-1.488-1.2074-2.6947-2.6954-2.6947-1.0782 0-2.0064 0.63672-2.4369 1.554-0.43044-0.91728-1.358-1.554-2.4369-1.554z" fill="url(#b)"/>
 </g>
</svg>
