<?xml version='1.0' encoding='utf-8'?>
<svg xmlns="http://www.w3.org/2000/svg" width="246.936mm" height="169.162mm" version="1.1" style="shape-rendering:geometricPrecision; text-rendering:geometricPrecision; image-rendering:optimizeQuality; fill-rule:evenodd; clip-rule:evenodd" viewBox="0 0 24424 16732"> <defs> <style type="text/css">  .fil8 {fill:#C40F0F} .fil4 {fill:#D67E7E} .fil7 {fill:#DE1616} .fil5 {fill:#E6E6E6} .fil3 {fill:#E88888} .fil2 {fill:#F5C1C1} .fil10 {fill:#F7EAEA} .fil9 {fill:#FF9999} .fil1 {fill:#FFF7F7} .fil6 {fill:#332C2B;fill-rule:nonzero} .fil0 {fill:url(#id0)}  </style> <linearGradient id="id0" gradientUnits="userSpaceOnUse" x1="12212.2" y1="0" x2="12212.2" y2="16731.9"> <stop offset="0" style="stop-opacity:1; stop-color:#FFF5F5"/> <stop offset="1" style="stop-opacity:1; stop-color:#EB9E9E"/> </linearGradient> </defs> <g id="Layer_x0020_1"> <metadata id="CorelCorpID_0Corel-Layer"/> <g id="_700605296"> <polygon class="fil0" points="0,0 24424,0 24424,16732 0,16732 "/> <path class="fil1" d="M4837 6783c260,0 471,155 471,346 0,192 -211,347 -471,347 -50,0 -99,-6 -145,-17 -48,157 -229,273 -444,273 -6,0 -13,0 -19,0 34,42 53,89 53,139 0,183 -260,332 -582,332 -126,0 -243,-23 -338,-62 -36,66 -116,111 -209,111 -14,0 -27,-1 -40,-3 -123,102 -345,169 -598,169 -386,0 -700,-158 -700,-353 0,-11 1,-21 3,-31 -47,6 -97,10 -148,10 -326,0 -589,-146 -589,-326 0,-13 1,-27 4,-40 -319,-25 -559,-131 -559,-258 0,-145 317,-263 707,-263 34,0 68,1 101,3 -12,-26 -18,-52 -18,-79 0,-149 186,-274 434,-305 -30,-61 -46,-126 -46,-194 0,-341 404,-617 901,-617 103,0 202,12 294,33 63,-345 302,-601 586,-601 333,0 603,350 603,783 0,24 0,48 -2,72 50,-24 104,-38 162,-38 226,0 409,205 409,458 0,50 -8,98 -21,144 61,-21 129,-33 201,-33z"/> <path class="fil2" d="M2203 6030c-270,92 -462,274 -494,489 -3,20 -5,41 -5,63 0,68 16,133 46,194 -248,31 -434,156 -434,305 0,27 6,53 18,79 -33,-2 -67,-3 -101,-3 -390,0 -707,118 -707,263 0,127 240,233 559,258 -3,13 -4,27 -4,40 0,180 263,326 589,326 51,0 101,-4 148,-10 -2,10 -3,20 -3,31 0,195 314,353 700,353 253,0 475,-67 598,-169 13,2 26,3 40,3 93,0 173,-45 209,-111 95,39 212,62 338,62 322,0 582,-149 582,-332 0,-50 -19,-97 -53,-139l19 0c2,0 4,0 6,0 -71,-8 -137,-26 -195,-51 -104,109 -284,181 -489,181 -190,0 -359,-63 -465,-159 -71,51 -173,83 -287,83 -137,0 -257,-47 -325,-117 -60,34 -147,54 -243,54 -182,0 -329,-74 -329,-166 0,-79 110,-146 257,-162 -176,-31 -306,-136 -306,-254 0,-117 120,-212 283,-248 -227,-287 -359,-630 48,-863z"/> <path class="fil3" d="M5067 7057c-176,-66 -441,-217 -662,-389 -221,-171 -398,-365 -540,-577 -142,-212 -249,-443 -306,-694 -56,-251 -63,-522 -35,-772 27,-249 89,-477 178,-669 90,-192 208,-349 342,-472 133,-124 282,-214 453,-280 171,-66 365,-106 558,-104 193,3 385,49 551,134 166,85 305,207 440,360 135,152 265,333 363,529 97,197 162,408 199,612 38,204 48,399 15,616 -34,217 -111,455 -238,692 -127,237 -304,471 -474,645 -169,174 -330,286 -455,352 -125,65 -213,83 -389,17z"/> <path class="fil4" d="M6397 4100c-56,148 -99,404 -170,659 -119,433 -317,866 -577,1170 -261,304 -584,480 -868,543 -218,48 -413,29 -645,-44 82,84 171,164 268,240 221,172 486,323 662,389 62,23 113,36 158,40 -22,42 -41,97 -26,125 16,32 75,31 124,35 49,3 88,11 96,-1 7,-12 -17,-44 -40,-91 -12,-25 -24,-54 -36,-78 37,-10 73,-26 113,-47 125,-66 286,-178 455,-352 170,-174 347,-408 474,-645 127,-237 204,-475 238,-692 33,-217 23,-412 -15,-616 -37,-204 -102,-415 -199,-612 -4,-8 -8,-15 -12,-23z"/> <path class="fil5" d="M4659 3690c-31,136 -137,314 -202,508 -64,195 -87,405 -142,405 -56,0 -145,-211 -166,-410 -21,-199 27,-386 114,-521 87,-136 212,-220 297,-215 85,4 130,97 99,233z"/> <path class="fil5" d="M4044 5075c0,102 22,226 62,280 40,54 97,39 121,-11 23,-50 13,-134 -16,-228 -30,-95 -77,-200 -111,-212 -35,-12 -56,68 -56,171z"/> <path class="fil6" d="M5358 7073c14,-3 28,6 32,20 3,15 -6,29 -20,32 -8,2 -15,4 -24,5 -9,2 -19,3 -31,4 -18,1 -41,1 -60,1l-4 0c0,6 1,15 3,28 3,16 6,37 12,69 14,82 42,234 90,556 34,222 78,529 127,874 48,339 99,714 148,1077 48,358 94,708 139,1053 44,342 87,678 130,1013 1,15 -9,28 -24,30 -14,2 -27,-8 -29,-23 -43,-335 -86,-671 -130,-1013 -44,-339 -89,-687 -139,-1053 -48,-360 -100,-735 -148,-1077 -48,-338 -92,-645 -126,-873 -49,-322 -76,-473 -91,-555 -5,-32 -9,-53 -12,-70 -5,-35 -4,-54 1,-66 10,-24 24,-24 44,-24l10 0c17,1 39,1 56,0 9,-1 17,-2 25,-3 7,-1 14,-3 21,-5z"/> <path class="fil7" d="M5337 5958c-169,-83 -418,-258 -622,-450 -203,-192 -361,-401 -483,-626 -121,-224 -205,-464 -238,-720 -32,-255 -13,-526 38,-771 52,-246 134,-467 242,-649 108,-183 240,-328 385,-438 145,-110 301,-186 478,-235 176,-49 373,-72 565,-51 191,22 379,86 536,186 157,100 284,236 404,400 119,164 232,357 310,562 79,204 123,421 140,628 18,206 10,402 -44,614 -54,213 -153,443 -302,666 -149,224 -348,441 -533,597 -185,157 -357,254 -487,307 -130,53 -220,63 -389,-20z"/> <path class="fil8" d="M6943 3142c-70,142 -137,392 -232,639 -160,420 -398,832 -686,1110 -289,278 -628,422 -916,457 -222,27 -414,-10 -638,-104 73,91 154,179 244,264 204,192 453,367 622,450 59,29 109,47 154,55 -27,40 -51,92 -39,122 14,33 72,38 121,47 48,8 87,19 95,8 9,-11 -12,-46 -31,-95 -9,-25 -18,-55 -28,-81 38,-6 75,-19 117,-36 130,-53 302,-150 487,-307 185,-156 384,-373 533,-597 149,-223 248,-453 302,-666 54,-212 62,-408 44,-614 -17,-207 -61,-424 -140,-628 -3,-8 -6,-16 -9,-24z"/> <path class="fil5" d="M5251 2568c-43,132 -166,299 -248,486 -83,188 -126,395 -181,390 -56,-5 -124,-224 -126,-424 -2,-200 64,-382 163,-508 99,-127 233,-199 317,-186 84,13 119,110 75,242z"/> <path class="fil5" d="M4508 3887c-10,102 0,228 34,286 35,57 94,47 122,0 28,-48 25,-132 5,-229 -20,-97 -57,-205 -90,-221 -33,-15 -62,63 -71,164z"/> <path class="fil6" d="M5625 6002c14,-2 28,9 30,23 2,15 -9,28 -23,30 -8,1 -16,2 -24,3 -9,1 -19,1 -31,1 -19,-1 -41,-4 -59,-5l-6 -1c0,6 0,15 1,29 1,15 3,37 5,69 7,82 19,235 37,563 13,226 28,536 43,882 15,342 31,720 45,1086 28,727 49,1403 70,2078l0 4c1,15 -11,27 -25,28 -15,0 -27,-11 -28,-26l0 -5c-21,-674 -42,-1348 -70,-2078 -14,-363 -30,-741 -45,-1085 -16,-344 -31,-654 -43,-881 -18,-324 -30,-478 -37,-562 -2,-31 -4,-52 -5,-70 -2,-36 1,-55 7,-66 12,-23 26,-22 46,-20l11 2c17,1 39,4 55,4 9,1 17,0 25,0 8,-1 14,-2 21,-3z"/> <path class="fil9" d="M6568 6438c179,-59 450,-197 679,-359 228,-162 413,-347 565,-553 151,-205 268,-432 336,-680 67,-248 86,-519 69,-769 -16,-251 -68,-481 -149,-677 -81,-196 -192,-357 -320,-487 -128,-129 -273,-226 -441,-299 -168,-73 -359,-122 -552,-128 -193,-6 -388,32 -557,109 -170,77 -314,194 -456,340 -141,146 -279,321 -385,513 -106,192 -180,401 -226,603 -47,201 -66,396 -42,615 24,218 91,459 207,701 117,242 284,484 445,665 162,181 318,301 439,372 122,70 209,92 388,34z"/> <path class="fil3" d="M5369 3426c50,150 82,407 141,666 101,437 279,878 526,1194 247,315 562,505 843,580 216,57 411,47 646,-15 -85,80 -178,156 -278,228 -229,162 -500,300 -679,359 -62,20 -114,31 -160,33 21,43 38,98 22,126 -18,31 -77,28 -126,30 -49,1 -89,7 -96,-5 -7,-13 19,-44 44,-90 13,-24 26,-52 39,-76 -36,-12 -72,-30 -111,-52 -121,-71 -277,-191 -439,-372 -161,-181 -328,-423 -445,-665 -116,-242 -183,-483 -207,-701 -24,-219 -5,-414 42,-615 46,-202 120,-411 226,-603 4,-7 8,-15 12,-22z"/> <path class="fil5" d="M7124 3092c25,137 123,320 179,517 56,197 69,408 125,411 56,2 154,-205 183,-403 30,-198 -10,-386 -90,-526 -81,-139 -203,-228 -288,-228 -85,1 -134,92 -109,229z"/> <path class="fil5" d="M7677 4502c-4,103 -32,226 -74,278 -42,53 -99,34 -120,-17 -21,-51 -7,-134 26,-227 34,-93 86,-195 120,-206 35,-11 53,70 48,172z"/> <path class="fil6" d="M6262 6493c-14,-4 -22,-19 -17,-33 4,-14 19,-22 33,-18 13,3 26,7 44,9 17,2 39,3 56,3l11 0c19,1 33,2 42,26 5,12 5,31 -2,66 -3,15 -8,37 -15,69 -18,80 -51,229 -114,551 -45,227 -103,531 -165,866 -63,340 -132,713 -196,1070 -127,709 -242,1378 -358,2048l-1 4c-2,15 -16,25 -30,22 -15,-2 -25,-16 -22,-31l1 -4c113,-661 227,-1322 358,-2049 65,-361 133,-733 195,-1069 64,-343 122,-648 165,-867 63,-318 97,-470 115,-552 7,-30 11,-50 15,-68 2,-13 4,-23 5,-29l-6 0c-18,0 -41,-1 -59,-3 -24,-2 -39,-7 -54,-11l-1 0z"/> <path class="fil7" d="M4704 5488c141,-125 333,-361 478,-601 144,-240 239,-484 295,-733 56,-249 73,-503 35,-757 -38,-255 -129,-510 -245,-733 -116,-223 -255,-413 -408,-560 -153,-147 -320,-250 -489,-317 -169,-67 -340,-98 -523,-98 -184,1 -379,33 -558,105 -179,72 -342,184 -466,323 -124,139 -210,304 -281,494 -71,191 -127,407 -147,625 -20,218 -4,439 35,643 38,203 99,389 208,580 110,190 267,384 471,559 204,175 454,330 675,431 220,101 411,148 551,164 140,16 229,1 369,-125z"/> <path class="fil8" d="M2397 3210c106,118 239,341 397,554 267,360 607,693 960,883 353,189 718,237 1005,193 221,-34 396,-122 586,-273 -46,108 -100,214 -163,320 -145,240 -337,476 -478,601 -49,44 -92,75 -133,95 36,31 74,75 70,107 -4,36 -59,56 -103,77 -45,21 -79,43 -90,34 -11,-8 0,-47 4,-99 3,-28 3,-59 5,-86 -37,4 -77,2 -122,-3 -140,-16 -331,-63 -551,-164 -221,-101 -471,-256 -675,-431 -204,-175 -361,-369 -471,-559 -109,-191 -170,-377 -208,-580 -39,-204 -55,-425 -35,-643 1,-9 1,-17 2,-26z"/> <path class="fil5" d="M3871 2201c78,115 241,243 371,401 130,158 227,347 279,327 52,-21 59,-250 7,-443 -53,-193 -165,-350 -294,-445 -130,-95 -278,-128 -355,-93 -78,34 -86,137 -8,253z"/> <path class="fil5" d="M4943 3271c37,95 62,219 44,284 -17,65 -77,71 -117,33 -40,-39 -60,-121 -67,-219 -7,-99 0,-213 27,-237 28,-24 77,43 113,139z"/> <path class="fil6" d="M4447 5661c-15,2 -28,-8 -30,-22 -2,-15 8,-28 22,-30 7,-1 14,-2 21,-4 7,-1 15,-3 24,-6 16,-5 37,-13 53,-20l9 -3c18,-8 32,-12 49,6 10,9 17,27 25,61 4,19 8,39 14,70 16,82 46,234 116,551 49,217 118,519 197,860 80,343 167,712 250,1057 84,352 168,695 250,1032 80,323 162,657 245,992 3,14 -5,29 -20,32 -14,4 -28,-5 -32,-19 -80,-323 -159,-645 -244,-992 -82,-333 -165,-674 -251,-1033 -87,-363 -174,-731 -250,-1057 -77,-332 -146,-635 -197,-861 -71,-322 -100,-472 -116,-552 -6,-32 -11,-54 -14,-68 -3,-13 -5,-22 -7,-28l-4 2c-17,7 -38,15 -57,21 -11,4 -20,6 -29,8 -9,1 -16,2 -24,3z"/> <path class="fil7" d="M5522 10221l148 103 103 -147c1261,-1805 3989,103 2728,1907 -670,958 -1339,1918 -2009,2876 -1,1 -2,1 -3,1 -958,-670 -1915,-1342 -2874,-2012 -1804,-1262 103,-3989 1907,-2728z"/> <path class="fil8" d="M6651 13108c-1873,0 -3390,-1060 -3390,-2368 0,-59 3,-117 9,-175 -528,682 -590,1730 345,2384 959,670 1916,1342 2874,2012 1,0 2,0 3,-1 470,-672 940,-1345 1409,-2018 -387,107 -808,166 -1250,166z"/> <path class="fil1" d="M11974 5713c295,0 534,175 534,392 0,216 -239,392 -534,392 -57,0 -111,-7 -163,-19 -55,177 -259,309 -503,309 -7,0 -14,-1 -21,-1 39,48 60,101 60,157 0,208 -295,377 -658,377 -143,0 -276,-26 -384,-71 -40,74 -131,126 -236,126 -15,0 -30,-2 -45,-4 -139,115 -390,192 -676,192 -437,0 -792,-179 -792,-400 0,-12 1,-24 3,-35 -53,7 -110,11 -167,11 -369,0 -667,-165 -667,-368 0,-16 2,-31 5,-46 -361,-28 -632,-148 -632,-291 0,-165 358,-298 800,-298 38,0 77,1 114,3 -13,-29 -20,-59 -20,-89 0,-169 210,-310 491,-345 -34,-69 -52,-143 -52,-220 0,-385 456,-698 1019,-698 116,0 228,14 332,38 71,-390 341,-680 664,-680 376,0 682,396 682,885 0,28 -1,55 -3,82 56,-27 118,-42 183,-42 255,0 463,231 463,517 0,57 -9,112 -24,163 69,-24 146,-37 227,-37z"/> <path class="fil2" d="M8995 4861c-305,104 -523,310 -559,553 -3,23 -5,47 -5,71 0,77 18,151 52,220 -281,35 -491,176 -491,345 0,30 7,60 20,89 -37,-2 -76,-3 -114,-3 -442,0 -800,133 -800,298 0,143 271,263 632,291 -3,15 -5,30 -5,46 0,203 298,368 667,368 57,0 114,-4 167,-11 -2,11 -3,23 -3,35 0,221 355,400 792,400 286,0 537,-77 676,-192 15,2 30,4 45,4 105,0 196,-52 236,-126 108,45 241,71 384,71 363,0 658,-169 658,-377 0,-56 -21,-109 -60,-157l21 1c2,0 5,0 7,0 -80,-10 -155,-30 -221,-59 -118,124 -321,206 -552,206 -216,0 -407,-71 -527,-181 -80,58 -195,94 -324,94 -155,0 -291,-52 -368,-131 -68,37 -166,61 -275,61 -206,0 -372,-85 -372,-188 0,-90 124,-165 290,-184 -199,-35 -345,-154 -345,-287 0,-133 136,-240 319,-281 -256,-324 -405,-712 55,-976z"/> <path class="fil1" d="M12048 16732c318,-233 745,-376 1215,-376 460,0 880,137 1195,362 452,-712 1638,-1219 3029,-1219 779,0 1493,159 2051,424 261,-561 880,-955 1601,-955 7,0 14,1 21,1 12,-1641 1467,-2969 3264,-2979l0 4742 -12376 0z"/> <path class="fil10" d="M23955 10398c164,0 321,25 469,72l0 1520c-1797,10 -3252,1338 -3264,2979 -7,0 -14,-1 -21,-1 -721,0 -1340,394 -1601,955 -558,-265 -1272,-424 -2051,-424 -562,0 -1090,83 -1550,228 -1,-15 -1,-29 -1,-44 0,-519 420,-939 939,-939 288,0 546,130 718,335 47,-497 466,-886 975,-886 126,0 246,24 356,67 185,-389 547,-676 982,-758 -21,-106 -32,-216 -32,-329 0,-936 758,-1694 1694,-1694 312,0 604,85 855,232 114,-744 757,-1313 1532,-1313z"/> <path class="fil10" d="M4902 16487c163,-13 330,-20 499,-20 170,0 337,7 499,20l-998 0zm1954 245l-6856 0 0 -3469 0 -1206c128,183 216,394 252,621 262,-147 567,-231 892,-231 976,0 1767,758 1767,1693 0,113 -12,223 -34,330 454,82 832,369 1024,758 116,-44 241,-67 372,-67 531,0 968,389 1017,886 180,-205 449,-335 750,-335 541,0 979,420 979,938 0,15 0,30 -1,45 -53,-16 -107,-32 -162,-46l0 83z"/> <path class="fil1" d="M8414 16732c-319,-369 -859,-612 -1472,-612 -460,0 -880,137 -1195,361 -452,-711 -1637,-1218 -3029,-1218 -779,0 -1493,159 -2051,424 -136,-294 -371,-541 -667,-711l0 1756 8414 0z"/> </g> </g> </svg>