<?xml version="1.0" encoding="UTF-8"?>
<svg viewBox="0 0 1030 970" xmlns="http://www.w3.org/2000/svg">
 <g fill-rule="evenodd">
  <path d="m150 329h1l1 2q1 1 14 5 14 4 17 4h3l9 5q9 5 9 6 1 1 3 1 2 1 2 2 1 1 1 1v1h1v1h1v1h1l1 1 4 5q3 6 3 6h1v1l9 11q9 10 10 10 0 0 0 1h1v1h1v1h1v1h1v1h1v2l1 3q1 3 1 12 0 10-1 17v8l-1 1v11l-1 9q-1 10-3 14-2 3-2 4l-9 11q-9 11-10 11-1 1-1 2t-1 1l-1 1-1 1v1h-3l-1 1-1 1h1v1l-4 1q-3 1-15 6-11 6-12 6h-8q-6 0-12-3l-6-2v-1h-2v-1h-1v-1h-1v-1h-1v-1h1v-1h1v-1h2v-1h1v-1h2q3 0 4-1h2v1h6q5 0 8 0 4 0 8-2t6-3q1-2 2-2 1-1 4-5 4-4 5-4t1-1 2-3 2-3v-1q0-1 4-6 4-4 10-14l5-10h2v-2l1-1v-1l1-2 1-1v-1t4-6q2-7 3-12t-1-8q0-2-8-10t-13-16l-4-9v-2l-1-2v-3h-1v-1h-1v-1t-4-4q-2-4-13-11-10-7-17-9-7 0-12 2l-5 2h-3l-2-1h-1l-5-2q-4-3-8-2-5 1-10 4-6 3-11 10-5 6-6 7l-1 1v1h-1v1h-1v2l-1 1v1q-1 0-1 1l-3 6q-3 5-4 5v1h-1v2l-1 1-1 1v2h-2v-1l-1-5q0-5-1-5h-2v-1q0-1 2-4 2-4 12-18t19-22 16-10q7-4 9-3z" fill="#ad0203" stroke="#ad0203"/>
  <path d="m269 75h-1v1h1v1h-3l-3 1h-3v2h2l2 1 1 1q-1 1-1 2l-1 2h-1t-2-2l-2-2-1-1q-1-1-1-2-1-1-6-5t-8-6q-3 0-6 1-2 1-5 5-3 3-4 3-1 1-5 7l-4 6v3l-1 2-1 2v-1h-1v-1l1-1v-4l2-5q2-5 3-5v-1h1q1 0 1-1v-1q1 0 0-1-1-2 0-4l1-1 5-5q5-6 10-5t10 3 7 4q1 2 7 4t6 3z" fill="#1b0101" stroke="#1b0101"/>
  <path d="m466 116v13h-2v-2h-1v-1h-1v-1q0-1-3-3l-3-2h-6l1 1 1 1v1h1v1h1v1l1 1q1 1 1 3t1 9q1 6-1 8 0 3-4 7t-13 10l-9 7h-2l-1 1h-1v-3q0-3-2-6l-2-3v-2h-1v-1h-2v2l-1 1v2l-1 1q-1 1-4 4l-3 4-1 1-1 1v1h-1v1h-1v2h-1v-7h1v-3q0-3 3-14 3-12 2-18l-1-6v-2q0-2-1-2v-1h1l6-2q7-3 10-7 4-5 4-9v-5t-2-4l-2-3h-1v-1h-1l-1-1-1-1h-8l-1 1-1 1h-1v1h-1v2l-1 1-1 1v5l1-2 1-2v-1h1v-1h1q2-2 6-2h3l1 1h1v1l1 1v1h1v1h1v9l-1 1-1 1v1t-1 1l-1 2h-1q-1 0-8 1t-10-3l-3-4v-1h-1v-1h-1v-2t-1 0q-1-1-1-1v-1h-1v-1h-1v-1q0-1-3-4l-2-2 1-6q1-6 6-12 6-6 12-9 7-3 16-2 10 1 18 5t8 6q1 1 4 4 4 3 7 12 3 8 5 13 0 5 0 11z" fill="#fafafa" stroke="#fafafa"/>
  <path d="m756 45h3l4 1q3 2 9 6t9 10 4 8 1 6v5-1l1-2 1-1v-3q0-3 1-6l1-2v-1h1v-1h1v1h1v1h1v3l1 1 1 2v2q0 3 1 8v7q-1 2-4 9-4 8-5 8t-4 3q-2 3-6 4-3 2-4 4 0 2-4 5l-4 4v1h-1v-1q-1 0-1-1l-1-1v-1q-1-1-3-3-3-2-15-5t-17-6l-6-3-1-1-3-5q-2-5-2-8t6-7 7-5l1-1v-1h1v-1h1v-1h1v-1h1v-1h2v2h1l-1 1v1l-1 1-1 1v2q-2 2-1 7t4 9q4 4 9 4 4 0 4-2 1-1 6-3t5-3 1-1h4q2-1 7-3 5-3 5-4 2-2 1-7t-1-7v-2q0-1-1-1v-2q-1-1-1-1 0-1-3-3l-2-2v-1q-1 0-5-2t-10-3-8 1q-2 0-4 3-2 2-4 3-2 0-3 2l-1 2v1h-1v1h-1v2t-2 2l-2 3-1 1-1 1v1h-1v1h-1v2h-1v1h-1v-4l1-2 1-1v-2l5-8q4-7 7-9 2-2 4-4 3-2 4-3l2-1q2-2 4-2h2t2-1z" fill="#b50001" stroke="#b50001"/>
  <path d="m594 572l5 2q5 2 11 8t10 14q5 8 5 8h1v1h1v1h1v1h1v1h1v2h1l-3 1q-3 1-3 3t1 3q2 0 3 3 1 4 1 5v5l1 1 1 1v2h1l-2 10q-2 10-5 15t-4 6q0 1-1 1h-1v2h-6v1h-1v1h-1v-2l1-2 1-1v-1q0-2 0-16t-4-24q-4-9-5-9-1-1-3-5l-2-4-1-1-1-1v-1h-1v-1h-1q0-1-1-1v-1q0-2-2-2h-2v-4q1-3 1-5v-2h2q1 0 1-1 1-2-1-7l-2-5 1-1q1-1 1-1z" fill="#420001" stroke="#420001"/>
  <path d="m599 418v1l-1 1q0 1-1 2v1h-1q0 1 0 1 0 1-1 1h-1q0 1 0 1h-3l1-5q0-5 2-5 3-2 4-1 0 1 1 3z" fill="#be1e24" stroke="#be1e24"/>
  <path d="m230 0h6l11 6q11 6 11 6v2q1 2 0 2 0 1 0 2v1h-1q-1-1-11-1-11 0-16 1t-17 7l-12 6h-3v-3l-1-1v-1h-1l-1-1h-1l1-1 1-1h1v-1h1l10-8q10-7 16-11t6-4z" fill="#120909" stroke="#120909"/>
  <path d="m972 76h1v1l1 1v2l2 4q2 3 3 4v1q0 1-1 1t-8-7l-6-6 4-1q4 0 4 0z" fill="#e30304" stroke="#e30304"/>
  <path d="m563 414h1l1-1h1l-1 5q-1 6-1 8v5h1v1h1v1h1v1h2l1 1h1v1q-1 0-1 2v1l1 3v4l-1 1v1h-1v1h-1v1h-1q-1 0-3 1h-1v-1q-1-1-3-2-2-2-5-5t-5-7l-1-5q1 0 2-3l1-4 1-1 1-1t1-2l1-2h2v-1h1v-1h1l1-1 1-1h1z" fill="#9d0707" stroke="#9d0707"/>
  <path d="m252 148l-1-3 5 4q4 3 4 4h1q0 1 1 1 0 0 0 1h1v4h1l1 1h1v2h1v1h1v1h1q1 0 3 2 1 2 11 3t13 0l4-1h2l1-1 1-1h3l-1 1v1h-2l-1 1-1 1h-2v1h-1v1h-1q-1 0-4 2-4 2-8 3-5 1-8-1-2 0-7-5t-6-7q-2-1-3-3 0-2-1-2t-1-1-4-4q-4-4-4-6z" fill="#240102" stroke="#240102"/>
  <path d="m457 652v-8h2q2 0 2 1t1 1h1l1 8q2 7 4 12 2 4 3 5v1h-5v-1h-1v-1h-1v-1h-1v-1h-1v-1l-1-1q-1-1-2-4t-2-10z" fill="#190e0f" stroke="#190e0f"/>
  <path d="m588 213v-1h2v1h-1v3l-1 2 2 12q0 12 2 16 0 4 0 13t-2 12q-1 3-1 4h-1v1h-1v1h-1v2h-1l-1 1h-1v1h-1v1-4l1-2q1-3 1-26l2-24v-7l1-3 1-2v-1z" fill="#2f2c2d" stroke="#2f2c2d"/>
  <path d="m374 540h2v1h1v1h1v9h-1v1h-7v-4l2-1q1 0 1 1t1 1l1-1h1v-3h-1v-1h-2v-1h-1v-1h2v1-3z" fill="#383536" stroke="#383536"/>
  <path d="m193 391v-1h2v1h1v1h1v1h1v1l6 8q6 8 6 11 2 3 2 4v13q0 11-4 18-2 6-3 7v1l-1 2q-1 1-2 1t-2 2q0 2-1 3-1 0-2 0v1h-1v1h-1v1h-1v1h-1l-1 1h-2v-2l-1-5q-1-5-1-6v-6q0-4 2-8t3-15l1-11v-8l-1-4q-1-3-1-8v-5h1z" fill="#f00000" stroke="#f00000"/>
  <path d="m613 704h1v2t-2 2q-2 1-5 6t-8 7q-4 3-21 3-16 0-20-1-5-1-9-4l-4-3h-1v-2h-1v-2h2v1h1v1h3l1 1 1 1h1q2 2 14 2t21-4 17-7 9-3z" fill="#150001" stroke="#150001"/>
  <path d="m626 424h1l-1 6q-1 6-2 6h-1v-1q0-1 1-1v-1q0-1-5 5l-5 7v2h-1v1h-1v1h-1v1h-2v-1l1-1v-1l1-1 1-1v-1h1v-1h1l5-13q6-13 7-13t0 4q-2 4-1 4 1-1 1-1z" fill="#461919" stroke="#461919"/>
  <path d="m425 914h6-1v1l-1 1-1 1v1q-2 1-2 2v2h-1v1h-1v2h-1v1h4v-1h1v-1h2l6-3q6-3 8-3h6l1 2 1 1v3l-1 2-1 1v1h-1l-1 1-1 1q-1 0-13 3l-13 3h-1v1h-1v1h-1v1h-1v1h-1v2h-1v-1l-1-1v1h-1v1h-1l-1 1h-1v-2h1v-1h1v-1h1v-1h1v-2q0-1 2-6 2-6 3-9l2-3v-1h1v-2h1l1-1h1z" fill="#620405" stroke="#620405"/>
  <path d="m237 172v-1l3 1q4 0 10 1 7 1 12 4t8 5q4 2 3 2h-2q-2 0-3-1l-1-1h-2l-1-1q-2-1-4-1-1 0-12-3l-11-3q-1-1 0-2z" fill="#350102" stroke="#350102"/>
  <path d="m632 401h1q0 1 1 1v5q1 5-1 8t-3 3-2 2q0 1-1 2v2h-1t-1 1q-1 0 0-3t0-3-6 12l-5 12h-1v1h-1v1l-1 1-1 1v1l-1 1v1h-1t0 1h-12q-13 1-20 0l-7-1h-1v-1h1v-1h1v-1l1-1v-2h1l7-6q7-5 6-5 0-1 0-1t1-1h1l2-1q2-2 2-1 1 0 1-1h1q1-1 1-2 0 0 1 0v-1q1 0 1-1 0 0 1 0v-1q1 0 1-2l1-2 3-4q2-5 3-5 1-1 2-2 1 0 1 0v-1h1q1 0 3 2 1 3 9 2t8-7q0-5 1-4 2 0 2 1z" fill="#b80203" stroke="#b80203"/>
  <path d="m221 177v-3h16l11 3q11 3 12 3 2 0 4 1l1 1h2l1 1q1 1 3 1h2l5 1q5 1 8 2h4l2 1 11-1q11-1 14-1h3l2 1 1 1h1v3h-1v1h-1l-1 1-1 1h-1v1h-1q0 1-3 2-3 2-13 7-10 4-22 6l-12 2q-1 0-4-1-2-1-9-3l-7-3h-2v-3h-1l-1-1-2-1h-1t-5-4-10-10q-4-6-5-9z" fill="#f10000" stroke="#f10000"/>
  <path d="m752 66h6l4 6q4 7 4 8v2l1 4v3h-1v1t-1 0v1h-1q0 1 0 1-1 0-1 1h-1q0 1 0 1-1 0-6 3-5 2-6 3 0 2-4 2-5 0-9-4-3-4-4-9t1-7v-2l1-1 1-1v-1l1-1h1v-1h1v-1h1v-1l5-3q4-4 7-4z" fill="#c20102" stroke="#c20102"/>
  <path d="m318 602h-4v-1l-1-1v-1h1l1-1h4q4 0 11-3 8-3 10-7 4-3 4-11t-1-11-6-5l-4-3h-5l-1 1-1 1h-2v1h-1v1h-1v1l-1 1-1 1v5q0 4 1 4 1 1 1 1v1h1l3 1h2v2h-2l-2-1h-3v-1h-1v-2h-1v-1q-1 0-1-4v-5l3-4q3-3 9-5 5 0 10 2 4 3 6 6 2 4 2 14 0 9-4 14-4 4-13 7-8 3-13 3z" fill="#353232" stroke="#353232"/>
  <path d="m970 50h3v4h-3q-1 0-1 1h-1q-1 1-2 2-2 1-4 7l-4 6v2h-1v-1q-1-1-1-3v-1l-1-1-1-2v-6h1l1-1q1-1 2-2h2l1-1h1v-1h1v-1h1q2-2 6-2z" fill="#cd0b0c" stroke="#cd0b0c"/>
  <path d="m901 218v-1l5 4q5 5 8 9 4 5 4 12 2 8 0 14-2 7-4 10-2 4-2 4v-1h-1l1-3q2-2 2-3v-1l1-3q1-3 1-11 0-7-3-14-3-6-5-8l-2-2v-1q0-1-3-3l-2-2z" fill="#3e3b3c" stroke="#3e3b3c"/>
  <path d="m151 223l1-1v-2l4-6q4-7 6-10 2-2 2 2 2 4-1 8t-4 4-5 4q-3 4-4 4-2 1-2 0t1-2q1 0 2-1z" fill="#e1e0e0" stroke="#e1e0e0"/>
  <path d="m500 192h1l1 1 1 1h2v1l-1 1v2h-1v1h-1q0 1-3 5t-13 12q-10 7-20 12-10 4-25 5t-21-1l-7-2-2-1-2-1h-1l-1-1h-1v3h1v1h1v1h1v1h1v1h2l3 2q3 2 13 2 11 2 16 4 5 4 10 4 6 0 8 2t4 2h1t1 1l1 8q1 8-1 15-2 8-2 13t1 5v1h-1q0 1-2-2-2-2-2-13-2-11-3-14t-2-3q-1-1-5-1-5 0-5 3l-1 3 3 8q3 8 3 9l1 1 1 2v1l1 1 1 1v2h-1v-1h-2v-1h-1v-1h-1t-2-2l-3-1v-1h-1l-1-1-1-1h-1v3l1 1 1 1v1h1v1h1v2h1v1l10 4q10 6 11 6 0 1 1 2v1h-1q-1-1-2-1 0-1-3-2-3-2-9-2h-7q-1 0-5-2-5-2-7-6-3-4-3-12t-4-11-7-12l-3-8v-1h-1l-1-1-1-1h-1v-1l-1 3-1 2-4 18q-4 18-4 22-2 5 2 28 2 23 2 42 0 18 1 20t7 6q5 4 7 4h2l1 1 1 1h4l-1 1-2 1h-5q-5 0-9-2l-4-2h-2l-2 30q-2 30 14 41 15 11 33 20t28 12 13-3q4-6 10-10 5-4 11-4 6-2 9-1 4 1 6 1h2v1h1v1h2l1 1 1 1h2v1h1v1h-1v1h-1v2h-1v1h-3q-2 0-6 1l-4 1h-6v2h6l4-1h5v1l-1 1-1 1q-1 2-2 3l-1 1v2h1l3-1 3-1h1t3-4l3-4v-2h1v-1h1l1 3q1 4 4 2 3 0 5-2 1 0 2-1h1v-1q1-1 1-10v-9h-1v-1h-1v-3h2v1h1v1h-1v1h1v1h1v-1h1v-1h1v1h1l1 3q2 2 3 3 1 0 7 12t10 16q3 4 4 4h1v1h1v1h2v1h1v1h5t1 0v-1l6 4q6 3 7 4l1 1v1l1 1v1h1v1h1v4h-4q-5 0-16 2-11 0-34-1-22-1-24 0-1 1-9 5t-30 6l-22 2v-1h1v-2l1-1q1-2 1-5 2-3 3-11 1-7-15-14l-17-6-1-1-1-1h-3v-1 2l-1 11q-1 12-1 14v1l-1 1-1 1v4h-1v1h-1v-6q0-4-2-14-2-9-5-16-4-6-7-10-4-4-12-9l-7-5h-1v-1h-1v-1h-3l-4 28q-4 29-3 49t4 37 9 30q6 14 13 23t8 9 4 4 4 4 5 4q3 4 9 8t7 4h1l1 1 1 1h2v1h1v1h7l4 7q5 7 5 8v1h1v1h1v2l1 1 1 1v3h-1l-1-1v-2h-1v-1h-1v-2l-1-1q0-1-1-1h-2l-1-1-1-1h-2l-1-1-1-1h-2t-1-1q-1 0-1 1 0 2-3 2l-3-1v-1t-1 0h-1t-3-3-15-12-20-18-14-21q-6-11-10-25t-6-29l-1-14h-1q-1 0-2 1t-8 1q-8 0-10-1-3-1-5-6l-3-4v-3l1-2 1-2v-2h1v-1h1v-1h1l1-1 2-1h6v1h1v1h2v2h-2v-1h-1v-1h-2v1h-1l-1 1h-2v1h-1v1h-1v10h1v1h1v1h14l1-1 1-1t1 0q1-1 1-15t3-48 0-36l-2-1v-1h-1v-1h-1v-1h-1v-1h-1v-1h-1v-1h-1v-1h-1v-1 25h-1l-1-1v-6q0-6-3-14-3-7-21-30t-22-26q-3-3-4-6l-2-2v-1h-1v-1h-1v-1h-1v1h-1v1l-1 1-1 1-2 6q-4 6-4 6v1l-1 1-1 1v1l-1 1h-1v1l-1-1-1-1v-1h-1v-1h-1v-1h1v-2l1-1v-1q0-1 6-10 4-9-1-18-6-8-17-27l-12-19-1-2-1-1v-2h-1v-1h-1v2l-1 2-1 2-1 4q-1 3-2 4l-1 1v2h-1v1h-1v1l-1 1-1 1v1l-1 1v1h-2v-1l1-1v-1l1-1 1-1v-3l1-2q1-3 1-12t-4-20q-2-11-10-26l-6-16-1-1v-1h-2v-2h7l4 1q3 1 4 1h2v1q0 1 1 1t1 1v4h1v1h1l10 18q10 18 25 42t15 25v1h1v1h1v2l1 1 1 1v1l1-1 1-1v-5l1-4q1-4 1-27t-3-42-5-18h-2v-2h1l2-1q2-1 2-1h1l1-1 1-1h1v-1h1v-1h2v-1h1v-1h2l1-1v5l2 18q2 18 2 39t-4 39q-2 19 2 26t9 10q4 4 10 6t13 2h7v1h-1v1h-2l-1 1-1 1h-2l-2 1q-2 1-7 1h-5v2h1v1h1v1l1 1 1 1 4 6q4 4 5 5 1 0 9 8 7 9 8 9t1 1q1 1 1 1l1 1 1 1h1v1h1v1h1l1 1h1v-11q1-12 0-37t-4-46l-3-21-1-2-1-1v1h-1v1h-1v1h-1q-1 0-4 2l-3 2-1 1-1 1h-2l-1 1h-1v-2h1v-1h2v-1h1v-1l1-1q1-1 3-7 4-6 4-13t-2-17-8-35q-7-25-8-25h-1l-1 1h-1v-1l1-1v-1l9-3q9-3 12-6t3-3l2 2q1 2 3 3t2 2h1l2 1q2 2 2 2h7v-1l1-1v-2t1-1v-2h1v-1h1l10-10q10-8 20-14 10-4 17-6t18-1 19 3q8 4 9 4zm-118 28q0-1 6 5 7 5 8 6 1 0 0 1 0 2-1 2t-3 3q-3 3-7-6-3-9-3-11zm211 291l1 1h3v2h-15q-14 0-23-2h-9l-2-1-1-1h-1l1-1 1-1h3l1-1 1-1 7-4q8-4 11-7t5 2q3 4 10 9 6 4 7 5zm-89 11q5-4 6-5 1 0-2 4-4 5-7 5-3 1 3-4z" fill="#272324" stroke="#272324"/>
  <path d="m258 14v-1l7 5q7 4 12 8 5 3 7 5t2 3v2h-1q-1 0-1-1h-1v-1h-1v-1h-1v-1h-2v-1q-1 0-9-5l-8-6h-2q-1 0-2-1v-1t-1 0v-2q1-2 1-2z" fill="#341c1d" stroke="#341c1d"/>
  <path d="m38 34h9v1h1v1l1 2 1 1v2l-1 1-1 1v-1h-1v1h-1v-5l-1-1v-1h-3q-3 0-3 2l-1 2h1l-1 1h-1v-1l-1-1v-2l1-1 1-2z" fill="#3c3a3a" stroke="#3c3a3a"/>
  <path d="m114 450v1l-3 5q-3 5-1 7 1 3 6 7 6 4 10 6 3 0 6 1l3 1h5l1-1h1v2h-6q-5-1-10-1l-4-2h-3l-1-1-1-1h-1v2h1v1h1v1h2l1 1 1 1 3 1q3 1 5 2l1 1h3l1 1h1v1h-4l-2 1-2 1h-3q-2 0-5-2l-3-4h-1v-1l-1-1-1-1v-3h-1v-1h-1v-1l-1-1v-1h-1q-1 0-4-2-2-2-2-6 0-3 0-6l2-2t0-2q1-2 2-2t1-1q1-1 3-1 2-1 2 0z" fill="#230102" stroke="#230102"/>
  <path d="m150 148h1l2 8q3 7 3 9v3h-1l-1-1h-1v-1q-1-1-2-8l-2-8v-1q0-1 1-1z" fill="#382021" stroke="#382021"/>
  <path d="m631 552v-2l2 9q1 9 2 17v9h-1v-2h-1v-1q-1-1-1-7-2-6-5-12l-3-6v-3h1l3-1q3 0 3-1z" fill="#281516" stroke="#281516"/>
  <path d="m771 62v-1l2 2q3 2 3 3t1 2v1q1 0 1 1v2q0 2 1 7t-1 7q0 1-5 4-5 2-8 3l-3 1t0-1h1q1 0 1-1 0 0 1 0v-1h1q1 1 2 0l1-1h1q1 0 2-1t2-3q2-3 2-9t0-9q-2-2-3-3-2-1-2-3z" fill="#2e0101" stroke="#2e0101"/>
  <path d="m774 31l10 7q11 8 13 9 3 2 3 3v1h1v1h1v2l1 1 1 1v9h-1v-1h-1v-1h-1v-1h-2l-1-1q-1-1-14-8-14-7-20-8l-5-1v1h-3q-2 1-2 1h-1q-1-1-2-2-1-2-7-2-5 0-12 2l-6 4h-1l-1 1-1 1h-2v-1l1-1v-1l1-1v-2h1v-2h2q0 1 1 0v-2h1q1 0 2-2t2-2 2-1q0-1 1-2h1v1t1 0v-1q0-1 1-1h1q1 0 9-2 7-2 14-2t9 2q2 0 3 1z" fill="#800001" stroke="#800001"/>
  <path d="m223 76v1h-1q0 1 0 1l-1 1v1q-1 0-3 5l-2 5v4l-1 1v1l-1 12q0 13 0 22 0 8 0 11v3l-2 7q-2 7-2 9v2l-1 2-1 2v1h-1v-1h-1v-1h-1v-1h-1l-1-1q-1-1-3-3-3-2-4-5v-5q0-2-2-4 0-3-1-10-1-8 2-12 3-5 3-7 0-1-2 0l-3 2-3 5q-2 4-3 5l-1 1v2l-1-2q-1-2-1-2t-1-2l-1-2v4l-1-1-1-1v2l-2 1q0 1 0 3v5h-1v-1h-1v-1h1v-1h-2v-1h1v-2l-1-1-1-2v1h-1v-11h1l2-8q2-8 6-15 5-7 8-8 2-1 2-2h2l2 1h1v-1h1v2l1 1 1 1v-2h1l1 1q0 2 0 2l1 1 1 1v9h1v-1h1v-2h1v-1h1v-2l6-10q6-9 7-9t2 0z" fill="#d40000" stroke="#d40000"/>
  <path d="m597 465h1v1q0 1-1 1h-1v1h-1l-1 1q-1 1-1 1h-1v1h-1v1h-1v2l1 9q1 9 4 15t3 7 1 1v2q-1 0-1 0h-1v-1h-1v-2h-1v-1h-1v-2q0-1-2-6t-4-15q-1-10 1-11h1l3-2q3-2 4-3z" fill="#3a1a19" stroke="#3a1a19"/>
  <path d="m521 97v-1h1v2h1l1 8q2 8 6 14t10 11q6 4 6 4v1h3v1h1v1h3v1h-1v2l-1-1h-2l-1-1-2-1h-1q-1 0-9-5-7-5-11-12-3-7-4-15l-1-9h1z" fill="#373435" stroke="#373435"/>
  <path d="m926 308h6l-3 1-3 1h-2q-2 0-7 2t7 5q11 3 11 4t-3 0q-2-1-18-1-16-2-6 6 11 6 7 6t-15-7-18-7q-8 0-18 2l-10 4h-4l-1 1h-1v2h2l2 1h3l7 4q7 4 8 4h1l1 1 1 1h1l1 1 1 1h2v1h-1v1h-7l-2-1q-3-1-9-3-6-4-15-4h-8l-1 1-1 1h-2v-3l1-3 1-3v-3l9-5q9-5 10-6 0-1 9-7 8-6 13-8t-3 4q-9 6-12 8-2 2 24 2 27 0 31-2t11-2z" fill="#ecebec" stroke="#ecebec"/>
  <path d="m504 581l8-5-6 8q-6 7-10 18-6 12-6 15-2 3-2 5v3l-1 3v4h-1v-7q0-7 2-15 0-8 4-16 3-8 12-13z" fill="#250101" stroke="#250101"/>
  <path d="m298 486h1l3 7q4 7 9 11t11 6 13 2h7l2-1h1v2h-1v1h-3l-3 1q-3 1-8 0-6-1-13-3-7-4-9-5-1-2-2-2-1-1-4-6l-4-6v-1q0-1-1-3l-1-2h1q1-1 1-1z" fill="#3a3738" stroke="#3a3738"/>
  <path d="m146 358l8-1h1v1h3l1 1 1 1 17 4q17 4 22 7 5 4 7 6 1 1 1 2h1v1l1 1 1 1v1l1 1v2l1 2v1l1 1v1h-1v-1h-1l-1 1v-1l-1-2v-1h-1q-1-1-2-1 0 0-29-5t-33-3l-5 2h-2v1h-1v1h1q1 0 1 1v1h-1v1h-2v-1q1 0 1 0v-1t-5 0h-5l-6 3q-7 4-10 6t-4 4q-2 2-2 2v1h-1v1h-1v2h-2v2l-1 1v1h-2v-1l1-1v-3l1-1 1-2t0-2v-4h1v-1q1 0 4-5l3-6q1 0 1-1h1q0-1 0-1h1v-1h1v-1h1v-1h1v-1t4-3q3-3 11-8t17-5z" fill="#860000" stroke="#860000"/>
  <path d="m116 475v-1h1l1 1 1 1h3l4 2q5 0 10 1h5l7-1q8-2 10-2h9q8 0 11 1l2 1h4v1h1v1h-1v2h-1v1h-1v1l-1 2q-1 2-5 2h-3v1h-1v1h-2v1h-2q-1 1-6 1-5 2-8 0-2-2-10-4l-8-3h-1l-1-1h-3l-1-1q-2-1-5-2l-3-1-1-1-1-1h-2v-1h-1v-1h-1v-1z" fill="#ea0001" stroke="#ea0001"/>
  <path d="m770 87v1h-1l-1 1h-1v-3l-1-4v-2q0-1-4-7l-3-6h-1q-1-1-2-1h-2q-2-1-2-2t6 2q5 2 8 5 4 3 4 5 2 3 1 7t-1 4z" fill="#2a0202" stroke="#2a0202"/>
  <path d="m472 601l1-2-4 11q-5 10-5 12v1t-1-1l-1-2q-1 0-2 0v-2q0-1 4-8 3-7 4-7 2-1 4-2z" fill="#371f20" stroke="#371f20"/>
  <path d="m168 397l5 3-5-1q-4-1-14 0-11 1-15 4-3 4-7 11-4 8-4 10v3l-1 2v2h-1v2l-1 1-1 1v2l-1 1-1 1v1h-4v-1l1-3 1-2v-2q0-1 2-9t6-15 10-10q6-4 16-4 9 0 14 3z" fill="#200101" stroke="#200101"/>
  <path d="m610 673v1q0 1 0 3t-1 3q-1 0-1 1-1 1-26 15-25 12-31 13l-6 1-1-1-1-1h-1v-2h-1v-1h-1v-1q0-1-3-4-3-2-8-7l-5-5h-1v-1h-1v-2h-1v-1h-1v-2h3v1h1v2h1l1 1h1l5 4q5 2 10 4t8 3l2 1h4l1 1h1v-6h-1v-1h-1v-1h-1v-1q-1 0-4-4l-4-4h-1v-2h-1v-1h-1v-1h-1v-1h-1v-1l1-1h1v2h1v1h1v1h1v1l7 3q7 3 19 3t21-3q10-4 12-7 4-3 4-3z" fill="#150101" stroke="#150101"/>
  <path d="m994 62t0 1h1q0 1-1 1t-4-3-8-5q-6-2-10-1h-3q0-1 1-1h3v-4h-3q-4 0-6 2h-1v1h-1v1h-1l-1 1h-2v-1h1v-1h1v-1h1v-1h1v-1l5-2q4-2 6-2t3 2q0 2 7 6 7 5 9 6 1 2 2 2z" fill="#3e2826" stroke="#3e2826"/>
  <path d="m334 92v-1l1 1 1 1v-1h2q1 0 2-1 0 1 0 1h1l1 4q2 3 2 11 2 8 3 13 1 6 1 14 0 7-2 10 0 3-1 3v-1q-1 0-2 0-2-1-2-2t-1-1h-1v-1q1-1 1-11t-2-15-6-10l-4-5h-1v-1h-1l-1-1-1-1h-2v-2h3v-1h1l2 1h1l1 1 2 1h3v-1h1v-1h-1v-1h-1v-1l-1-1v-1h1z" fill="#130001" stroke="#130001"/>
  <path d="m586 431h1v1q-1 1-8 6l-7 6h-1v-2l-1-3v-1q0-2 1-2l6-2q6-2 7-2h1t1-1z" fill="#e60306" stroke="#e60306"/>
  <path d="m554 61h7q0 1-1 1l-1 1h-4q-4 1-5 1-2 0-8 4-6 2-10 8-4 5-6 12l-2 7-1 1v2h-1v-2h-1v1h-1v-4l3-7q3-8 7-14 5-6 11-8t13-3z" fill="#393738" stroke="#393738"/>
  <path d="m324 446h7v1l-5 1q-6 0-10 3-4 2-5 3 0 1-2 2-2 0-6 7-3 7-4 9-1 3-1 6v4l1 2v2h-1v2h-1l-1-1v-10q0-6 1-11 1-4 5-9t10-8q5-3 12-3z" fill="#393637" stroke="#393637"/>
  <path d="m154 170v-2h-1v-1h1l1 1h1v-1l1 1 1 1v3l2 6q2 5 3 7v2q0 1-1 1t-4 0q-2 1-2 2t-7 5q-6 3-18 5t-14 5q-1 3-6 5l-4 2-3 1-3 1h5q3 0 5 0h2v2l-1 1v2l-1 1v1h-1v1l-5 4q-4 4-7 5-4 1-7 2l-3 1h-7l1 1 1 1h10l-1 1-1 1h-1l-1 1-1 1-3 1q-3 1-4 2l-1 1h-2l-1 1-1 1h3l3-1 4-1v2q-2 2-2 2v1h-1v1h2v-1h1v-1h1v-1h1v-1t2-2 3-3q2-1 9-6l6-6 1-1 1-1v-2l1-1v-1h2v3l-1 4v2q0 1-1 2l-1 1v2h-1v1h-1v1h-1v1h-1v2h1l1-1 1-1h1v-1h1v-1h1v-1h1v-1h1v-2q0-1 2-8 0-7 2-8v-2l1-1 1-1v-2h1v-1h1v-2h2v2l1 1 1 2v8q0 8 0 10v1q0 1-2 4-2 4-5 8-4 5-12 8t-23 4q-16 1-22-1l-7-2h-4l-1-1h-1v-2h1l1-1h1v-1h1q0-1 2-2 2-2 5-7 2-6 8-15t13-14 17-7l10-2h-1l-1-1-2-1h-2v-1l-6-4q-4-4-8-10-2-6-2-15 0-10 3-16t5-8q1-2 5-4t11-1q8 1 10 2t3 2q0 1 2 2 1 1 3 3 0 3 0 10t-3 9q-3 3-9 2t-7-2-1-5q0-5 3-6 3 0 1 0-2 1-2 6 0 4 4 5t6 0 3-9q1-7-2-10-3-2-11-2-9 0-12 4-4 3-4 6-2 3 0 10 0 8 5 14 4 6 9 8t14 2q10 0 16-4 7-4 10-8 4-4 4-6 2-2 2-4z" fill="#2a2627" stroke="#2a2627"/>
  <path d="m561 61l8 2q8 3 11 6 4 3 5 7 1 3 1 11t-1 12q-2 3-2 4h-1v2h-3v-1h1v-1h1v-1h1v-2l1-2q1-2 1-4t0-9q-2-7-5-11t-8-7l-5-3h-2q-2 0-4-1h-1l1-1q1 0 1-1z" fill="#3d3b3b" stroke="#3d3b3b"/>
  <path d="m211 386v-1h2l4 9q5 8 13 16t8 10q2 3 1 8t-3 12q-4 6-4 6v1l-1 1-1 2v1l-1 1v2h-2l1-1v-3l1-2 1-2v-9q0-9-9-27l-8-19v-1l-1-1v-1l-1-2z" fill="#180001" stroke="#180001"/>
  <path d="m586 611v1t0 1h1l2 7q1 8 1 19t-2 13q-2 1-2 2h-1q-1 0-1 0v1h-5q-5-1-15-2-11-2-11-3t-1-1q-1-1-3-8l-2-7v-2q1-2 1-6l1-3v-5l-1-2q0-2 1-5 2-3 8-6t13-2 10 3q4 4 4 4 1 0 2 1zm-13 34h1v1q1 0 4 0h4v2h-12l-1-1-1-1h-1v-1h-1v-2h-1v-1h-1t-3-2-3-3v-1h-1v-1h-1v-9h5v1h1v1l1 1 1 1v1q0 1-2 1-2-1-2 1t1 3l1 1v1h1v1h1v1h1v1h2l2-1h1v-2l1-2 1-1v-5l-1-2q-1-1-4-6t-4-5q-1-1-5-1h-5v1h-1v1h-2l4-4q3-2 8-2 4 0 9 4t9 10q3 6 1 5-1-1-3 3t-4 6q-2 3-2 4 1 0 1 1z" fill="#ea0102" stroke="#ea0102"/>
  <path d="m584 394h1t1-1l1-1q1 0 2-1h1v1q0 1-5 4-5 2-12 10l-7 7h-1l-1 1h-2l-1 1-1 1h-1v1h-1v1h-1v-2h1v-1h1v-1h1v-1h1v-1h1l3-3q3-3 3-3h1t0-1h1v-3h-1v-1h-1v-1h-1t-5-4-15-6-19 0q-8 2-14 6-6 5-9 11t-3 17q0 10 3 15l4 5 1 1 1 1h1v1h1v1h1v3h-1l-1-1h-3v-1h-1v-1h-1l-1-1-1-1-4-6q-5-6-5-9-2-3-1-12t4-16 8-12 11-7q5-2 10-4 4 0 13 0t17 4 12 7q4 4 5 5 0 1 3 1 3-1 4-1 1-2 2-2z" fill="#2f2a2b" stroke="#2f2a2b"/>
  <path d="m382 220q0-1 6 5 7 5 8 6 1 0 0 1 0 2-1 2t-3 3q-3 3-7-6-3-9-3-11z" fill="#e8e7e8" stroke="#e8e7e8"/>
  <path d="m746 398l-5-2 7 1q8 1 14 5 5 4 12 6 6 1 5 3-1 3-10 8-9 6-9 5t4-4q4-4 5-6t-13-1-16 1q-2 1-7 6-4 6-5 5 0 0 0-1 0 0 1-1l1-1 1-1q1-1 1-2l1-2v-2h-2l-2 1h-3l-2 1q-1 1-4 1l-4 2h-2l-1 1-1 1h-3v-1h1v-1h2l1-1q1-1 3-1h1l1-1 2-1h1l-2-1-2-1h-9v-1h1v-1h9q5 0 8 0t14-2q10-4 16-4h5v-1h-1v-1l-1-1v-1h-2l-1-1-1-1h-1l-1-1q-1-1-7-1z" fill="#e5e3e4" stroke="#e5e3e4"/>
  <path d="m364 70l8 7q8 7 8 7v1l1 1t1 1q0 1 0 1h1t1 1h1v1l1 1v1h1v1h1v1h1l2 2q3 3 3 4v1h1v1h1l1 1h1v2h-3v2h-1v-1l-1-1-1-1v-1h-1v-1q-1 0-3-4-3-3-4-3-1-1-8-9l-8-8v-1h-1q0-1-2-3l-2-3q1 0 1-1z" fill="#241414" stroke="#241414"/>
  <path d="m331 55h1l6 1q7 0 15 6 9 5 9 6 2 1 2 2t-1 1v-1q-1 0-3-1l-2-1v-1h-1v-1h-1q-1 0-2-1-2-1-9-4l-8-3h-6l-1-2q0-1 1-1z" fill="#2e1d1d" stroke="#2e1d1d"/>
  <path d="m986 73q0 1 0 1h1t-1 1q-2 1-1 5 1 5 0 5-1-1-1 1v3q0 2 1 4l1 2v1t1 0v1h-1q-1-1-2-2 0-2-3-4l-2-2v-1q-1-1-3-4l-2-4v-2l-1-1v-1h1v1l1 1v1h1l1-1h2v-1h1v-3q1-2 3-2t3 1z" fill="#530f0e" stroke="#530f0e"/>
  <path d="m772 10l-3-1 5 1q4 0 14 6 11 4 13 5h2q0 1 1 1v1q0 1-1 1t-1 2l1 3h-1q0-1-2-1h-1v-1h-1v-1h-1t-11-8q-11-6-14-8z" fill="#2a1a1a" stroke="#2a1a1a"/>
  <path d="m324 214h2v2h-1q-1 0-9 4-9 4-22 14t-20 11q-8 1-22-7l-13-8-1-1-1-1h-2l-1-1h-1v-2h2v1h3l2 1 1 1 7 2q6 2 17 1t33-9q23-8 26-8z" fill="#160001" stroke="#160001"/>
  <path d="m120 386l6-3v1q0 2-2 3-3 1-3 2t-1 1-9 12q-9 13-13 24-4 10-4 10t-1 0v-2q1-2 0-8 0-7-1-7-1 1-2 2 0 1-1 1t-5 6l-5 5h-1v-1q0-1 2-4l2-2h1v-1q1 0 4-5 3-6 5-18v-15l1-1h1v1l1 5 1 5v1h2v-2l1-1 1-1 1-1h1v2l-1 1q-1 2-1 2l-1 2-1 1v3h2v-2h2v-2h1v-1h1v-1t2-2q1-2 4-4t10-6z" fill="#170909" stroke="#170909"/>
  <path d="m76 486l1-3 10 13q11 12 12 13t2 1l1 1 1 1h1l2 1 1 1h1v2h-1l-1-1-1-1h-2l-1-1-1-1h-1q-2 0-7-4t-13-10l-7-6v-1h-1v-1h-2v-2h2q2 0 3 0t1-2z" fill="#2e1a1b" stroke="#2e1a1b"/>
  <path d="m278 139l-8 1h-1q-1 0-3 0-1 0-2-1l-1-2h2l2 1h8l1-1 1-1h1v-5l-1-1-1-1v-1l-1-1-1-1v-1t-4-2q-3-1-10-2-8-1-10 1-3 0-5 3l-1 3-1 2-1 3v-10l2-4q3-3 10-6 6-3 14-2 7 1 11 2t1 2q-4 0-1 5t3 9q0 5 5 3t6-5 1 1-4 7-12 4z" fill="#280102" stroke="#280102"/>
  <path d="m223 71h1v1t-1 0q-1 1 0 4 1 2-1 2l-1 1q0-1 1-2 0-2-1-2-1 1-7 10l-6 10v2h-1v1h-1v2h-1v1h-1v-9l-1-1-1-1t0-2l-1-1 2-3q1-4 8-7 6-3 9-5 2 0 3-1z" fill="#220102" stroke="#220102"/>
  <path d="m557 626h4v1h1v1l1 1 1 1v1q0 1-2 1-2-1-2 1t1 3l1 1v1h1v1h1v1h1v2h-1t-3-2-3-3v-1h-1v-1h-1v-9h1z" fill="#3b0202" stroke="#3b0202"/>
  <path d="m954 58h1q1 0 0 2l-1 2v2l1 2 1 1v1q0 2 1 3v2h1v2l2 13q2 13 2 16 0 2 1 4l1 3v3h-4v-5l-1-3q-1-2-3-9t-3-21l-1-14t1-1v-1q1 0 1 0v-2z" fill="#aa1d23" stroke="#aa1d23"/>
  <path d="m900 218h1l2 2q3 2 3 3v1l2 2q2 2 5 8 3 7 3 14 0 8-1 11l-1 3v1q0 1-2 3l-1 3v1h-1l-1 1-1 1h-1v1h-1v1h-1t-2 2q-2 0-13 0-12 0-16-2l-4-2h-1v-1h-1v-1t-1 0q-1-1-1-1v-2l-1-1-1-1 1-7q1-8 4-12 4-4 8-6t9-1q4 1 7 3 3 3 3 4t0 6v6h1v-1h1v-9q0-2-2-4 0-3-5-6-5-2-11-2-6 2-10 4t-6 7q-2 4-2 11v8l1 1 1 1v2h1v1l1 1 1 2q1 0 1 1h1v1h1v2h-3q-3 0-7 2-3 0-10 5l-7 5h-1v1h-1v1h-1v1h-1v1h-1l2-28q0-28 4-34 4-7 9-11 5-3 11-5t18-1q11 1 14 1 2 2 4 2z" fill="#f8f7f7" stroke="#f8f7f7"/>
  <path d="m361 228v-1l2 3q1 3 8 28t8 32q1 8 1 15t-4 13q-2 6-3 7l-1 1v1h-1v1h-2l1 1q0 1 1 1h1l1-1 1-1 3-2q3-2 4-2h1v-1h1v-1h1v-1l1 1 1 2 3 21q3 21 4 46t0 37v11h-1l-1-1h-1v-1h-1v-1h-1l-1-1-1-1t-1-1q0-1-1-1t-8-9q-8-8-9-8-1-1-5-5l-4-6-1-1-1-1v-1h-1v-1h-1v-2h5q5 0 7-1l2-1h2l1-1 1-1h2v-1h1v-1h-7q-7 0-13-2t-10-6q-5-3-9-10t-2-26q4-18 4-39t-2-39l-2-18v-5l8-6q7-7 11-9 3-2 4-2v-1h2q1 0 1-1 0 0 1 0z" fill="#fbfbfb" stroke="#fbfbfb"/>
  <path d="m136 383h1v1h-1q-1 0-1 1v1q0 1-4 4-3 4-8 12-5 7-6 12-1 6-2 13t-1 12v5l1 2 1 1v-1l1-2 1-1v-3h4v2h-1v1h-1v2h-1v1h-1v2q-1 2-2 2t-2 1v-1q0-1-2 0-2 0-3 1 0 1-1 1t-2 2q0 2 0 2l-2 2q0 3 0 6 0 4 2 6 3 2 4 2h1v1l1 1v1h1v1h1v3h-3l-1-1h-2v-1h-1v-1h-1v-1q0-1-2-3-2-1-6-9t-4-17l-1-10q1 0 1 0t4-10q4-11 13-24 8-12 9-12t1-1 3-2q2-1 2-3v-1h4q5-1 6 0z" fill="#540001" stroke="#540001"/>
  <path d="m339 144v-1h1q1 0 1 1t2 2q1 0 2 0v2q-1 2-8 30-7 29-10 31-3 1-9 1-7 0-11 2-4 0-21 0h-18l12-2q12-2 22-6 10-5 13-7 3-1 3-2h1v-1h1l1-1 1-1h1v-1h1v-3h-1l-1-1-2-1h-3q-3 0-14 1l-11 1-2-1h-1v-1h3l8-2q8-2 16-7 7-5 12-13 6-8 8-14t3-6z" fill="#120001" stroke="#120001"/>
  <path d="m141 383l1-1 10 1q10 1 19 5t13 9 6 7q0 2 1 3l1 1v3l1 3 1 2-1 11q-1 11-3 15t-2 8v4l-2 6q-2 6-3 9t-2 5q-1 1-11 1l-11 1h-1q-2 0-10 2l-7 1h-1q0-1-2-1h-3l-3-1q-3-1-6-1-4-2-10-6-5-4-6-7-2-2 1-7l3-5q1-1 2-1t2-2v-2h1v-1h1v-2h1v-1h1v-3l1-1 1-1v-2l1-1 1-1v-2h1v1h1v1h1v2l-1 2 1 7q1 7 5 11 4 5 8 6 3 1 8 1 6 0 7-2 1-1 3-4 1-4 5-7 3-4 4-5 0-2 1-2h3l1-1q1-1 2-2v-1h1q1 0 5-6 4-4 5-9t0-5-3-4l-3-5v-1q-1 0-1 0v-2t-1 0q-1-1-1-1h-1v-1q-1 0-2-2l-2-2-5-3q-5-3-14-3-10 0-16 4-6 3-10 10t-6 15-2 9v2l-1 2-1 3v4l-1 1-1 2v1l-1-1-1-2v-5q0-5 1-12t2-13q1-5 6-12 5-8 8-12 4-3 4-4v-1h3q0-1 0-1h2l1-1z" fill="#ac0001" stroke="#ac0001"/>
  <path d="m451 824h8v1l1 1v2l1 2 1 1v5l-1 2q-1 1-1 2-1 2-4 2-4 0-1-1 2-1 3-2l2-2v-4q0-4-2-5l-1-2h-1l-1-1-1-1h-4l-1 1-1 1h-1v1h-1l-4 5q-4 4-3 10 1 7 2 9t15 4q13 3 18 1t8-5q4-3 5-5t1-2q1 0 1-1l1 1t1 0l1 1-4 7q-4 8-4 10t6 1 16-1 20 4q9 4 16 10 8 4 9 5t-2 4q-4 3-7 3-4 2-13 1t-17-5-16-10q-7-6-8-6-2 0-2 0-1 0 8 7 10 7 18 19 8 11 12 20t4 23-2 21q-2 6-3 7l-1 1v2h-1v1h-1l-2-1h-1l-1-1-1-1h-1q-1 0-9-7t-9-9q0-1-6-8-5-8-9-17-3-9-4-22t1-19l2-5v-3l1-2v-1h-1l-1 1h-1v1h-1v1h-1v2l-1 1-1 1-1 3q-1 2-2 15-1 12-3 15t-2 9-1 6-2 4q-2 4-2 5-1 0-1 1h-2q-1 0-10 0t-18 0h-9l-1 1-1 1h-1v2h-3 1v-2h1v-1h1v-1h1v-1h1v-1h1l13-3q12-3 13-3l1-1 1-1h1v-1l1-1 1-2v-3l-1-1-1-2h-6q-2 0-8 3l-6 3h-2v1h-1v1h-4v-1h1v-2h1v-1h1v-2q0-1 2-2v-1l1-1 1-1v-1h1-7l-1 1h-1v2h-1v1l-2 3q-1 3-3 9-2 5-2 6v2h-1v1h-1v2t-1 1q-1 0-1 0v2t-1 1l-1 1v1h-1v1h-1v1l-1 1-1 1h-2v-2h1v-1h1v-1h1v-1h1v-2h1t0-1h1q0-1 2-5t2-12v-10q0-1 3-5t11-8q9-3 12-4 2-1 6-3 3-4 9-6l6-2h1v-2h1v-1h1v-3l-9-1q-9-1-12-1t-17-4q-15-4-24-8t-14-10l-6-5v-1h-1v-1h-1v-2h-1v-1h-1v-2l-1-1v-1h2v1h1v1h1v1h1v1h2l7 3q7 3 23 3t22-1l5-1h-1v-2q0-1-2-4 0-3 1-8 1-6 5-10t9-4zm25 34q4-1 2 2-2 4-4 3t-2-2 4-3z" fill="#262223" stroke="#262223"/>
  <path d="m774 30l7 1q7 1 11 3 4 3 8 10t5 8l1 2v3h-2v-1l-1-1-1-1v-2h-1v-1h-1v-1q0-1-3-3-2-1-13-9l-10-7v-1z" fill="#1f0101" stroke="#1f0101"/>
  <path d="m593 511l1 1h3v2h-15q-14 0-23-2h-9l-2-1-1-1h-1l1-1 1-1h3l1-1 1-1 7-4q8-4 11-7t5 2q3 4 10 9 6 4 7 5z" fill="#f2f2f2" stroke="#f2f2f2"/>
  <path d="m163 187l6 13q5 13 15 23 9 11 10 11 2 1 2 2v1q0 1-2 1-1 0-2 1 0 1 1 2l1 1 1 1v1h2q2 0 3 1 0 1 1 2 1 0 0 1 0 1 1 1 2-1 2-1h2v2h1v1h1v1h-1v1l-1-1q-2 0-8 12-6 13-12 20-6 8-15 14t-21 10q-11 4-12 5l-1 1h-1l-1 1-1 1h-1v1h-1v-9q0-4 0-10 0-7-2-18-2-10-3-28v-18q1 0 1-2 0-3 5-12t9-14q4-4 13-9 8-5 7-7v-2q1 0 1-1zm-12 36l1-1v-2l4-6q4-7 6-10 2-2 2 2 2 4-1 8t-4 4-5 4q-3 4-4 4-2 1-2 0t1-2q1 0 2-1zm21 47v7l-1 2-1 2v-5q0-5-1-6-1-2-5 4t-1-2q3-9 4-16t1-6l-3 3q-3 3-4 4l-1 1h-1v1h-1v1h-2v1h-1v1h-2v-1h1v-1h1v-1h1v-1h2v-1l6-8q4-8 6-13 2-6 2-10 0-5 3-2 3 2 1 11 0 9-3 16t-2 10 1 9z" fill="#252122" stroke="#252122"/>
  <path d="m734 70v1h1v1h1v1h-1v1h-1v1h-1v1h-1v1h-1v1h-1v1l-1 1q-1 1-7 5t-6 7 3 8l3 6h-1q-1 0-1-1t-2-2l-2-1 3 4q3 3 3 3v1h1v1h1v1h1v2h-7v-1l-1-1-1-1v-2l-1-1v-3q-1-2-2-5l-1-3q0-1-1 0h-2v-1l2-4q3-5 6-8 3-2 4-3 1 0 1-1t1 0 1 1v1h1v-1h1v-2h1v-1h1v-1l1-1 1-1 2-3q2-2 2-2z" fill="#280202" stroke="#280202"/>
  <path d="m430 101v4q0 4-4 9-3 4-10 7l-6 2h-1v1q1 0 1 2v3q0 1-1 1t-1 1l-1 1v-2q-1-2-5-11l-4-9h-1v-1h-1v-1h-1v-2l1-1v-1h1l1 1v1h1v1h1v1l3 4q3 4 10 3t8-1h1l1-2q1-1 1-1v-1l1-1 1-1v-5l2-1q1 0 2-1z" fill="#2f2526" stroke="#2f2526"/>
  <path d="m411 920l1-3v9q0 8-2 12t-2 5h-1v-1q1-2 1-11 2-9 3-11z" fill="#b02b30" stroke="#b02b30"/>
  <path d="m265 82l19 7q20 7 23 10 3 2 4 3v1q0 1-1 1t-2 2l-1 1h-1q-1-1-2-1-2-1-14-6l-13-6h-1l-1-1-1-1h-1l-1-1-1-1h-3v-1h-1v-1q-1 0-2-1l-2-1 1-2q0-1 1-2z" fill="#1a0101" stroke="#1a0101"/>
  <path d="m722 39v6h1v-1h1v-1h1v-1h1v-1h1v1q-1 2-3 4l-2 1v1q1 0 2 0h2l6-4q7-2 12-2 6 0 7 2 1 1 2 2h-1q-2 0-4 2l-2 1v-1q0-1-1-2 0-1-3-1-3 1-14 9t-12 10v1h-1v1h-1v2h-1v1h-1v1h-1v1h-1v-2h1v-1h1v-2q2-2 2-5v-3h-2l-1 1-1 1h-1l-1 1q-1 1-3 1l-2 1v1l-1 1v1h-2v-2h1l1-1v-1h2v-1h1v-1h1t1 0v-1l5-5q6-5 8-10t2-5z" fill="#1d0b0b" stroke="#1d0b0b"/>
  <path d="m633 394v-3l2 7q1 7 2 8l1 2v2h1l2-2q2 0 3-1l2-1h4v1h-1v1h-1v1l-2 3q-2 3-1 6 1 4 3 10 2 5 6 12t6 18 2 16v4l-1 2-1 1v4l-1 1q-1 1-1 3-2 2-6 7-4 6-7 7t-11 7q-7 4-14 5l-7 1-1-1q-1-1-7-4l-6-4v-1q-1-1-1-1 0-1-3-7t-4-15l-1-9h3v-1h1v-1h1l1-1 1-1h1l8-8q8-9 12-16 4-8 5-9v-2q0-1 1-1h1q1 0 1-5l1-5v-2q1-1 1-2 1-2 2-2t3-3 1-8v-5q0-1-1-1v-1q-1-2 0-6z" fill="#9f0202" stroke="#9f0202"/>
  <path d="m231 252v-2h3q2 0 5 1l3 1h4q5 2 5 2h-2v2h-1q-2 0-10-1l-8-1v-1l1-1z" fill="#311d1d" stroke="#311d1d"/>
  <path d="m75 60v2l11-1q10-1 14-5t6-8q2-5 3-6l1-2v-6h2v14q0 9-1 10t-1 2v1h-1v1h1l26 2q27 2 28 2h2v-1l1-1h2v1l-1 1-2 10q-2 10 0 20 2 11 2 14v3l1 1 1 1v3h2v-1l1 1v1h-1v2h-1v-1h-2v-1q-1-1-1-2t-1 0v1h-1q-1 0-2 2t-2 2-4 5l-2 4h-1v1h-1v-3q0-1-1-1h-1l-2 1-1 1h-1v-1q0-1 0-4-2-3-7-9-6-6-18-12t-27-8q-14-2-40-2l-26 1v2h1v1l2 5q3 6 3 16v10l-1 1-1 2v3l-1-4-1-4v-3q0-2-2-5 0-3-3-8t-7-7-12-1l-8 1v-20l1-11v-11h6q6 0 26 0t23-2q4-2 5-5 1-2 2-9 1-8-1-11t-7-7-11-4q-7 0-10 3l-2 3-1 2-1 1v6l1 1 1 1v3h1v1h1v1h10v-1h1v-1h1v-1h1v-1h1v1l1-1 1-1v4l-1 1-1 2-1 1-1 1h-2l-1 1-1 1-5-1q-5-1-7-1-1-1-3-6-3-5-1-12 0-6 4-10t7-4q3-2 12-1t15 5 8 8 4 6q0 3 0 13t-1 11zm68 38l-13-8h30v8q0 9-2 8t-15-8z" fill="#252122" stroke="#252122"/>
  <path d="m700 273l-1-1h-2v-1h-1v-1h-2v-1h-1q0-1-3-2l-3-2h-1v-3l1-2v-1h-1l-2-1h3q3 0 2 2t4 1 7-1q1-1 1-2t1-1 0 3q-1 2 6 3 8 1 12 2 3 1-4 1-6 0-6 1-1 1-7 1t-4 2q3 2 2 3 0 1-1 0z" fill="#e1e0e0" stroke="#e1e0e0"/>
  <path d="m514 562h7v2l-1 1-1 2q-1 2-2 3v1q-1 0-1 1 0 0-1 0v1q-1 0-1 1l-1 1q-1 1-1 1l-8 5q-9 5-12 13-4 8-4 16-2 8-2 15v7h1v13q1 13 1 14t1 1v8q1 7 3 16t5 13q4 3 20 7t17 5l2 1h2v1h1v1h2l1 1h1v1h1v2h1l4 3q4 3 9 4 4 1 20 1 17 0 21-3 5-2 8-7t5-6q2-2 2-2h1l5-1q5-1 9-3t6-5 4-10q1-6 2-19l1-13v-4q0-4-1-9l-1-4v-7h1v1h2v1l1 1v1h1v1h1v1l3 7q3 6 2 16-1 11-3 29-4 18-5 22-2 5-3 6 0 1-1 2l-1 1v1h-1q-1 0-8 3l-8 4q-1 0-8 3l-8 3q-1 0-7 3-7 3-16 3l-10 1h-2q-2-1-18-5l-15-5h-1q0-1-14-3-13-4-16-5t-4-1h-2t0-1v-1q0-1-1-1h-1v2q-1-1-2-2 0-1-1-1t-7-11l-5-11h1v-3l-1-1-1-1v-2h-1v-1h-1v-1q0-1-5-8l-4-7v-1q-1-1-3-5-2-5-4-12l-1-8v-11q1-11 1-11v-2q0-2 5-12l4-11v-1q1-1 5-10 6-9 10-14l4-6h3v-1h1v-1h1l5-2q6-2 12-2z" fill="#b00101" stroke="#b00101"/>
  <path d="m591 134h1v4t-4 2q-5 2-18 2h-15q-1 0-2-1h-1v-2h2l2 1h10q11 0 18-3 6-3 7-3z" fill="#393637" stroke="#393637"/>
  <path d="m0 42v-42h230t-6 4-16 11l-10 8h-1v1h-1l-1 1-1 1t-3 2q-2 2 0-11t-1-12q-4 1-19 3t-21 6-10 11q-4 6-5 14l-1 8 1 1 1 2v4h2v-1h1v-1h1v-1h1v-1h1q2-1 2-7 2-6 2-1t8 0q6-6 8-8 0-3 1-2 0 1 3-1 2-2 3-2v-1h1q1 0 1-1t1-1 1 1l-1 1v1h-1v1h-1v1h-1v1h1l4 1 3 1h-2l-1 1-2 1h-4q-4 0-10 6l-6 5v1q0 1 1 1 1 1 3 1h1v1h1v1h-3q-3 0-6 0h-4v1h-1v1h-2v1h-1v1h-1v1h1v1h11q7 0 10 0h2l2-1 2-1h2v2l-1 1-1 1v2l-1 1v1l-1 1v1h-2q-1 0-28-2l-26-2h-1v-1h1v-1q0-1 1-2t1-10v-14h-2v6l-1 2q-1 1-3 6-2 4-6 8t-14 5l-11 1v-2q1-1 1-11t0-13q-2-2-4-6t-8-8-15-5-12 1q-3 0-7 4t-4 10q-2 7 1 12 2 5 3 6 2 0 7 1l5 1 1-1 1-1h2l1-1 1-1 1-2 1-1v-6l-1-1-1-2v-1h-1v-1h-9l-1 2-1 1v2l1 1v1h1l1-1h-1l1-2q0-2 3-2h3v1l1 1v6h-1v1h-1v1h-10v-1h-1v-1h-1v-3l-1-1-1-1v-6l1-1 1-2 2-3q3-3 10-3 6 0 11 4t7 7 1 11q-1 7-2 9-1 3-5 5-3 2-23 2t-26 0h-6v11l-1 11v-42z" fill="#f9f9f9" stroke="#f9f9f9"/>
  <path d="m498 720v-1l6 3q5 2 18 6 14 2 14 3h1l-1 1q-2 2-1 2v1h-1q-2-1-10-2t-14-5l-6-3v-1h-1q-1 0-1-1l-1-1h-1t0-1h-2v-1z" fill="#261616" stroke="#261616"/>
  <path d="m504 522q5-4 6-5 1 0-2 4-4 5-7 5-3 1 3-4z" fill="#595556" stroke="#595556"/>
  <path d="m143 98l-13-8h30v8q0 9-2 8t-15-8z" fill="#f5f5f5" stroke="#f5f5f5"/>
  <path d="m78 434v-1h1l-4 11q-5 10-4 17t3 13 3 8v1l-1 3q-1 4-2 4t-2-1h-1v-1q-1 0-1 0 0-1-5-6-5-6-5-10t1-8 9-16l7-13v-1q1 0 1 0z" fill="#180e0e" stroke="#180e0e"/>
  <path d="m602 398v2l3 3q3 3 3 3t0 1q-1 1-1 1l-2 3q-3 3-5 8t-3 5h-1v-1q0-1 2-3 0-2 0-4-1-2-4 0-2 0-2 5l-1 5h1q1 0 2-1h1v1q0 1-1 2h-2t-5-1q-5 0-5-1t-4-1l-4-1-1-1-1-1-1 1h-1v-2h1v-1h1v-1h1v-1l5-7q5-7 10-9 6-2 8-2t4 0q1-2 2-2z" fill="#3a0909" stroke="#3a0909"/>
  <path d="m172 270v7l-1 2-1 2v-5q0-5-1-6-1-2-5 4t-1-2q3-9 4-16t1-6l-3 3q-3 3-4 4l-1 1h-1v1h-1v1h-2v1h-1v1h-2v-1h1v-1h1v-1h1v-1h2v-1l6-8q4-8 6-13 2-6 2-10 0-5 3-2 3 2 1 11 0 9-3 16t-2 10 1 9z" fill="#e7e6e6" stroke="#e7e6e6"/>
  <path d="m562 566h1l6 3q6 3 8 3 2 2 9 2h6l2 5q2 5 1 7 0 1-1 1h-2v-1q0-1-1-2-1-2-2-3-2-1-12-1h-11q-2 0-3 0h-1q1 0 2-1l2-1h2q2-2 5-2h3v-2h-5q-5 0-9 2h-5l-1 1h-2l-1 1h-2v-1h1v-1h1v-1h1v-2h1q1 0 2-3t2-3q1-1 3-1z" fill="#210102" stroke="#210102"/>
  <path d="m208 387h1v1l1 2v1l1 6q1 6 1 11 2 5 1 8-1 2-1 2v-1q0-1-2-4 0-3-6-11l-6-8v-1h-1v-1h-1v-1h-1v-1h-2v1h-1v5q0 5 1 8l1 4v8l-1-2-1-3v-3l-1-1q-1-1-1-3-2-2-6-7t-13-9-19-5l-10-1-1 1-1 1h-1l-1 1h-1v-3h-1v-1h1v-1h2l5-2q4-2 33 3t29 5q1 0 2 1z" fill="#160101" stroke="#160101"/>
  <path d="m536 732l1-1 15 5q16 4 18 5h2v2l-1 1v1h1l1 1h1v1h-1v1h-3q-2 0-6-2t-15-6l-11-4h-2q-1 0-1-1v-1q-1 0 1-2z" fill="#261717" stroke="#261717"/>
  <path d="m257 81l1 1 2 2q2 2 2 2h1l2 1q1 1 2 1v1h1v1h3l1 1 1 1h1l1 1 1 1h1v1l-1 1h-2l-2-1-2-1h-2q-2 0-8-2-7 0-12 3-6 4-8 7l-2 4-1 1-1 1v1l-1 1-1 1v4h1l-1 7q0 6 1 10 2 3 5 3 4 0 7 5 3 4 4 4v1l1 3q0 2 4 6 4 3 4 4t1 1 1 2q1 2 3 3 1 2 6 7t7 5q3 2 8 1 4-1 8-3 3-2 4-2h1v-1h1v-1h2v-1t1-1h3v-1l1-1 1-1q2-1 2-1h2l1-1q1-1 3-3t5-10 4-16-1-12q0-5-2-9t-7-7l-4-4q-1-1-4-3-3-3-23-10l-19-7-1-1-2-1h-2v-2h3l3-1h4l1 1h5l12 3q11 3 20 7 8 5 9 5v1h2v1h1v1h1l1 1v1h2l1 1 1 1h1v1h1l4 5q4 5 6 10t2 15-1 11v2q-1 0-3 6t-8 14q-5 8-12 13-8 5-16 7l-8 2h-3v1h-3q-3-1-8-2l-5-1q1 0-3-2-3-2-8-5t-12-4q-6-1-10-1l-3-1h-1q-1-1-8-2-6-1-9-5-3-3-4-12l-1-8v-3q0-3 0-11 0-9 0-22l1-12h1v1l1-2 1-2v-3l4-6q4-6 5-7 1 0 4-3 3-4 5-5 3-1 6-1 3 2 8 6t6 5q0 1 1 2z" fill="#b10000" stroke="#b10000"/>
  <path d="m489 668v-7l3 7q2 7 6 12t9 9q5 3 17 11 11 6 12 7l1 1h1l1 1 1 1h2l1 1h1v1h-1v1h-1l-1-1h-2v-1h-1v-1h-2l-2-1q-1-1-17-5t-20-7q-3-4-5-13t-3-16z" fill="#180101" stroke="#180101"/>
  <path d="m558 533h4v1h10q9 2 18 4 9 4 10 4h1l10 6q10 6 11 8 1 0 2 1l3 6q3 6 5 12 0 6 1 7v10l-1 10v8h-1l-1-1v-1h-1v-1h-1v-1h-1v-1h-1v-1h-1t-5-8q-4-8-10-14t-11-8l-5-2-2-1q-1-1-15-5l-14-4h-1q-1 0-2-1-2-1-11-1-9-2-15 0l-6 2v1h-1v1h-2v1h-2v-1l1-1v-2l1-1 1-1v-1h1v-1h1v-1q0-1 2-2 1-2 6-6t5-5 2-2 3-2v-1t1-1h2l3-2q4-1 6-2z" fill="#f40101" stroke="#f40101"/>
  <path d="m512 626h1l1 1 1 1h1v2q1 1 3 3 3 2 3 3 2 2 2 2v1l3 5q3 5 5 10 0 5 5 14 5 8 5 8v1h1v1h1v1h1v1h1v2h1l4 4q3 4 4 4v1h1v1h1v1h1v6h-1l-1-1h-4l-2-1q-3-1-8-3t-10-4l-5-4h-1l-1-1h-1v-2h-1v-1h-2q-1-1-4-6-3-6-6-16l-3-9v-5q0-6 2-12v-5l1-1 1-1v-1z" fill="#f10000" stroke="#f10000"/>
  <path d="m398 496l4-28h3v1h1v1h1l7 5q8 5 12 9 3 4 7 10 3 7 5 16 2 10 2 14v6h1v-1h1v-4l1-1 1-1v-1q0-2 1-14l1-11v-2 1h3l1 1 1 1 17 6q16 7 15 14-1 8-3 11 0 3-1 5l-1 1v2h-1v1l22-2q22-2 30-6t9-5q2-1 24 0 23 1 34 1 11-2 16-2h7l9-2q8-2 10-2h1v1h1v7q2 7 6 15t13 15q8 6 19 11t18 6q6 1 11 2h7l1 1h-1v1h-1v1h-1l-1 1-1 1h-1l-1 1q-2 1-4 1-2 2-16 2-15 0-24 2-8 2-16 7l-8 4v1h-1v1h-1v1h-2v-5q0-5-1-9v-12q-1-8-2-17l-2-9v-2q-1-2-1-4-2-2-5-4t-15-4l-11-3q0-1-15-1h-19q-4 0-4 1h-3q-2 1-6 2l-3 2h-2q-1 1-1 1h-1q-1 0-4 2t-9 7-18 8q-11 3-14 4l-2 1v1h-1v1h-1v1h-1v1h-1v1h-1v1h-1v2l-4 6q-4 5-10 14-4 9-5 10v1l-1 2q-2 1-4 2-1 0-4 7-4 7-4 8v2l-1 8q-1 8-2 12v12q1 7 2 10t2 4l1 1v1h1v1h1v1h1v1h1v1h-2v-1h-1v-1h-2l-1-1-1-1h-1q-1 0-7-4t-9-8q-4-4-5-4t-4-4-4-4-8-9-13-23q-6-13-9-30t-4-37 3-49z" fill="#fbfafa" stroke="#fbfafa"/>
  <path d="m817 50t1 1l5 13q5 12 5 19v7l-1-2-1-2v-5l-1-1q-1-1-3-6-2-4-4-13l-2-9v-1q0-1 1-1z" fill="#321c1d" stroke="#321c1d"/>
  <path d="m953 59h1v1t-1 0-1 1v1q-1 0-4 0l-3-1v-1q-1 0-1 0l-2-1q-2-1-2-4-1-3 4-1t6 3q2 1 3 2z" fill="#762d30" stroke="#762d30"/>
  <path d="m210 376v1h1v1h1v3l1 2v2h-2v-1l-1-1v-1l-1-1-1-1v-1h-1q0-1-1-2-2-2-7-6-5-3-22-7l-17-4-1-1-1-1h-3v-1h-1v-1h-1v-1h1l2 1h3l5-2q5-2 12-2 7 2 17 9 11 7 13 11 4 4 4 4z" fill="#160101" stroke="#160101"/>
  <path d="m546 635v-1h1l2 7q2 7 3 8 1 0 1 1t11 3q10 1 15 2h5v-1t1 0h1v1q0 1-4 2l-3 1-1 1q-1 1-2 1-2 0-10 1t-12-1q-3-2-5-8l-1-6-1-2q0-1-1-1h-1v-4q1-3 1-4z" fill="#1e0101" stroke="#1e0101"/>
  <path d="m590 198h1q1 1 1 2h-1l1 1h1v-1l1-1 1 7q1 6 4 11t5 9q0 3 0 9t-1 7l-1 2v2l-1 1-1 1v1h-1v1h-1v2l-1-4q-1-5-3-17l-4-12v-5h-1v-1h1v-1h-2v2l-1 2-1 3-1 1-1 2v4l-1 6q-1 6-3 10-2 5-6 9t-10 7q-6 2-15 3l-9 1v-1h1v-1h2l1-1 1-1h1l4-4q4-4 10-12 7-8 13-11 7-4 11-17 4-14 5-14v-1q1 0 1-1z" fill="#2b2829" stroke="#2b2829"/>
  <path d="m634 626v-5l1 1 1 2v3q0 3 1 5l1 1v3l1 2 1 1v-1l1 4q1 5 1 9v4l-1 1q-1 0-3 12t-7 20-8 10-3 3h-1v1h-3l-1 1-1 1h-1q-1 0-9 3t-17 7-21 4-14-2h-1l-1-1-1-1h-3v-1h-1v-1h-1v-2h1l6-1q6-1 31-13 25-14 26-15 0-1 1-1 1-1 1-3t0-3v-2t1-1l1-1h1v-1h1v-1h2v-1t4-1q3-2 6-7t5-15l2-10v-1l1-1v-6z" fill="#810000" stroke="#810000"/>
  <path d="m592 617l3 9q3 10 4 13t1 9v7l-1 2-1 2v2h-1q-1 1-5 4t-13 7l-9 2h-8v1h-2v-1q0-1-1-1v-1q-1 0-7-6t-6-14l-2-8v-2h2v1l1 1 1 2 1 6q2 6 5 8 4 2 12 1t10-1q1 0 2-1l1-1 3-1q2-1 2-2v-1t1 0h1v1h2q1-1 4-2 2-1 2-13t-2-17l-2-5h1q1 0 1-1z" fill="#b00001" stroke="#b00001"/>
  <path d="m567 400h1v1h1v1h1v3h-1q0 1 0 1h-1t-3 3l-3 3h-1v1h-1v1h-1v1h-1v1h-1v1h-1q0 1 0 1h-1q-1 0-3 2t-2 3l-1 1v1h-1v1h-1v1h-1v-1q0-2-2-6-2-3-7-5-4-3-9-1-5 0-7 3l-3 3v9l1-3 1-4v-2q1-2 4-3 2-1 6-1h6l3 4q3 3 3 6t0 6v5q0 3-2 5-2 1-2 2t-4 3q-4 1-10 1h-9l-1-1h-2v-1h-1l-1-1-1-1-4-5q-3-5-3-15 0-11 3-17t9-11q6-4 14-6 9-2 19 0t15 6 5 4z" fill="#f8f8f8" stroke="#f8f8f8"/>
  <path d="m728 230q1 0 2 1v1q0 1-9 8l-9 8h-2v1h-1v1h-1l-1 1-1 1h4l6 3q6 2 10 5 4 4 4 5t1 1h1l1 1 1 1h3v1h-1v1h-3l-1 1q-1 1-8 5-8 5-14 6-6 0-11-2t-9-8l-3-7h-1v-2h1q1 0 3 3 3 2 3 3h1v1h2v1h1v1h2l1 1q1 1 1 0 1-1-2-3-2-2 4-2t7-1q0-1 6-1 7 0 4-1-4-1-12-2-7-1-7-2 1-1-1-1t-7 1-4-1-2-2h-11v2h1v1h1v1h2v1l4 7q4 7 6 16 0 9-2 20-4 10-6 14-2 3-2 4v2h-1v1h-1v1l-1 1-1 1v-1l-1-1-1-1v-1l-1-2q-1-1-3-4-2-4-3-4t-2-2-5-4q-3-2-7-7-3-5-6-13-3-7-1-14l2-6v-3l1-1 1-1v-1h1v-1h1v2l1 1 1 1v2q0 2 1 7l1 6v-3l1-1 1-1v-2q0-2 1-5l1-3v1h1v1h1v1h1v1h1v2h1v1h1l1 3q1 3 2 11l1 7v-1h1v-1h1v-2h1l1 1 1 2 1 1v1h1v1h1v1-4l-1-1-1-1v-2h-1t-3-6l-2-5-1-1-1-2v-5h2l1 1h1v1q1 1 2 1h2v1h1v1h3-1v-1h-1v-1l-1-1-1-1v-1h-1v-1h-1v-1t-5-3q-5-4-16-8l-12-4v-1h-1v-1h-2l-1-1-1-1h-1v-1h1v-1h2v-1h1v1h1l2 1 1 1 7 2q7 2 22 1 16-1 27-5t17-7q6-4 8-7 3-4 4-4z" fill="#2d292a" stroke="#2d292a"/>
  <path d="m459 628l1-8q1 0 2 0l1 2q1 1 1 1v1t-1 11v11h-4v-2h-2v-4q1-4 2-12z" fill="#181010" stroke="#181010"/>
  <path d="m910 150l3 3q3 3 5 6t3 4 1 1h1v1h1v1h2v1h1v1h3l2 1 1 1h2v1h1v2h-1l-1-1h-6l-1-1q-1-1-5-3-4-3-7-4-2-2-4 1t-9 7-16 4l-10 1v-2l1-1 1-1v-2h1v-1h1l6-3q5-3 10-5 6-2 6-2t1-1l1-1h1v-1h1v-1h1v-1h1v-1l1-1v-2q1-1 1-1z" fill="#2c2526" stroke="#2c2526"/>
  <path d="m548 537h1v1q0 1-4 2-4 2-4 3t-2 2-7 7l-4 5h-1v1h-1v1l-1 1-1 1v2l-1 1v1h2q0 1-3 3-4 2-4 3t-2 2l-2 1v-1q0-1 4-5l2-3 1-1v-2h-7q-6 0-12 2l-5 2h-1v1h-1v1h-3v-2h1v-1h1v-1h1v-1h1v-1h1v-1h1v-1l2-1q3-1 14-4 12-3 18-8t9-7 4-2h1q1 0 2-1z" fill="#281414" stroke="#281414"/>
  <path d="m973 54v-1l7 3q8 3 10 6 4 2 4 1v-1h1q1 0 1 1v2q0 1-9 2l-9 1h-2v2h-1v1h-1v5h-2t-4 0l-4 1v-1h-3l-1-1h-2v-2h-1v-1h1v-2l4-6q2-6 4-8t3-2h3q1 0 1 0z" fill="#9f0606" stroke="#9f0606"/>
  <path d="m394 205h1q1 0 1 7v6l1 3v3h-1t-2-2l-2-1h-1q0-1-2-2t-3-3l-2-2 4-3q4-3 4-4 1-1 2-2z" fill="#e7e7e7" stroke="#e7e7e7"/>
  <path d="m714 579v-1h1l-3 16q-4 15-8 26-6 11-11 17-6 5-10 8t-5 3h-1l-1 1-1 1h-2v2h3l2 1 1 1 13 7q12 7 17 11 5 5 10 15t11 28 7 20l1 2v7-1h-1v-1h-2v-1h-1v-1h-1t-5-2-23-2-31-2q-12-2-22-8-10-4-12-4l-1 1h-2v-2h1v-1l1-1q1-1 1-2 1-1 3-6 1-4 5-22 2-18 3-29 1-10-2-16l-3-7v-1h-1v-1h-1v-1l-1-1v-1h-2v-1h-1v8l-1-1-1-2v-3l-1-1q-1-2-1-5v-3l-1-2-1-1v11l-1 1v1h-1v-2l-1-1-1-1v-5q0-1-1-5-1-3-3-3-1-1-1-3t2-2 3-2v-1h1q1 0 1-3v-4l1-10v-9h1v2h1v3q1 4 1 9v5h2v-1h1v-1h1v-1l8-4q8-5 16-7 9-2 24-2 14 0 16-2 2 0 4-1l1-1h1l1-1 1-1h1v-1h1zm-30 114l-1-1h-3l-1-1-1-1v7l2 2q0 2 1 3l1 1v1h1v1h1v1h1v1h1v2h-2v-2h-1v-1h-1v-1h-1v-1h-1v-1q0-1-1-1t-4-7q-3-6-12-9l-8-2-1-1q-2 0-2-3 1-4 11 0 9 3 16 6 6 4 16 4t13 2q2 2-6 1-9 0-9 1t7 5q7 5 10 7 2 3-10-4-13-8-14-8t-2-1z" fill="#2b2728" stroke="#2b2728"/>
  <path d="m186 460l2-6v2q0 1 1 6l1 5v2h2l1-1h1v-1h1v-1h1v-1h1v-1q1 0 2 0 1-1 1-3 1-2 2-2t2-1l1-2-3 6q-2 7-9 17-7 9-9 11-1 0-8 1h-6v-1h2v-1h1v-1h3q4 0 5-2l1-2v-1h1v-1h1v-2h1v-1h-1v-1h-4l-2-1q-3-1-11-1h-8l11-1q10 0 11-1 1-2 2-5t3-9z" fill="#230101" stroke="#230101"/>
  <path d="m711 59l1-1h2v3q0 3-2 5v2h-1v1h-1v2l-2 6q-2 6-1 11t1 6v2h1v1h1q1 1 2 0l1 3q1 3 2 5v2h-1v4l3 7q2 6 3 9 2 3 3 3 1 1 2 1v1h2l1 1 1 1h1v1l1 1h-7q-6 0-10-1l-5-1h-1t-4-4l-5-3v-1q-1-1-1-2h-1q-1-1-1-1v-1q0-1-4-8-2-8-3-21t4-20l5-7t0-1h1l1-1t1-1h2q1 0 1-1v-1h1v-2h2v1q0 1 1 1l1-1h1l1-1z" fill="#ed0202" stroke="#ed0202"/>
  <path d="m151 453v1h1l2 1 3 1h-9l-1-1-1-1t-3-4-3-14v-9l1 2q1 1 3 0t3-1 4-1h4l-1-4q-1-3-4-5-2 0 1 0t5 3q2 2 3 7 1 4 0 4t-3-2q-1-2-4 1-2 2-4 3 0 2 0 10 0 7 2 8 0 1 1 1z" fill="#2c0102" stroke="#2c0102"/>
  <path d="m815 114h1v2t-1 0v2q-1 1-2 7t-3 9l-2 2h-1q-1 0-1 1t-4 2l-4 1v-1q0-1 3-3 3-1 5-5t5-11q3-6 4-6z" fill="#321c1c" stroke="#321c1c"/>
  <path d="m354 82v-1l10 8q9 9 14 16 4 8 6 11 0 2 0 8t-1 6q-1 1-1 1v1l-1 1-1 1v1h-1v1h-1v2h-1v1h-2v-1l-1-1v-8q0-6 0-9t-3-10q-3-6-8-14l-5-8-1-1q-1-1-1-3-1-1-2-1t0-1z" fill="#180101" stroke="#180101"/>
  <path d="m586 612v-1h1q1 0 2 3 1 2 1 3v1l2 5q2 5 2 17t-2 13q-3 1-4 2h-2v-1q0-1 2-2 2-2 2-13t-1-19l-2-7h-1q0-1 0-1z" fill="#2a0102" stroke="#2a0102"/>
  <path d="m247 6l-11-6h794v125h-1v-1q-1-2-1-4 0-1-2-2-1 0-2-8v-14q0-5-4-10-4-4-14-13l-10-9q0-1-1-1v-1q-1 0-1 0-1 0-2-2-2-1-9-6-7-4-7-6-1-2-3-2t-6 2l-5 2v1h-1v1h-1v1h-1v1h-1v1q-1 1-2 2l-1 1h-1v1h-1q-1-1-3-2-1-1-6-3t-4 1q0 3 2 4l2 1t0 1h1v1q-1 2-2 5t-2 3-1 1-8 7l-8 7h-1q-1 1-7 5t-10-2q-5-8-7-2-1 5-5 10-4 6-12 15t-10 18q-4 9-4 24t-4 21q-5 6-15 23l-9 17h-1v1h-1v2l-1 1-1 1v2l-1-1-1-1v-5q0-4-3-16-3-13-7-27-6-14-10-23-6-8-6-10v-2l2-2q2-3 3-9t2-7v-2q1 0 1 0v-2l6-10q6-11 6-12v-9q0-7-5-19l-5-13v-1t-1 0v-2q-1-1-1-5t-3-9-6-8l-3-4q0-1-1-1h-2q-2-1-13-5-10-6-14-6l-5-1h-1q-2 1-4 1t-16 8q-14 6-20 12l-5 4v1h-1v4t-2 5-8 10l-5 5h-1q0 1 0 1h-1v1h-1v1h-2v1l-1 1h-1v1h-2q0 1 0 1-1 0-4 3t-6 3q-4 0-14-1-11-1-15 1t-9 5q-6 3-9 7-4 3-4 4-1 1-5 5-5 5-16 17-12 14-16 18l-5 4h-1l-1 1-1 1q-1 0-1 1h-1q-1 1-7 3t-17 2h-10l-2-1h-1v-1h-3v-1h-1v-1h-3v-1t-6-4q-6-5-10-11t-6-14l-1-8v-2l1-1 2-7q2-7 6-12 4-6 10-8 6-4 8-4 1 0 5-1h5q2 1 4 1h2l5 3q5 3 8 7t5 11q0 7 0 9t-1 4l-1 2v2h-1v1h-1v1h-1v2h-1l-1 1-1 1h-2v1h-1q0 1-7 1-8 0-12-2t-5-3q-1-2-2-7-1-6 3-11t9-5h5l1 1h1v2h1v1h2v-1h-1v-2h-1v-1h-2v-1h-1v-1h-6q-5 0-8 4-4 3-4 6-2 2-1 8 1 7 3 10 2 2 6 4t10 1q7-1 8-1t1-1h1v-1h3v-1h1v-1h1v-1h1v-1h1v-1h1v-2h1q0-1 2-4 1-4 1-12t-1-11q-1-4-5-7-3-3-11-6l-8-2h-7q-7 1-13 3t-11 8q-4 6-7 14l-3 7v4l1 9q1 8 4 15 4 7 11 12 8 5 9 5h1l2 1 1 1h2l1 1h1q1 1 2 1h15q13 0 18-2 4-2 4-2h2v-1h1v-1h2l1-1 1-1h1v2l-1 2-1 1-2 10q-2 10-4 29-2 18-2 19v1q-1 0-1 1v1q-1 0-5 14-4 13-11 17-6 3-13 11-6 8-10 12l-4 4h-1l-1 1-1 1h-2v1h-1v1l9-1q9-1 15-3 6-3 10-7t6-9q2-4 3-10l1-6v-4l1-2 1-1v7l-2 24q0 23-1 26l-1 2v4-1h1v-1h1l1-1h1v-2h1v-1h1v-1h1q0-1 1-4 2-3 2-12t0-13q-2-4-2-16l-2-12 1-2v-2h1v5l4 12q2 12 3 17l1 4v-2h1v-1h1v-1l1-1 1-1v-2l1-2q1-1 1-7t0-9q-2-4-5-9t-4-11l-1-7h1v-1h1v2l1 1 1 1v3l1 2 1 2v1l6 10q7 10 14 18 8 8 9 8h1v1h1v1h1l1 1 1 1h2l1 1 1 1h2v1h1v1l12 4q11 4 16 8 5 3 5 3v1h1v1h1v1l1 1 1 1v1h1v1h1-3v-1h-1v-1h-2q-1 0-2-1v-1h-1l-1-1h-2v5l1 2 1 1 2 5q3 6 3 6h1v2l1 1 1 1v4-1h-1v-1h-1v-1l-1-1-1-2-1-1h-1v2h-1v1h-1v1l-1-7q-1-8-2-11l-1-3h-1v-1h-1v-2h-1v-1h-1v-1h-1v-1h-1v-1l-1 3q-1 3-1 5v2l-1 1-1 1v3l-1-6q-1-5-1-7v-2l-1-1-1-1v-2h-1v1h-1v1l-1 1-1 1v3l-2 6q-2 7 1 14 3 8 6 13 4 5 7 7 4 2 5 4t2 2 3 4q2 3 3 4l1 2v1l1 1 1 1v1l1-1 1-1v-1h1v-1h1v-2q0-1 2-4 2-4 6-14 2-11 2-20-2-9-6-16l-4-7v-1h-2v-1h-1v-1h-1v-2h8l2 1h1v1l-1 2v3h1l3 7q4 6 9 8t11 2q6-1 14-6 7-4 8-5l1-1h3v-1h1v-1h-3l-1-1-1-1h-1q-1 0-1-1t-4-5q-4-3-10-5l-6-3h-4l1-1 1-1h1v-1h1v-1h2l9-8q9-7 9-8v-1t2-3 6-11q2-8 3-17t-1-17-8-17q-5-10-6-10h-1v-1q-1-1-4-4t-11-7-18-4h-14q-1 0-1 1h-1q-1 1-7 3-6 4-7 5-2 2-3 2-1 1-3 3-1 2-2 2t-2 2q0 1-3 8-3 8-1 19v11h1v1h1v2h1v1h1v-2l-1-2-1-1v-13q0-11 3-17 3-7 9-12 7-5 12-7 6-2 6-3h11q11 1 20 5t11 6 2 3h1l4 7q5 8 6 14t1 20-2 18q-2 5-2 6v1l-1 1-1 1v1q0 1-1 2l-1 2q-1 0-4 4-2 3-8 7-6 3-17 7t-27 5q-15 1-22-1l-7-2-1-1-2-1h-1v-1h-1l-1-1h-2l-1-1-1-1h-1v-1t-2-1q-1 0-4-4-4-4-8-6-3-3-4-6-2-2-8-14l-5-12v-2q-1-1-1-2 0-2-1-18-1-15 1-24t6-18q4-10 10-17l5-7v-1h1v-1l1-1 1-1 1-1 1-1h1v-1h1v2l-1 1-1 2v3l-2 5q0 6-1 14v7h1l1-1h1v-1h1v-1l6-2q6-2 17-3t19-5 12-8q5-4 5-4v-1h1v-1h1l3 5q4 5 5 6 0 1 0 1h1l1 1q0 1 0 2h1l5 3q4 4 4 4h1l3 1q2 1 4 2l1 1 5 2q6 2 8 5 3 3 3 3h1v1h1v1h2l2 1h22q20-1 21-1h3l1-1 1-1h2l7-3q6-3 11 6 5 8 10 26t8 35 2 42-5 49-8 40q-6 16-6 17v2l-1 2v1h-1l-1-1h-1v-1t-1-1q0-1-1-2-2 0-6-2l-4-2-2-1-2-1h-5v1h1v1h3v1h1v1h1l3 4q4 3 5 6t1 9-5 13q-5 8-5 10v1h-1v1h-1v1l-1 1-1 1v-1l-1-1-1-1t-3-4-10-8-18-4-17 1-16 7q-10 4-16 12t-13 22l-7 14-1 2-1 1v2h-1v1h2l1-1 1-1h3q3-2 12-1t16 2 16 1h17-1v2h-2v1h-1v1h-1v1h-1v1q-1 0-11 8t-28 18q-17 10-28 13l-12 3h-3v-2l1-1v-1q0-2 1-5l1-3v-10q0-5-2-16t-6-18-6-12q-2-6-3-10-1-3 1-6l2-3v-1h1v-1h1v-1h-4l-2 1q-1 1-3 1l-2 2h-1v-2l-1-2q-1-1-2-8l-2-7v-1q-1 0-1 0t-5 0-11 0h-8q-2 0-10 0-7 0-8 0v1h-1q-1 1-2 1l-1 1q-1 1-1 1h-1q-1 0-2 2-1 0-4 1-3 0-3-1-1-1-5-5-4-3-12-7t-17-4-13 0q-5 2-10 4-6 2-11 7t-8 12-4 16 1 12q0 3 5 9l4 6 1 1 1 1h1v1h1v1h3l1 1h2l1 1h9q7 0 11-2t5-4q1-1 2-1v-1h1v-1h1v1h1v2h2v1l1 1 1 1v1h1v1h1v2l-1 1q-1 0-1 1-1 1-3 2l-1 2h-1v1h-1v2h-1v1h-1v2h4q4 0 4-2 1-2 2-2 2 1 3 1h1v1h2v1h1v1h1v2h-1v-1h-1v10q0 9-1 10v1h-1q-1 1-2 1-2 2-5 2-3 2-4-2l-1-3h-1v1h-1v2l-3 4q-3 4-3 4h-1l-3 1-3 1h-1v-2l1-1q1-1 2-3l1-1 1-1v-1h-5l-4 1h-6v-2h6l4-1q4-1 6-1h3v-1h1v-2h1v-1h1v-1h-1v-1h-2l-1-1-1-1h-2v-1h-1v-1h-2q-2 0-6-1-3-1-9 1-6 0-11 4-6 4-10 10-3 6-13 3t-28-12-33-20q-16-11-14-41l2-30h2l4 2q4 2 9 2h5l2-1 1-1h-4l-1-1-1-1h-2q-2 0-7-4-6-4-7-6t-1-20q0-19-2-42-4-23-2-28 0-4 4-22l4-18 1-2 1-3v1h1l1 1 1 1h1v1l3 8q3 9 7 12t4 11 3 12q2 4 7 6 4 2 5 2h1l7 2q7 2 9 2h4t0 1h1l3 2q2 3 2 3h1v1h1v1h1v1h1v-2h-1q0-1-1-2l-1-2v-1l9 2q8 0 10 1l3 1h4v-1h-1v-3q0-2 0-3t-1-10-4-17-9-14-12-9l-6-2v-1t-1 0h-1q-2 0-4-2t-8-2q-5 0-10-4-5-2-16-4-10 0-13-2l-3-2h-2v-1h-1v-1h-1v-1h-1v-1h-1v-3h1l1 1h1l2 1 2 1 7 2q6 2 21 1t25-5q10-5 20-12 10-8 13-12t3-5h1v-1h1v-2l1-1v-1h-2l-1-1-1-1h-1q-1 0-9-4-8-2-19-3t-18 1-17 6q-10 6-20 14l-10 10h-1v1h-1v1h-1v2h-1v1h-1v1-5l1-1 1-1v-1l7-6q7-7 10-13 3-5 14-11t16-9 11-11q6-9 10-18 4-10 4-16 2-5 2-22t2-21q0-4 1-4v-1h1v-2l1-1 1-1v-3 1h-2l-1 1-1 1h-1v1q-1 0-3 3l-2 4h-1v1h-1v-1l-1-2q-1-1-2-3t-8-9q-7-6-14-10t-19-4-18 2q-5 2-12 7-6 6-10 13l-4 7v1h-1l-1-1v-1h-1l-1-1v-1t-8-7l-8-7q0-1-2-2 0-1-9-6-8-6-15-6l-6-1q0-1-8-1l-8-1q0-1-4-2-5-1-16-9l-10-8q0-1-2-3t-7-5q-5-4-12-8l-7-5v-1t-11-6z" fill="#fcfcfc" stroke="#fcfcfc"/>
  <path d="m468 684v2l1 1 1 1v1l1 1 1 1v1l10 17q10 18 16 35 6 16 8 26t1 26q-1 17-5 29t-4 13-1 1l-1 1v2l-1 1-1 1-1 1h-1l-1-1h-3v-2h2v-1l1-1 1-1v-1q0-1 2-3 1-3 5-15 3-12 4-24t-1-22q-2-9-9-26t-18-38q-12-22-13-22h-1v-1h-1v-1l-1-1v-1h1q1 0 2 1 0 1 2 0 2 0 2-1t1-1q1 1 1 1z" fill="#302d2e" stroke="#302d2e"/>
  <path d="m331 446l5 3q6 3 9 6 3 4 5 11 0 7-2 12-2 6-6 9t-10 3q-5 0-8-2-4-1-6-4t-2-6v-2h-1v-1h1v-2h-1v-1h1v-2l1 4 1 4v1q0 1 3 3 2 2 3 3 0 1 6 2t8-1q2-1 6-4 2-4 3-10 1-5-2-10-3-6-8-10l-6-5v-1z" fill="#3f3c3d" stroke="#3f3c3d"/>
  <path d="m548 431h1l1 5q2 4 5 7t5 5q2 1 3 2v1h-2l-2 1h-5v-1l-1-1-1-1q0-1-3-4l-3-4v-2h-1v-7h1q2 0 2-1z" fill="#dc0607" stroke="#dc0607"/>
  <path d="m320 256l1 2q1 3 4 20t3 40-1 27l-1 4v5l-1 1-1 1v-1l-1-1-1-1v-2h-1v-1h-1v-1q0-1-15-25t-25-42l-10-18h-1v-1h-1v-4 1h4l8 2q9 2 14 2t5-1l9-2q8-3 9-3h1t1 0v-1q1 0 1-1z" fill="#faf9f9" stroke="#faf9f9"/>
  <path d="m986 74v-1l11 5q11 5 12 8t2 8q1 4 3 5t2 1v1h-2q-1 0-1 1-1 1-3 4l-3 2q-1-1-1-1-1-1-2-1 0 0-5-2l-5-2-2-1-2-1h-1v-1h2q2 1 4 1h2v-1h1v-3l-1-1v-1h-4q-2 0-5 0l-2 1-1-2q-1-2-1-4v-11q2-3 2-4zm-1 11q0-1 0-1 1 0 1 0 0 1-1 1z" fill="#390909" stroke="#390909"/>
  <path d="m196 150v2h-2v-1l-1 1-1 2v-5q0-5-2-7-2-3-3-6l-1-4v-2l1-1q1-1 3-5l3-5 3-3q4-2 0 5t-3 15q1 7 1 10 2 2 2 4z" fill="#350101" stroke="#350101"/>
  <path d="m718 562h-2l-1-1-1-1h-1v-1q-1 0-3-3-2-2-3-2t-2-3-6-4-18-8l-13-7h-1v-1h-1v-1h-1l-1-1h-1v2l1 2v5l2 4q2 3 3 4l1 1v1h1v1h1v1h1v1h1v1h1-3v-1h-1v-1h-2v-1h-1v-2l-2-1q-2-1-4-8-4-7-4-12-2-4-3-6-2-2 2-2t14 7 14 10 18 1q14 0 5 2-8 2-10 2-1 2 14 8t8 4q-8-2-9-2t1 4q2 3 6 6 4 2 2 2-1 0-2 0z" fill="#e8e7e7" stroke="#e8e7e7"/>
  <path d="m960 88l-2-13h2l1 1h3v1l6 6q7 7 8 7t1-1l2 2q3 2 3 4 1 1 2 2h1l1 1t0 1h1v1h1l2 1 2 1 5 2q5 2 5 2 1 0 2 1 0 1 0 1h1l-2 4q-1 3 0 8 2 4 2 5h1v2h1v1h-6q-6 0-6 1h-1l-1-1t-1-1h-1v-1h-3q0-1-3-1h-2v-2h-1l-2-1h-3l-1-1q-1-1-8-4l-6-3v-3l-1-3q-1-2-1-4 0-3-2-16z" fill="#b00303" stroke="#b00303"/>
  <path d="m566 580h11q10 0 12 1 1 1 2 3 1 1 1 2v3q0 2-1 5v12q1 7 1 9v2q0 1-1 1h-1v-1q0-1-2-3l-1-1h-1q0-1 0-1v-1q-1-1-2-1 0 0-4-4-3-2-10-3t-13 2-8 6q-1 3-1 5l1 2h-1v1l-1 2v2h2l-1 3q0 4-1 6v2h-1v1q0 1-1 4v3h-1v1l-1 3q-1 3 0 12 1 8 3 10 3 2 4 3t3 1h2l1 1 2 1h2v1h2v1h3l2 1 2 1 8-2q8 0 14-5 7-4 8-6 1-1 1-2 1-1 3-4 1-3 2-13t-5-24l-4-14-1-1-1-1v-6 1h1v1h2v1h1v1l1 1 1 1 2 4q2 4 3 5 1 0 5 9 4 10 4 24t0 16v1l-1 1-1 2v2l-1 1q-1 1-1 1v1t-4 3q-2 3-12 7-9 3-21 3t-19-3l-7-3v-1h-1v-1h-1l-1-1h-2v-1t-5-8q-5-9-5-14-2-5-5-10l-3-5t0-1q0-2-2-8-4-6-3-12 1-5 4-7 4-2 4-3v-2q1 0 1 0h1l3-2q2-1 2-2l8-7q7-7 13-11 7-4 7-4h1q1 0 3 0z" fill="#ad0001" stroke="#ad0001"/>
  <path d="m774 30v1q-1-1-3-1-2-2-11-2-10 0-17 4l-7 3q0 1-1 0h-1t1-1q1 0 1 0v-1h1q0-1 1-1h1v-1h1v-1l8-4q8-4 14-4 5 0 8 4 4 3 4 4z" fill="#240203" stroke="#240203"/>
  <path d="m171 144l2-12 3 14q2 13 8 26 6 12 8 16 3 4 3 4h1v1l1 1 1 1v1h1v1h1v1l-2 1h-1v-1l-1-1v-1h-2v-1h-1v-1h-1t-4-5-10-12q-6-8-8-15t1-18z" fill="#240101" stroke="#240101"/>
  <path d="m413 91l1-1h8l1 1 1 1h1v1h1l2 3q2 4 2 4v1q-1 1-2 1l-2 1v-4h-1v-1h-1v-1l-1-1v-1h-1l-1-1h-3q-4 0-6 2h-1v1h-1v1l-1 2-1 2v-5l1-1 1-1v-2h1v-1h1l1-1z" fill="#393737" stroke="#393737"/>
  <path d="m944 61v-1l3 2q3 1 4 0 1-2 1-2h1l1 15q0 15 2 22t3 9l1 3v5h-2q-1 0-10-7l-8-7t-4 0-12 3l-8 3t-1 1v1h-1t-2 0h-1v1h-1v1h-1l-1 1-1 1h-1v1-6l1-1 1-1 3-5q4-6 9-9 5-4 5-5-1-1-1-1l8-7q8-6 8-7t1-1 2-4 1-5z" fill="#a80606" stroke="#a80606"/>
  <path d="m155 519v-3l5 2q4 2 6 3t8 1h7l-1 1q-1 1-3 1h-2l-3 1q-2 1-6 1-5 0-7-1l-2-1q-1-1-1-1v-1t-1-3z" fill="#2c1b1b" stroke="#2c1b1b"/>
  <path d="m352 226h2l1 1q1 1 1 1h1v2q-1 0-4 2-4 2-11 9l-8 6-1 1h-2v1h-1v1h-2v1h-1v1h-1l-1 1-1 1h-2v-1h-1v-1h-1v-2h-1v-1l1-1v-1h1v-1h2v-1h1l13-9q14-10 15-10z" fill="#1f0f0f" stroke="#1f0f0f"/>
  <path d="m563 564v-2l14 4q14 4 15 5l2 1t-1 1l-1 1h-6q-7 0-9-2-2 0-8-3l-6-3v-2z" fill="#770102" stroke="#770102"/>
  <path d="m152 331l-1-2 11 1q12 2 20 2h7l-2 2q-1 2-1 4v2h-3q-3 0-17-4-13-4-14-5z" fill="#231515" stroke="#231515"/>
  <path d="m778 131h2v1q0 1-8 5-9 3-14 5-6 0-8-1l-3-1-1-1-2-1h-2v-1l13-1q13 0 17-2t5-2h1t0-1z" fill="#310101" stroke="#310101"/>
  <path d="m468 254l-1-4 7 4q8 4 13 9t8 13 4 17 1 10 0 3v3h1v1h-4l-3-1q-2-1-10-1l-9-2v1q-1 0-2-2t-1-5q2-2-2-4l-3-3v-1q-1 0-1-5t1-10 2-13q1-7-1-10z" fill="#a50607" stroke="#a50607"/>
  <path d="m542 437v-3h1v1h1v4h2v2l3 4q3 3 3 4l1 1 1 1v3q-1 0-2 1h-2q0-1 1-1l1-1v-2h-1v-1h-1v-1l-1-1-1-1v-1h-2v-2h-1v-1h-1v1h-1v1q-1 0-2 1-1 2-5 4t-11 2h-9l-1-1h-1v-3h-1v-1h1l1 1h9q6 0 10-1 4-2 4-3t2-2q2-2 2-5z" fill="#362d2e" stroke="#362d2e"/>
  <path d="m284 104h1t1 1l2 1q3 1 6 5 4 3 4 4 1 1 2 1v1q0 1 2 2 0 1 0 7 0 7-11 18-11 10-18 11l-7 1-2-1h-1v-1q-1 0-1 0 0-1-1-1h-1q0-1-4-4l-5-4v-1q-1 0-4-4-3-5-7-5-3 0-5-3-1-4-1-10l1-7v-1h1v-2l1-1 1-1v-2h1l4-4q4-4 8-6t11-2q6 0 14 4t8 4zm-6 35l-8 1h-1q-1 0-3 0-1 0-2-1l-1-2h2l2 1h8l1-1 1-1h1v-5l-1-1-1-1v-1l-1-1-1-1v-1t-4-2q-3-1-10-2-8-1-10 1-3 0-5 3l-1 3-1 2-1 3v-10l2-4q3-3 10-6 6-3 14-2 7 1 11 2t1 2q-4 0-1 5t3 9q0 5 5 3t6-5 1 1-4 7-12 4z" fill="#e70101" stroke="#e70101"/>
  <path d="m771 60v2q0 2 2 4 3 1 3 0 0 0 1 1v1q1 0 1 1v1t-2 8q-2 9-4 11l-3 1-1 1q-1 1-3 1l-2 1 1-1q0-2 1-2h1v-1h2l1-1h1v-1t1-4-1-7q0-2-6-6l-6-4q0-1-1 0h-5q-3 0-7 4l-5 3v1h-1v1h-1v1h-2v-2h-1v-1h1v-1h-1v-1h-1v-3h1v-1h1v-1l1-2q1-2 3-2 2-1 4-3 2-3 4-3 2-2 8-1t10 3 5 2zm-19 4q0-1 2 0 1 0 0 1-2 0-2-1z" fill="#820102" stroke="#820102"/>
  <path d="m162 188v2q1 2-7 7-9 5-13 9-4 5-9 14t-5 12q0 2-1 2-1-1-1-1v-1q0-2 0-10v-8l-1-2-1-1v-2h-2v2h-1v1h-1v2l-1 1-1 1v2q-2 1-2 8-2 7-2 8v2h-1v1h-1v1h-1v1h-1v1h-1l-1 1-1 1h-1v-2h1v-1h1v-1h1v-1h1v-2l1-1q1-1 1-2v-2l1-4v-4q-1 0-1 0l-1-1v-1l1-1v-2l1-1v-2h-2q-2 0-5 0h-5l3-1 3-1 4-2q5-2 6-5 2-3 14-5t18-5q7-4 7-5t2-2q3 0 4 0z" fill="#ebeaea" stroke="#ebeaea"/>
  <path d="m746 48v1q-1 1-4 3-2 2-4 4-3 2-7 9l-5 8v2l-1 1-1 2v3t-1-1-1 0-1 1q-1 1-5 5t-4 7v4l-1 3-1 2v-2l-1-2v-1h1v-1h-2v-2q0-1-1-6t1-11l2-6h1v-1h1v-1h1v-1h1v-2h1v-1h1v-1q1-2 12-10t14-9q3 0 3 1 1 1 1 2z" fill="#5b0001" stroke="#5b0001"/>
  <path d="m310 102h1l4 4q5 3 7 7t2 9q2 4 1 12t-4 16-5 10-3 3l-1 1h-2v-2l1-1 1-1v-3h1v-1q1 0 3-5t2-18 0-15q-2-1-5-5l-4-3v-1h-1v-1t-1 0v-2t1-1q1 0 1-1 0-2 1-2z" fill="#1f0101" stroke="#1f0101"/>
  <path d="m471 84l1 2v1h1v-1h1l2-4q2-3 3-3v-1h1l1-1 1-1h2v-1 3l-1 1-1 1v2h-1v1q-1 0-1 4-2 4-2 21t-2 22q0 6-4 16-4 9-10 18-6 8-11 11t-16 9-14 11q-3 6-10 13l-7 6v1l-1 1-1 1v5-1l1-1q1-2 1-2h1v2l-1 1v1l-1 1v1h-6v-3l-1-3v-6q0-7-1-7h-1q0-1 1-1t4-4 4-14l2-11v1h1v-2h1v-1h1v-1l1-1 1-1 3-4q3-3 4-4l1-1v-2l1-1v-2h2v1h1v2l2 3q2 3 2 6v3h1l1-1h2l9-7q9-6 13-10t4-7q2-2 1-8-1-7-1-9t-1-3l-1-1v-1h-1v-1h-1v-1l-1-1-1-1h6l3 2q3 2 3 3v1h1v1h1v2h2v-13q0-6 0-11-2-5-5-13-3-9-7-12-3-3-4-4 0-2-8-6t-18-5q-9-1-16 2-6 3-12 9-5 6-6 12l-1 6h-1v-1h-1v-1h-1v-1l-1-1v-1h-1l-2-1-1-1v-1h2l1 1q1 0 4-7 2-6 10-12 7-6 12-8 6-2 18-2t19 4 14 10q7 7 8 9t2 3z" fill="#292526" stroke="#292526"/>
  <path d="m272 162l-2-2-2-1-1-1h-1l-2-1h-1v-1h-1v-1l-1-1v-1h1l1 1h1l1 1 1 1 7-1q7-1 18-11 11-11 11-18 0-6 0-7-2-1-2-2v-1t0-2q1-1 2-1t2 2q0 1 2 3 2 1 0 8-2 8-6 18t-9 14-11 5q-5 1-8-1z" fill="#1b0101" stroke="#1b0101"/>
  <path d="m572 422v-1t1 1l1 2 4 1q4 0 4 1t5 1q5 1 5 1 0 1-1 1 0-1-2 1l-2 1h-1q-1 1-1 1h-1q-1 0-7 2l-6 2v-1h1v-1h3v-1l-1-1v-2l-1-1-1-1-2-1q-1 0 0-2v-2t1-1q1 0 1 0z" fill="#510f0f" stroke="#510f0f"/>
  <path d="m168 399l5 1 2 2q1 2 2 2v1h1t1 1q1 0 1 0v1q-1 1 0 1 0 0 1 0v12q-1 11-3 14-2 2-2 3v1h-1l-1 1h-2v-1h1v-1h1v-2h1v-1h1v-2q0-1 1-2t-1-6q0-5-2-6-1 0-1-1-1-1-5-4-5-3-15-3l-10-2-1 1q-2 1-2 3v2t-1 0v1l-3 5q-3 6-3 6h-1v2l-1 2-1 1v2h-2v-1h-1v-3l1-2v-3q0-2 4-10 4-7 7-11 4-3 15-4 10-1 14 0z" fill="#a50001" stroke="#a50001"/>
  <path d="m231 489l9-11 1 2q1 1 2 1t1-1q1-2 2-2h1l-7 9q-8 9-9 10-1 0-2 2-1 1-2 2-1 0-3 2-1 1-2 2t-2 1h-1v1h-1v1h-3l-1 1h-1v-1h-1l1-1 1-1h3v-1l1-1 1-1q1 0 1-1t1-2q1 0 10-11z" fill="#2f1c1d" stroke="#2f1c1d"/>
  <path d="m978 137h5v2h-1l-1 1h-1v1h-1v1h-1l-1 1q-1 1-2 2t-5 6-5 5-3 4q-2 3-4 4h-2v1h-1v1h-1v1h-1v1h-2l3 1 2 1h-1q-1 0-10 2l-9 1v-2h-1v-1h-2l-1-1-2-1v-1h-1v-1h-2v-2h-2l-1-1-1-1h-1v-1l-1-1v-1h1l1-1h7q2 2 6 2h3v-2h-1q-2 0-5-2h-3l1-1 1-1h1l1-1 1-1h3l4-2q3 0 4 0t5 0h4-2q-2 0-3-1l-1-1h-2l2-1 2-1h3l2-1 1-1h-3v-1h-1v1h-2l-1 1-2 1h-1q-1 0-9 1-7 1-7 3 0 1-1 1l-1 1h-3l-1 1-1 1h-2v-5l1-1 1-2v-1h1v-1h1l3-4q4-4 9-5 6-1 14-1 9 0 16 2 6 0 10 1z" fill="#2d1d1d" stroke="#2d1d1d"/>
  <path d="m277 95v-1l13 6q12 5 14 6 1 0 2 1h1v1q1 0 1 0v1h1v1l4 3q3 4 5 5 0 2 0 15t-2 18-3 5v1h-1v3l-1 1-1 1v2t-2 1l-1 1h-3v1t-1 1h-3l-4 1q-3 1-13 0t-11-3q-2-2-3-2h-1v-1h-1v-1h-1v-2h-1l-1-1h-1v-2h1l2 1h1l1 1 2 1 2 2q3 2 8 1 6-1 11-5t9-14 6-18q2-7 0-8-2-2-2-2-1-1-2-1-2 1-2 1-1 0-2-1 0-1-4-4-3-4-6-5l-2-1q-1-1-1-1t1-2q0-1-2-2h-2l-2-1q-1-1-2-2l-2-1 1-1z" fill="#ab0001" stroke="#ab0001"/>
  <path d="m268 94h2l2 1 2 1h2l2 1q1 1 2 2l2 1 2 1q2 1 2 2t0 2q-1-1-1-1h-1t-8-4-14-4q-7 0-11 2t-8 6l-4 4h-1v2l-1 1-1 1v2h-1v1h-1v-4l1-1 1-1v-1l1-1 1-1 2-4q2-3 8-7 5-3 12-3 6 2 8 2z" fill="#340102" stroke="#340102"/>
  <path d="m150 129l2-1h1q1 0 1 1v3h1l-2 6q-1 5-2 8v2h-1q-1 0-1 1v1q-1 0-1-10v-10h1l1-1z" fill="#261919" stroke="#261919"/>
  <path d="m110 221h1l1 1t1 0v1h-2v1l-1 1v2l-1 1-1 1-6 6q-7 5-9 6-1 1-3 3t-2 2v1h-1v1h-1v1h-1v1h-2v-1h1v-1t2-2v-2l-4 1-3 1h-3l1-1 1-1h2l1-1q1-1 4-2l3-1 1-1 1-1h1l1-1 1-1h-10l-1-1-1-1h7l3-1q3-1 7-2 3-1 7-5l5-4v-1z" fill="#e2e0e1" stroke="#e2e0e1"/>
  <path d="m306 401h1v1l1 2v1l1 1 1 1v-1h1l-12 18q-11 18-16 29t-6 17-1 15 3 14q2 5 2 6h1v2h1v1h1v1h1v1h1v1h1v1h-2l-1-1-1-1h-1v-1h-1v-1h-2v-1q-1 0-3-3l-2-3h-1v-1h-1v-1l-1-1-1-1v2l-1 3-1 3v19q0 20 4 30 2 10 9 19 6 9 15 15 8 6 10 7 1 1 2 1h1l2 1 2 1h2l-1 1h-1v1l1 1v1h-2l-2-1q-3-1-8-3l-6-2h-1l-1-1h-1v1l1 2v1q0 1 0 9v8h-1v-1h-1v-2h-1v-1h-1v-1h-1v-1h-1v-1q0-1-4-9l-4-7-1-2-1-2v-3l-1 2-1 1h-1v-2q1-2 1-4v-2l-1-1-1-1v-2l-1-1-1-1v-1l-1 6v6h-1v-1h-1v-7q-1-8-1-12l-2-5v-3h-1v-1h-1v-1h-1v-1h-1v15q0 8-4 16-4 7-13 13-9 5-27 5t-20 0h-2l-2-1h-3v-2h1l1-1h1l1-1q1-1 1-1t4-8 9-16q5-7 8-10 4-3 4-4 1-1 3-2t11-4l10-4h8v2l-1 2v3h-1v1h-2q-2 0-3 1l-1 1h-2l-1 1-1 1h11l1-1h1v-1q0-1 2-4t2-26q2-22 5-38t11-32l6-17h1v-1h1v-2l1-1 1-1v-1h1v-1h-2v1h-1v1h-2l-1 1-1 1h-1t-3 2-14 6l-10 4h-1l-1 1v-3h-1l-1 1v-11l1-1v-1h1v1h1v6h1l1-1h2l2-1q2-1 13-7 10-6 19-14t13-14q5-7 6-7z" fill="#312e2f" stroke="#312e2f"/>
  <path d="m317 59l2 1h1l4 2q4 2 6 2t2 0l11 8q11 8 11 8v2q-1 1 0 1t2 1q0 2 1 3l1 1 5 8q5 8 8 14 3 7 3 10t0 9v9q0 2-6 14-4 13-8 26t-10 20q-6 6-13 10l-7 4h-2l-1 1-1 1h-2q-3 0-26 8-22 8-33 9t-17-1l-7-2-1-1-2-1h-2t-1-1h-2v-1q-1 0-8-5t-16-13l-9-8v-1h-1v-1h-1v-1l-1-1-1-1v-1h-1t-3-4q-2-4-8-16-6-13-8-26l-3-14v-3h1v-1l1 2 1 1v2h-1v1h2v1h-1v1h1v1h1v-4l-1-1q-1-2-1-3t2-1h2v-2l1 1 1 1v-4l1 2q1 2 1 2t1 2l1 2 1 4q1 3 3 6 2 2 2 7v5l1 6q1 6 11 15t22 17q13 8 14 9l1 1h1l1 1 1 1h2v1h2l7 3q7 2 9 3 3 1 4 1h18q17 0 21 0 4-2 11-2 6 0 9-1 3-2 10-31 7-28 8-30v-1q1 0 1-3 2-3 2-10 0-8-1-14-1-5-3-13 0-8-2-11l-1-4q-1-1-1-1v-2l-1-1-1-1v-1l-1-2q-1-1-5-8-5-6-6-6t-2-2-2-2l-2-1q0-1 0-2-1-1-2-1t-2-2q0-2 1-1z" fill="#9d0000" stroke="#9d0000"/>
  <path d="m179 408l-2-3h1t1 1q1 0 1 0v2t1 0v1l3 5q2 4 3 4t0 5-7 11q-5 6-6 7l-1 1h-1v2h-2v-2h1v-1l1-1v-1h3v-1q1-1 3-4t2-12q0-10-1-14z" fill="#290102" stroke="#290102"/>
  <path d="m698 65h2v1l-5 6q-5 5-5 20 0 14 3 22t4 9q1 2 2 3v1h-1q0-1-5-8l-5-7h-1v1h-1v1t-5 4q-4 4-12 8t-19 5-17 3l-6 2v1h-1v1h-1l-1 1h-1v-7q1-8 1-14l2-5v-3l1-2 1-1v-2h-1v1h-1l-1 1-1 1-1 1-1 1v1h-1v1l-5 7q-6 7-10 17-4 9-6 18t-1 24q1 16 1 18 0 1 1 2v2l-1 1v1h-1v1h-1v-1l-1-1-1-1v-2h-1v1h-1l-1 1v1h-1l-1-1h1l-2-1h-1v-1l1-1q0-1 0-1t2-18q2-19 4-29l2-10 1-1 1-2v-2h-1l-1 1-1 1h-2v1h-1v1h-4v-2h1v-1h1v-1l1-1 1-1h1l5-4q4-4 16-18 11-12 16-17 4-4 5-5 0-1 4-4 3-4 9-7 5-3 9-5t15-1q10 1 14 1 3 0 6-3t4-3 0-1zm-60 52v-1l1-1v-1h2l1-2q2-2 2-3v-1h1v-1h1v-1l1-1v-1h-3q-1 0-3 0h-4 1l1-1 1-1h6q4 0 6-3 3-3 8-6 6-3 12-5 5-2 6 0 0 2-4 3-3 1-8 4-5 4-8 12-4 8-4 1 0-6-5-2-5 5-7 8-2 4-3 4t-1-1z" fill="#282324" stroke="#282324"/>
  <path d="m264 257v-1h2l10 2q10 2 16 2h6v1q0 1 0 2h1q0 1-5 1t-14-2l-8-2h-4v-1q0-1-2-1t-2-1z" fill="#2d191a" stroke="#2d191a"/>
  <path d="m274 50v2h2l2 1 1 1h2l9 5q9 5 20 12 10 8 11 9 0 1 4 4 3 3 5 4 0 2 1 2v1h1v1h1v1l1 1v1h1v1h1v1h-1v1h-3l-2-1-1-1h-1l-2-1h-1v-1q-1 0-7-6t-14-9-22-4h-13q0-1-6-3t-7-4q-2-2-7-4t-10-3-10 5l-5 5h-1q-1 1-3 1-3 2-9 5-7 3-8 7l-2 3h-1v2l-1-1-1-1v-2h-1v1h-1l-2-1h-2v-1h1l1-1 1-1h2l1-1q0-1 0-1 0-2 20-14 21-14 31-16t17-1q8 1 8 1z" fill="#6c0000" stroke="#6c0000"/>
  <path d="m724 136h7t1-1h2v1t-2 0q-1 1-1 2l1 1v1l1 1 1 1v1h1v1h1v1l1 1q0 1 2 2 3 2 2 2 0 0 0 1h-2l-2-1h-2v-1h-1v-1h-1t-3-3q-2-3-8-5l-5-2-1-1q-2-1-4-2l-3-1 5 1q4 1 10 1z" fill="#2e1b1b" stroke="#2e1b1b"/>
  <path d="m902 139l2 4q2 3 4 5 2 1 2 2 0 0-1 1v1h-2v1h-1v2h-1l-1 1h-1q-1 0-3 2h-1l-3 1-2 1h-2v-1l1-1 1-1v-2h1v-1l1-1q2-2 2-3v-1l1-1 1-1v-6q1-1 2-2z" fill="#2e2627" stroke="#2e2627"/>
  <path d="m318 250h2v2h1v1h1v1h1t-1 1l-2 1q-1 0-1 1h-1q0 1 0 1h-1q-1 0-9 3l-9 2h-1q0-1 0-2v-1l6-2q6-2 9-5t5-3z" fill="#261515" stroke="#261515"/>
  <path d="m214 358h1l1 1h2l2 3q2 3 3 3t3 3q2 2 2 2v1h-6v-1h-1t-3-6l-4-5v-1z" fill="#2c1c1c" stroke="#2c1c1c"/>
  <path d="m466 293h1l3 3q4 2 2 4 0 3 1 5t2 2l1 2q1 1 1 2h1v2h-1v-1h-1v-1h-1v-1h-1t-2-3l-3-2v-1q-1 0-1 0v-1q0-1-1-1 0 0-10-6l-10-4v-1h-1v-2h-1v-1h-1v-1l-1-1-1-1v-3h1l1 1 1 1h1v1l3 1q2 2 2 2h1v1h1v1h2v1h1v-2l-1-1-1-1v-1l-1-2-1-1q0-1-3-9l-3-8 1-3q0-3 5-3 4 0 5 1 1 0 2 3t3 14q0 11 2 13 2 3 2 2z" fill="#550707" stroke="#550707"/>
  <path d="m768 9h1l3 1q3 2 14 8 11 8 11 8h1v1h1v1h1q2 0 2 1h1v1l2 2q3 3 7 12 4 8 4 8l2 9q2 9 4 13 2 5 3 6l1 1v5l1 2 1 2v2q0 1-6 12l-6 10v2t-1 0h-1t-3 7-8 11l-4 5h-1q0 1 0 1h-1q-1 0-5 2l-3 2v1h-1v1h-2v1h-1v1h-1v2h-2q-1 0-21 1h-20q0-1 0-1 1 0-2-2-2-1-2-2l-1-1v-1h-1v-1h-1v-1l-1-1-1-1v-4h2v-1h2l1 1h3q2 0 2 1v1h2l2 1 1 1 3 1q2 1 8 1 5-2 12-5 8-3 8-4v-1t0-1h2l8-6q8-6 8-7t1-1h1q1 1 1 0h1v-2h1l1-1h1v-1q1 0 1-1t5-5 5-9q0-6-2-12-4-7-5-18l-1-11v-3l-1-2q-1-1-5-8t-8-10q-4-2-11-3l-7-1q0-1-4-4-3-4-8-4-6 0-14 4l-8 4v1h-1v1h-1q-1 0-1 1h-1q-1 1-1 1h-1t0 1q-1 1-3 3t-3 2h-1v1h-1v1h-1v1h-1v1h-1v1h-1v-10h1v-1l5-4q6-6 20-12 14-8 16-8t4-1z" fill="#a90405" stroke="#a90405"/>
  <path d="m993 94h4v1l1 1v3h-1v1h-2q-2 0-4-1h-3q0-1 0-1l-1-1v-1q-1 0-1 0v-1l2-1q3 0 5 0z" fill="#bd1e24" stroke="#bd1e24"/>
  <path d="m565 532h19q15 0 15 1l-1 3q0 4 2 4h1v2h-1q-1 0-10-4-9-2-18-4h-10v-1h-1q0-1 4-1z" fill="#281112" stroke="#281112"/>
  <path d="m558 80h6v1h1v1h2v1h1v2h1v1h-2v-1h-1v-2h-1l-1-1h-5q-5 0-9 5t-3 11q1 5 2 7 1 1 5 3t12 2q7 0 7-1h1v-1h2l1-1 1-1h1v-1h2v1h-1v1h-1v1h-1v1h-1v1h-3v1h-1q0 1-1 1t-8 1q-6 1-10-1t-6-4q-2-3-3-10-1-6 1-8 0-3 4-6 3-4 8-4z" fill="#3b393a" stroke="#3b393a"/>
  <path d="m154 508h2v1h-1v1h-2v1h-1v1h-1v1h1v1h1v1h1v1h1t1 1v3q-1 2 0 2h1v2h-1q-1 0-4-2-2-2-15-2h-13l-2-1-3-1h-1l11-2q11-2 13-2h1l1-1 2-1h3l1-1h1v-2q0-1 3-1z" fill="#2e1919" stroke="#2e1919"/>
  <path d="m195 236h1l8 5q8 5 14 6 7 1 9 2l2 1h2v2l-1 1v1h-11q-7 0-9 0l-3-1v-1h1v-1h-1v-1h-1v-2h-2t-2 1q-1 0-1-1 1-1 0-1-1-1-1-2-1-1-3-1h-2v-1l-1-1-2-1q-1 0-1-1 1-1 2-2 1 0 1-1t1-1z" fill="#160b0b" stroke="#160b0b"/>
  <path d="m93 434v2l1 10q0 9 4 17t6 9q2 2 2 3v1h1v1h1v1h2l1 1h1v1h1l-1 1-1 1h1v1h1v1h1v1l7 8q7 9 13 11 5 4 7 4t6 1h4v2h-1l-1 1h-3l-2 1-1 1h-1q-2 0-13 2l-11 2h-2q-1 0-4-1l-4-1v-2h-1l-1-1-2-1h-1l-1-1-1-1q-1 0-2-1t-12-13l-10-13v-1q-1-2-3-8t-3-13 3-15q4-9 3-10v-2q1 0 1 0 1 0 1-1v-1h1t0-1q1-1 1-1l5-4q4-4 4-5 1-1 2-2 1 0 1 7 1 6 0 8z" fill="#f30101" stroke="#f30101"/>
  <path d="m680 140h12q10 0 18 4t11 7 4 4v2h-1q0-1-2-3t-11-6-20-5h-12q-1-1-1-1l-1-1q1 0 1-1h2z" fill="#3e3b3c" stroke="#3e3b3c"/>
  <path d="m374 138v-1l1 1v1h2v1q-1 1-1 8t2 11 0 9q0 6-6 14-6 9-15 18-9 10-16 13l-7 3h-8v-2l1-1 1-1h2l7-4q7-4 13-10 6-7 10-20t8-26q6-12 6-14z" fill="#130001" stroke="#130001"/>
  <path d="m600 662v1q0 1-1 2-1 2-8 6-6 5-14 5l-8 2-2-1-2-1h-3v-2h8l9-2q9-4 13-7t5-4h1l1-1q1 0 1 2z" fill="#270102" stroke="#270102"/>
  <path d="m621 728l1 2q0 2 0 2v1t-1 1q-1 0-6 3l-5 3q-1 0-2-1t0-1 0-1q-1 0-1-1t-1-2h-1l8-3q7-3 8-3z" fill="#201010" stroke="#201010"/>
  <path d="m410 129v-1l1 6q1 6-2 18-3 11-3 14v3h-1v-3q0-4-1-4-2-1-3-1h-2v-1q1-1 3-9 4-8 4-13l1-6 1-1q0-1 1-1t1-1z" fill="#291819" stroke="#291819"/>
  <path d="m554 454h26q24 0 25 0h1v2q-1 2-4 6-4 3-4 3-1 1-1 1h-1t0 1v1h-1v1q0 1-1 1h-1v-1q-1-1-1 0l-2 1h-1q-2 1-1 11 2 10 4 15t2 6v2h1v1h1v2h1v1h1-5v-1h-1v-1h-2v-1h-1v-1h-1q-1 0-4-4-4-4-10-16t-7-12q-1-1-3-3l-1-3h-1v-1h-1v1h-1v-1h-1v-1h-1v-1h-2v-1h-1q-1 0-3-1-1 0-2 2 0 2-4 2h-4v-2h1v-1h1v-2h1v-1h1l1-2q2-1 3-2h2q1-1 2-1z" fill="#ad0607" stroke="#ad0607"/>
  <path d="m256 18h1t1 1 2 1h2l8 6q8 5 9 5v1h2v1h1v1h1v1h1q0 1 1 1h1l4 4q4 4 4 4v1h1v1h1v2h1v1h1v1h1l-3 1-2 1h-4q-5 0-6-1l-2-1h-8t-8-1q-7-1-17 1t-29 14q-18 12-19 13-1 2-2 3-1 0-1 1l-1 1h-2l-1 1-1 1h-1v1q0 1-2 2-3 1-8 8-4 7-6 15l-2 8h-1l-1-1v1h-2v-3l-1-1-1-1v-3q0-3-2-14-2-10 0-20l2-10 1-1v-1l5-7q4-7 5-8 1 0 5-4 3-5 9-9t6-4h2l12-6q12-6 17-7t15-1 11 0zm-58 61q0-1 0-1 0 1 0 1z" fill="#f30000" stroke="#f30000"/>
  <path d="m142 409l1-1 10 2q10 0 15 3 4 3 5 4 0 1 1 1 2 1 2 6 2 5 1 6t-1 2v2h-1v1h-1v2h-1v-4q-1-4-4-8-4-3-9-9-6-4-10-5l-5-1-1 1-1 1h-1v1l-1 1v1h-2v-1q1-1 1-2 0-2 2-3z" fill="#250102" stroke="#250102"/>
  <path d="m803 68v-3h1l1 11q1 10 1 20 0 9-3 14-3 4-3 5-1 1-1 1h-1v1l-1 1h-1t-8 7l-8 6h-2q0 1 0 1h-1q-1 0-5 2t-17 2l-13 1q0-1-2-1h-3l-1-1h-3q-1 1-1 1h-1l-1-1v-1h-1l-1-1-1-1h-2v-1q-1 0-2-1-1 0-3-3-1-3-3-9l-3-7v-4h1v1l1 1v2l1 1 1 1v1h7v-1l6 4q5 4 6 5 0 2 2 3t11 1q10 0 11 0 1-2 1-2h1l1 1q0 1 1 1v1h1v-1l4-4q4-3 4-5 1-2 4-4 4-1 6-4 3-3 4-3t5-8q3-7 4-9v-2h1v3l1-2 1-3v-6q2-6 2-7 0-2 1-4z" fill="#a40001" stroke="#a40001"/>
  <path d="m567 450h2l7 1q7 1 20 0h12l-1 1q-1 2-1 2h-1q-1 0-25 0h-26v-2h5l2-1h3q2-1 3-1z" fill="#b71d23" stroke="#b71d23"/>
  <path d="m633 390v6q1 4 1 5v1h-1q-1 0-1-1t-2-1q-1-1-1 4 0 6-8 7t-10-2q-1-2-3-1h-1v-1q0-1 1-1t-2-3l-4-3v-3h1v-1h1q2 0 2-1t3-2 1-1q-1-2-1-2h7q6 0 11 0t5 0 1 0z" fill="#a30809" stroke="#a30809"/>
  <path d="m543 646l1-3h1l1 9q0 8 6 14t7 6l1 1 2 1v1h-2v-1h-2l-2-1-1-1h-2q-2 0-3-1t-4-3q-2-2-3-10-1-9 0-12z" fill="#250102" stroke="#250102"/>
  <path d="m516 593l5-5-1 3q-2 3-2 4h-1q0 1-1 1v1q0 1-2 3t-3 8v6h2l1-1 2-1h1l4-2q4-2 5-3h1v-1q1 0 1 0l3-2q3-2 3-2v1q0 1-7 5-7 5-8 10-1 6 3 12 2 6 2 8 0 1 0 1v-1t-2-2q0-1-3-3-2-2-3-3v-2h-1l-1-1-1-1h-1v1l-1 1-1 1v5q-2 6-2 12v5l-1-1-1-1v-6l-1-6q-1-6-1-19 0-12 2-15t4-4 6-6z" fill="#1f0101" stroke="#1f0101"/>
  <path d="m247 450h1v3l1 3q1 3 0 12-1 8-1 8 0 1-1 2-1 0-1 0v1t-1 1q-1 0-2 0-1 1-2 0l-1-2q0-1 2-4 2-4 3-14l1-9 1-1z" fill="#221414" stroke="#221414"/>
  <path d="m231 382l-9-11h6l9 10q9 10 9 13 2 2 2 3v1h-1l-1 1v-2h-1v-1h-1v-1h-1v-1h-1v-1h-1q0-1 0-1-1 0-10-10z" fill="#2c1b1b" stroke="#2c1b1b"/>
  <path d="m212 151l2-7 1 8q1 9 4 12 3 4 9 5 7 1 8 2h1v1q-1 1 0 2h-16v3q1 3 5 9 5 6 10 10t5 4h1l2 1 1 1h1l1 1h1v2h-2v-1h-2l-1-1-1-1h-1l-1-1q-1-1-14-9-12-8-22-17t-11-15l-1-6 1-2 1-1v1h2v3q1 3 4 5 2 2 3 3l1 1h1v1h1v1h1v1h1v-1l1-2 1-2v-2q0-2 2-9z" fill="#1e0101" stroke="#1e0101"/>
  <path d="m458 938h2l-4 7q-5 7-11 11t-17 7q-10 3-12 4-2 0-2-1t-2 0q-3 0-5 1h-2v-1l1-2v-7q0-7-1-7l1-1v-1h1v-1h1v-1l1-1q1-1 1-1v-1q1-1 1-1h1t0-1h1l1-1 1 1v1h3v-2h1l1-1 1-1h9q9 0 18 0t10 0z" fill="#ab0708" stroke="#ab0708"/>
  <path d="m677 140h1v2q0 1 1 1h1q0 1-6 3-5 2-12 7-6 5-9 12-3 6-3 17v13l1 1 1 2v2h-1v-1h-1v-2h-1v-1h-1v-11q-2-11 1-19 3-7 3-8 1-2 2-2t2-2q2-2 3-3 1 0 3-2 1-1 8-5 6-4 7-4z" fill="#3c393a" stroke="#3c393a"/>
  <path d="m804 61v-4h2l1 11q1 11 5 18 2 6 2 12 0 5-5 9t-5 5-1 1v1h-1v1h-1v1h-1v1l-1 1v1h-1l-1-1 1-1v-1l1-1v-1h2v-1q1-1 3-5 2-3 2-12 0-10-1-20l-1-11v-4z" fill="#230102" stroke="#230102"/>
  <path d="m940 100h-3l3 4q3 2 3 3h1l8 6q9 7 16 9 7 4 9 4h2l3 1h3v-2h2q3 0 3 1v1h1q0-1 1-1h1v1q0 1 1 1h1l1 1h1v1l5 2q4 4 10 2 5-2 8-2 2 0 2 0-1 0-7 3l-6 2v1l1 1 1 2q1 2 2 3l1 1v3h1-3l-1-1q-1-1-5-1-3-2-8 1t-12 9q-8 6-18 10l-11 4h-1l-2-1-3-1h2v-1h1v-1h1v-1h1v-1h2q2-1 4-4 2-4 3-4t5-5 5-6 2-2l1-1h1v-1h1v-1h1l1-1h1v-2h-5q-4-1-10-1-7-2-16-2-8 0-14 1-5 1-9 5l-3 4h-1v1h-1v1l-1 2-1 1v5h2l1-1 1-1h3l1-1q1 0 1-1 0-2 7-3 8-1 9-1h1l2-1 1-1h2v-1h1v1h3l-1 1-2 1h-3l-2 1-2 1h2l1 1q1 1 3 1h2-4q-4 0-5 0t-4 0l-4 2h-3l-1 1-1 1h-1l-1 1-1 1h3q3 2 5 2h1v2h-3q-4 0-6-2h-7l-1 1h-1v1l1 1v1h1l1 1 1 1h2v2h2v1h1v1h-3v-1h-1v-1h-2v-1h-1v-1h-1t-1-1-3-4-5-6l-3-3q0-1-2-2-2-2-4-5l-2-4v-8q0-8 2-12t6-7q5-4 5-4 1 0 1-1v-1l8-3q8-3 12-3t4 0z" fill="#970404" stroke="#970404"/>
  <path d="m374 481l4-9 1 1h1l-2 9q-3 8-8 14-4 6-8 9-5 3-6 4-2 1-2 1h-1l-1 1-1 1h-4l-1 1h-1v-3h3l1-1 1-1h1q1 0 5-2 3-2 9-9 5-7 9-16z" fill="#393637" stroke="#393637"/>
  <path d="m923 85h1t1 1q0 1-5 5-5 3-9 9l-3 5-1 1-1 1v6-1h1l1-1 1-1h1v-1h1v-1h2q2-2 3-2v2q0 1-2 1-1 1-4 3-4 3-6 7t-2 12v8q-1 1-2 2v1h-2v1h-1v1h-1v1h-1v1h-1v1h-1v1q-1 0-3 2t-12 16q-11 14-19 30l-9 15v2l-1 1-1 1v2h2l1-1h1l1-1 1-1 6-2q7-2 18-1t16 3q6 2 6 3h1v1h-1q-2 0-4-2-3 0-14-1-12-1-18 1t-11 5q-5 4-9 11-4 6-4 34l-2 28h1v-1h1v-1h1v-1h1v-1h1l7-5q7-5 10-5 4-2 7-2h3v-2h-1v-1h-1q0-1-1-1l-1-2-1-1v-1l1-1v1h1l1 1h1v1h1l4 2q4 2 16 2 11 0 13 0 2-2 2-2h1v-1h1v-1h1l1-1 1-1h1v-1h1v2h-1v1h-1v2h-1q-1 0-1 1h-1v1h-1v1h-1v1h-1l10 4q10 3 20 12 12 8 12 9t4 5q5 3 8 7 3 5 4 5t7 8q5 7 6 7v1h1l1 1 1 1h1v1h1v1h-4q-5 0-14 2-8 2-20 8-12 5-22 9-9 3-24 4-16 1-22-1-5-2-14-6t-16-8l-8-6h-1v-1h-1v-1h-3v2l-1 1-6 19q-6 20-12 33t-14 25q-7 10-8 12t-1 2h-1v1h-1v1h-1v1h-1v1h-1l14 3q14 3 23 7t14 8 11 14q6 9 10 20 2 10 2 24 0 13-3 24-4 12-8 18t-5 6-4 4q-4 4-8 6t-5 3l-1 1h-2l-1 1-1 1h-4l1-1 1-1h2v-1h1v-1h3v-1t6-4q5-3 9-9 5-6 9-16 4-11 4-23t-4-21-8-14q-4-6-12-12-8-7-17-11-9-3-25-3t-22 2q-5 2-5 3-1 1-5 4t-4 4-3 3q-3 1-18 10l-15 10h-2l-1 1-1 1h-2v1h1v1h2l8 5q7 5 17 15 10 9 14 15 5 7 12 10 6 3 8 4l1 1h5v1h-1v1h-1l-2 1-1 1h-2l-1 1q-1 1-14 7-14 6-28 10l-14 4v1h-5q-5-1-11-2-7-1-18-6t-19-11q-9-7-13-15t-6-15v-7h-1v-1h-1q-2 0-10 2l-9 2h-3v-4h-1v-1h-1v-1l-1-1v-1l7-1q7-1 14-5 8-6 11-7t7-7q4-5 6-7 0-2 1-3l1-1v-4l1-1 1-2v6l-1 3q-1 3-1 5v1l-1 1v2h3l12-3q11-3 28-13 18-10 28-18t11-8v-1h1v-1h1v-1h1v-1h2v-2h1-17q-9 0-16-1t-16-2-12 1h-3l-1 1-1 1h-2v-1h1v-2l1-1 1-2 7-14q7-14 13-22t16-12q10-6 16-7t17-1 18 4 10 8 3 4l1 1 1 1v1l1-1 1-1v-1h1v-1h1v-1q0-2 5-10 5-7 5-13t-1-9-5-6l-3-4h-1v-1h-1v-1h-3v-1h-1v-1h5l2 1 2 1 4 2q4 2 6 2 1 1 1 2 1 1 1 1v1h1l1 1h1v-1l1-2v-2q0-1 6-17 4-16 8-40t5-49-2-42-8-35-10-26q-5-9-11-6l-7 3h-2l-1 1-1 1h-1v-2h1v-1h1v-1h2v-1h1v-1l3-2q4-2 5-2h1t1 0v-1l3-1q4 0 4-1t1-1h1v2q0 2 6 10 4 9 10 23 4 14 7 27 3 12 3 16v5l1 1 1 1v-2l1-1 1-1v-2h1v-1h1l9-17q10-17 15-23 4-6 4-21t4-24q2-9 10-18t12-15q4-5 5-10 2-6 7 2 4 6 10 2t7-5zm3 223h6l-3 1-3 1h-2q-2 0-7 2t7 5q11 3 11 4t-3 0q-2-1-18-1-16-2-6 6 11 6 7 6t-15-7-18-7q-8 0-18 2l-10 4h-4l-1 1h-1v2h2l2 1h3l7 4q7 4 8 4h1l1 1 1 1h1l1 1 1 1h2v1h-1v1h-7l-2-1q-3-1-9-3-6-4-15-4h-8l-1 1-1 1h-2v-3l1-3 1-3v-3l9-5q9-5 10-6 0-1 9-7 8-6 13-8t-3 4q-9 6-12 8-2 2 24 2 27 0 31-2t11-2zm-180 90l-5-2 7 1q8 1 14 5 5 4 12 6 6 1 5 3-1 3-10 8-9 6-9 5t4-4q4-4 5-6t-13-1-16 1q-2 1-7 6-4 6-5 5 0 0 0-1 0 0 1-1l1-1 1-1q1-1 1-2l1-2v-2h-2l-2 1h-3l-2 1q-1 1-4 1l-4 2h-2l-1 1-1 1h-3v-1h1v-1h2l1-1q1-1 3-1h1l1-1 2-1h1l-2-1-2-1h-9v-1h1v-1h9q5 0 8 0t14-2q10-4 16-4h5v-1h-1v-1l-1-1v-1h-2l-1-1-1-1h-1l-1-1q-1-1-7-1zm-28 164h-2l-1-1-1-1h-1v-1q-1 0-3-3-2-2-3-2t-2-3-6-4-18-8l-13-7h-1v-1h-1v-1h-1l-1-1h-1v2l1 2v5l2 4q2 3 3 4l1 1v1h1v1h1v1h1v1h1v1h1-3v-1h-1v-1h-2v-1h-1v-2l-2-1q-2-1-4-8-4-7-4-12-2-4-3-6-2-2 2-2t14 7 14 10 18 1q14 0 5 2-8 2-10 2-1 2 14 8t8 4q-8-2-9-2t1 4q2 3 6 6 4 2 2 2-1 0-2 0z" fill="#272324" stroke="#272324"/>
  <path d="m605 734h1q1 1 1 2t1 1q1 1 0 1t0 1 2 1-5 4q-5 3-10 5-5 1-14 1l-9-2h1v-1h1v-1h-1l-1-1h-1v-1l1-1v-2l10-1q9 0 16-3 6-3 7-3z" fill="#170d0d" stroke="#170d0d"/>
  <path d="m898 248v9l-1 1q-1 2-2 2t0-2l1-2v-4q0-5 0-6t-3-4q-3-2-7-3-5-1-9 1t-8 6q-3 4-4 12l-1 7 1 1 1 1v1h1v1h1v2h-1l-1-1h-2v-2l-1-1-1-1v-8q0-7 2-11 2-5 6-7t10-4q6 0 11 2 5 3 5 6 2 2 2 4z" fill="#393737" stroke="#393737"/>
  <path d="m684 693l-1-1h-3l-1-1-1-1v7l2 2q0 2 1 3l1 1v1h1v1h1v1h1v1h1v2h-2v-2h-1v-1h-1v-1h-1v-1h-1v-1q0-1-1-1t-4-7q-3-6-12-9l-8-2-1-1q-2 0-2-3 1-4 11 0 9 3 16 6 6 4 16 4t13 2q2 2-6 1-9 0-9 1t7 5q7 5 10 7 2 3-10-4-13-8-14-8t-2-1z" fill="#e6e5e5" stroke="#e6e5e5"/>
  <path d="m194 26h1l1 1h1v1l1 1v3h1t-6 4-9 9q-4 4-5 4-1 1-5 8l-5 7h-2v-1l1-1v-3q0-1-2-1h-4q-3 0-10 0h-11v-1h-1v-1h1v-1h1v-1h2v-1h1v-1h4q3 0 6 0h3v-1h-1v-1h-1q-2 0-3-1-1 0-1-1v-1l6-5q6-6 10-6h4l2-1 1-1h2l-3-1-4-1h-1v-1h1v-1h1v-1h1v-1h-3v1q-1 0-3 2-3 2-3 1-1-1-1 2-2 2-8 8-8 5-8 2l-2-3v4q0 4-2 5h-1v1h-1v1h-1v1h-1v1h-2v-4l-1-2-1-1 1-8q1-8 5-14 4-7 10-11t21-6 19-3q3-1 1 12t0 11q3-2 3-2z" fill="#282223" stroke="#282223"/>
  <path d="m286 35v-1l10 8q11 8 16 9 4 1 4 2v2q0 2 2 2 1 0 1 1v2l-2-1q-1-1-1 1 1 2 2 2t2 1q0 1 0 2l2 1q1 0 2 2t2 2 6 6q4 7 5 8l1 2v1l1 1 1 1v1l1 1v1h-5v1l-1-1-1-1v1h-2v-1h-1v-1q-1 0-1-2-2-1-5-4-4-3-4-4-1-1-11-9-11-7-20-12l-9-5h-2l-1-1-2-1h-2v-2h8l2 1q1 1 6 1h4l2-1 3-1h-1v-1h-1v-1h-1v-2h-1v-1h-1v-1t-4-4l-4-4v-1z" fill="#120505" stroke="#120505"/>
  <path d="m638 117v-1l1-1v-1h2l1-2q2-2 2-3v-1h1v-1h1v-1l1-1v-1h-3q-1 0-3 0h-4 1l1-1 1-1h6q4 0 6-3 3-3 8-6 6-3 12-5 5-2 6 0 0 2-4 3-3 1-8 4-5 4-8 12-4 8-4 1 0-6-5-2-5 5-7 8-2 4-3 4t-1-1z" fill="#e4e3e4" stroke="#e4e3e4"/>
  <path d="m148 129v11q0 10 1 10l2 8q1 7 2 8v2h1v2q0 2-2 4 0 2-4 6-3 4-10 8-6 4-16 4-9 0-14-2t-9-8q-5-6-5-14-2-7 0-10 0-3 4-6 3-4 12-4 8 0 11 2 3 3 2 10-1 8-3 9t-6 0-4-5q0-5 2-6 2 0-1 0-3 1-3 6 0 4 1 5t7 2 9-2q3-2 3-9t0-10q-2-2-3-3-2-1-2-2-1-1-3-2t-10-2q-7-1-11 1t-5 4q-2 2-5 8t-3 16q0 9 2 15 4 6 8 10l6 4v1h2l2 1 1 1h1l-10 2q-10 2-17 7t-13 14-8 15q-3 5-5 7-2 1-2 2h-1v1h-1l-1 1h-1v2h1l1 1h4l7 2q6 2 22 1 15-1 23-4t12-8q3-4 5-8 2-3 2-4 0 0 1 1v18q1 18 3 28 2 11 2 18 0 6 0 10v9h1v-1h1l1-1 1-1h1l1-1q1-1 12-5 12-4 21-10t15-14q6-7 12-20 6-12 8-12l1 1 3 1q2 0 9 0h11l8 1q8 1 10 1h3v1l1 1 6 16q8 15 10 26 4 11 4 20t-1 12l-1 2v3l-1 1-1 1v1h2v-1l1-1 1-1v-1h1v-1h1v-2l1-1q1-1 2-4l1-4 1-2 1-2v-2h1v1h1v2l1 1 1 2 12 19q11 19 17 27 5 9 1 18-6 9-6 10v1l-1 1v1q-1 0-1 1l-9 10q-9 11-21 19-11 7-15 9t-6 3l-2 1h-2l-1 1h-1v-8q1-2 1-17 2-14 0-18l-2-4v-1q0-1-2-3 0-3-9-13l-9-10v-1t-2-2q-2-3-3-3t-3-3l-2-3v-2h-1v-1h-1v-1q0-1-2-3 0-2-8-10-8-7-13-8l-4-2h-7q-8 0-20-2l-11-1h-1q-2-1-9 3-7 2-16 10t-19 22-12 16q0 3-1 4v2q-1 0-1 0v16q-2 12-5 18-3 5-4 5v1h-1v1q0 1-1 2v1q-1 0-1 0v1t-1 1q-1 0-1 0v2t-1 0v1l-7 13q-8 12-9 16t-1 8 5 10q5 5 5 6 0 0 0 1h1v1q1 0 1 0v1h1v1l7 6q8 6 13 10t7 4h1l1 1 1 1h2l1 1 1 1h1l4 1q3 1 4 1h3l3 1 2 1h13q13 0 15 2 2 0 3 1h1q0 1 0 1h1l2 1q2 1 7 1 4 0 6-1l3-1h2q2 0 3-1l1-1h1q1 0 12-6 12-5 15-6l4-1h1l1-1h3v-1h1v-1h1q1 0 2-1t2-2q2-2 3-2 1-1 2-2 1-2 2-2 1-1 7-9l7-8h1t0-1q1-1 1-1 1-1 1-2 0 0 1-8 1-9 0-12l-1-3 1-1h1l10-4q11-4 14-6t3-2h1l1-1 1-1h2v-1h1v-1h2v1h-1v1l-1 1-1 1v2h-1v1h-1l-6 17q-8 16-11 32t-5 38q0 23-2 26t-2 4v1h-1l-1 1h-11l1-1 1-1h2l1-1q1-1 3-1h2v-1h1v-3l1-2v-2h-8l-10 4q-9 3-11 4t-3 2q0 1-4 4-3 3-8 10-5 8-9 16t-4 8-1 1l-1 1h-1l-1 1h-1v2h3l2 1h2q2 0 20 0t27-5q9-6 13-13 4-8 4-16v-15h1v1h1v1h1v1h1v3l2 5q0 4 1 12v7l-1 7q-2 7-7 13t-10 17q-5 10-5 12v1h-1v1h-1v1h-1v1h-1v1h-1v1h5l2-1 2-1h2q1 0 6-4 6-3 9-8 3-4 3-22l1-18v-6l1-6v1l1 1 1 1v2l1 1 1 1v2q0 2-1 4v15q1 13 4 24 3 10 4 18l1 8v-1h1v-1h1v-2l1-2 1-1v-2l1-3q1-3-1-10 0-7-6-21l-4-14-1-2-1-2v-2l1-1 1-2v3l1 2 1 2 4 7q4 8 4 9v1h1v1h1v1h1v1h1v2h1v1h1v-8q0-8 0-9v-1l-1-2v-1h1l1 1h1l6 2q5 2 8 3l2 1h6q5 0 13-3 9-3 13-7 4-5 4-14 0-10-2-14-2-3-6-6-5-2-10-2-6 2-9 5l-3 4v5q0 4 1 4v1h1v2h1v1h3l2 1h2v-2h-2l-3-1h-1v-1t-1-1q-1 0-1-4v-5l1-1 1-1v-1h1v-1h1v-1h2l1-1 1-1h5l4 3q5 2 6 5t1 11-4 11q-2 4-10 7-7 3-11 3h-6l-2-1-2-1h-1q-1 0-2-1-2-1-10-7-9-6-15-15-7-9-9-19-4-10-4-30v-19l1-3 1-3v-2l1 1 1 1v1h1v1h1l2 3q2 3 3 3v1h2v1h1v1h1l1 1 1 1h2v-1h-1v-1h-1v-1h-1v-1h-1v-1h-1v-2h-1q0-1-2-6-3-5-3-14t1-15 6-17 16-29l12-18 1-1v-1l1-1 1-1v-1t4-6l2-6 1-1 1-1v-1h1v-1h1v1h1v1h1v1l2 2q1 3 4 6 4 3 22 26t21 30q3 8 3 14v6l-4 9q-4 9-9 16-6 7-9 9-4 2-5 2h-1l-1 1-1 1h-3v1h-1l-2 1h-7q-7 0-13-2t-11-6-9-11l-3-7v-2l-1-2v-4q0-3 1-6 1-2 4-9 4-7 6-7 2-1 2-2 1-1 5-3 4-3 10-3l5-1 6 5q5 4 8 10 3 5 2 10-1 6-3 10-4 3-6 4-2 2-8 1t-6-2q-1-1-3-3-3-2-3-3v-1l-1-4-1-4v2h-1v1h1v2h-1v1h1v2q0 3 2 6t6 4q3 2 8 2 6 0 10-3t6-9q2-5 2-12-2-7-5-11-3-3-9-6l-5-3h-7q-7 0-12 3-6 3-10 8t-5 9q-1 5-1 11v10q0 1 0 1h1v2q1 1 1 2v1l4 6q3 5 4 6 1 0 2 2 2 1 9 5 7 2 13 3 5 1 8 0l3-1h3v-1h2l1-1h4l1-1 1-1h1t2-1q1-1 6-4 4-3 8-9 5-6 8-14l2-9v-25 1h1v1h1v1h1v1h1v1h1v1h1v1h1v1l2 1q3 2 0 36t-3 48-1 15q-1 0-1 0l-1 1-1 1h-14v-1h-1v-1h-1v-10h1v-1h1v-1h2l1-1h2v1h2v1h1v3h-1l-1 1q-1 0-1-1t-1-1l-2 1v4h7v-1h1v-9h-1v-1h-1v-1h-8l-2 1-1 1h-1v1h-1v1h-1v2l-1 2-1 2v3l3 4q2 5 5 6 2 1 10 1 7 0 8-1t2-1h1l1 14q2 15 6 29t10 25q6 12 14 21t20 18 15 12 3 3h1t1 1v2h1v1h1q1 0 13 22 11 21 18 38t9 26q2 10 1 22t-4 24q-4 12-5 15-2 2-2 3v1l-1 1-1 1v1t-1 0v1q-1 0-1 1 0 0-1 2t-5 5q-3 3-8 5t-18-1q-14-2-15-4t-2-9q-1-6 3-10l4-5h1v-1h1l1-1 1-1h4l1 1 1 1h1l1 2q2 1 2 5v4l-1 1v1h2v-1l1-2v-5l-1-1-1-2v-2l-1-1v-1h-8q-5 0-9 4t-5 10q-1 5-1 8 2 3 2 4v2h1l-5 1q-6 1-22 1t-23-3l-7-3h-2v-1h-1v-1h-1v-1h-1v1h-1v2h1v1h1v2h1v1h1v1l6 5q5 6 14 10t24 8q14 4 17 4t12 1l9 1v3h-1v1h-1v2h-1l-6 2q-6 2-9 6-4 2-6 3-3 1-12 4-8 4-11 8t-3 5v1l-1 3q-1 2-3 11 0 9-1 11v1q0 1 0 1h-1v2h-1v1h-1v1h-1v1h-1v2h2l1-1q1 0 1 7v7l-1 2v1h2q2-1 5-1 2-1 2 0t2 1q2-1 12-4 11-3 17-7t11-11l4-7q0-1 1-1 0-1 2-5 1-4 2-4t1-6 2-9 3-15q1-13 2-15l1-3 1-1 1-1v-2h1v-1h1v-1h1l1-1h1v1l-1 2v3l-2 5q-2 6-1 19t4 22q4 9 9 17 6 7 6 8 1 2 9 9t9 7h1l1 1 1 1h1l2 1h1v1h-521v-866l8-1q8-1 12 1t7 7 3 8q2 3 2 5v3l1 4 1 4v-3l1-2 1-1v-10q0-10-3-16l-2-5v-1h-1v-2l26-1q26 0 40 2 15 2 27 8t18 12q5 6 7 9 0 3 0 4zm238 579v-2h3v-1h1v-1h3v-1h1v4l-2 6q-2 6-3 7l-1 2v3h-1v1h-1v3l1-1 1-1v-1l1-1q1-1 2-3l1-2 1-1v-1h2v1l1 1v1q0 1 1 3l1 3v4-5q0-5 0-9-2-4 4-21l4-16 1-1 1-1v-2h2v1h1v1h1v1l2 3q2 2 2 2v1l1 1 1 2v2-10q0-2-3-6-3-3-3-11v-8l1-3 1-4v1h1v1h1v1h1v1h1v1h1v1h1l5 8q5 7 9 16 2 8 2 17t-4 17-7 12q-3 5-5 6t-2 2-25 17q-25 15-26 16l-1 1h-2v1h-1v1h-2v-4q-1-4-5-26-4-21-5-35t1-19q0-6 2-11t7-11 13-10 20-5 12 3q0 3-12 12-11 8-11 10-1 1 10-4 10-6 7 10-4 17-5 18-2 0-9 6-6 6-9 11t3 1q5-5 6-6zm66 134t3 0 2 0-2 0-2 0q-1 0-1 0z" fill="#fdfdfd" stroke="#fdfdfd"/>
  <path d="m268 592l1-7h1v1h1l-1 18q0 18-3 22-3 5-9 8-5 4-6 4h-2l-2 1-2 1h-5v-1h1v-1h1v-1h1v-1h1v-1h1v-1q0-2 5-12 5-11 10-17t7-13z" fill="#2c2829" stroke="#2c2829"/>
  <path d="m316 55v-2l8 1q8 0 8 1h-1q-1 0-1 1l1 2h-4v2t3 2q2 2 2 2t-2 0-6-2l-4-2h-1v-2q0-1-1-1-2 0-2-2z" fill="#1a1112" stroke="#1a1112"/>
  <path d="m476 858q4-1 2 2-2 4-4 3t-2-2 4-3z" fill="#dad7d8" stroke="#dad7d8"/>
  <path d="m598 536l1-3 11 3q12 2 15 4t5 4q0 2 1 4v4q0 1-3 1l-3 1h-1v3q-1-1-2-1-1-2-11-8l-10-6v-2h-1q-2 0-2-4z" fill="#110808" stroke="#110808"/>
  <path d="m546 426v1h1v-1h1v-1h1v-1l1-1q0-1 2-3 3-2 4-3h1v1t-1 1q-1 0-2 1v2l-1 1-1 1-1 4q-1 3-2 3h-1q0 1-2 1h-1v7h-1v-4h-1v-1h-1v-2q0-3 0-6t-3-6l-3-4h-6q-4 0-6 1-3 1-4 3v2l-1 4-1 3v-9l3-3q2-3 7-3 5-2 9 1 5 2 7 5 2 4 2 6z" fill="#3b3233" stroke="#3b3233"/>
  <path d="m608 390h1t1 2q2 0-1 1t-3 2-2 1h-1v1h-1v1q-1 0-2 2-2 0-4 0t-8 2q-5 2-10 9l-5 7v1h-1v2q-1 1-1 1h-1t0 1v2q-1 2 0 2l2 1 1 1 1 1v2l1 1v1h-3v1h-2l-1-1h-2v-1h-1v-1h-1v-1h-1v-5q0-2 1-8l1-5 7-7q7-8 9-9t3-2v-1t1-1h2q2 0 2-1v-2q1 0 8 0 8 0 10 0z" fill="#bd2027" stroke="#bd2027"/>
  <path d="m940 104l-3-4h3l8 7q9 7 10 7h6l6 3q7 3 8 4l1 1h3l2 1h1v4h-3l-3-1h-2q-2 0-9-4-7-2-16-9l-8-6h-1q0-1-3-3z" fill="#a01d22" stroke="#a01d22"/>
  <path d="m759 45v-1l5 1q6 1 20 8 13 7 14 8l1 1h2v1h1v1h1v4q-1 2-1 4 0 1-2 7v6l-1 3-1 2v-3h-1v-5q-1-5-1-8v-2l-1-2-1-1v-3h-1v-1h-1v-1h-1v1h-1v1l-1 2q-1 3-1 6v3l-1 1-1 2v1-5q0-4-1-6t-4-8-9-10-9-6l-4-1z" fill="#1f0101" stroke="#1f0101"/>
  <path d="m573 645h1v1q1 0 4 0h4v2h-12l-1-1-1-1h-1v-1h-1v-2h-1v-2h2l2-1h1v-2l1-2 1-1v-5l-1-2q-1-1-4-6t-4-5q-1-1-5-1h-5v1h-1v1l-1 1v1h-2v3h-2v-2l1-2v-1h2l4-4q3-2 8-2 4 0 9 4t9 10q3 6 1 5-1-1-3 3t-4 6q-2 3-2 4 1 0 1 1z" fill="#2a0102" stroke="#2a0102"/>
  <path d="m725 156h1q1 0 6 10 6 9 8 17t1 17-3 17q-4 8-6 11t-2 3q-1-1-2-1l1-2q1-1 1-2v-1l1-1 1-1v-1q0-1 2-6 2-4 2-18t-1-20-6-14l-4-7v-1z" fill="#393637" stroke="#393637"/>
  <path d="m571 574h5v2h-3q-3 0-5 2h-2l-2 1q-1 1-2 1 0 0-7 4-6 4-13 11l-8 7t-3 2l-2 2h-1t-1 0v1h-1q-1 1-5 3l-4 2h-1l-2 1-1 1h-2v-6q1-6 3-8t2-3v-1q1 0 1-1v-1h1t0-1 2-3l1-2 3-2q2-2 11-4t13-2q5-2 5-2h1t0-1h2l1-1h5q4-2 9-2z" fill="#ea0001" stroke="#ea0001"/>
  <path d="m325 94v2h-3v1l-1-1h-1v-1h-1v-1h-2v-1q-1 0-9-5-9-4-20-7l-12-3h-5l-1-1h-1v-1h-1v-1h14q14 1 22 4t14 9 7 6z" fill="#190101" stroke="#190101"/>
  <path d="m211 390h1v1h1l8 19q9 18 9 27v9l-1 2-1 2v3l-1 1-5 10q-6 10-10 14-4 5-4 6l-11 8q-11 8-17 10t-8 3l-2 1h-3l-1 1h-4q-1 1-4 1h-4q-3 0-3 1h-4q-4-1-6-1t-7-4q-6-2-13-11l-7-8v-1h-1v-1h-1v-1h-1l1-1 1-1h-1v-1h2l1 1 1 1v1h1l3 4q3 2 5 2h3l2-1 2-1h4v-1l8 3q8 2 10 4 3 2 8 0 5 0 6-1h8q7-1 8-1 2-2 9-11 7-10 9-17l3-6v-1q1-1 3-7 4-7 4-18v-12t1-2q1-3-1-8 0-5-1-11l-1-6 1-1z" fill="#a80001" stroke="#a80001"/>
  <path d="m189 332l4 2q5 1 13 8 8 8 8 10 2 2 2 3v1h1v1h1v2h-2l-1-1h-1v1l-1-1h-1v-1h-1v-1h-1v-1t-1-1q0-1-2-2-2 0-3-1 0-1-9-6l-9-5v-2q0-2 1-4l2-2z" fill="#1e1313" stroke="#1e1313"/>
  <path d="m400 160l2 1q3 1 3 5v9l-2 11q-1 10-4 14t-4 4-1 1q-1 1-2 2 0 1-4 4l-4 3t-3 2q-3 3-11 7l-9 4h-1v1h-1v1h-2v-1h-1l-1 1h-1v-3h-1l1-1 1-1h1v-1h1v-1l8-5q9-5 9-6t4-5q4-3 7-8t9-20q4-15 5-16v-1q1 0 1-1z" fill="#0d0404" stroke="#0d0404"/>
  <path d="m197 492l11-8v1q0 1-2 3t-2 3-1 1-5 4q-3 4-4 5-1 0-2 2-2 1-6 3t-8 2q-3 0-8 0h-6v-1h2l1-1h3l2-1q2-1 8-3t17-10z" fill="#270101" stroke="#270101"/>
  <path d="m562 562h1v4h-1q-2 0-3 1-1 0-2 3t-2 3h-1v5q0 1-5 2-5 0-14 2t-11 4l-3 2-2 2q-1 2-1 2v1t-1 1v1q0 1-1 1h-1q-1 0-5 2-2 2-4 5t-2 15q0 13 1 19l1 6v6l1 1 1 1 3 9q3 10 6 16 3 5 4 6h-1v2h1v1h1v2h1v1h1l5 5q5 5 8 7 3 3 3 4v1h1v1h1v2h1l1 1 1 1h-1v1h-1l-1-1h-2l-1-1-1-1h-1l-1-1q-1-1-12-7-12-8-17-11-5-4-9-9t-6-12l-3-7v-1q-1 0-1-1t-1-14v-17l1-3v-3q0-2 2-5 0-3 6-15 4-11 10-18l6-8t1-1l1-1q1 0 1-1h1q0-1 0-1 1 0 1-1l4-3q4-2 4-3v-1h2v-1h1v-1l6-2q6-2 15 0 9 0 11 1 1 1 2 1z" fill="#ac0001" stroke="#ac0001"/>
  <path d="m1022 103v-3l1 1 1 1v8q1 8 2 8 2 1 2 2 0 2 1 4v2q-1 2-1 3t-3 2l-3 1t-2 0q-3 0-8 2-6 2-10-2l-5-2v-1h-1l-1-1h-4v-1h-1v-1h3v1h2l2 1h12v-1h-1v-2h-1q0-1-2-5-1-5-1-7 2-2 2-4v-2l3-2q3-2 4-3 0-1 1-1h2t1 0v1h1v1h1v1h1v1h1v1h1v-3z" fill="#ac0909" stroke="#ac0909"/>
  <path d="m275 602v-13h1v2l1 2 1 2 4 14q6 14 6 21 2 7 1 10l-1 3v2l-1 1-1 2v2h-1v1h-1v1l-1-8q-1-8-4-18-3-11-4-24z" fill="#2e2a2b" stroke="#2e2a2b"/>
  <path d="m719 106l-3-4 2 2q2 0 2 1h1q0 1 1 1l6 3q5 3 17 6t15 5q2 2 3 3v1h-1t-1 2q-1 0-11 0-9 0-11-1t-2-3q-1-1-6-5l-6-4v-1h-1v-1h-1v-1h-1v-1t-3-3z" fill="#e30102" stroke="#e30102"/>
  <path d="m591 606v-8h2q2 0 2 1 1 1 1 2v1h-1q-1 1-1 2v2l1 1 1 1 4 14q6 14 5 24t-2 13q-2 3-3 4v-1h-2v-3l1-2 1-2v-7q0-6-1-9t-4-13l-3-9v-2q0-2-1-9zm2-6h1q-1 0-1 0z" fill="#1c0102" stroke="#1c0102"/>
  <path d="m641 656l1-1-1 13q-1 13-2 19-2 7-4 10t-6 5-9 3l-5 1h-1v-2l1-1 1-1h3v-1h1q0-1 3-3t8-10 7-20 3-12z" fill="#1d0101" stroke="#1d0101"/>
  <path d="m247 398h1l2 4q2 4 0 18 0 15-1 17v2h-1v-1h-1v-7q1-7 1-17 0-9-1-12l-1-3 1-1z" fill="#321f20" stroke="#321f20"/>
  <path d="m624 433v1q-1 0-1 1v2q-1 1-5 9-4 7-12 16l-8 8h-1l-1 1-1 1h-1v1h-1v1h-3v-2h1v-1h1v-1h2v-1l1-1h1v-1t1-1q1 0 1 0v-1t4-3q3-4 4-6v-2t1-2l1-1q0-1 0-1h3v-1h1v-1h1v-1h1v-2l5-7q5-6 5-5z" fill="#be1d24" stroke="#be1d24"/>
  <path d="m386 708v-2h3v-1h1v-1h3v-1h1v4l-2 6q-2 6-3 7l-1 2v3h-1v1h-1v3l1-1 1-1v-1l1-1q1-1 2-3l1-2 1-1v-1h2v1l1 1v1q0 1 1 3l1 3v4-5q0-5 0-9-2-4 4-21l4-16 1-1 1-1v-2h2v1h1v1h1v1l2 3q2 2 2 2v1l1 1 1 2v2-10q0-2-3-6-3-3-3-11v-8l1-3 1-4v1h1v1h1v1h1v1h1v1h1v1h1l5 8q5 7 9 16 2 8 2 17t-4 17-7 12q-3 5-5 6t-2 2-25 17q-25 15-26 16l-1 1h-2v1h-1v1h-2v-4q-1-4-5-26-4-21-5-35t1-19q0-6 2-11t7-11 13-10 20-5 12 3q0 3-12 12-11 8-11 10-1 1 10-4 10-6 7 10-4 17-5 18-2 0-9 6-6 6-9 11t3 1q5-5 6-6zm-7-35q1 0 1 1t-1 1-1-1 1-1z" fill="#262324" stroke="#262324"/>
  <path d="m144 411l1-1 5 1q4 1 10 5 5 6 9 9 3 4 4 8v5h-1v2l-1 1v1h-1v1t-5 5q-4 4-5 8-2 3-3 4-1 2-7 2-5 0-8-1-4-1-8-6-4-4-5-11l-1-7 1-2v-2h1v-2l1-1 1-2v-2h1t3-6l3-5h1q0-1 0-1 1 0 1-1h1v-1h1l1-1zm7 42v1h1l2 1 3 1h-9l-1-1-1-1t-3-4-3-14v-9l1 2q1 1 3 0t3-1 4-1h4l-1-4q-1-3-4-5-2 0 1 0t5 3q2 2 3 7 1 4 0 4t-3-2q-1-2-4 1-2 2-4 3 0 2 0 10 0 7 2 8 0 1 1 1z" fill="#e10102" stroke="#e10102"/>
  <path d="m996 65v-1l10 9q10 9 14 13 4 5 4 10v6l-1-1-1-1v6h-1v-1h-1v-1h-1v-1h-1v-1h-1v-1q-1 0-1 0v-1t-2-1-3-5q-1-5-2-8t-3-4q-1 0-10-4l-9-4q-1-1-1-1-1-1-3-1t-3 2v3h-1v1h-2l-1 1h-1v-1l-1-1v-6h1v-1h1v-2h2l9-1q9-1 9-2z" fill="#ad2126" stroke="#ad2126"/>
  <path d="m804 22l-1-1h1q1 0 6 9 6 9 6 14 2 5 2 6v1h-1q-1 1-1 1t-4-8q-4-9-7-12l-2-2v-2q-1-2-1-3t1-1 1-2z" fill="#291b1a" stroke="#291b1a"/>
  <path d="m637 721v2h2v1q0 1-9 6l-9 4v-1q0-1 1-1t0-2l-1-2 8-4q7-3 8-3z" fill="#301b1b" stroke="#301b1b"/>
  <path d="m148 353l5 2v1h1v1l-8 1q-9 0-17 5t-11 8q-4 3-4 3v1h-1v1h-1v1h-1v1h-1v2h-2v-2h1v-1h1v-2h1v-1h1v-1l1-1q1-1 6-7 5-7 11-10 5-3 10-4 4-1 8 2z" fill="#1f0102" stroke="#1f0102"/>
  <path d="m327 60v-2h10l8 3q7 3 9 4 1 1 2 1h1v1h1v1l2 1q2 1 3 1v1l2 3q2 2 2 3h1v1l8 8q7 8 8 9 1 0 4 3 2 4 3 4v1h1v1l1 1 1 1v1h1v1h1v1h1v1h1l4 9q4 9 5 11v2l-1 6q0 5-3 12-3 8-3 9v1q-1 0-1 1v1q-1 1-5 16-6 15-9 20t-7 8q-4 4-4 5t-9 6l-8 5v1h-1v1h-1l-1 1-1 1h-1q-1 0-15 10l-13 9h-1v1h-2v1h-1v1l-1 1v1h-1q-2 0-5 3t-9 5l-6 2h-6q-6 0-16-2l-10-2h-2q-1 0-4-1l-4-1h-5t-5-2h-4l-3-1q-3-1-5-1h-5l-2-1q-2-1-9-2-6-1-14-6l-8-5q0-1-2-2-1 0-10-11-10-10-15-23l-6-13v-2q-1-2-3-7l-2-6v-3l-1-1-1-1v-2q0-2-3-9l-2-8v-2q1-3 2-8l2-6v-1h1l2-4q3-5 4-5t2-2 2-2h1v-2h3v2l-1 1v1h2v1h1v-2h1v13l-2 12q-3 11-1 18t8 15q6 7 10 12t4 5h1v1h1v1h2v1l1 1v1h1l2-1 9 8q9 8 16 13t8 5v1h2q1 1 1 1v1q-1 1 0 1h1l1 1 1 1 13 8q14 8 22 7 7-1 20-11t22-14q8-4 9-4h9l7-3q7-3 16-13 9-9 15-18 6-8 6-14 2-5 0-9t-2-11 1-8v-2h1v-2h1v-1h1v-1l1-1 1-1v-1t1-1q1 0 1-6t0-8q-2-3-6-11-5-7-14-16l-10-8v-1t-11-8l-11-8t-2-2q-3-2-3-2z" fill="#b40000" stroke="#b40000"/>
  <path d="m1029 126v-1h1v845h-509v-2h1v-2l1-1q1-1 3-7 2-7 2-21t-4-23-12-20q-8-12-18-19-9-7-8-7 0 0 2 0 1 0 8 6 8 6 16 10t17 5 13-1q3 0 7-3 3-3 2-4t-9-5q-7-6-16-10-10-4-20-4t-16 1-6-1 4-10l4-7h1l1-1 1-1 1-1v-2l1-1q1-1 1-1 0-1 4-13t5-29q1-16-1-26t-8-26q-6-17-16-35l-10-17v-1l-1-1-1-1v-1l-1-1-1-1v-2h2l1 1 1 1h2l1 1 1 1h2q1 0 1 1l1 1v2h1v1h1v2l1 1 5 11q6 11 7 11t1 1q1 1 2 2h2q0 1 0 1h1l1 1q0 1 1 1h1v1l6 3q6 4 14 5t10 2h1q0 1 1 1h2l11 4q11 4 15 6t6 2h2l9 2q9 0 14-1 5-2 10-5 5-4 5-4l5-3q5-3 6-3h1t0-1l8-4q9-4 9-5v-1l1-1q2 0 12 4 10 6 22 8 13 2 31 2t23 2 5 2h1v1h1v1h2v1h1v1-7l-1-2q-1-2-7-20t-11-28-10-15q-5-4-17-11l-13-7-1-1-2-1h-3v-2h2l1-1 1-1h1q1 0 5-3t10-8q5-6 11-17 4-11 8-26l3-16-1-1h-2v-1l14-4q14-4 28-10 13-6 14-7l1-1h2l1-1 2-1h1v-1h1v-1h-5l-1-1q-2-1-8-4-7-3-12-10-4-6-14-15-10-10-17-15l-8-5h-2v-1h-1v-1h2l1-1 1-1h2l15-10q15-9 18-10 3-2 3-3t4-4 5-4q0-1 5-3 6-2 22-2t25 3q9 4 17 11 8 6 12 12 4 5 8 14t4 21-4 23q-4 10-9 16-4 6-9 9-6 4-6 4v1h-3v1h-1v1h-2l-1 1-1 1h4l1-1 1-1h2l1-1q1-1 5-3t8-6q3-4 4-4t5-6 8-18q3-11 3-24 0-14-2-24-4-11-10-20-6-10-11-14t-14-8-23-7l-14-3h1v-1h1v-1h1v-1h1v-1h1t1-2 8-12q8-12 14-25t12-33l6-19 1-1v-2h3v1h1v1h1l8 6q7 4 16 8t14 6q6 2 22 1 15-1 24-4 10-4 22-9 12-6 20-8 9-2 14-2h4v-1h-1v-1h-1l-1-1-1-1h-1v-1q-1 0-6-7-6-8-7-8t-4-5q-3-4-8-7-4-4-4-5t-12-9q-10-9-20-12l-10-4h1v-1h1v-1h1v-1h1q0-1 1-1h1v-2h1v-1h1v-1t2-4q2-3 4-10 2-6 0-14 0-7-4-12-3-4-8-9l-5-4h-1q0-1-6-3-5-2-16-3t-18 1l-6 2-1 1-1 1h-1l-1 1h-2v-2l1-1 1-1v-2l9-15q8-16 19-30 10-14 12-16t3-2v-1h1v-1h1v-1h1v-1h1v-1h1v-1h2v5l-1 1-1 1v1q0 1-2 3l-1 1v1h-1v2l-1 1-1 1v1h2l2-1 3-1h1q2-2 3-2h1l1-1h1v-2h1v-1h2v1l-1 1v1h-1v1h-1v1h-1v1h-1l-1 1q-1 1-1 1t-6 2q-5 2-10 5l-6 3h-1v1h-1v2l-1 1-1 1v2l10-1q9 0 16-4t9-7 4-1q3 1 7 4 4 2 5 3l1 1h6l1 1h1l9-1q9-2 10-2h2l11-4q10-4 18-10 7-6 12-9t8-1q4 0 5 1l1 1h3-1v-3l-1-1q-1-1-2-3l-1-2-1-1v-1l6-2q6-3 7-3l3-1q3-1 3-2t1-3z" fill="#fefefe" stroke="#fefefe"/>
  <path d="m601 200l5 12q6 12 8 14 1 3 4 6 4 2 8 6 3 4 4 4 2 1 2 1v1h1l1 1 1 1h2l1 1v1h-2v1h-1v1h-1l-1-1-1-1h-1v-1h-1v-1h-1q-1 0-9-8-7-8-14-18l-6-10v-1l-1-2-1-2v-2h1v-1h1v-1l1-1z" fill="#383637" stroke="#383637"/>
  <path d="m466 304h-2q-2 0-9-2l-7-2h6q6 0 9 2 3 1 3 2z" fill="#a7383d" stroke="#a7383d"/>
 </g>
</svg>
